<?xml version="1.0" encoding="UTF-8"?>
<svg xmlns="http://www.w3.org/2000/svg" version="1.1" viewBox="0 0 1405.59 734.05">
  <!-- Generator: Adobe Illustrator 29.7.1, SVG Export Plug-In . SVG Version: 2.1.1 Build 8)  -->
  <defs>
    <style>
      .st0 {
        fill: #5f9942;
      }

      .st1 {
        fill: #69a343;
      }

      .st2 {
        fill: #81b549;
      }

      .st3 {
        fill: #cfe3bd;
      }

      .st4 {
        fill: #569041;
      }
    </style>
  </defs>
  <g id="Layer_2">
    <path class="st1" d="M1402.97,97.98c1.37-10.18-3.15-25.52-9.96-30.93-8.19-5.54-17.09.87-27.49,6.14-80.47,49.46-172.27,91.14-268.1,59.91-12.26-2.4-21.02.44-25.65,12.14-3.41,8.04-5.21,17.8-8.9,25.97-7.61,18.3-23.69,29.75-41.53,38.88-20.04,9.67-45.5,19.72-67.78,14.07-26-8.36-4.87-32.57,6.16-45.24,11.92-14.06,23.72-27.43,32.85-42.3,13.41-21.51,27-41.76,38.63-65.32,15.89-35.27,29.14-83.19-27.84-65.13-14.97,4.65-29.02,13.45-43.16,20.41-12.88,6.24-25.75,12.55-37.27,20.71-9.36,6.48-18.4,14.82-27.26,21.38-6.37,4.72-12.55,7.6-18.15,9.38-8.67,2.61-17.66,3.79-23.13,11.59-7.47,9.9-12.38,24.39-19.06,39.4-5.03,11.6-10.7,22.93-17,33.88-13.99,23.7-26.07,43.27-26.29,71.78-.6,12.01,1.13,28.61-14.92,18.91-17.75-10.21-29.54-30.53-39.3-47.9-7.54-12.93-16.41-24.2-23.86-37.08-13.19-22.79-16.71-51.79-27.12-74.79-6.89-16.17-17.62-29.67-27.81-44.07-16.49-24.34-32.82-41.37-63.37-45.56-18.2-3.17-35.84,3.84-40.87,22.41-6.73,25.72,5.82,51.88,15.24,77.52,12.19,32.49,4.06,55.1,28.89,84.33,17.05,20.55,28.46,44.73,38.13,69.74,6.72,16.42,15.57,37.78,4.46,53.73-20.53,28.2-73.41,28.4-105.41,23.64-19.2-2.68-38.33-4.28-56.65-10.58-11.02-3.76-21.43-9.74-31.11-16.1-8.17-5.36-16.26-11.28-25.1-14.34-9.18-3.29-18.86-4.45-28.33-6.82-12.99-3.04-26.83-7.74-40.46-9.81-12.97-1.97-26.57-1.29-40,.26-53.05,4.31-49.96,46.21-18.5,78.49,9.19,9.78,21.37,17.27,31.48,25.53,22.51,19.26-38.8,11.67-47.22,10.97-17.22-1.59-36.06-1.8-51.96,2.55-10.1,2.67-20.01,6.05-30.08,9.04-19.66,6.81-49.19,14.47-60.39,31.72-3.87,6.18-5.38,13.39-6.92,20.46-4.37,24.6-14.59,30.5-35.97,40.5-6.71,3.37-12.96,7.2-18.35,12.35-12.24,12.28-22.02,31.53-35.97,44.67-14.36,15.08-28.75,30.97-35.67,50.59-5.78,15.5-5.51,33.79,11.77,40.88,24.79,10.44,52.85,1.96,78.43,4.24,12.5,1.38,24.39,6.12,36.83,7.63,11.86,1.67,23.83-.84,34.93-5.17,20.01-7.52,40.26-17.69,61.6-22.33,21.46-4.92,38.09-9.17,52.02,10.89,4.91,6.25,9.96,13.45,17.84,16.03,27.48,7.37,54.86-23.81,75.84-40.49,19.82-15.6,40.7-26.65,60.68-41.06,5.74-3.65,12.84-7.27,19.16-8.86,8.09-2.44,17.47-.59,14.75,9.14-2.92,9.62-11.83,17.77-17.67,27.85-9.34,14.85-13.56,32.17-16.38,49.58-1.65,10.25-3.88,20.54-4.31,30.92-1.35,32.96,23.12,41.4,48.32,22.65,7.37-5.15,14.21-11.18,21.19-16.86,14.64-11.98,27.86-22.36,39.55-36.28,5.29-6.2,10.48-12.54,15.98-18.57,9.04-9.95,17.69-17.48,25.34-27.78,8.01-10.64,11.8-23.73,18.06-35.49,9.25-17.18,22.27-31.7,34.04-47.09,26.61-37.55,59.36-81.47,109.07-79.06,51.18,2.87,30.17,31.09,14.58,60.85-7.82,14.3-15.14,28.79-24.31,42.38-12.36,17.96-25.75,34.57-38.85,51.48-14.14,17.57-26.57,33.35-30.08,55.96-2.87,18.23-8.81,38.25-3.56,56.8,6.27,22.79,31.75,24.06,50.73,16.82,12.61-4.34,22.9-12.96,34.08-19.95,13.43-8.7,28.22-16.13,39.78-26.81,8.15-7.43,14.18-16.87,21.13-25.39,10.08-12.87,23.9-22.76,33.28-35.6,8.65-12.02,12.6-26.76,16.64-40.89,5.06-18.21,13.5-33.79,19.96-50.8,3.02-7.7,5.72-15.52,8.12-23.48,18.88-68.34,71.05-128.48,139.88-150.2,23.4-7.29,53.78-11.81,72.19,7.4,10.95,11.12,16.12,28.46,29.05,37.81,14.3,9.94,28.38-4.23,33.86-17.44,4.12-8.93,6.83-18.37,9.71-27.83,19.22-71.78,70.91-130.83,127.77-173.03,26.08-17.62,53-34.25,79.54-51.72,12.23-8.18,26.44-18.88,27.49-34.07l.02-.16Z"/>
  </g>
  <g id="Layer_6">
    <path class="st4" d="M791.85,229.41c5.78-5.62,14.59-4.74,21.46-9.57,5.35-3.64,9.66-8.69,14.99-12.33,3.38-2.34,6.85-3.27,9.96-4.22,4.12-1.4,8.7-1.6,12.75-.38,14.69,4.12,16.75,38.55,25.18,51.17,5.19,9.59,13.47,16.69,22.81,22.05,8.87,5.44,19,9.29,26.06,17.03,8.45,9.06,1.22,17.35-8.96,20.42-5.51,1.76-10.46.23-15.56-1.02-6.6-1.24-10.78,3.33-16.71,6.34-2.79,1.54-5.87,2-9.15,2.71-3.37.82-7.07,1.24-10.6,1.93-4.01.81-8.34,2.19-12.93,2.68-5.73.7-12.59.44-17.91,1.26-6.98.88-11.75,4.99-18.7,6.59-11.19,2.38-26.11-3.28-37.53-7.64-22.94-9.44-47.65-21.14-62.14-41.23-5.48-7.69-10.41-19.12-6.28-28.03,3.34-6.63,12.17-6.64,18.5-5.33,2.16.45,4.98,1.64,6.23,2.03.86.28,1.7.3,2.38-.06,1.82-1.01,3.11-2.89,5.67-3.05,10.68-.97,20.51,4.72,31.23,7.45,7.65,2.12,15.74,3.93,22.9,7.33,10.54,4.92,19.18,11.8,29.05,16.63,5.4,2.64,11.71,1.59,17-.85,3.64-1.5,8.34-4.38,9.17-7.53,1.99-5.19-3.76-7.45-8.14-8.55-6.43-1.64-13.06-2.84-19.6-2.81-9.1.34-19.42,1.09-25.83-6.48-5.54-6.15-11.17-19.51-5.35-26.47l.07-.07Z"/>
    <path class="st4" d="M653.15,294.67c1.45-7.05,8.65-7.07,13.26-2.38,2.55,2.31,5.31,5.38,7.31,7.94,1.61,2.19,3.76,3.61,6.2,3.89,3.39.41,5.74-.58,10.57-1.79,7.16-2.1,16.27-2.1,23.93-.83,13.98,1.61,26.02,4.45,38.64,9.42,12.25,4.63,26.46,12.43,38.34,18.87,35.8,19.2-8.89,30.04-26.74,35.95-9.14,2.66-17.83,5.13-26.96,7.22-3.87.82-7.72,1.33-11.63,1.76-8.06.81-15,2.67-22.59,3.69-6.52.62-12.08,3.17-18.13,5.55-6.33,2.33-13.28,4.68-19.79,5.67-8.27.8-16.24-2.45-23.99-5.01-8.82-3.32-18.5-6.84-22.47-15.88-1.8-3.61-3.15-6.67-1.72-10.18,1.21-2.89,5.67-3.19,8.63-4,2.55-.61,5.24-1.34,7.21-2.51,3.6-2.21,3.8-6.74,4.73-10.61,1.86-10.99,8.13-14.01,17.36-18.55,2.69-1.55,6.31-2.9,6.95-5.97.21-1.21-.19-2.48-.73-3.59-2.27-5.07-9.65-11.89-8.41-18.55l.02-.1Z"/>
    <path class="st4" d="M725.63,615.37c3.8-2.37,9.2-1.58,12.03,1.85,4.32,5.54-.3,12.59-2.84,18.11-1.26,2.54-2.87,5.92-3.76,8.19-.83,2.29-1.17,3.53-.57,4.32.95.68,2.03-.36,2.9-.93,6.88-4.68,24.96-33.47,35.32-24.18,2.87,3.21,3.21,9.36,2.79,13.84-1.22,9.84-5.94,18.28-8.77,27.65-1.68,4.84-4.69,9.11-8.85,11.99-4.24,2.55-8.1,2.77-10.96,7.06-2.03,3.03-3.53,6.37-5.64,9.41-6.68,9.62-15.07,18.12-24.11,25.94-5.79,4.73-12.13,9.18-19.13,11.79-11.73,4.46-24.87,2.91-31.17-9-6.22-10.85-4.34-25.19-.49-36.52,2.43-5.76,5.53-13.78,8.68-18.46,2.01-2.85,4.29-4.77,5.89-7.9,1.34-2.59,2.64-5.16,4.82-8.26,2.22-3.18,5.51-7.14,9.16-10.15,6.16-4.91,13.27-8.52,19.84-12.88,5.64-3.29,9.75-8.48,14.79-11.81l.08-.05Z"/>
    <path class="st4" d="M711.28,623.34c4.19-1.68,8.64,2.63,6.16,6.71-4.19,5.62-12.8-3.29-6.32-6.64l.15-.06Z"/>
    <path class="st4" d="M713.74,291.86c4.82,12.29-7.42,16.07-17.52,13.57-15.3-3.6-27.69-17.63-26.9-33.45-.11-7.68,4.29-14.22,12.52-13.06,4.53.76,8.22,3.81,11.61,6.84,2.78,2.58,5.4,5.58,7.95,8.47,4.45,5.2,9.66,10.96,12.27,17.47l.06.16Z"/>
    <path class="st4" d="M187.63,452.12c9.85-.24,21.11,1.23,31.88,1.43,12.55-.02,25.43-1.01,37.91-1.02,12.79-.29,25.15.98,37.75,2.39,14.3,1.56,28.36,3.45,42.51,6.85,12.07,2.98,25.2,5.53,35.65,11.73,9.89,7.16-17.22,15.94-22.7,18.37-12,4.54-24.17,8.8-35.78,13.18-46.57,18.51-100.57,30.92-145.57,50.78-3.44,1.46-13.1,5.69-14.11,5.91,9.24-4.09,26.43-9.87,37.41-13.02,29.78-8.17,57.52-13.4,86.46-23.56,35.27-12.69,70.8-27.76,107.7-35.05,10.68-1.9,41.55-10.53,36.34,8.39-4.85,13.16-15.78,23.56-25.13,33.89-6.97,7.1-14.38,14.29-22.24,20.73-9.77,7.57-19.53,13.33-29.42,20.05-5.75,3.39-8.7,8.23-14.87,9.56-4.17.74-8.05-.11-12.25-.57-2.99-.51-8.1-1-10.11-1.65-6.33-2.69-.17-12.78.39-17.67.53-2.27,2.18-10.66-1.68-8.66-8.5,5.44-6.57,2.37-14.81-.22-2.4-.27-4.57,1.8-7.14,2.02-4.8.11-9.4,1.57-14.19,2-6.35.39-11.82,2.28-17.84,4.05-3.69,1.55-26.59,11.54-19.38,17.19,5.34,3.55-5.1,8.55-8.43,8.84-3.84.92-22.88-1.94-22.45,4.21.53,2.9,4.1,7.53,1.88,10.2-2.25,2.52-9.95-3.5-13.01-4.18-6.61-2.66-14.85-.79-21.01,2.28-5.02,3.61-5.62,10.72-6.58,16.31-1.43,8.55-11.27,10.23-18.53,11.32-3.87.56-7.64,1.52-10.26,4.32-1.4,1.47-2.79,3.46-2.28,5.28.19,2.34,8.8,5.13,5.73,6.88-9.15,4.91-19.65-1.08-28.78-2.9-4.39-.79-9-.89-13.41-.13-7.09,1.51-13.69,4.78-21,6.47-11,2.64-22.61,3.22-34.31,2.63-17.07-1.06-39.67-7.17-40.64-27.09-.11-22.08,24.38-49.1,39.27-64.32,8.06-7.86,18.41-14.07,26.19-22.05,3.16-3.84,3.56-8.78,5.51-13.42,3.74-8.8,9.36-15.44,19.64-14.21,4.47.65,7.42,2.74,11.44.82,2.35-1.65,5.22-2.28,7.23-4.38,1.74-2.19,3.69-3.19,6.54-4.86,9.22-5.29,18.66-12.08,29.01-15.65,6.16-2.23,12.91-2.58,19.39-2.99,4.29-.34,7.36-1.28,11.11-1.61,5.44-.9,11.66,1.03,16.75.94,2.62.26,5.52-.1,7.73-1.68,1.46-1,2.46-2.44,3.88-3.45,1.34-1.15,2.92-1.14,2.26-2.53-1.33-1.87-4.22-1.24-5.93-2.41-1.9-1.53-2.88-4.12-4.45-5.97-1.2-1.28-2.72-2.15-4.01-3.3-1.36-1.19-2.55-2.43-4.12-3.35-1.82-1.16-4.48-2.09-5.86-3.55-2.61-2.96,1.42-3.57,4.63-3.57h.09Z"/>
    <path class="st4" d="M348.52,568.59c2,4.06-3.75,7.87-6.57,4.13-2.85-3.86,3.77-7.75,6.48-4.27l.09.14Z"/>
    <path class="st4" d="M448.63,533.98c5.77,5.36-3.77,14.25-9,9.05-3.89-4.74,3.99-12.35,8.86-9.15l.14.1Z"/>
    <path class="st4" d="M606.45,422.19c14.71-4.66,29.09-1.12,15.8,16-6.69,8.27-14.44,15.45-21.54,23.26-5.33,5.65-11.73,11.16-16.24,16.46-5.26,6.52-12.15,11.53-17.45,17.87-3.17,3.97-6.73,7.8-10.18,11.43-3.12,3.39-6.77,6.73-11.16,8.22-9.59,3.45-19.75,5.68-29.5,8.86-4.23,1.27-8.38,1.94-10.46,3.26-4.8,3.69-.86,10.59-2.27,15.66-1.36,4.92-6.92,6.65-11.56,6.71-2.36.11-5.47-.22-8.21-.77-10.8-1.94-21.63-5.4-32.53-7.05-9.8-1.66-18.51,2.54-26.18,8.67-4.22,3.42-8.77,6.43-13.93,8.14-3.47,1.29-7.19,2.58-10.8,2.59-3.25,0-7.35-.33-10.1.61-5.72,1.85-11.35,6.02-16.45,9.86-6.39,5.11-14.04,9.26-19.79,15.49-3.36,3.66-6.1,7.83-7.94,12.44-1.96,3.25-4.03,19.93-8.77,15.09-3.61-4.48-4.48-11.22-2.62-19.28,4.61-15.4,18.09-25.96,29.58-36.44,16.08-14.52,31.63-29.43,44.79-46.49,5.71-7.23,11.6-15.59,18.44-21.49,10.11-8.84,20.65-8.65,32.34-5.9,1.92.18,1.62-1.87,2.09-3.1.12-.36.41-.81.65-1.02,1.6-1.19,3.21-1.47,5.42-2.12,1.89-.49,3.78-1.08,5.62-1.85,3.77-1.57,8.77-3.64,12.62-6.47,4.18-3.03,8.06-6.32,13.18-7.74,5.45-1.63,11.63-.25,16.96.67,13.97,3.35,15.48-1.99,24.64-10.37,4.15-3.83,9.39-6.7,14.5-9.35,7.93-3.91,17.17-7.72,25.54-11.41,8.72-3.47,16.42-7.72,25.33-10.37l.16-.05Z"/>
    <path class="st4" d="M297.37,562.65c6.8,1.05,5.36,14.25-1.84,13.03-4.48-1.3-3.51-7.94-1.23-10.77.86-1.15,1.61-2.1,2.97-2.25h.1Z"/>
    <path class="st4" d="M399.37,345.76c-4.37-8.89,10.39-9.57,15.89-8.22,5.63,1.19,11.26,3.69,15.65,6.74,2.82,1.85,5.41,4.47,7.82,6.16,1.43.79,1.49-1.06,1.95-3.87.55-3.08,1.58-9.92,4.78-10.37,6.31-.07,10.39,7.56,15.11,10.97,2.99,2.33,6.08,2.41,9.21,3.29,3.46,1.15,6.62,2.63,10.14,3.79,8.45,3.69,12.95,7.63,22.77,5.9,1.65-.2,3.33-.44,4.88-.96,2.76-.88,4.63-3.02,8.17-4.65,2.82-1.26,5.84-1.69,9.15-.98,4.41,1.01,7.62,4.29,10.73,7.69,5.69,6.08,9.69,15.68,16.63,19.72,3.53,1.99,7.7,2.48,11.7,3.39,5.03,1.22,10.92,1.93,15.59,3.9,3.9,1.61,6.69,4.89,2.27,7.89-2.8,1.77-6.55,2.08-9.98,2.34-16.91.37-33.45-2.98-50.28-5.36-35.37-5.81-69.52-17.82-102.15-32.85-6.93-3.19-16.29-8.63-19.98-14.43l-.06-.1Z"/>
    <path class="st4" d="M554.51,356.83c2.76,2.42-2.59,5.56-4.73,6.63-3.17,1.63-7.5,1.91-9.65,1.23-4.61-1.79-.62-4.98,2.24-6.32,3.22-1.65,8.87-3.09,12.07-1.59l.08.05Z"/>
    <path class="st4" d="M587.1,356.61c2.4,1.73,1.03,6.48-.52,8.64-.82,1.24-2.68,2.75-3.7,1.1-1.26-1.84.91-10.52,4.1-9.78l.11.05Z"/>
    <path class="st4" d="M872.23,210.41c7.05-5.1,17.41-6.42,26.21-9.39,19.62-6.57,22.49,9.07,32.8,20.86,3.35,3.64,8.18,6.29,13.08,7.94,13.28,4.45,28.82,2.52,42.32.48,8.78-1.35,17.73-4.28,26.43-2.63,6.06,1.04,2.77,4.7.78,7.52-.99,1.47-.29,3.04.76,4.22,4.52,6.26,17.55,3.58,21.56,9.31,3.15,6.06-14.9,12.99-19.38,15.19-5.4,2.27-12.16,5.9-18.12,8.91-10.64,4.84-20.79,9.71-30.59,15.43-11.25,6.48-24.45,9.39-37.36,5.56-24.84-7.87-54.25-25.96-62.09-52.4-2.35-9.68-4.28-24.29,3.53-30.96l.08-.06Z"/>
    <path class="st4" d="M262.51,562.27c4.39-.52,9.51,6.72,8.87,10.94-.14,1.34-.76,2.94-2.24,3.01-2.93.02-4.67-2.66-6.48-5.57-1.74-2.92-3.54-6.67-.24-8.35l.09-.03Z"/>
    <path class="st4" d="M173.84,600.96c2.03,1.49,6.76,9.1,2.62,9.5-1.28-.1-2.39-.88-3.38-1.76-1.56-1.37-2.85-3.48-3.27-5.45-.76-3.17.29-5.93,3.9-2.42l.13.12Z"/>
    <path class="st4" d="M777.78,389.58c3.05-.86,4.08-3.54,7.28-5,.76-.36,1.47-.65,2.28-.93,4.46-1.34,9.3-3.08,13.97-3.75,3.84-.53,8.12-.24,11.82-1.71,3.48-1.19,7.49-3.55,10.21-5.23,1.14-.71,2.29-1.37,3.46-1.94,1.57-.84,2.87-.66,3.98-.9,1.52-.29,2.82.02,4.31.13,2.62.2,5.38-1.13,7.99-1.45,2.25-.27,4.26-.63,6.54-.55,5.46-.35,11.07-1.47,16.56-2.48,3.55-.97,7.56-1.28,10.99-.36,1.7.32,2.87.82,3.61,1.79,2.12,3.54-2,9.16-4.49,13.52-3.6,6.94-8.07,13.32-12.57,19.73-5.14,7.38-9.19,15.54-14.07,23.22-2.73,4.64-4.4,8.31-6.94,12.34-1.75,2.72-3.69,5.33-5.58,7.92-3.55,4.78-6.31,10.71-11.38,14.18-1.09.76-2.26,1.47-3.49,1.5-.88.03-1.67-.46-2.45-.81-4.37-2.42-10.85-1.99-16.17-2.66-3.42-.32-6.57-1.57-8.2-2.41-3.77-1.69-4.04,6.83-11.08,6.69-6.76.14-18.09-5.38-25.12-8.9-5.32-2.79-11.67-4.98-16.93-6.61-4.41-1.53-9.11-3.1-10.79-7.52-.58-1.59-.2-3.33.49-4.92,1.18-2.66,2.55-5.81,3.53-8.68,2.99-6.98,2.22-15.32,8.59-20.39,2.24-1.94,5.25-3.9,7.89-5.86,3.1-2.05,6.9-4.06,10.02-1.55,1.1.75,2.29,1.58,3.3,2.46.97.72,1.94,1.74,3.12,2.01.65.04,1.32-1.29,2.22-2.66,1.23-1.96,3.42-3.64,4.3-5.58.51-1.29,1.36-2.3,2.76-2.64l.05-.02Z"/>
    <path class="st4" d="M385.76,354.49c3.85-3.54,12.21-1.62,17.42.44,4.9,1.83,9.77,3.87,14.58,6.07,5.94,2.77,11.9,5.67,16.83,9.37,11.54,8.8,5.08,14.89-6.89,18.98-5.4,1.97-11,3.46-16.64,4.18-10.3,1.75-16.52-3.99-25.05-8.49-4.12-1.89-8.54-3.53-12.36-6.03-3.39-2.23-13.89-9.08-5.33-11.4,2.83-1.03,6.19-.83,8.87-2.36,4.03-2.44,4.85-7.82,8.49-10.68l.08-.06Z"/>
    <path class="st4" d="M438.35,384c12.82-6.56,28.62-2.94,41.91.77,13.36,3.17,26.86,5.24,40.55,8.11,6.92,1.38,13.18,2.28,19.5,3.49,9.05,1.94,17.73,4.7,26.39,7.36,2.86.88,5.77,1.75,8.64,2.68,3.9,1.39,9.46,2.14,9.15,5.66-.18,1.49-4.07,4.16-6.13,5.4-3.16,1.87-7.62,3.9-11.55,4.97-5.05,1.42-9.03,1.79-13.72,3.1-5.67,1.21-11.16,2.81-16.71,5.19-5.94,2.35-12.45,4.36-18.49,6.33-4.11,1.35-7.12,2.28-10.49,4.27-2.66,1.56-4.41,3.13-7.38,3.3-2.48.06-4.45-1.1-6.96-.51-3.21.61-5.8,3.08-8.57,4.8-6.3,3.76-14.85,7.74-22.36,9.93-6.89,1.9-14.84,3.68-21.1,5.93-6,2.51-12.1,4.44-18.38,6.1-9.45,3.1-19.63,7.05-29.71,7.36-8.1,1.02-14.24-1.44-21.98-4.75-11.19-3.98-25.02-8.91-36.84-11.75-12.91-2.82-25.91-3.58-39.04-4.95-12.38-1.17-25.17-3.41-37.35-4.38-11.54-.97-23-.17-34.58-.09-8.41.07-17.51-.43-26.15-1.49-12.26-1.49-22.24-5.55-33.99-6.68-4.73-.33-9.41-.28-13.63-.62-2.16-.21-5-.03-6.4-1.64-1.12-4,9.46-6.53,12.42-7.31,4.36-.95,8.63-2.16,12.34-4.57,7.94-5.1,9.96-4.02,14.81,3.61,1.16,1.56,2.95,2.17,4.85,1.93,12.96-2.88,26.26,1.31,38.49,5.16,6.24,1.4,12.59,1.85,18.99,2.31,6.82-.05,17.93-.53,22.51-6.09,1.93-3.04,1.09-6.99,1.56-10.32,0-2.15,1.06-3.42,3.02-4.16,3.07-1.52,7.31-2.18,10.61-3.99,4.18-2.32,7.42-6.13,11.71-8.24,7.42-3.07,19.54-2.28,22.96,6.26.61,1.3.93,2.9,2.38,3.43,4.7,1.52,9.04.1,14.94.34,9.09-.25,20.63,1.93,29.06.16,5.18-1.13,2.02-2.1-1.09-2.58-6.65-.77-6.35-4.89.41-5.99,6.82-1.31,15.62.16,22.16-2.43,3.73-1,7.79-5.4,11.53-2.89,1.89,1.37,3.69,3.42,5.61,4.69,2.42,1.89,4.67-.73,6.13-2.62,3.01-4.4,3.78-10.64,8.3-13.82,3.58-2.24,7.85-2.29,11.66-4.21,3.58-1.52,6.28-4.66,9.87-6.5l.1-.05Z"/>
    <path class="st4" d="M379.1,360.24c4.7.83,1.52,8.62-2.24,8.3-3.38-.96-2.13-8.74,2.08-8.31h.16Z"/>
    <path class="st4" d="M528.58,460.98c2.53,3.69-3.92,6.87-7.22,6.47-2.55-.15-2.65-2.84-1.54-4.61,1.54-2.92,6.36-4.85,8.67-1.97l.08.11Z"/>
  </g>
  <g id="Layer_5">
    <path class="st0" d="M295.67,565.14c.87-7.04,4.74-15.89,10.26-19.63,6.46-4.51,9.44.64,9.03,6.83-.67,8.81-3.78,21.46-10.64,27.25-1.86,1.28-3.79,1.37-5.61-.18-3.41-3.33-3.68-8.66-3.07-14.01l.03-.26Z"/>
    <path class="st0" d="M269.62,549.1c3.46-.94,6.78-1.35,10.16-2.2,4.55-1.06,8.89-3.88,13.57-3.94,5.99-.34,7.4,7.34,8.98,11.9,1.79,5.33,3.84,11.39,7.98,14.93,3.93,3.49,9.01,5.27,13.33,8.19,8.64,5.66,7.45,15.58,4.1,25.44-3.58,10.18-7.56,20.47-9.85,30.52-1.7,6.98-.54,14.23-3.86,20.4-4.31,6.8-11.74,6.18-17.91.16-6.37-5.88-8.47-15.28-10.24-23.65-1.27-6.06-2.73-14.11-6.38-18.03-8.26-8.27-20.36-.99-30.71.61-4.56.97-9.41-.08-13.63-.91-18.25-4.29-22.05,1.31-34.56,12.89-7.59,6.76-15.72,13.65-24.59,19.09-11.6,7.06-25.77,15.99-39.85,15.12-7.66-.35-17.64-5.57-17.84-12.46.61-2.7,3.91-2.75,5.85-4.24,2.76-2.28,3.47-4.62,5.71-8.15,3.38-6.22,8.93-9.2,15.84-9.92,17.36-1.07,12.42-14.29,19.87-25.39,6.71-10.23,20.77-9.43,30.23-3.72,2.25.98,8.06,4.98,8.59,3.48-.98-2.55-3.98-9.76-1.8-12.7,2.62-3.31,6.83-3.95,10.8-5.53,5.5-2.19,12.64-2.62,17.67-3.53,1.05-.5.75-1.34.51-2.49-.33-1.48-.66-3.37.8-5.76,8.01-12.55,23.51-17.38,37.13-20.08l.12-.03Z"/>
    <path class="st0" d="M525.01,591.13c3.04.33,4.63,3.49,5.02,8.3.8,10.77-6.47,19.19-12.91,27.17-3.03,3.87-6.4,7.48-9.44,11.3-2.49,3.23-4.06,6.76-6.27,10.04-2.17,3.3-5.37,6.96-7.32,10.82-1.87,3.63-3.48,8.26-5.51,12.01-3.05,5.67-6.33,11.18-8.93,17.11-3.87,8.42-7.87,18.37-13.72,26.34-4.31,5.42-10.35,8.48-17.06,8.1-11.72-.56-19.44-14.54-20.5-31.38-.54-9.4,1.23-18.93,4.22-27.69,2.56-7.15,5.31-13.97,9.01-20.39,4.79-9.42,12.83-1.91,17.88,3.19,2.29,2.49,4.52,4.81,5.47,7.87,1.79,6.4-.44,13.56-2.76,19.59-3.17,8.16,0,3.54,2.11.53,11.48-16.72,22.62-34.58,33.94-51.65,5.68-7.85,18.8-31.15,26.69-31.27h.08Z"/>
    <path class="st0" d="M175.5,414.08c2.63,3.49,1.94,8.47,2.58,12.71.75,5.89,1.66,12.24,3.67,17.52,3.52,9.08,11.37,14.84,17.68,21.65,3.14,3.04,5.56,7.27,9.32,9.27,6.31,4.16,4.81,5.84,1.49,11.65-3.94,6.06-11.5,4.62-17.58,2.33-7.87-2.4-16.06-6.42-23.67-9.69-12.45-4.28-17.86.49-29.87-10.3-6.96-5.82-10.13-16.46-9.52-24.84.52-7.31,6.2-12.58,11.43-17.15,6.7-5.91,15.41-12.19,24.42-14.43,3.39-.97,8.34-1.14,10.02,1.23l.06.07Z"/>
    <path class="st0" d="M805.47,256.94c4.33-.11,8.42-1.33,12.46-2.61,2.71-.79,6.02-.6,8.99-.59,3.18-.1,6.26-.21,9.38.27,3.43.42,6.51,1.72,9.55,3.26,3.47,1.68,7.52,3.05,10.36,5.61,2.4,2.09,4.61,5.44,4.28,8.46-.31,2.29-2.06,4.3-3.43,6.26-3.99,5.37-8.64,11.81-14.03,15.55-6.34,3.56-8.07,1.31-14.34.18-2.7-.24-5.33-1.09-8.15-1.88-3.33-.78-6.45-1.82-9.51-3.63-2.76-1.77-6.85-3.71-8.53-5.49-1.59-1.83-.09-4.17.09-6.27.37-2.2-1.1-4.53-2.42-6.33-2.01-2.76-5.15-6.35-6.16-8.1-1.6-2.45,1.09-3.18,3.23-3.51,2.55-.43,5.38-.93,8.09-1.18h.12Z"/>
    <path class="st0" d="M670.8,726.93c-.25-1.36.22-2.54,1.46-3.12,3.86-1.77,10.07,3.21,9.59,6.88-1.11,6.11-10.56.33-11.01-3.59l-.03-.17Z"/>
    <path class="st0" d="M787.72,442.08c2.69-3.15,5.44-1.91,9.89-2.13,2.87-.12,5.79-.21,8.66.23,4.58.61,8.35,2.53,12.31,2.77,3.12.23,6.46-.8,9.5-1,14.23-.29,11.31,10.03,6.34,19.36-2.36,4.31-5.24,8.09-8.48,11.52-5.18,4.99-7.97,11.15-15.02,11.18-3.58-.01-8.51-1.39-12.52-2.42-3.58-.86-8-1.45-12.21-1.9-2.81-.35-5.89-.62-8.21-2.16-8.58-6.49,5.26-28.67,9.68-35.39l.05-.06Z"/>
    <path class="st0" d="M690.83,636.48c-4.55-1.86-6.86-7.65-2.63-10.9,3.53-2.57,8.1-3.52,12.38-4.61,9.91-2.95,18.26.37,23.09,9.63,1.87,3.38,2.34,7.68,1.68,10.93-.24,1.37-.71,3.67-2.19,3.72-1.49.12-4.52-.83-6.8-1.33-8.06-2.11-18.22-3.79-25.43-7.38l-.11-.06Z"/>
    <path class="st0" d="M727.61,651.2c1.19.55,1.97,1.81,1.71,3.12-1.85,6.66-6.32,12.48-10.42,18.22-2.69,3.83-6.33,7.33-10.14,10.55-3.13,2.77-6.15,5.96-9.28,8.77-3.77,3.05-18.57,18.27-10.71,3.98,3.76-7.38,9.89-14.99,14.73-21.81,3.23-4.6,5.79-8.11,8.88-12.03,3.38-4.28,9.42-12.07,15.18-10.83l.04.02Z"/>
    <path class="st0" d="M871.03,539.34c-7.91-2.09-10.61-21.5-10.51-28.92.08-3.29.22-10.93,4.16-10.06,3.36,1.79,4.74,7.02,6.62,11.09,2.59,6.83,4.79,15.09,3.62,22.27-.72,3.65-1.83,5.74-3.81,5.62h-.08Z"/>
    <path class="st0" d="M770.9,627.35c2.02-1.33,4.05-2.73,6.42-2.15,3.99,1.22,6.52,5.38,6.87,9.52.75,7.49-5.4,16.12-12.95,16.7-4.11.28-8.68-.93-11.61-3.87-1.93-2.07-1.11-4.85-.28-7.22,1.86-5.46,6.53-9.5,11.44-12.91l.1-.07Z"/>
    <path class="st0" d="M752.33,618.42c4.29-3.05,5.42,3.79,4.77,6.79-.52,3.57-2.65,7.05-5.34,9.11-5.01,3.25-6.85-1.74-5.18-6.15,1.23-3.41,2.94-7.5,5.66-9.68l.1-.07Z"/>
    <path class="st0" d="M693.47,616.17c2.41,3.19-7.77,11.74-11.01,9.55-1.89-2.2,8.12-10.79,10.94-9.6l.07.05Z"/>
    <path class="st0" d="M735,645.89c1.73,2.31-.78,6.21-2.89,7.7-.97.67-2.34,1.41-3.21.45-1.62-1.97,2.52-10.33,6-8.25l.1.1Z"/>
    <path class="st0" d="M685.36,732.36c-5.23-1.62,3.28-5.12,5.1-5.98,2.76-1.44,5.88-2.64,8.74-4.1,2.88-1.58,5.66-4.81,7.24-7.26,3.13-8.32,2.8-7.17,10.74-11.73,6.18-5.05,14.35-10.23,17.81-17.39,1.31-2.59.73-5.47,1.02-8.26.39-4.12,5.32-5.65,9.08-5.76,3.43-.26,7.64,1.11,10.54.32.57-.22.84-.81,1-1.41.76-2.2,1-6.79.59-9.56-.2-3.55-1.45-7.97,1.45-10.52.85-.73,2.08-.9,3.09-.51,5.91,1.98,9.91,8.83,13.44,13.97,3.9,6.11,10.64,14.5,4.66,21.21-4.53,4.91-13.26,8.96-19.52,12.6-7.49,4.03-14.8,8.5-22.32,13.22-12.1,7.32-24.74,14.53-38.28,18.79-4.42,1.42-10.95,3.36-14.31,2.39l-.07-.02Z"/>
    <path class="st0" d="M683.99,231.02c-.52-4.48-4.34-9.15-2.77-13.61.63-.81,1.68-.76,2.65-.81,4.93-.14,8.81,4.28,11.92,8.1,2.81,3.2,6.85,9.29,9.91,2.85,2.25-6.53,2.91-13.31,5.29-20.11,1.17-3.49,2.23-7.62,4.63-10.07,9.97-8.92,21.19,16.51,26.45,23.63,3.65,5.77,7.76,11.64,11.7,17.13,2.66,3.85,6.76,9.35,7.68,12.7.6,4.15-8.1,2.13-10.5,2.85-3.1.26-2.28,5.13-3.16,6.6-.82,1-2.32.78-3.54,1.02-4.55.27-9.58,2.13-13.99,1.53-2.11-.58-2.47-3.71-3.27-5.56-.5-1.26-.92-3.63-2.67-3.26-.81.13-1.49.76-2.5,1.65-1.29,1.11-2.89,2.38-3.9,3.86-2.77,4-2.63,9.25-1.66,14.17,1.17,5.79,5.53,12.49,8.27,18.01.57,1.15,2.12,4.82-.25,3.37-3.65-2.13-8.18-6.49-11.84-10.75-7.3-8.33-13.51-17.83-18.81-27.8-5.2-9.42-8.48-15.92-9.64-25.41l-.02-.1Z"/>
    <path class="st0" d="M666.14,252.26c-.34-9.31-3.2-17.93-6-26.95-1.53-4.92-4.07-13.12-2.19-17.4.31-.44.75-.06,1.07.26,3.2,3.8,7.43,14.72,10.78,20.11,5.05,9.14,11.86,19.32,10.44,29.82-.97,5.69-4.22,9.82-3.4,15.43.44,4.25.87,8.55,2.34,12.55,3.66,7.98,10.8,15.77,19.97,17,3.99.68,7.52-.06,10.95-1.41,3.38-1.26,5.89-2.9,9.01-2.04,3.45.95,9.46,6.75,10.55,9.77.83,2.41-2,2.34-3.83,2.46-2.34.17-6.63.03-9.84-.24-5.42-.55-11.52-.81-16.92-.25-12.3.92-7.01,8.85-12.61,8.23-4.94-.99-9.28-4.51-12.91-7.96-3.31-3.29-5.94-7.2-8.84-9.88-1.95-1.86-4.15-3.42-6.3-5.06-3.22-2.44-6.2-5.81-9.95-10.8-7.5-10.41-13.18-22.91-17.5-34.89-1.48-4.97-3.28-9.52-1.14-11.35.82-.56,2.16-.17,3.09.49,4.62,3.29,6.64,9.23,9.45,13.98,1.84,3.41,3.24,7.11,5.57,10.33,1.5,1.97,3.51,3.83,5.39,5.28,1.21.94,2.31,1.65,3.58,2.33,2.16,1.13,2.79,1.66,3.4.96.45-.95-.1-1.89-.36-3.02-.33-1.14-1.07-2.69-1.21-3.75-.05-.71.56-1.15,1.03-1.65,1.19-1.42,2.9-2.56,4.12-3.88,1.96-2.18,2.18-5.42,2.24-8.37v-.12Z"/>
    <path class="st0" d="M549.27,401.07c4.72-5.42,12.1-2.61,18.89-1.22,2.58.58,5.22,1.29,7.74,2.08,5.4,2.12,18.13,4.1,17.85,11.2-1.37,6.27-9.08,8.32-14.74,7.42-7.5-1.1-14-4.95-20.59-8.76-3.35-2.28-12.12-5.88-9.19-10.67l.04-.06Z"/>
    <path class="st0" d="M497.33,446.31c-5.87-2.57,2.7-8.25,5.45-10.03,4.42-2.75,9.83-4.54,14.83-6.23,8.8-2.93,15.98-7.15,24.16-9.91,3.74-1.26,11.21-1.49,7,4.77-6.9,11.11-39.2,25.81-51.34,21.44l-.1-.04Z"/>
    <path class="st0" d="M790.47,332c5.81-.06,22.86,3.53,23.34,11.27-.38,8.16-20.33,13.5-26.44,13.57-5.58.18-.86-2.94,1.89-5.63,2.49-2.51,5.09-4.55,6.12-7.35,1.97-4.71-10.84-11.66-5.02-11.86h.1Z"/>
    <path class="st0" d="M481.14,444.79c-2.44-8.11,9.48-14.76,12.74-5.2,1.19,3.72-.15,8.85-4.23,10.04-3.4,1.06-7.43-1.24-8.46-4.67l-.05-.17Z"/>
    <path class="st0" d="M381.03,478.7c1.73.09,1.34,1.34.13,2.36-3.03,2.72-10.21,5.89-14.15,7.24-5.15,1.72-5.55-.17-2.09-2.95,3.91-3.07,11.31-6.56,15.98-6.66h.13Z"/>
    <path class="st0" d="M808.44,337.95c-4.74-4.66,3.92-10.57,7.83-13.12,4.07-2.23,8.27-4.15,12.79-5.4,4.18-1.1,7.8-2.46,11.19-4.42,1.28-.76,2.71-1.58,3.96-2.24,2.1-1.04,3.77-2.35,5.87-1.52,2.17,1,3.75,2.74,5.96,4.04,2.62,1.74,5.65,2.74,8.41,4.19,2.34,1.21,4.81,2.42,5.44,4.21,1.07,7.36-11.47,12.13-19.52,14.5-10.88,3.26-32.61,5.55-41.87-.17l-.07-.05Z"/>
    <path class="st0" d="M869.27,252.94c5.66-.17,24.9,20.16,21.66,25.92-1.37,2.08-8.54-2.71-11.9-6.29-2.64-2.24-16.95-18.91-9.87-19.63h.11Z"/>
    <path class="st0" d="M878.36,322.09c-1.38-4.25,2.57-9.2,5.55-11.73,3.71-3.54,8.56-1.38,8.11,4.16-.25,3.41-2.2,6.54-4.64,8.79-4.15,3.78-7.4,3.87-8.98-1.1l-.04-.12Z"/>
    <path class="st0" d="M907.39,284.17c3.13-.48,8.4,2.65,11.52,4.63,2.34,1.59,4.76,3.18,6.2,5.22,1.44,2.17-.97,2.4-2.58,1.98-3.73-.74-10.19-4.3-13.54-7.35-1.04-1-3.92-3.55-1.7-4.45l.1-.02Z"/>
    <path class="st0" d="M866.99,316.04c-2.39-4.94,4.73-12.57,9.3-7.82,2.68,2.63,4.06,9.32.89,11.42-3.28,1.89-8.4-.33-10.11-3.46l-.07-.14Z"/>
    <path class="st0" d="M889.59,309.13c-7.02.74-1.7-13.46,4.09-10.62,4.55,2.84.23,9.77-3.93,10.59l-.16.03Z"/>
    <path class="st0" d="M728.87,278.04c-4.34-2.45-9.07-6.09-11.43-10.34-1.94-4.56,7.45.74,8.88,1.49,3.75,2.36,7.7,5.17,9.5,8.31,2,4.43-4.51,1.98-6.75.64l-.2-.11Z"/>
    <path class="st0" d="M902.63,307.17c-4.1,6.97-9.3,2.82-5.77-3.54,3.25-5.3,9.19-2.4,5.85,3.38l-.09.16Z"/>
    <path class="st0" d="M797.78,196.38c5.66-5.95,6.69-1.04,12.4.39,2.36.69,4.86,1.09,6.37-.99,1.94-2.6,4.66-7.88,8.42-9.82,5.77-3.4,14.63-3.6,20.69-1.79,4.61,1.77,8.15,5.9,12.33,8.6,8.7,7.97,11.08,22.05,6.29,32.41-2.68,4.65-5.74-6.88-6.97-8.46-3.43-6.95-7.13-7.01-14.04-6.73-4.92-.5-7.83,1.16-11.34,4.5-2.69,2.4-5.66,3.73-7.97,6.49-2.39,2.71-4.45,5.86-7.46,8.16-12.61,8.87-23.74,9.24-24.82-9.44-.14-8.69.67-17.05,6.02-23.27l.06-.07Z"/>
    <path class="st0" d="M858.22,355.6c9.49-1.44,18.79-2.76,28.13-5.29,24.34-6.89,20,3.08,8.38,20.17-5.98,8.49-12.42,16.83-18.62,25.45-3.58,5.23-12.41,16.11-16.69,16.85-6.68,1.02,2.24-15.21,4.38-18.24,2.96-4.9,7.28-10.59,7.84-15.92.1-11.55-26.55-2.39-33.92-1.33-14.74,2.83-31.15,6.46-44.83,11.81-4.55,1.95-9.49,2.97-13.33,5.83-2.64,1.77-4.5,4.7-7.13,6.52-1.16.6-2.92-.07-4.63-.3-2.01-.29-4.17-.14-6.32.2-3.15.29-6.01,3-8.29,5.58-8.34,8.75-11.79,21.2-22.26,28.31-8.8,6.31-19.85,12.1-29.95,17.14-28.71,14.42-50.65,37.84-66.84,65.23-4.65,6.83-10,15.09-18.36,14.6-2.5-.13-5.11-.75-7.64-1.35-4.06-.88-8.33-2.05-13.53-1.42-3.99.49-7.96,1.41-11.88,2.39-5.96,1.6-12.64,3.34-17.4,6.87-7.44,5.76-10.82,15.26-16.41,22.77-6.57,8.62-10.47,18.93-17.96,26.49-3.21,3.58-6.62,5.49-6.85.28-.28-4.55,3.04-12.88,8.74-23.38,5.77-10.68,14.45-24.23,22.52-36.17,22.14-32.19,46.13-63.93,72.58-92.7,13.1-14.78,30.01-23.04,48.38-29.18,4.29-1.44,8.66-2.89,12.97-4.13,8.78-2.63,18.39-3.6,26.63-4.58,8.91-.94,17.01-4.11,25.31-8.04,11.33-5.15,25.07-8.78,36.29-12.86,8.44-2.77,16.87-4.47,25.29-7.25,17.8-5.23,36.77-12.76,55.26-14.34l.12-.02Z"/>
    <path class="st0" d="M876.87,190.54c4.64-10.13,14.66-29.42,25.19-33.19,3.33-.26,1.47,5.49.25,8.07-2.55,6.83-7.45,12.77-8.06,19.23-.46,4.22.95,8.04,5.41,9.16,3.95,1.21,8.24,2.6,12.29,1,3.7-1.07,7.52-3.81,11.22-1.76,1.32.7,2.22,1.97,1.97,3.44-.56,3.32-3.24,6.04-5.98,7.87-3.7,2.46-9.37,3.2-13.42,5.23-2.31,1.27-4,3.09-6.09,4.58-2.42,1.8-4.79,4.21-7.99,4.85-4.43.93-9.5-.11-13.31-2.54-8.26-5.98-5.08-17.32-1.56-25.75l.08-.18Z"/>
    <path class="st0" d="M675.43,387.64c-7.27-4.3-1.47-12.41,3.59-15.86,3.71-2.7,8.56-2.02,12.6-1.97,3.73.42,7.65-.4,11.61-.2,1.9.11,3.8.34,5.6.64,1.85.38,3.21.57,3.94,1.8,1.12,1.6-1.4,6.1-4.46,8.4-7.96,6.85-23.57,12.1-32.78,7.24l-.11-.06Z"/>
    <path class="st0" d="M496.48,535.7c-1.14-3.57-6.51-10.37-4.08-14.21,1.79-2.14,4.52-2.9,7.27-3.59,4.48-.92,10.26.73,15.11.54,4.73-.39,7.75-3.04,11.42-5.33,1.99-1.18,4.35-1.9,7.07-2.58,2.55-.57,5.27-.64,7.78-1.1,3.26-.64,7.69-1.75,10.27-.14.59.43.78,1.04.74,2.16-.06,1.19-.51,2.97-1.03,4.98-1.44,7.51-5.96,14.96-10.06,20.92-2.62,3.87-4.9,8.17-7.94,11.61-3.81,4.56-9.53,6.91-14.74,9.49-3.02,1.51-6.16,3.22-9.03,4.55-2.97,1.59-5.47,1.97-8.16,3.39-2.83,1.4-5.1,3.25-8.1,4.02-3.43.85-8.81-.44-9.61-4.12-.57-4.58.9-9.43,3.43-13.39,1.74-2.71,4.01-5.11,6.01-6.74,3.73-2.79,5.64-5.87,3.67-10.39l-.02-.06Z"/>
    <path class="st0" d="M550.06,511.3c-.09-8.71,8.25-14.57,14.23-19.73,4.37-4.03,8.15-8.17,11.96-12.73,5.92-7.1,16.77-9.77,7.98,4.13-4.11,6.62-9.25,13.6-14.62,19.51-3.15,3.61-18.09,19.53-19.54,8.92v-.1Z"/>
    <path class="st0" d="M446.46,615.68c4.19-1.79,10.75-3.09,14.66-.26,4.17,2.9,4.06,7.55-.3,10.18-4.27,3.1-10.48,2.9-15.06.42-5.51-2.54-4.14-8.28.53-10.26l.16-.08Z"/>
    <path class="st0" d="M447.55,539.46c.59-4.55,5.56-7.43,9.9-5.84,4.18,1.35,7.19,5.94,7.1,10.07-.12,3.62-2.73,6.81-6.45,7.37-5.97.87-11.5-5.84-10.56-11.47l.02-.13Z"/>
    <path class="st0" d="M394.11,555.87c2.79.09,5.95.69,8.83.29,3.51-.8,7.11-1.23,10.32-2.67,3.89-2.19,7.07-6.43,10.53-8.84,3.21-2.92,9.45-3.26,10.86-7.88.75-1.94,1.42-4.47,2.6-6.32,2.5-3.18,7.7-2.58,9.83,1.16.91,1.58.99,3.55.97,5.37-.06,5.8.04,12.84-1.3,18.77-1.49,6.57-6,13.11-11.11,18.1-10.57,8.94-24.41,13.9-38.2,14.98-6.1.5-13.47-.93-17.55-2.57-5.25-1.78-7.23-5.25-5.56-10.64,1.25-5.27,4.91-11.19,8.93-14.76,2.84-3.48,6.21-5.54,10.77-4.99h.09Z"/>
    <path class="st0" d="M341.56,575.92c2.31,4.86-3.12,9.93-7.63,11.6-2.42.95-6.47,1.29-7.33-1.79-1.16-5.46,10.49-15.38,14.9-9.91l.07.1Z"/>
    <path class="st0" d="M345.79,591.16c1.37-1.02,3.24-1.67,5.14-1.81,3.62-.53,9.79,2.26,7.01,6.21-2.53,3.22-9.13,4.49-12.46,2.85-3.11-1.41-2.37-5.42.15-7.13l.16-.12Z"/>
    <path class="st0" d="M371.5,567.14c1.76-2.65,6.85-7.11,9.24-3.06,1.27,2.48.35,7.86-2.16,10.37-5.4,5.19-11.56-1.28-7.19-7.13l.12-.18Z"/>
    <path class="st0" d="M444.82,542.8c4.31-3.91,8.33,6.24,5.7,9.63-.92,1.53-2.84,1.73-4.17.52-2.49-2.16-3.57-7.33-1.64-10.01l.11-.13Z"/>
    <path class="st0" d="M340.68,569.16c2.95-.87,6.01,2.04,6.95,4.7.29.82.47,2.21-.47,2.59-2.64.79-10.67-4.73-6.61-7.23l.13-.05Z"/>
    <path class="st0" d="M302.92,283.69c7.23.49,11.43,4.87,14.82,10.66,4.14,6.28,8.03,12.34,14.65,15.59,5.97,3.3-5.46,4.65-9.36,4.98-10.01.6-21.58-2.64-30.78-7.38-8.24-3.85-14.71-11.05-7.73-19.15,4.36-4.78,12.45-5.28,18.25-4.71l.15.02Z"/>
    <path class="st0" d="M410.97,293.94c10.12.8,19.85,8.58,28.06,14.49,12.4,8.56,25.62,18.08,40.02,23.06,9.56,3.07,19.26,3.13,29.25,4.14,9.51.86,18.66,2.8,28.04,4.71,19.56,4.37,40.64,5.14,60.28,1.09,4.38-.93,8.69-2.22,12.89-3.77,13.26-4.95,26.35-10.82,37.07-20.07,3.46-2.86,7.14-6.6,10.32-9.37,1.98-1.75,4.48-3.58,6.63-3.73,4.17-.38,7.41,2.81,8.92,6.79,2.28,6.23-1.77,13.6-6.08,17.75-4.36,4.05-12.31-1.04-14.56,6.53-.83,2.62-.81,5.61-1.52,8.34-.45,1.84-.91,3.64-.93,5.45-.19,3.59.2,7.16-.16,10.7-.76,3.73-3.58,7.65-6.88,4.63-2.18-2.13-3.26-5.94-5.98-7.71-1.49-1.09-4.44-1.42-5.29.51-.44.85-.64,1.64-.85,2.55-.97,6.66,5.12,14.05,11.14,16.18,4.99,1.32,9.98,2.71,14.7,5.08,3.82,2.09,16.39,6.31,14.26,10.86-3.38,4.4-11.51,6.38-17.13,8.07-8.33,2.42-17.6,4.18-26.34,5.55-14.59,2.24-30.64,2.14-45.06-2.07-4.36-1.55-9.9-3.6-9.08-6.37.8-1.88,3.07-2.93,3.87-4.75.81-2.34-3.96-3.47-6.03-4.08-5.98-1.05-11.79.04-17.89-1.55-5.3-1.35-10.8-3.77-14.57-7.8-2.63-2.91-4.67-6.16-5.77-10-1.3-5.5-4.42-11.07-9.97-13.11-1.55-.48-2.73.79-3.82,1.76-.86.84-1.96,1.58-2.98,2.16-1.27.79-2.49,1.73-4.87,2.16-4.81,1.15-10.39,1.37-13.85,5.28-1.54,1.89-4.12,4.09-5.89,4.83-2.51.76-4.9-2.13-6.44-4.01-2.54-3.3-4.58-7.2-8.15-9.36-2.77-1.35-5.2-.65-8.03-1.21-2.49-.41-5.17-1.95-7.63-3.3-6.35-3.26-11.63-7.86-15.81-13.1-.74-.87-1.29-1-1.38.87-.23,2.05-.56,4.13-.75,6.3-.45,3.25.19,8.46-2.93,10.16-.62.23-1.53-.48-2.07-1.03-1.35-1.31-2.54-2.8-3.74-4.35-3.8-5.81-10.51-9.72-17.64-10.64-9.6-1.69-17.93,2.9-27.62.89-15.12-2.67-34.09-11.46-45.28-21.86-6.07-4.75-24.84-28-4.59-19.98,6.15,2.1,12.37,1.92,18.51-.01,4.1-1.52,8.01-3.91,12.46-4.67,7.4-1.4,14.83.81,22.35.17,6.33-.63,12.23-3.39,18.67-3.15h.12Z"/>
    <path class="st0" d="M371.27,287.68c14.98,4.44-6.47,15.4-13.4,12.81-6.14-1.51-2.78-8.25,1.11-10.49,3.52-2.39,7.99-3.56,12.15-2.35l.14.03Z"/>
    <path class="st0" d="M275.77,309.55c-1.29-2.7-2.66-7.13.43-8.76,1.79-.61,3.82.6,5.55,1.4,4.12,2.1,8,4.58,12.54,6.21,12.68,4.43,25.15,8.78,37.61,14.59,8.45,3.69,16.52,8.03,25.02,11.85,8.05,3.65,16.78,7.54,23.32,13.38,7.16,6.42,9.62,13.49,3.07,20.9-1.25,1.61-2.38,2.75-2.88,3.65-1.58,3.16,3.78,5,6.04,6.59,7.47,4.44,15.32,6.02,24.18,6.95,5.16.53,10.92,1.03,15.72,2.55,13.62,3.95,8.51,9.82-.19,16.63-2.95,2.45-5.82,5-8.1,7.57-2.8,3.34-5.42,7.03-9.69,8.48-3.16.93-6.73.76-10.14,1.12-10.84.71-21.4,4.5-32.55,6.13-8.82,1.12-18.04.85-26.71,1.01-6.81,0-15.33.26-21.59-.31-4.95-2.06,4.5-11.24,7.47-13.62,3.71-3.07,7.52-6.19,11.91-8.31,7.26-3.46,14.86-6.86,21.92-10.73,14.37-8.48-7.26-19.4-15.29-23.96-4.63-2.56-9.39-5.36-13.36-7.95-4.2-2.8-10.13-7.3-11.67-9.14-1.55-1.78-.96-2.8.25-3.49,1.76-.89,4.37-1.35,5.99-2.74,3.73-3.04,2.8-7.32-.76-10.35-3.82-3.69-11.62-5.04-16.63-7.74-3.03-1.56-5.77-3.78-8.17-5.37-3.8-2.35-6.7-4.38-9.93-6.57-4.49-3.09-10.65-4.73-13.32-9.89l-.04-.08Z"/>
    <path class="st0" d="M249.52,396.2c10.02-3.38,20.85-3.1,30.67.97,3.54,1.32,10.37,4.23,11.22,5.83,1.5,1.75.04,3.61-1.52,4.83-4.2,2.94-4.99,8.13-5.9,12.95-1.33,6.5-4.13,12.99-8.92,17.78-5.42,5.47-12.94,7.3-20.6,7.85-17.87,1.49-34.14-6.43-51.58-7.3-8.74-.78-14.83-.64-20.51-3.68-4.99-3.21-1.4-10.85,1.86-14.7,3.71-4.33,8.41-6.7,13.48-8.39,3.75-1.39,7.55-2.48,11.33-2.06,4.27.23,7.03,3.75,10.81,5.23,1.32.66,2.13,1.09,2.9.62,2.29-1.84,2.31-5.03,3.76-7.5,4.61-6.83,15.29-9.9,22.86-12.39l.14-.04Z"/>
    <path class="st0" d="M672.34,631.53c5.36-4.25,14.94,1.6,19.19,5.14,5.86,5.81-1.63,12.56-5.43,17.08-2.99,3.73-5.08,7.78-8.28,11.22-2.31,2.76-3.47,6.81-5.53,10.05-1.59,2.7-3.32,5.45-4.09,8.43-.6,2.16-.82,4.54-1.04,6.72-.4,4.78-1.72,8.58-2.72,13.03-.94,5.55-1.94,11.95-3.5,17.48-.35,1.28-.93,3.67-1.74,1.81-2.82-7.24-2.92-16.35-2.78-24.31.81-14.67,3.48-27.2,6.57-40.65,1.3-5.94,2.31-11.88,4.51-17.62,1.12-2.89,2.5-6.3,4.78-8.33l.07-.06Z"/>
    <path class="st0" d="M833.47,428.59c2.15-3.38,6.78-5.99,10.83-6.69,5-1.01,7.86.55,6.61,5.97-.88,4.16-2.78,9.24-6.95,11.33-3.08,1.61-7.17,2.08-10.2.29-3.24-2.32-2.22-7.72-.38-10.79l.07-.12Z"/>
    <path class="st0" d="M311.15,457.63c3.17-1.62,10.96-.88,15.59-.52,7.97.61,17.73,4.81,25.01,6.34,3.49.8,6.98,1.45,10.38,2.49,4.16,1.33,8.57,2.66,11.17,5.82,1.94,2.2,2.58,4.48.71,6.55-4.38,3.78-13.45-.86-19.94-3.15-5.09-1.96-10.54-3.96-15.79-5.44-4.54-1.29-8.86-3.04-13.43-3.89-3.69-.7-7.47-1.13-10.75-2.67-3.1-1.45-5.34-3.62-3-5.48l.06-.04Z"/>
    <path class="st0" d="M195.93,455.31c.96-2.94,3.55-3.1,7.75-4.1,7.74-1.35,16.22-.07,24.16.7,4.63.95,12.73,1.9,14.17,5.1-.33,4.64-8.05,6.59-12.18,7.27-4.1.33-8.18.11-12.15-.35-3.05-.41-5.78-1.46-8.86-1.98-4.36-.64-12.63-1.11-12.9-6.58v-.06Z"/>
    <path class="st0" d="M160.49,602.38c7.32,3.32,7.85,15.96-2.46,12.92-3.78-1.07-7.02-4.36-6.35-8.28.61-4,5-6.43,8.69-4.7l.13.05Z"/>
    <path class="st0" d="M246.87,535.72c12.1,1.86-5.77,12.22-12.14,5.77-1.18-1.04-1.25-2.9-.25-4.03,1.11-1.17,2.43-1.37,4.3-1.74,2.5-.42,5.45-.37,7.92-.03l.17.02Z"/>
    <path class="st0" d="M296.84,533.39c3.23,2.02-.4,11.76-4.86,12.02-3.98-1.02,1.35-13.43,4.76-12.07l.1.04Z"/>
    <path class="st0" d="M203.36,577.5c-1.76,2.61-7.37,3.48-9.36.54-.83-1.2-1.03-2.63-.33-3.94,1.69-3.63,11.24-.28,9.76,3.3l-.06.1Z"/>
    <path class="st0" d="M423.83,435.7c-1.25-2.49-.42-4.69,3.61-3.76,5.85,1.89,11.34,6.89,15.29,11.67,7.43,9.04-.77,8.16-6.8,4.93-5.2-2.55-9.87-7.84-12.05-12.73l-.04-.1Z"/>
    <path class="st0" d="M532.4,397.45c3.07-4.24,16.5,1.77,15.44,6.89-1.9,3.7-16.94-3.71-15.48-6.81l.03-.08Z"/>
    <path class="st0" d="M426.21,441.65c1.96,1.55,3.31,4.96,1.46,7.04-1.22,1.47-3.66,1.4-5,.04-2.98-2.72-1.62-10.53,3.42-7.17l.12.09Z"/>
    <path class="st0" d="M378.54,472.85c-2.03-5.2,6.04-9.24,8.15-3.67,1.58,5.39-5.41,9.86-8.09,3.84l-.06-.17Z"/>
    <path class="st0" d="M1095.41,132.02c9.44,4.24,18.37,10.02,23.72,18.73,2.74,4.24,5.03,13.03-1.25,14.73-2.12.37-3.86-.29-6.37-1.33-1.18-.26-15.96-8.18-11.11-3.83,8.8,8.01,21.42,13.62,32.71,16.4,7.29,1.86,17.58,2.96,23.81,2.16,1.42-.12,2.72-.19,4.15-.28,7.26-.62,14.48-2.65,21.73-2.27,2.77.16,10.85,1.15,7.61,4.78-2.76,2.31-6.59,4.73-10.18,6.49-5.34,2.73-9.78,6.29-15.66,8.56-10.09,4.26-19.73,9.65-29.14,15.32-8.99,5.11-18.6,10.28-27.52,15.63-11.07,5.67-21.44,11.22-32.13,17.16-16.3,7.98-32.52,15.89-49.11,23.43-10.61,4.83-22.65,9.35-33.65,13.92-9.16,3.38-17.29,8.13-26.6,10.43-8.45,2.1-14.09-1.35-4.68-7.54,10.18-6.23,22.71-8.96,32.22-16.78,5.15-3.77,10.96-9.25,16.28-10.66,2.48-.68,5.09,1.15,7.61.56,1.97-.39,3.9-1.17,5.77-1.9,1.05-.44,2.93-1.29,3-2.24-.13-1.86-1.53-3.48-4.61-4.78-4.27-2.03-24.93-3.04-19.23-11.05,1.35-1.97,3.16-3.99,4.25-6.06.7-1.24,1.25-2.51,2.04-3.73,1.21-2,3.46-5.49,5.71-7.49,5.3-4.67,11.87-8.53,18.06-12.29,10.22-6.04,19.61-14.15,25.15-24.68,6.68-11.82,6.81-27.72,10.31-39.79,4.27-14.34,13.73-17.72,26.99-11.61l.14.06Z"/>
    <path class="st0" d="M597.5,460.73c1.85.71,2.55,2.59,2.25,4.49-.46,4.77-8.36,8.94-11.45,5.78-3.51-4.3,4.64-11.87,9.04-10.33l.16.06Z"/>
    <path class="st0" d="M516.85,371.46c-1.2-3.61,1.64-6.62,4.56-8.04,1.81-.73,2.54.13,4.62,2.04,3.57,3.74,5.62,9.36,6.68,14.21.94,4.03,1.13,9.68-4.61,7.14-5.95-2.17-9.84-9.52-11.22-15.23l-.03-.12Z"/>
    <path class="st0" d="M871.84,217.98c1.22-2.58,5.49-5.19,6.88-1.51.94,3.11-.52,7.37-3.16,10.72-1.14,1.46-3.12,3.14-4.48,3.68-2.81,1.18-3.11-1.09-2.64-3.06.63-3.24,1.64-6.68,3.33-9.68l.08-.14Z"/>
    <path class="st0" d="M1002.43,227.27c2.89,1.55,3.94,5.38.08,6.21-3.57.96-7.46-3.29-6.25-6.27,1.21-2.13,4.25-.99,5.99-.05l.19.11Z"/>
    <path class="st0" d="M1000.56,235.85c5.01,3.46-4.08,7.66-7.04,5.81-1.9-1.2-1.87-4.97-.68-6.61,1.74-2.24,5.55-.3,7.57.71l.14.09Z"/>
    <path class="st0" d="M408.55,537.43c1.9-1.8,10.15-4.37,11.56-1.72,1.28,3.19-1.7,10.45-4.85,13.55-1.58,1.56-3.17,2.28-5.11,2.6-4.1.41-8.89-.41-7.98-3.94.68-2.85,3.41-8.23,6.26-10.4l.12-.09Z"/>
    <path class="st0" d="M488.3,543.66c-3.08-.9-4.6-5.87-4.33-9.03.15-2.14,1.17-3.34,2.25-3.01,3.44,1.2,7.11,11.69,2.19,12.05h-.11Z"/>
    <path class="st0" d="M591.78,430.03c1.97,3.91-13.54,9.93-16.67,11.74-5.33,2.68-10.96,4.74-16.07,7.5-2.71,1.42-4.68,3.18-7.05,4.55-2.97,1.27-5.87,2.55-8.5,4.46-3.38,2.51-7.22,7.04-9.73,10.99-1.93,2.55-5.09,12.04-8.98,8.98-3.63-2.85-6.38-6.43-11.09-8.7-8.24-4.45-19.75-2.95-26.14,3.95-1.6,1.66-1.96,4.19-2.29,6.42-.17,2.55-.98,4.67-3.54,5.47-6.11,2.28-13.45.66-19.73,1.25-3.81.29-4.06.59-5.1,4.11-.42.95-1.28,1.51-2.32,1.41-3.73-.37-7.54-4.35-7.87-8.28-.05-10.76,25.07-16.15,34.07-19.3,11.73-3.77,23.76-7.05,35.27-10.66,13.64-4.13,27.26-9.02,40.7-13.26,6.63-2.11,14.09-5.23,20.99-7.57,2.73-.9,5.94-1.97,8.43-2.57,3.13-.68,4.92-1.12,5.62-.51l.03.02Z"/>
    <path class="st0" d="M853.6,390.81c2.57,3.58,1.78,11.8-3.38,12.82-6.18.52-2.55-6.04-.44-10.2.75-1.29,2.01-4.13,3.74-2.7l.08.08Z"/>
  </g>
  <g id="Layer_3">
    <path class="st2" d="M1405.59,101.42c.26,11.26-15.89,20.24-24.28,26.11-13.09,8.44-25.91,17.44-38.87,26.05-6.15,4.13-13.08,8.85-19.51,12.03-1.81.86-3.24,1.68-4.8,1.9-.43.02-.74-.04-.78-.45-.18-1.47,6.21-8.17,7.74-10.85.72-1.1.3-1.56-1.68-.95-11.38,4.43-23.49,12.51-34.4,18.3-9.79,6.32-19.12,12.46-29.77,16.84-5.34,2.57-11.19,4.98-16.48,7.97-7.59,4.08-14.37,8.6-21.95,12.46-4.29,2.14-8.57,3.9-12.85,6.2-5.76,2.7-10.87,6.98-15.89,10.9-3.86,2.48-6.42,5.22-10.56,5.73-3.18.17-6.49-3.02-13.76-1.18-5.8,1.41-11.6,3.8-17.2,5.94-12.24,4.6-24.73,9.36-36.45,14.69-11.92,4.72-23.48,10.48-35.2,16.01-7.36,3.34-15.92,7.13-21.38,11.8-3.25,2.64-6.25,5.52-8.93,8.65-3.94,4.9-8.03,10.11-14.23,12.14-5.64,1.95-11.42,5.08-15.34,9.38-2.75,3.03-6.81,5.56-11.01,5.44-2.7-.51-5.16-1.79-7.73-2.77-5.07-2.46-8.08.17-10.95,4.3-2.03,3.02-5.2,5.17-8.53,6.68-9.89,3.14-21.17,2.28-31.16,5.95-12.33,4.28-24.74,10.93-34.52,19.45-13.1,11.77-22.39,27.71-32.78,42.17-10.47,15.02-21.28,29.71-30.31,45.62-9.17,16.51-16.68,35.46-24.39,52.81-6,13.89-13.73,28.44-19.99,41.88-2.08,5.24-3.48,10.37-6.33,14.85-4.33,7.39-9.17,12.19-14.67,19.89-8.29,11.93-15.29,25.69-24.18,37.23-.82,1.04-1.6,1.97-2.3,2.77-2.01,2.27-3.43,3.45-4,3.46-.56-.08-.24-.9.36-2.39,3.27-6.55,8.42-13.87,12.54-20.67,5.68-9.43,11.42-19.59,17.53-29.5,16.67-26.34,28.95-56.41,41.27-84.74,2.21-4.81,4.61-9.44,6.95-14.14,6.21-12.55,11.1-25.99,17.48-38.59,6.42-12.64,16-24.14,24.37-35.71,6.8-9.41,15.65-18.56,20.65-28.13,5.27-9.1-6.74-11.88-2.83-16.25,4.43-3.75,9.36-5.32,15.47-7.72,39.73-13.92,77.8-30.77,117.06-45.61,28.55-11.3,56.1-24.72,84.06-36.96,83.62-36.47,163.51-80.46,242.26-126.29,7.35-4.43,15.01-9.19,22.29-14,7.94-4.87,26.87-20.58,29.92-8.76v.09Z"/>
    <path class="st2" d="M1345.47,86.64c7.46-3.27,17.57-8.51,25.65-12.51,6.53-3.5,25.88-11.32,15.58.16-3.33,3.54-8.4,7.26-12.91,10.23-27.72,17.44-55.64,34.62-83.59,51.5-1.66,1.04-17.34,9.9-15.92,5.55,3.85-5.32,10.56-9.14,15.62-13.38,7.09-5.6,3.44-6.24-4.86-3.59-6.31,2.07-13.37,5.04-19.77,7.55-26.98,10.92-55.13,17.76-84.07,21.82-12.36,1.79-25.14,2.72-37.49,2.21-8.07-.23-16.46-.94-24.02-3.36-10.96-3.07-20.51-9.92-30.85-14.6-5.28-2.29-10.9-4.14-14.01-5.91-1.19-.7-2.6-1.34-3.04-2.59-.12-1.15,3.13-1.39,8.41-.39,10.48,1.87,20.35,8.24,30.07,12.57,47.69,21.6,112.54.71,160.36-18.63,25.41-10.35,50.33-26.31,74.67-36.55l.15-.07Z"/>
    <path class="st2" d="M556.72,74.6c-3.58-4.22-6.35-17.18-7.51-24.63-6.1-39.35,16.64-56.07,53.56-44.28,31.76,9.29,38.4,19.72,56.7,46.02,5.81,8.11,13.01,15.49,18.45,22.86,4.67,6.21,8.3,13.88,10.85,21.7,8.15,25.94,14.75,52.96,27.59,77.09,7.26,11.76,16.55,20.01,23.02,32.24,3.96,7.02,6.94,14.92,10.96,21.99,4.35,7.92,9.44,14.31,15.97,20.29,4.71,4.7,12.96,10.88,16.07,15.52,1.16,3.64-11.82-3.57-13.05-4.44-16.37-9.62-28.54-23.77-33.71-42.17-1.46-4.54-3.04-9.19-5.1-13.34-2.39-4.92-5.69-9.12-9.09-13.36-7.29-8.58-13.69-18.89-17.13-29.81-4.63-13.7-8.39-27.79-12.42-41.77-2.57-8.38-4.82-18.25-8.5-25.65-5.32-11.8-17.11-17.48-24.05-28.15-6.54-10.35-11.3-22.01-19.11-31.55-8.45-10.65-21.47-15.68-33.76-18.94-6.65-1.67-13.72-1.42-19.85-4.07-3.18-1.38-6.8-2.66-10.39-2.55-10.98.64-21.3,11.11-22.56,22.51-1.34,8.83-.4,17.52,1.22,26.36.75,4.22,1.5,8.46,2.07,12.65.52,3.93.46,5.87-.22,5.51h-.02Z"/>
    <path class="st2" d="M428.13,295.79c-.33.78-1.37,1.56-2.94,2.38-3.07,1.59-7.07,2.9-10.61,3.77-7.45,1.57-15.27,3.26-22.64.53-8.54-2.99-14.6-10.47-22.37-14.68-4.59-2.49-9.32-3.35-14.78-3.23-3.51.02-7.03.36-10.43.56-6.52.29-12.75,1.78-19.12,1.17-3.86-.32-7.59-1.36-11.43-1.89-7.13-1.03-14.46,1.04-20.97,4.04-5.66,2.48-10.25,7.37-13.53,12.68-2.54,3.6-6.48,11.44-9.83,11.96-1.41-.61-.2-4.66,1.12-9.05,4.33-14.66,16.71-26.47,31.73-29.98,8.65-2.22,17.68-1.47,26.48-2.06,8.27-.47,16.61-1.56,24.88-1.25,11.35.04,21.38,5.22,30.58,11.58,7.7,5.47,17.55,8.14,26.1,8.67,2.9.51,19.33,1.09,17.77,4.75l-.02.04Z"/>
    <path class="st2" d="M1014.37,100.76c1.3,1.8-1.54,7.49-4.64,11.19-11.35,14.88-28.9,23.68-43.35,35.57-10.42,7.63-23.38,11.67-21.97-6.19.03-2.99-1.48-5.64-2.01-8.99-.28-2.83-.92-6.36.58-8.59,4.58-3.74,13.61-5.57,20.19-8.3,10.12-4.51,19.88-9.21,30.7-12.49,4.93-1.34,18.14-6.4,20.47-2.25l.03.06Z"/>
    <path class="st2" d="M652.02,315.94c-4.36,5.69-13.49,12.75-20.76,16.43-11.28,5.89-22.63,10.92-35.14,12.59-8.37,1.32-16.55,1.23-25.06,1.04-14.93.05-30.04-1.63-44.46-5.61-5.97-1.46-12.12-2.47-17.93-4.14-15.32-5.27,6.7-3.33,11.56-2.38,5.69.88,11.64,2.43,17.36,3.72,34.39,8.31,68.83.63,99.23-16.44,2.42-1.1,17.66-10.55,15.22-5.28l-.03.06Z"/>
    <path class="st2" d="M331.01,395.08c5.34-.39,12.58-.81,17.31.15,1.88.39,3.14.94,3.69,1.56,1.89,3.26-8.96,6.29-12.61,7.01-5.77,1.18-11.67,1.44-17.66,1.8-13.03.46-26.68.01-39.23-3.31-9.69-2.16-18.75-6.16-28.56-7.84-3.11-.57-7.16-1.41-9.73-2.65-5.89-2.91-1.27-4.62,2.37-4.74,4.13-.32,10.65-.27,17.43,1.14,9.89,2.2,19.84,5.34,29.85,6.52,12.24,1.62,24.86,1.23,36.9.37l.23-.02Z"/>
    <path class="st2" d="M238.96,394.87c.3.92-.75,2-3.39,3.32-1.61.81-3.74,1.73-6.23,2.67-9.48,3.54-19.72,6.41-29.16,9.57-17.09,5.3-36.5,7.98-51.93,18.45-7.01,4.55-12.71,11.02-18.4,16.45-.75.68-1.52,1.47-2.28,2.03-1.82,1.31,2.65-4.52,3.15-5.22,6.4-8.63,15.59-15.99,25-21.34,11.36-6.7,24.24-10.16,36.71-14.98,9.81-3.01,39.19-19.34,46.51-11.04l.03.08Z"/>
    <path class="st2" d="M1064.99,183.25c3.36,1.8-6.41,12.38-8.67,14.46-12.92,12.21-29.65,20.16-45.94,26.37-7.68,3.02-15.66,6.19-23.59,8.25-3.46.95-16.21,3.9-7.93-1.64,4.21-2.64,10.63-5.44,15.71-7.6,15.09-6.31,30.04-13.94,43.71-23.05,6.7-4.42,13.21-10.26,19.96-14.26,2.57-1.34,4.18-2.56,6.65-2.56l.1.02Z"/>
    <path class="st2" d="M144.19,470.93c-2.87,11.77-14.5,19.44-24.83,24.75-6.66,3.37-13.35,6.97-20.14,10.08-6.08,2.62-15.34,3.98-8.71-2.6,5.22-4.84,11.1-7.59,18-10.93,5.15-2.48,10.28-5.26,15.08-8.64,4.62-3.22,8.74-6.59,11.82-9.12,1.51-1.01,8.85-8.04,8.77-3.61v.07Z"/>
    <path class="st2" d="M1038.79,50.09c-.07,10.01-10.53,35.92-18.66,43.25-3.02,2.72-6.48,3.73-9.56,2.95-6.24-1.39-10.72-10.77-6.15-16.09,2.42-3.08,7.11-5.57,11.61-8.85,2.62-1.9,5.11-3.9,7.55-6.1,4.79-4.21,9.44-9.9,13.39-14.52.98-1.02,1.58-1.28,1.8-.68l.02.04Z"/>
    <path class="st2" d="M891.69,472.4c.29,4.37-1.74,10.35-3.53,15.82-2.3,6.68-4.39,13.5-6.15,20.73-2.19,9.11-4.36,18.9-7.85,27.16-1.02,2.66-3.76,6.36-4.01.62-.16-2.9.53-6.83,1.03-9.94,1.98-11.75,4.95-23.5,8.76-34.68,1.77-6.07,5.43-13.54,8.95-18.28,1.29-1.73,2.42-2.96,2.8-1.48v.05Z"/>
    <path class="st2" d="M664.14,660.19c.2,8.84-2.66,25.04-2.96,35.36-.25,4.85-.32,9.75-.5,13.84-.31,4.1-.13,8.12-1.55,10.86-1.39,1.31-2.46-3.59-2.9-5.3-2.17-9.61-1.97-21.34-.36-31.74,1.39-8.98,3.52-17.52,5.38-21.68.57-1.46,2.49-5.2,2.87-1.44v.1Z"/>
    <path class="st2" d="M734.41,712.9c.35,1.05-1.25,2.99-4.45,5.63-4.67,3.96-12.52,8.84-18.8,10.82-2.49.78-9.68,2.9-8.88-.51,3.73-6.41,17.74-14.13,25.49-16.12,1.73-.45,3.66-.8,5.15-.65.81.09,1.3.34,1.47.77l.02.06Z"/>
    <path class="st2" d="M430.01,297.92c5.68,1.64,12.75,6.7,18.27,10.06,8.93,5.93,17.95,11.6,27.55,16.38,1.69,1.01,31.61,14.45,23.22,14.46-12.33-2.07-23.93-8.65-34.88-14.77-9.08-5.15-17.43-10.48-25.08-16.02-1.2-.8-13.44-10.36-9.14-10.12h.06Z"/>
    <path class="st2" d="M673.76,623.68c3.37,3.25-1.18,12.52-3.66,15.97-1.35,1.69-3.51,4.76-5.51,3.51-2.73-2.03,3.25-20.77,9.08-19.53l.09.05Z"/>
    <path class="st2" d="M86.05,501.41c3.75,1.8.07,6.27-2.49,7.7-1.92,1.25-4.55,2.22-6.68,2.1-5.28-.25-2.53-5.33.13-7.37,2.21-1.8,6.4-3.39,8.91-2.49l.13.05Z"/>
    <path class="st2" d="M581.91,609.17c.25,4.42-6.49,8.53-10.52,9.5-2.34.64-5.29.05-4.95-2.73,1.04-4.96,8.04-8.34,12.28-8.39,1.22,0,2.74.3,3.15,1.52l.03.11Z"/>
    <path class="st2" d="M673.85,727.2c1.54,1.47,2.31,3.83.24,4.96-2.5,1.45-7.75-.73-9.67-3.72-.85-1.2-1.17-2.92.21-3.8,2.75-1.41,6.93.41,9.07,2.41l.15.15Z"/>
    <path class="st2" d="M822.38,157.09c4.19.67,2.71,12.31-1.47,13.27-3.48-.7-2.25-13.36,1.36-13.28h.11Z"/>
    <path class="st2" d="M966.57,230.27c-.75,1.79-17.29,2.73-18.94,1.49.42-2.29,17.71-3.29,18.93-1.53v.04Z"/>
    <path class="st2" d="M1067.65,166.39c1.08-.44,1.68.52,1.79,1.49.49,2.71-1.66,8.62-3.81,10.55-3.3,2.9-3.2-2.97-2.44-5.1.59-2.39,2.36-5.97,4.33-6.89l.12-.05Z"/>
    <path class="st2" d="M779.1,691.75c-2.32,3.9-9.97,1.39-7-3.27,2.42-3.3,9.05-1.21,7.09,3.1l-.09.16Z"/>
    <path class="st2" d="M1166.2,258.78c-.12,4.59-3.24,10.78-5.24,15.57-6.14,13.07-14.37,24.64-19.92,38.16-3.02,7.13-5.67,15.8-8.35,22.7-1.93,4.84-2.35,3.6-1.99-.51,1.63-19.62,11.74-38.23,21.61-55.1,1.37-2.12,12.5-23.95,13.89-20.86v.05Z"/>
    <path class="st2" d="M1282.41,190.87c-1.42-.6-.81-2.13-.23-3.55,1.48-2.89,5.23-7.09,8.86-6.38.57.22.84.77.8,1.36-.17,2.97-5.11,9.08-9.32,8.59l-.11-.03Z"/>
    <path class="st2" d="M701.08,277.33c-9.52-17.01-19.25-34.88-28.53-52.09-6.57-11.28-12.76-22.33-18.2-34.08-6.21-12.99-11.16-27.56-16.26-40.76-3.38-9.06-7.67-17.7-11.45-26.69-7.62-17.57-14.74-34.67-23.16-52.1-4.11-8.92-9.61-18.6-12.77-27.76-.26-1.25.11-1.41,1.03-.44,6.85,7.86,14.97,22.34,20.31,32.49,6.53,13.06,12.42,25.04,18.07,37.95,5.07,11.9,10.2,25.99,15.69,38.51,11.12,23.63,20.84,47.64,32.94,70.6,6.01,11.44,12.72,21.13,19.39,32.51,6.25,9.98,12.58,19.51,20.03,28.27,7.86,8.85,17.06,16.72,27.25,22.99,11.37,6.98,23.71,13.1,36.01,18.8,12.28,5.58,24.99,10.64,38.2,13.01,12.33,2.39,25.11,1.23,37.32-1.43,7.88-1.53,22.54-4.73,13.57-.31-9.31,4.3-20.44,7.01-32.97,11.05-7.3,1.83-20.57,7.67-26.89,3.9-2.91-1.57-6.91-6.29-11.2-9.31-6.85-5.15-17.7-9.54-26.28-13.29-12.58-5.54-25.29-10.23-37.83-15.65-19.78-8.77-24.57-17.97-34.18-36.01l-.09-.15Z"/>
    <path class="st2" d="M297.93,306.14c6.17-.19,17.04,3.68,24.11,6.59,6.39,2.57,12.56,5.17,19.23,8.16,16.61,7.21,33.65,15.33,50.21,22.99,11.66,5.28,24.54,10.55,36.17,16.06,22.55,10.65,45.03,19.53,69.85,24.38,19.84,3.25,40.62,5.85,60.21,10.26,20.79,4.62,42.17,10.63,63.67,8.41,6.22-.49,12.38-1.59,18.52-2.72,4.57-.65,16.3-3.26,17.06-.56-1.75,3.81-18.12,8.47-24.48,10.36-17,5.19-29.36,9.44-46.32,2.55-5.07-1.79-10.32-4.27-16.21-5.57-4.93-1.09-9.94-2-14.84-3.17-25.63-5.99-52.37-9.74-78.05-16.41-11.44-2.82-23.13-5.43-33.82-10.2-10.25-4.5-20.24-9.72-30.55-14.66-10.96-5.03-21.93-10.16-32.9-15.17-15.79-6.83-31.88-12.6-47.11-20.62-4.95-2.51-9.68-4.96-14.48-7.31-3.46-1.82-29.16-12.28-20.34-13.36h.08Z"/>
    <path class="st2" d="M722.89,387.71c3.55.96-8.4,5.69-9.42,6.01-10.57,3.46-19.85,7.06-30.62,10.92-28.41,9.97-40.29,21.49-60.21,43.17-17.91,19.42-35.19,39.8-51.72,60.23-13.54,17.38-22.89,36.39-33.26,55.93-10.45,20.31-24.39,38.89-37.3,57.77-10.17,14.85-20.31,28.96-30.5,44.02-3.18,4.39-9.98,14.79-12.55,16.11-.21-.26.76-2.43,2.75-5.78,4.19-7.33,10.64-16.16,15.14-23.35,4.41-7.04,8.35-13.46,12.96-20.01,4.53-6.46,9.67-12.5,13.94-19.24,4.89-7.31,8.67-15.43,12.82-23.11,4.44-8.12,9.51-15.65,14.44-23.44,6.1-9.61,10.74-19.67,16.32-29.73,3.77-6.72,8.14-13.89,12.06-19.86,17.84-27.18,40.07-51.33,60.95-76.31,4.42-5.61,13.05-14.9,8.94-19.76-3.06-3.18-14.35-2.19-16.3-2.96-.39-.14-.51-.4-.19-.71,3.05-2.04,6.6-2.9,10.66-4.31,26.22-7.56,52.8-14.42,78.76-21.8,6.72-1.83,16.08-4.26,22.29-3.79h.05Z"/>
    <path class="st2" d="M872.66,347.31c.79.86-.51,2.74-3.62,4.86-2.47,1.72-6.11,3.65-10.16,5.4-11.27,4.99-23.29,7.8-35.14,11.17-11.75,3.84-22.9,7.51-34.55,10.76-10.59,3.22-21.16,6.43-31.61,10.12-10,3.14-20.19,6.75-30.71,5.88-5.42-.46-6.09-2.86.07-6.38,3.92-2.35,9.95-4.73,14.92-6.36,36.42-11.34,74.6-23.87,111.13-33.31,4.17-1.06,9.26-2.18,13.06-2.58,3.65-.36,5.89-.32,6.59.41l.03.03Z"/>
    <path class="st2" d="M273.64,520.32c4.13,2.57-12.99,10.45-15.57,11.51-10.72,4.56-22.61,8.12-33.57,11.37-11.66,3.21-22.5,5.66-34.14,9.35-11.84,3.49-24.7,8.19-36.19,12.74-5.45,2.19-10.43,4-15.81,5.71-1.59.42-3.81,1.42-5.2.93-.54-.44,1.04-2,4.48-4.06,5.07-3.2,13-6.5,19.3-9.1,13.53-5.5,27.34-10.34,40.71-15.47,18.5-7.27,34.2-13.11,53.53-18.98,6.53-1.74,16.33-5.31,22.43-4.02l.05.02Z"/>
    <path class="st2" d="M519.18,450.51c3.1,1.02-3.65,4.13-4.7,4.74-11.23,5.44-25.6,8.6-37.53,11.33-5.96,1.32-11.99,2.74-17.56,5.09-7,2.94-14.19,6.08-21.87,8.66-15.75,4.9-32.65,7.24-48.23,11.33-4.68.98-9.21,1.72-13.66,3.25-8.34,3.01-16.71,6.08-25.69,8.75-12.26,3.42-24.31,8.13-36.23,12.15-9.2,2.54-18.57,5.65-27.92,7.52-4.89.92-8.41.98-4.54-1.55,3.69-2.23,8.29-4.02,13.06-5.75,40.18-13.65,81.31-25.66,122.04-36.87,21.85-5.81,43.17-12.57,64.58-19.68,9.05-2.84,19.37-6.25,28.54-8.14,4.63-.95,8.13-1.31,9.66-.83l.06.02Z"/>
    <path class="st2" d="M1057.32,253.18c-2.37,2.59-8.92,5.9-13.38,8.22-5.16,2.62-11,5.37-16.4,7.99-19.42,9.38-39.16,18.16-58.43,26.69-8.91,3.61-17.52,8.57-26.54,9.22-4.87.11-7.97-1.04-5.32-4.61,2.39-2.79,5.91-4.32,9.53-5.6,6.46-2.4,13.84-3.89,19.98-6.62,21.15-8.63,43.71-19.29,65.18-28.22,2.94-.98,26.25-10.84,25.4-7.11l-.02.03Z"/>
    <path class="st2" d="M715.47,376.09c.64.52-.87,1.49-1.54,1.99-10.83,6.66-27.19,11.93-39.99,16.25-3.91,1.22-7.47,2.13-10.33,2.56-2.9.46-9.49,1.01-6.73-2.4,4.33-5.08,24.37-10.31,33.88-12.87,9.19-2.71,18.44-5.23,22.49-5.64.81-.07,1.61-.17,2.2.1l.03.02Z"/>
    <path class="st2" d="M1262.76,148.32c.21.86-1.17,2.72-3.92,5.15-2.21,1.96-5.15,4.18-8.29,5.93-2.56,1.44-5.3,2.63-7.68,3.54-2.97.97-5.48,2.22-7.75,1.46-1.14-1.12.93-3.06,1.79-4.08,4.3-4.41,12.79-9.44,18.91-11.55,1.65-.46,5.95-2,6.92-.5v.05Z"/>
    <path class="st2" d="M570.16,434.06c2.84,1.65-4.41,5.39-9.67,7.38-5.44,2.06-11.08,3.7-16.64,5.5-2.01.85-31.98,10.03-21.59,2.23,8.84-6.17,38.34-17.79,47.84-15.15l.06.03Z"/>
    <path class="st2" d="M904.71,318.84c-.04.71-1.86,1.79-5.27,3.26-6.56,2.67-16.41,6.63-23.49,7-4.48-.12-1.55-2.31.71-3.37,4.44-2.34,25.04-9.98,28.05-6.94v.04Z"/>
    <path class="st2" d="M1226.46,170.42c-1.72,2.81-7.23,5.84-11.71,8.48-3.87,2.13-15.06,6.55-9.86,1.3,1.21-1.86,21.38-13.28,21.6-9.83l-.02.06Z"/>
    <path class="st2" d="M760.29,361.58c1.7-.4,9.09-1.91,6.49.93-3.18,2.95-13.51,6.33-18.03,6.68-3.63.39-5.33-.62-1.18-2.99,3.38-1.9,8.52-3.62,12.45-4.55l.26-.06Z"/>
    <path class="st2" d="M794.12,354.69c-.48,2.04-22.81,7.89-23.98,5.7.27-1.84,22.09-7.9,23.99-5.74v.04Z"/>
    <path class="st2" d="M741.6,367.18c1.95.35,3.24,2.01,1.44,3.47-1.48,1.44-5.02,2.55-7.79,2.42-2.06-.02-5.5-.75-3.91-3.02,2.14-2.36,7.03-3.43,10.07-2.91l.18.04Z"/>
    <path class="st2" d="M311.66,506.65c.14.17.1.19.1.31-.26.68-.98,1.02-1.66,1.47-2.83,1.71-9.14,3.77-12.31,3.93-4.15.22-1.24-1.8.94-2.75,3.33-1.35,9.69-3.88,12.88-3l.05.04Z"/>
    <path class="st2" d="M1109.12,231.79c-.4,1.26-2.62,2.23-3.91,3.14-2.9,1.77-6.98,3.77-10.87,5.33-3.21,1.32-11.9,4.83-10.04,2.32,2.93-3.12,21.64-12.61,24.81-10.82v.04Z"/>
    <path class="st2" d="M367.97,487.73c-.67,2.4-19.62,7.09-19.98,5.38,1.71-2.11,18.15-6.92,19.97-5.41v.03Z"/>
    <path class="st2" d="M1175.73,195.33c2.66.42.99,3.89-.74,5.19-2.28,2.07-7.6,2.92-6.69-.95,1.15-2.41,4.57-4.29,7.28-4.27l.16.02Z"/>
    <path class="st2" d="M867.72,198.35c5.29-.55.51,23.56,1.49,28.08.64,12.2,6.1,22.9,14.69,32.19,9.41,10.23,21.81,18.07,33.79,25.07,3.66,2.41,15.73,8.53,15.27,12.15-.41.78-2.24.83-5.12.14-3.87-.98-8.45-2.81-12.29-4.48-24.78-11.29-50.31-31.92-54.55-60.25-1.21-8.54-.83-18.84,2.25-26.63,1.46-3.69,3.15-5.87,4.4-6.25h.05Z"/>
    <path class="st2" d="M1125.84,174.32c5.12,2.19,9.93,4.09,12.72,5.73,6.11,3.68,1.2,4.89-3.7,4.58-18.92-.86-38.05-12.64-47.55-27.18-5.06-8.32,3.57-4.05,7.66-1.34,3.89,2.38,8.45,5.73,13.01,8.8,5.49,3.78,11.32,6.67,17.41,9.22l.45.19Z"/>
    <path class="st2" d="M534.02,656.25c-3.21-.09-.1-7.14.79-9.31,4.59-10.02,16.52-28.12,26.1-31.35,7.84-.38-4.83,18.92-7.44,22.18-4.66,6.27-13.73,16.91-19.38,18.47h-.07Z"/>
    <path class="st2" d="M509.11,670.55c3.26-3.48,10.21-8.11,8.39-.77-.95,3.77-4.13,7.77-6.93,10.8-9.41,9.73-22.98,21.29-34.91,26.65-4.92,1.65,1.43-4.72,2.88-6.2,5.17-5.31,13.19-11.98,18.53-17.27,4.73-4.86,7.74-8.83,11.93-13.1l.11-.11Z"/>
    <path class="st2" d="M535.81,658.97c2.24,5.36-9.27,10.96-11.55,5.9-1.21-4.84,8.42-10.36,11.47-6.03l.07.13Z"/>
    <path class="st2" d="M941.96,140.31c4.12-1.38,6.68,3.85,8,7.04,1.62,4.46,2.94,11.22-1.87,13.55-2.72.69-5.25-1.26-6.82-3.4-2.28-3.22-3.63-7.99-2.6-11.75.73-2.57,1.47-4.48,3.21-5.41l.08-.04Z"/>
    <path class="st2" d="M986.05,27.08c.9-6.42,6-2.4,7.2,1.92,1.83,4.37,1,9.37-3.71,5.38-1.82-1.61-3.57-4.71-3.49-7.12v-.18Z"/>
    <path class="st2" d="M960.66,114.94c1.69,2.77-4.54,8.75-7.44,7.24-3-2.64,4.97-9.41,7.36-7.32l.07.08Z"/>
    <path class="st2" d="M828.2,144.64c.64-8.81,6.19-19.29,9.66-28.56,3.93-8.78,6.73-18.72,13.1-25.97,8.85-9.19,23.03-7.16,33.7-13.44,19.49-10.67,26.97-30.27,49.83-38.42,28.33-9.3,51.37-32.71,81.34-37.17,15.77-3.21,32.07.1,31.73,19.37.44,4.64-2.77,19.2-4.8,12.07-.73-4.24.06-9.74-1.39-14.21-.99-3.96-4.2-9.16-7.98-5.03-1.98,2.05-2.96,4.75-4.55,7.15-1.73,2.92-4.27,5.56-6.44,8.21-12.22,16.54-32.18,21.46-14.67-4.2,2.02-3.65,6.61-5.58,7.41-9.61-.56-2.09-3.85-1.74-5.54-1.12-3.39,1.15-7.58,4.66-11.33,6.43-4.56,2.26-10.92,3.91-14.95,6.51-8.96,7.36,13.57,13.11,7.92,32.39-2.56,6.86-10.05,9.68-14.67,14.9-7.3,7.9-13.76,16.57-21.92,23.83-8.01,7.52-14.2,15.44-21.4,22.96-12.76,12.54-24.91,26.23-37.61,38.98-9.09,8.9-16.56,24.32-25.21,32.67-3.23-.85,3.57-12.28,4.71-14.45,3.31-6.92,11.31-13.25,8.73-21.42-1.15-3.09-4.27-6.38-5.44-9.21-.53-1.23-.47-1.8.88-1.7,26.18,3.12,22.72-8.43,38.4-23.33,3.68-3.98,8.38-6.97,12.34-10.66,6.84-7.07,11.74-15.12,18.82-21.84,3.33-3.4,7.74-5.73,11.39-8.69,4.09-3.34,7.47-7.86,11.32-11.29,3.89-4.14,7.86-8.81,8.97-14.52.76-4.52-3.11-8.14-7.95-7.12-2.23.34-4.42.96-6.61,1.34-3.32.71-7.19.24-9.58.82-5.01.93-9.11,5.19-10.08,10.11-.53,2.93-.62,5.66-.08,8.46.34,5.24-5.86,7.13-9.44,9.44-8.19,6.43-12.63,16.92-24.14,19.08-4.93,2.1-7.66-6.48-10.23-.05-2.46,5.09-4.66,10.76-7.63,15.6-3.28,5.26-7.25,9.68-11.03,14.73-6.51,6.32-9.2,3.5-16.3,4.25-3.1,3.05.22,11.05-.15,15.14.71,8.98-3.06,7.48-9.82,9.06-3.83,1.6-5.17,9.44-8.84,11.31-3.31-.09-7.26-4.39-10.48-5.59-1.92-.8-3.64-2.03-4.4-4.08-1.83-2.53,2.22-12.23-1.05-12.13-1.68.15-4.01,1.12-4.56-.97v-.05Z"/>
    <path class="st2" d="M247.43,613.18c6.86-2.48,14.84-4.6,21.96-3.1,3.34.7,8.6,2.75,6.75,6.51-3.39,3.88-9.48,4.81-16.94,6.17-10.57,1.52-21.2,2.99-31.48,6.18-10.22,2.91-22.27,8.58-31.39,10.13-3.77.82-9.37.44-3.98-3.72,3.5-2.55,8.78-4.44,13.08-5.87,6.48-2.04,13.36-3.98,19.75-6.49,7.37-2.79,14.66-7.06,22.07-9.74l.18-.07Z"/>
    <path class="st2" d="M319.3,609.18c6.47-7.63,11.76-9.36,5.81,2.75-2.67,5.34-6.77,11.22-10.73,15.91-2.02,2.3-9.63,11.48-10.8,8.51-.14-2.15.93-4.04,1.85-6.26,2.83-6.32,9.03-15.56,13.71-20.73l.16-.19Z"/>
    <path class="st2" d="M486.23,543.46c7.47,4.38,2.02,12.31-4.06,15.11-7.58,4.72-24.19,4.86-28.48-.05-3.93-5.08,5.33-9.96,9.79-12.31,6.41-3.26,16.69-6.01,22.61-2.83l.14.07Z"/>
    <path class="st2" d="M340.89,637.8c8.38-9.15,19.03-17.04,27.92-26.3,3.52-3.92,5.84-7.98,9.06-11.92,2.93-3.6,6.67-6.33,10.94-6.52,3.02-.19,5.74,2.07,4.59,5.14-2.43,6.04-10.75,12.39-16.18,17.39-8.86,7.54-17.75,15.48-25.93,21.31-3.37,2.69-19.87,12.3-10.49,1.01l.09-.11Z"/>
    <path class="st2" d="M730.31,438.33c12.01-1.17,31.39-.28,41.74,7.38,2.91,3.89-10.63,1.8-12.4,1.55-6.72-1-15.74-2.72-22.34-3.91-4.07-.76-21.21-3.62-7.18-5.01l.19-.02Z"/>
    <path class="st2" d="M367.41,385.51c1.75-.31,5.4-.62,4.18,1.78-.98,2-6.86,5.62-10.99,6.77-3.93,1.48-8.72.6-4.05-3.83,2.52-2.23,7.37-4.06,10.65-4.68l.21-.04Z"/>
  </g>
  <g id="Layer_4">
    <path class="st3" d="M1352.01,81.36c0-.22.17-.53.5-.92.29-.34.71-.75,1.24-1.22,1.06-.95,2.48-1.97,3.79-2.89,4.84-3.32,12.31-7.85,18.72-10.5,3.82-1.55,7.93-2.83,11.97-2.3,5.35.72,8.76,5.41,9.79,10.58,1.93,9.28-1.6,19.11-8.67,25.38-47.73,36.57-99.67,65.3-154.98,94.94-119.74,62.02-247.48,116.03-365.71,154.49-196.31,55.91-386.7,114.97-580.89,172.17-14.89,4.29-24.87,5.84-7.99-1.46,8.91-3.68,18.14-7.11,27.1-10.65,22.14-9.27,45.5-15.59,68.24-23.52,62.31-21.85,126.7-39.83,186.07-58.88,121.15-38.83,232.65-71.27,350.32-110.57,123.35-49.39,242.09-100.94,350.92-168.99,36.04-23.55,78.45-41.85,111.17-69.4,18.46-16.81-19.19,6.74-21.59,3.76v-.03Z"/>
    <path class="st3" d="M1001.39,121.57c3.11,3.17-10.57,19.75-13.13,23.39-11.29,14.73-22.3,30.05-35.34,43.46-3.93,4.25-8.04,8.44-11.75,12.77-3.47,3.66-17.08,23.18-20.77,17.22-1.81-6.08,1.4-13.08,4.24-19.03,13.49-26.58,36-49.5,58.73-67.97,4-3.03,13.6-11.37,17.97-9.87l.04.03Z"/>
    <path class="st3" d="M280.82,333.8c23.43,23.83,32.93,23.19,62.44,36.28,7.66,3.79,16.71,8.77,20.4,16.57,4.06,10.94-8.04,10.46-15.21,7.03-8.43-3.57-16.39-9.13-24.18-14.15-10.05-6.63-20.62-13.46-28.05-21.59-6.15-6.67-11.98-15.05-15.85-22.94-.54-1.18-.71-2.1.4-1.24l.05.04Z"/>
    <path class="st3" d="M625.51,221.88c-3.97-.24-14.38-15.5-19.37-21.49-2.12-2.51-26.5-34.6-18.84-32.25,4.99,2.79,8.65,7.31,12.99,11.97,8.06,9.06,15.92,20.01,21.41,30.53,2.9,5.75,4.77,9.62,3.84,11.22l-.03.02Z"/>
    <path class="st3" d="M1158.02,381.25c-.34-4.79,1.9-11.03,3.6-15.72,1.82-5,4.74-9.36,2.61,1.33-.12,1.53-4.66,16.82-6.19,14.45l-.02-.06Z"/>
    <path class="st3" d="M2.26,616.37c2.32,3.76,5.46,11.85,7.76,16.68,1.27,3.4,4.61,9.28,2.81,11.81-1.64.78-3.42-1.54-4.57-2.65-3.14-3.38-6.9-10.08-7.82-15.45-.55-3.12-.76-7.11.44-9.86.42-.86.84-1.09,1.33-.57l.05.05Z"/>
    <path class="st3" d="M273.55,313.62c3.45,2.08,5.65,9.3,6,13.26.15,1.71-.68,3.81-2.39,2.15-2.54-2.74-5.11-8.64-5.11-13.03.06-1.69.61-2.6,1.42-2.41l.08.02Z"/>
    <path class="st3" d="M708.37,729.59c-.85,2.84-16.91,5.18-18.9,3.39-1.69-2.87,18.18-5.8,18.89-3.45v.06Z"/>
    <path class="st3" d="M898.32,459.02c1.63,2.61-1.52,8.53-3.05,11.21-.73,1.04-2.22,3.72-3.24,2.63-1.33-1.95,3.12-14.05,6.23-13.88l.06.04Z"/>
    <path class="st3" d="M803.82,654.17c-1.44,5.28-7.87,14.23-11.51,19.21-.84,1.05-4.57,6.07-4.47,4.15,2.03-6.05,8.43-15.07,12.82-20.75.51-.55,2.86-3.71,3.16-2.66v.05Z"/>
    <path class="st3" d="M589.94,590.44c1.4,2.76-.99,7.82-2.89,10.23-.86.99-2.3,2.61-3.23,1.23-1.51-2.01,3.06-13.44,6.05-11.54l.07.08Z"/>
    <path class="st3" d="M899.91,150.86c.46,1.44-.38,2.93-.82,4.52-1.38,3.88-3.42,7.71-5.47,11.47-4.73,8.53-10.32,18.63-15.07,27.47-2.89,5.24-4.82,9.25-7.87,13.41-4.92,6.02-2.05-7.63-1.35-10.01,1.05-4.18,2.57-8.57,4.32-12.67,3.23-7.67,8.05-15.42,12.79-22.06,2.95-4.12,5.22-6.89,8.45-9.76,1.15-.92,3.92-3.34,4.99-2.38l.02.03Z"/>
  </g>
</svg>