<?xml version="1.0" encoding="UTF-8"?>
<svg id="Layer_1" xmlns="http://www.w3.org/2000/svg" version="1.1" viewBox="0 0 261.96 305.77">
  <!-- Generator: Adobe Illustrator 29.7.1, SVG Export Plug-In . SVG Version: 2.1.1 Build 8)  -->
  <defs>
    <style>
      .st0 {
        fill: #ede1df;
      }

      .st1 {
        fill: #d09661;
      }

      .st2 {
        fill: #edc59c;
      }

      .st3 {
        fill: #fddebb;
      }

      .st4 {
        fill: #c68648;
      }

      .st5 {
        fill: #dfb081;
      }

      .st6 {
        fill: #d1b9af;
      }
    </style>
  </defs>
  <g id="mJMPkn.tif">
    <g>
      <path class="st3" d="M134,4.01c-3.36,3.25-4.77,7.52-5.99,11.97l-5.98-2v11.98s-3.99-1.01-3.99-1.01c.86,3.48-3.2,5.66-3.79,7.69-.76,2.58-.33,6.25-1.26,9.71-1.61,5.94-3.01,4.46-2.93,11.53.04,3.21-.68,11.17-.07,13.4.29,1.06,2.12.08,3.13,1.19,1.74,1.9,1.34,5.67,1.92,7.36,1.2,3.49,6.48,14.2,10.47,14.03.62-.03.07-2.86,1.99-2.04l1.57,3.94,2.93.05v-4.01c.67-.03,1.33,0,2,0,.21,1.55-.7,2.33,1.49,2,1.04.05.29-1.46.51-2,.27-.68.95-1.76,1-2,4.16-.34,9.91,3.48,8.98,7.99,3.04.53,1.7-1.11,1.99-3v-1l1.97-.03c.23-.62-.13-1.52.03-1.97,1.54-4.38,4.23-4.55,6.98-7.98l6.95.97c.58-4.64,3.87-6.72,6.01-11.45,4.48-9.88,1.16-14.31,3.01-21.77.13-.51,3.84-.83.98-5.66-.06-.09-1.23.16-1.66-.34-.51-.59-.2-1.49-.33-1.66-.14-.18-2.14-2.1-2.99-2.99,2.77-.05,2.79,2.79,2.99,2.99.45.44,1.86,1.9,2,2,8.93,6.22,29.3,6.66,41.44,12.93,3.5,1.81,10.38,8.49,11.43,9.02.44.23,2.11-.4,2.83.13l.16,1.87c-1.27-.78-2.8-1.89-2.99-2-.37-.21-6.22-2.17-7.75-2.73-7.34-2.69-7.17.12-11.79.75-2.56.35-4.67-1.79-7.37-.53-1.34.62-4.13,4.17-6,5.08,2.55,3.67,2.13,7.1,1.98,11.4-5.07,1.71-4.64-7.2-8.43-6.02-.8.25-4.76,7.82-5.69,9.36-.86,1.42-2.93,2.69-3.38,3.69-.83,1.85,1.06,6.94.48,10.38-.16.97-4.42,13.49-4.85,14.1-.67.94-6.91,5.07-8.31,5.66-1.92.8-4.3.36-5.48,1.02-.46.26-.56,1.82-1.92,2.51-2.49,1.26-6.53,1.03-9.3,1.22-.33.02-.67,0-1,0-.28-2.74-2.84-4.55-4.99-5.99.06-2.59.7-12.43-3.84-9.77-.59.35-.62,3.29-2.63,2.78l-2.52-8.97c-1.41.05-2.96,5.48-2.98,5.98l-2,5.98-7.97-1.99v6.99s-2.99,0-2.99,0c1.73-4.17-2.1-8.87-2.11-11.48,0-2.44,2.61-3.96,2.14-6.82-.05-.28-3.09-2.53-4.01-4.15-2.79-4.92-6.52-18.72-9.97-4.53,3.89,0,5.48,2.22,4.97,6.02h-5c-1.7,5.12,2.76,10.6,3.09,14.47.78,9.18-2.6,21.11,3.9,28.44.15.17-.06,1.4,0,2-4.8.2-1.92,3.5-2.31,5.32-.43,2.02-2.88,4.37-1.68,7.66h-5c-.54-1.41,1.44-7.57-1.47-6.97l-2.56,1.65.05,5.31h-4c1.29,3.76-1.79,3.9-2.31,5.19-1.27,3.11-.09,6.31-.88,9.07-.83,2.9-8.44,5.59-4.52,9.43.75.73,2.21.77,3.07,1.37,5.61,3.95-4.63,3.71-5.67,6.13-1.92,4.45,3.06,4.44,2.33,6.21l-5.04,3.13.95,8.81-2.88,1.57v1.96c3.26-.01,3.66,3.72,3.01,6.3-.33,1.28-4.03,1.15-4.01,4.69-.57.22-1.72-.15-2.48,0l-.5,1.98c2.57-.25,2.31,2.4,3.51,3.95,1.36,1.77,8.42,9.19,9.71,9.76s3.22-.02,3.63.35c.25.23,2.02,6.06,2.04,6.4.27,5.68-10.2,12.92-15.77,11.32.83-2.2-5.76-8.1-6.14-5.27l-1.98,4.43c.07-1.81.67-7.35-2.34-6.85l-3.56,2.01.92,3.84-5.08,1.66c-.42,4.04-2.09,6.85-3.9,10.32-.34.66-1.69,1.36-2,2-5.25.8-8.67-2.25-8.09-7.49.24-2.15,2.21-1.69,2.98-3.07,1.32-2.37,8.44-14.85,7.1-16.38l-4.37.95-1.76-3.81c-5.3,1.13-3.8-3.24-4.99-4-.83-.53-2.83.26-3.67-.26-1.2-.73.77-8.9-4.14-11.38-3.48-1.76-4.49,1.51-6.48,1.56-.28,0-.97-3.51-4.49-2.03,2.9,4.78-2.51,6.27-2.81,10.65-.09,1.29,1.47,2.21,1.56,3.07.9,9.23,1.24,19.01,3.47,27.56.44,1.67,3.39,1.93,4.25,3.61,2.38,4.63.97,11.25,9.49,11.96,0,.32-.04.69,0,1,.43,3.09,4.04,6.67,4.09,7.45.34,6.15-4.74,5.48-8.63,2.53l-.45-7.99c-1.75-.28-3.63,1.24-5.28.85-1.8-.43-3.75-5.49-5.68-2.85-8.37-13.7-24.46-51.45-24.01-67.36.2-6.98,1.11-4.51-.88-11.18-1.88-6.3-1.38-22.12-1.04-29.22l2-1.49c.18,5.74-.23,13.37,1.05,18.9,1.11,4.79,6.46,7.91,3.01,14.9l3.92,1.62c.96-11.93-1.28-25.72,0-37.42.47-4.32,3.1-7.45,3.76-11.21.42-2.39-.79-11.07,2.71-10.24,2.07.49,1.62,7.13,3.99,5.98,1.2-.58,5.18-9.88,5.52-11.46.61-2.92-5.38-.97-7.34-1.49-1.06-.28-.57-1.95-.66-2.01-.1-.63.15-1.46,0-2,2.02-4.17,5.43-5.98,8.32-9.09,2.48-2.68,7.11-9.22,9.55-11.45,3.48-3.18,7.52-2.95,9.05-9.97l4.97.57c2.69-4.92-.92-7.26-.96-11.96l6.97,1.99c1.27-5.17,5.61-11.32,11.83-10.12l1.14-4.84c-2.96-.43-10.81,4.18-10.94-.41-.16-5.8,5.99-6.54,8.41-9.61,3.39-4.31,3.91-7.76,8.12-11.28,4.65-3.89,9.68-7.45,14.06-11.63,5.51-1.08,9.7,7.49,15.77,3l1.4-4.85c-.33-.57-7.77-2.57-4.14-4.12l2.1-.11.13-3.9-5.51,2.1c-2.57-2.44-3.66-2.5-7.46-2.11,1.18,8.09-5.57,2.45-5.98-1.99,2.06-.96,6.27-1.63,6.98-2,4.17-.9,4.49,3.5,8.97,1.99l-3.99-5.98c3.22-1.62,5.86-6.83,8.98-7.98.39-.14,1.28.3,1.83-.14.78-1.08.64-2.83,1.16-3.86,1.23-.15,2.61.34,3.83-.13l1.28-3.73,5.86-.13V2.01c1.76-.67,4.45-1.28,6.36-1.99,3.37-.34,5.98,3.16,7.6,3.99ZM84.12,88.82c4.43-3.13,10.74-10.81,12.41-16.04,1.57-4.94-1.31-5.72-5.87-4.88-.72.13-8.68,4.58-9.01,4.97-.83,1.02-.82,2.94-1.53,4.27-.63,1.2-5.66,9.78-5.83,10.39-.79,2.83,1.47,4.8-.37,8.5-2.31,4.65-7.77,3.39-10.46,12.52-2.55,8.65,1.22,5.82,1.73,7.9,1.33,5.44.63,11.32,1.01,16.64.19,2.73,2.65,5.6,2.8,7.29.14,1.59-2.28,2.93-3.04,4.59-1.54,3.34-1.97,4.47-3.73,7.46-.63,1.07-2.91,5.92-3.21,6.1-.98.57-6.23-1.56-9.12-.85-.7.17-.55,1.59-1.45,1.89-2.23.75-5.64.82-8.05,2.23l-.16,7.82c2.6,1.07,1.59-1.81,2.63-2.01,1.67-.33,3.54.31,5.57-.26,2.52-.7,5.15-3.6,5.48-3.67,3.03-.68,7.36.87,10.26-.53,1.91-.93,3.36-5.93,4.98-7.99,2.52-3.21,6.73-3.56,6.06-8.8l-3.08-3.17c2.25-.43,1.77-2.72,2.28-3.18.9-.82,2.99-.19,3.62-1.92.17-.48.88-9.14.84-10.09-.11-2.56-4.43-6.05-2.8-11.7.62-1.15,2.4.06,3.1-1.2,1.01-1.81,5.75-17.88,5.94-20.31.16-2.06.11-4.16-1-5.99ZM170.9,105.79h-1.98v2.98h1.98v-2.98ZM74.35,171.83c.77-1.39,7.21-2.33,4.29-8.18-3.21-6.42-13.55,4.34-16.53,6.68-.52,3.4-2.12,13.22,1.04,14.82,2.97,1.51,3.35-2.87,4.21-3.34,2.54-1.39,4.97,1.97,6.73-4.76.42-1.59-.46-3.93.26-5.23ZM57.18,174.63c-.67-1.1-.81-2.23-1.61-3.06-5.88-1.62-9.27,6.3-2.38,6.05-.12.1.47,1.72-.66,2.02-1.33.35-8.45.18-9.4-.46-1.41-1.49.15-4.29-2.91-3.55l.99,7.97c-2.7.36-6.21-.67-8.72.31-.51.2-6.84,7.76-7.04,8.42-1.08,3.62,1.89,8.61.82,12.54-.36,1.31-4.22,1.31-3.01,4.68h6.98c-3.08-13.25,12.16-12.38,1.99-2.47-.59,2.72,4.3,2.75,5.98,2.49v-4s2,4,2,4l14.39-4.87,1.58,4.87c8.09-1.79,11.86-10.93,1.92-13.54-.12-3.38,2.19-5.36,2.11-8.86-.04-1.63-.89-9.73-1.22-10.89s-1.66-1.38-1.82-1.63ZM54.69,209.55v1c.65-.33.65-.67,0-1Z"/>
      <path class="st5" d="M196.84,197.58c.34-.19,1.7.4,2.73-.24,5.28-3.25,3.14-13.37,4.41-17.1.43-1.27,2.25-1.25,2.82-2.38.52-1.04,3.89-8.25,3.98-8.73,1.1-5.56-2.67-10.52,1.13-13.92-3.2-4.92-.1-9.77-1.09-15.03-.49-2.64-2.99-1.65-3.1-3.95l2.11-3.89-1.26-3.38-6.78-2.75c1.59-5.81,7.8-13.24,7.93-19.03.13-5.71-6.03-8.86-2.74-15.23l2.83-.13-2.95-6.36c.46-1.48,5.5-2.65,7.32-3.76,1.49-.91,1.5-3.78,4.59-2.85.98-2.79-2.23-1.7-2.88-3.59-1.35-3.98,1.19-6.39,5.18-5.42.83.2,2.58,4.55,4.71,5.5,2.47,1.1,7.04-.02,7.82.67,1.06.93,3.91,11.16,4.35,11.6.61.61,3.8.68,5.83,2.65,1.71,1.67,1.93,3.85,3.39,5.61l3.53-1.05c2.28,5.64,4.39,8.31,5.99,14.97,3.11,12.97,4.65,24.62,4.99,37.92-.48-.15-1.34.2-1.96-.01-.09-7.78-.54-18.84-3.32-26.14-1.06-2.78-3.64-6.27-5.21-9.8-.99-2.23-.62-2.33-3.48-1.97-.11-.96.17-2.11,0-2.99-.14-.77-.98-.93-1-1-.14-.6.17-1.49,0-2l1.06-3.4c-.23-.99-2-.5-2.05-.59-.59-.91-1.35-5.31-2.18-5.81-.95-.58-3.2.11-4.81-.66-2.35-1.12-1.72-5.3-6.46-5.54-2.81-.14-.53,5.03-.46,7.48.31,11.6-4.45,5.01-10.03,2.54-.6.59,3.49,7.93-.99,6.98l-3-4.98c-.89,4.33,3.2,8.55,2.96,12.31s-2.38,8.79-1.94,12.97c-4.13.95-4.03,3.04-4.06,7.11.21,1.15,5.1-.38,5.05,3.03-2.91.69-1.49,2.46-2.11,3.67-.57,1.13-1.89.64-2.02,2.28-.28,3.51,1.94,7.47,1.88,10.25-.04,1.92-2.3,2.48-2.75,4.77-1.28,6.4,4.15,14.64-3.08,16.05-.7,4.31,1.69,7.15,3.12,10.85l-2.12,1.12c3.01,5.98-.99,6.51-2.45,10.35-1.71,4.51-1.69,14.03-7.18,15.77-3.49,1.11-5.13,1.92-8.01,2.96-1.3.47-8.9,1.91-9.22,2.26-.62,4.53,6.31,2.4,6.98,2.99l-1.06,3.97-9.22-.83c-2.47.54-2.24,4.06-3.7,5.31-2.06,1.75-6.79.79-8.48,2.49-.98.99-1.17,3.52-2.04,4.95s-2.81,2.31-3.25,3.78c-.95,3.23,1.72,8.71-1.08,12.62-.75,1.04-3.22.71-4.07,2.15-1.6,2.74,5.4-.14,3.98,3.47-3.27.02-5.89,2.53-7.63,5.05l-4.34-1.07c-.65-3.01,2.89-1.12,2.01-4.48-.09-.35-1.83-.38-2-1.16-1.11-5.04,1.07-11.42-4-16.3.7-2.62,1.08-4.97,2-7.98.73-2.4-.1-3.3.39-5.01,1.05-3.65,8.04-9.32-2.39-9.98-.45-.43,2.24-11.89-3-9.37l-.12,3.27-3.74,1.74-.25,15.21-4.85,1.14c-.7-5.24-1.01-8.63-2-13.97-.43-2.33.79-5.88-.48-8.01-.96-1.61-4.59-1.47-6.01-2.97-1.96-2.07-.52-7.24-4.48-6.98-2.66,4.92.69,4.78.95,5.69,1.45,5.08.15,11.17,1.03,16.25h-5.98c-2.93-2.82-3.07-1.24-4.73-2.22-.48-.28-1.57-2.82-2.25-3.76,2.79-1.01,5.03-10.98,3.99-11.98-2.53-.53-4.22.41-5.62,2.39-.29.4-.98,5.52-2.37,1.88v-2.27c-5.98-.46-4.25,6.91-6.49,11.96-1.06,2.39-3.93,5.55-4.26,6.71-.37,1.27-1.25,10.4-.72,11.29,3.91,2.85,7.71-3.92,8.2-4.04,1.87-.45,4.67.34,6.74-.04,1.29,6.35,2.24,1.58,4.55.59,1.93-.83,4.41-.6,6.97-1.52,2.21,4.84,2.84,4.57,0,8.98-2.85,1.86-5.99-.38-8.31-.04-.7.1-.75,2.62-3.35,2.84-1.66.14-4.52-1.24-5.22-.74-.37.27-1.17,4.25-2.03,5.24-1.09,1.26-5.19,1.8-5.83,2.93-.57,1.01.14,2.8-.36,3.57s-5.05,1.2-6.55,2.47c-2.05,1.73-2.21,6.27-3.8,8.65-1.81,2.71-3.9,2.27-5.12,3.36-3.91,3.52-3.6,7.74-3.33,12.64l-8.47,1.01-1.51-4.01c.24-.41-.35-2.06.08-2.86l4.9-.14c.96-2.68-1.8-1.59-2.02-2.64-.55-2.56,1.73-12.5,3.54-14.3,2.35-2.34,9.69-1.17,12.46-2.5.95-.46,7.52-10.05,7.77-11.22.72-3.48-2.75-12.5-1.74-18.68.74-4.51,10.9-14.51,2.95-16.51-2.46,7.48-10.28,13.54-7,21.94-3.78.96-11.95-8.6-11.97-10.97,3.13-1.2,5.21-2.54,8.87-2.1,2.63-3.83-.96-7.29-.94-9.32,0-.48,1.62-.41,1.97-1.31.53-1.39,1.15-6.38,2.26-7.05,1.04-.63,3.46.15,3.81-.16.31-.28.19-7.41-.14-8.37-.66-1.88-3.49-.53-2.7-3.87.43-1.81,7.54-11.37,9.82-11.71v-13.97c3.62-1.06,6.75,5.02,6.76,7.67,0,1.64-2.2,3.18-1.87,6.82.25,2.71,3.89,10.61,4.02,12.93s-2.78,5.63-1.92,8.5l3.92-.05c-.48-6.61,7.41-5.67,8.68-12.89-1.73-3.35-1.48-7.93-2.66-11.23-.63-1.77-4.2-1.23-3.94-7.14.03-.79.97-1.42.98-1.61l8.82,1.14c3.09,7.66-4.39,9.69,6.14,11.83-.09,3.31-.01,6.67,0,9.98,0,2.58-1.19,4.92-.83,7.23,1.08,6.77,7.95,14.17,7.83,21.7,2.6.41,2.04-.46,2.02-2.51-.06-6.15-2.52-15.6-3.03-22.43-.3-3.99.61-8.08-1-11.97.43.04,1.97-1.55,3.04-.59l1.13,3.41,1.81.17c.22,2.52.47,2.89,1,4.99,1.66,6.58-.3,3.68,6.87,5.11.74,1.2-1.35,11.68,2.99,9.69.21-.09,0-2.92,3.11-1.83l-.99,13.96c2.67.61,2.62-2.69,4-3.47,1.82-1.02,4.52.14,5.96-2.03l-3.99-1.49c-1.08-4.87,3.99-6.67,4.01-10.98l4.97,1v-9.98s2.96.06,2.96.06c-.93,2.38,1.92,3.09,2.04,3.65.49,2.17-1.41,4.74-.51,6.26.51.86,4.13,3.75,5.47,3.03l-.97,7.96c.21.22,5.04-.71,5.98-.99.15.51-.14,1.36,0,1.99h3.98s0-4,0-4c5.38,1.48,4.72-1.81,5-1.99.8-.51,2.77-1.32,3.99-2ZM169.91,215.55c-5.21-1.38-5.09,3.83-6.65,7.5l1.67,1.95c3.44,1.06,7.76,1.35,9.96-1.99,1.11-2.84-5.3-.86-5.97-1.49l.99-5.98ZM163.92,231.5c-5.09-.83-6.66,5.1-11.97,5.01l1.06,5.91c8.57,1.26,12.01-2.43,10.91-10.92Z"/>
      <path class="st2" d="M226.77,63.88c.2.11,1.72,1.21,2.99,2,9.19,5.68,17.49,17.07,21.54,26.99.48,1.17-.63,1.85-.59,1.95l-3.53,1.05c-1.46-1.76-1.67-3.94-3.39-5.61-2.03-1.97-5.22-2.04-5.83-2.65-.44-.44-3.3-10.67-4.35-11.6-.78-.69-5.35.43-7.82-.67-2.13-.95-3.88-5.29-4.71-5.5-3.99-.98-6.53,1.44-5.18,5.42.64,1.89,3.86.8,2.88,3.59-3.09-.93-3.1,1.94-4.59,2.85-1.82,1.11-6.86,2.28-7.32,3.76l2.95,6.36-2.83.13c-3.28,6.37,2.87,9.52,2.74,15.23-.13,5.79-6.34,13.22-7.93,19.03l6.78,2.75,1.26,3.38-2.11,3.89c.11,2.31,2.61,1.32,3.1,3.95.99,5.26-2.11,10.11,1.09,15.03-3.8,3.4-.03,8.37-1.13,13.92-.09.48-3.46,7.69-3.98,8.73-.57,1.13-2.39,1.11-2.82,2.38-1.27,3.73.87,13.85-4.41,17.1-1.03.64-2.39.05-2.73.24l1.99-3.99c-5.76-1.08-10,1.09-15.91.05-1.23,3.82-.15,6.31.95,9.93.43-.13,1.23.3,1.8-.16,1.72-1.39,1.69-9.13,7.17-3.83-.27.17.39,3.47-5,1.99v4.01s-3.98-.01-3.98-.01c-.14-.63.15-1.48,0-1.99-.94.28-5.77,1.21-5.98.99l.97-7.96c-1.34.72-4.96-2.17-5.47-3.03-.9-1.52,1-4.08.51-6.26-.13-.56-2.98-1.27-2.04-3.65l-2.95-.06v9.98s-4.98-1-4.98-1c-.02,4.31-5.08,6.11-4.01,10.98l3.99,1.49c-1.44,2.17-4.14,1-5.96,2.03-1.38.78-1.33,4.08-4,3.47l.99-13.96c-3.11-1.09-2.9,1.73-3.11,1.83-4.34,1.99-2.25-8.5-2.99-9.69-7.17-1.43-5.2,1.47-6.87-5.11l3.03-3.97,2.9.02,2.06,7.95c2.07.45,5.04-1.23,5-3.49,0-.5-5.94-4.09-4.02-8.48,14.59-.71-2.14-7.71-8.26-6-3.65,3.07-2.03,5.33-1.71,8.99l-1.81-.17-1.13-3.41c-1.07-.96-2.61.63-3.04.59-.29-.02-1.67-1.32-4.99-2,.06-2.32-.06-4.67,0-6.99.98.05,2-.07,2.99,0,3.29.25,6.77.39,10.33-.17,2.66-1.97,3.38-4,4.63-6.81h3.29c1.11-.35.61-1.94.7-2,.48-.27,2.72.46,4.01-.48.6-.44,2.16-5.19,3.7-5.47,4.46-.82,8.5,1.56,10.39-4.94l9.78.86c-.69-3.44,2.24-5.95,2.82-8.64.5-2.29-.24-4.82.19-6.58.19-.79,4.89-2.38,3.02-6.68-4.09-1.83-6.29,1.9-6.67,1.98-1.88.41-4.6-.6-6.1.25-.59.34-.69,2.5-3.14,3.33-3.05,1.03-8.67,1.99-12.04,2.43-.08-1.2-.88-1.61-1-2-1.59-5.08-1.72-4.59-5.99-6.98-.34-.19-.62-.79-1-1l-1-3.99c2.76-.19,6.8.04,9.3-1.22,1.36-.69,1.46-2.25,1.92-2.51,1.18-.66,3.57-.22,5.48-1.02,1.4-.59,7.64-4.72,8.31-5.66.43-.61,4.69-13.12,4.85-14.1.58-3.44-1.31-8.53-.48-10.38.45-1,2.52-2.27,3.38-3.69.93-1.54,4.89-9.11,5.69-9.36,3.79-1.18,3.36,7.73,8.43,6.02.15-4.3.57-7.74-1.98-11.4,1.87-.91,4.67-4.46,6-5.08,2.7-1.26,4.81.88,7.37.53,4.62-.63,4.44-3.43,11.79-.75,1.53.56,7.37,2.52,7.75,2.73ZM202.83,91.81c.74-.68-2.91-9.45-4.97-7.97-1.4,3.67-5.79,8.65-9.96,9.02,1.18,3.1.34,7.64.97,10.27.19.77,1.99.64,2.02,1.23.06,1.33-1.71,3.55-.97,5.35l5.82-.07.24-4.73,3.91-1.79.06-11.26,2.89-.06ZM192.47,139.36c1.25-2.97,1.21-6.9,2.26-10.05l-2.39-1.61-5.31,4.59.85,7.43-4,1.48c2.8.1,7.36,1.11,8.6-1.84ZM177.89,164.65c1.8,1.78-.28,4.5.44,5.99.82,1.69,5.91,3.25,6.31,5.6.21,1.24-1,3.04-.75,4.76.41,2.8,2.37,5.43,2.01,8.55,5.52.07,10.83.84,15.75-2.12l1.16-10.8c-2.6-1.06-1.61,1.79-2.62,2.02-2.41.54-4.55,0-5.64-2.29-.59-1.24,1.05-13.9,1.45-14.54.27-.43,2.77-.81,3.78-1.68,4.82-4.15,7.21-12.61,7.94-18.8l-2.41-1.66c-2.75.02-4.29,4.39-5.82,5.68-4.43,3.73-8.91,5.1-12.63,7.33,1.05-3.64-5.43-1.43-6.21-.98-1.97,1.12-2.59,2.53-6.66,4.57-1.87.94-2.92,3.27-6.09,2.4l1.99,3.47-5.97,3.03,3.15,6.26h2.68c1.61-5.98,5.06-4.99,8.14-6.79Z"/>
      <path class="st2" d="M111.05,138.71c.13,1.19.07,2.76,0,3.99-.02.33.01.67,0,1,0,.18-1.11,1.37-1.06,3.38.07,2.91,1.03,11.62,5.05,11.59-.03.66.03,1.33,0,2,0,.19-.95.82-.98,1.61-.26,5.91,3.31,5.37,3.94,7.14,1.18,3.3.93,7.88,2.66,11.23-1.27,7.22-9.16,6.28-8.68,12.89l-3.92.05c-.86-2.87,2.05-6.26,1.92-8.5s-3.77-10.22-4.02-12.93c-.33-3.63,1.88-5.17,1.87-6.82-.02-2.64-3.14-8.72-6.76-7.67v13.97c-2.28.33-9.4,9.9-9.82,11.71-.79,3.34,2.04,1.99,2.7,3.87.33.96.46,8.09.14,8.37-.35.31-2.77-.47-3.81.16-1.12.68-1.73,5.66-2.26,7.05-.34.9-1.96.83-1.97,1.31-.02,2.03,3.58,5.49.94,9.32-3.66-.44-5.74.9-8.87,2.1.01,2.37,8.19,11.93,11.97,10.97-3.28-8.4,4.54-14.46,7-21.94,7.95,2-2.21,12.01-2.95,16.51-1.01,6.17,2.46,15.19,1.74,18.68-.24,1.17-6.82,10.76-7.77,11.22-2.77,1.33-10.11.17-12.46,2.5-1.81,1.8-4.09,11.74-3.54,14.3.23,1.05,2.98-.04,2.02,2.64l-4.9.14c-.43.8.16,2.44-.08,2.86-.16.29-4.8,1.95-5.99,2s-4.23-.48-5.21-1.01c-1.64-.88-1.35-3.97-4.76-2.97v7.98s-4.99,0-4.99,0c-.43,2.08.93,4.42,2.99,4.98v2.99c.71,4.24-3.29,4.8-6.3,3.81-2.03-.66-2.03-2.84-3-3.49-2.26-1.5-6.21-2.67-8.65-4.32-3.43-4.06-4.24-5.48-6.98-9.98,1.93-2.64,3.88,2.42,5.68,2.85,1.65.39,3.53-1.13,5.28-.85l.45,7.99c3.89,2.95,8.98,3.62,8.63-2.53-.04-.78-3.66-4.37-4.09-7.45l7.98,2c-.98-2.62,2.67-8.79-.64-9.86-4.72-1.54-7.23,2.82-7.33,6.86-8.51-.71-7.11-7.33-9.49-11.96-.86-1.68-3.82-1.95-4.25-3.61-2.23-8.55-2.57-18.33-3.47-27.56-.08-.87-1.64-1.79-1.56-3.07.3-4.38,5.71-5.87,2.81-10.65,3.52-1.48,4.21,2.03,4.49,2.03,2-.05,3.01-3.32,6.48-1.56,4.92,2.48,2.94,10.65,4.14,11.38.84.51,2.84-.27,3.67.26,1.2.77-.31,5.13,4.99,4l1.76,3.81,4.37-.95c1.34,1.53-5.78,14.01-7.1,16.38-.76,1.37-2.74.91-2.98,3.07-.59,5.24,2.84,8.29,8.09,7.49-.34.72-1.26,3.72-.99,3.99,2.86,1.16,2.85-1.81,3.69-1.97,3.2-.65,4.97,1.35,5.28-4h-5.98c1.81-3.48,3.48-6.29,3.9-10.33l5.08-1.66-.92-3.84,3.56-2.01c3.02-.5,2.41,5.04,2.34,6.85l1.98-4.43c.38-2.83,6.96,3.07,6.14,5.27,5.57,1.6,16.04-5.64,15.77-11.32-.02-.34-1.79-6.17-2.04-6.4-.41-.37-2.4.19-3.63-.35-1.29-.57-8.35-7.99-9.71-9.76-1.19-1.55-.93-4.2-3.51-3.95l.5-1.98c.76-.15,1.91.22,2.48,0-.02-3.54,3.69-3.41,4.01-4.69.66-2.58.26-6.32-3.01-6.3v-1.96s2.88-1.57,2.88-1.57l-.95-8.81,5.04-3.13c.73-1.77-4.25-1.76-2.33-6.21,1.04-2.41,11.28-2.17,5.67-6.13-.85-.6-2.32-.64-3.07-1.37-3.92-3.84,3.69-6.53,4.52-9.43s-.39-5.96.88-9.07c.53-1.29,3.6-1.43,2.31-5.19h4s-.05-5.31-.05-5.31l2.56-1.65c2.91-.6.93,5.56,1.47,6.97h5c-1.2-3.28,1.25-5.63,1.68-7.66.38-1.83-2.49-5.12,2.31-5.32ZM46.21,239.49h-4.98s1,6.97,1,6.97c2.92,1.02,4.54-6.44,3.98-6.97Z"/>
      <path class="st0" d="M85.12,29.95c.41,4.44,7.16,10.08,5.98,1.99,3.79-.39,4.89-.33,7.46,2.11l5.51-2.1-.13,3.9-2.1.11c-3.63,1.55,3.81,3.55,4.14,4.12l-1.4,4.85c-6.07,4.48-10.25-4.08-15.77-3-4.38,4.18-9.41,7.75-14.06,11.63-4.21,3.52-4.74,6.96-8.12,11.28-2.42,3.08-8.57,3.81-8.41,9.61.13,4.59,7.98-.02,10.94.41l-1.14,4.84c-6.22-1.2-10.56,4.96-11.83,10.12l-6.97-1.99c.03,4.7,3.64,7.03.96,11.96l-4.97-.57c-1.53,7.03-5.57,6.79-9.05,9.97-2.44,2.23-7.07,8.77-9.55,11.45-2.89,3.12-6.3,4.93-8.32,9.09-.98-3.46.78-2.88.98-5.54.16-2.17-1.62-4.94-.97-7.43l5.97,2.99c.91-5.29,3.26-12.69,6.56-16.9,1.18-1.5,3.54-1.96,4.85-4.13,1.77-2.95.94-5.68,1.81-8.17,3.08-8.85,15.5-18.46,21.11-27.77,1.07-1.78,1.08-4.44,2.13-5.85,1.59-2.13,9.32-3.43,6.91-8.03-2.08.72-5.3-1.05-6.84-.76-1.26.24-4.87,5.63-6.59,3.75-2.4-2.6,4.87-7.64,6.51-8.99,7.04-5.76,15.77-8.91,24.41-12.96Z"/>
      <path class="st1" d="M123.02,235.5c-.2.31.54,1.33-.68,2.01-1.76.98-5.9.44-7.31,1.47-.88.64-.87,2.44-1.61,3.43-1.38,1.85-3.56,1.18-2.36,6.08l-6-.02v4.01s-3.89.08-3.89.08c-.62,5.12-4.26,8.37-3.12,13.85-5.32-.84-4.61,2.79-6.92,5.55-1.15,1.37-3.27,2.05-3.74,2.75-1.54,2.29-1.93,8.83-4.58,11.38s-8.41,4.01-12.14,3.27c-1.94-.38-2.53-2.22-4.51-1.96-.18,3.33,4.21,2.07,2.98,5.98-.76.82-6.98-2.9-5.97.48,2.28,7.65,11.76,7.12,17.94,8.5-5.14.84-9.46,1.34-14.96,1-6.11-.37-8.52-1.35-13.97-3.99l.99-11.98h-1.99s0-2.99,0-2.99c.63.17,6.99,1.09,7.35,1.05.66-.08.53-1.86,1.29-2.04,3.21-.76,8.87,1.77,9.3-3.99-4.31-.2-6.92,1.72-5.98-4,1.18-.04,5.82-1.71,5.99-2l1.51,4.01,8.47-1.01c-.27-4.9-.58-9.11,3.33-12.64,1.22-1.09,3.31-.66,5.12-3.36,1.59-2.38,1.75-6.92,3.8-8.65,1.5-1.27,6.07-1.71,6.55-2.47s-.21-2.56.36-3.57c.64-1.13,4.74-1.67,5.83-2.93.85-.99,1.65-4.97,2.03-5.24.7-.5,3.55.88,5.22.74,2.59-.22,2.64-2.74,3.35-2.84,2.32-.33,5.47,1.9,8.31.04Z"/>
      <path class="st5" d="M140.98,8c-.33,3.16,2.38,3.6,3.29,5.22.65,1.16.48,3.21,1.27,4.69,1.41,2.64,5.55,3.62,4.43,8.06,1.43-.17,2.46-.96,4.01-.59.95.23,5.51,3.56,6.96,4.57.38.27.64.73,1,1,.72.55,1.73.78,2,1,.12.1.19,1.26,1,2,.18.17.82-.17,1,0-1.41,3.21,1.74,4.01,1.94,4.71,1.14,3.93,2.62,15.31,3.02,19.77.29,3.27.64,3.87-2.97,3.45.08-1.21.13-2.82,0-3.99-.54-4.83-2.28-5.36-2.83-7.74-.42-1.8.76-3.29.56-4.59-.07-.48-3.39-8.13-3.85-8.99-2.63-4.89-4.89-3.43-8.11-4.68-.98-.38-1.67-3.42-5.74-1.93,2.75-4.25-5.94-12.87-8.94-9.96-.2.19-.03,3.49-1.15,5.38-2.26,3.8-5.23,1.73-5.86,8.56-.18,1.96.14,4.02,0,5.98-4.54-2.22-3.82.64-5.98,2-.44.28-2.22-.68-3.09.58-2.29,3.34,2.98,12.77-4.96,13.95-.14,8.12-2.41,13.84,2.06,21.39-.24-.15-.88.19-1.31-.04-.96-.51-.83-2.97-3.68-1.95-.58-1.69-.18-5.46-1.92-7.36-1.01-1.11-2.84-.13-3.13-1.19-.62-2.24.1-10.19.07-13.4l10.19-25.72,5.66-1.33-.89-6.87c4.79.74,2.33-1.58,3-4,1.22-4.45,2.62-8.72,5.99-11.97,3.37,1.72,3.49,1.46,6.98,3.99Z"/>
      <path class="st0" d="M.32,165.65c.67-14.19,3.76-28.41,7.99-41.9,1.12-.86,7.79,5.69,5.97,7.98,1.03.3,3.42-.33,3.99,0,.09.05-.4,1.73.66,2.01,1.96.52,7.95-1.42,7.34,1.49-.33,1.58-4.31,10.88-5.52,11.46-2.38,1.15-1.92-5.48-3.99-5.98-3.51-.83-2.3,7.85-2.71,10.24-.66,3.76-3.29,6.88-3.76,11.21-1.28,11.69.96,25.49,0,37.42l-3.92-1.62c3.46-6.99-1.9-10.11-3.01-14.9-1.28-5.53-.87-13.16-1.05-18.9l-2,1.49Z"/>
      <path class="st5" d="M128.01,285.38c-2.83,4.23-8.38,4.95-12.32,7.14-2.58,1.43-5.76,4.42-8.63,5.84-.43.21-1.95.57-2.99,1-1.32.54-3.11.25-3.99,2-5.05.67-9.16,3.43-12.97,3.99-5.39.79-16.17.69-20.95-2,5.5.34,9.83-.15,14.96-1,17.65-2.9,29.5-14.7,46.89-16.96Z"/>
      <path class="st2" d="M168.91,36.94c.85.9,2.85,2.81,2.99,2.99.13.17-.17,1.07.33,1.66.43.5,1.61.24,1.66.34,2.85,4.83-.86,5.15-.98,5.66-1.86,7.46,1.47,11.89-3.01,21.77-2.15,4.73-5.44,6.82-6.01,11.45l-6.95-.97c.42-.52,1.04-2.68,2-3.99,1.27-1.73,3.57-3.46,4.99-5.99,2.74.62,2.33-2,2.99-3.99.35-1.04.77-1.17,1-2.99.04-.33-.02-.67,0-1,3.61.42,3.27-.17,2.97-3.45-.4-4.47-1.89-15.84-3.02-19.77-.2-.71-3.36-1.51-1.94-4.71,1.08,1.01,1.98,1.93,2.99,2.99Z"/>
      <path class="st6" d="M140.98,8c6.1,4.41,13.43,11.2,17.95,17.47,1.03,1.43,1.92,2.63,2,4.48-1.44-1.01-6-4.34-6.96-4.57-1.55-.37-2.59.42-4.01.59,1.12-4.44-3.02-5.42-4.43-8.06-.79-1.48-.62-3.52-1.27-4.69-.91-1.62-3.62-2.06-3.29-5.22Z"/>
      <path class="st5" d="M33.24,283.39c2.44,1.65,6.4,2.82,8.65,4.32.97.65.97,2.83,3,3.49,3.01.98,7.02.43,6.3-3.81h1.99s-.99,11.97-.99,11.97c-7.86-3.81-13.48-9.49-18.95-15.96Z"/>
      <path class="st0" d="M120.03,2.01v5.99s-5.85.13-5.85.13l-1.28,3.73c-1.23.48-2.61-.01-3.83.13-.52,1.03-.38,2.78-1.16,3.86-.55.44-1.45,0-1.83.14.76-3,.04-3.64,2.99-3.99,2.84-5.66,4.86-7.64,10.97-9.98Z"/>
      <path class="st0" d="M97.09,23.96l3.99,5.98c-4.48,1.51-4.8-2.89-8.97-1.99.3-.16,2.26-2.62,4.99-3.99Z"/>
      <path class="st6" d="M163.92,31.95c-.26-.22-1.28-.45-2-1,1.04-.09,1.36.37,2,1Z"/>
      <path class="st2" d="M164.92,33.94c-.81-.74-.88-1.89-1-2,.63.63,1.09.95,1,2Z"/>
      <path class="st6" d="M104.07,299.35v1.99c-1.29.15-2.72-.17-3.99,0,.88-1.75,2.67-1.46,3.99-2Z"/>
      <path class="st2" d="M84.12,88.82c-7.02,4.96-13.01,16.29-12.69,25.2.02.64.8,5.56,2.7,3.74,3.59-7.87,4.3-17,10.99-22.95-.19,2.43-4.93,18.5-5.94,20.31-.7,1.25-2.48.05-3.1,1.2-1.63,5.65,2.69,9.14,2.8,11.7.04.95-.67,9.62-.84,10.09-.63,1.73-2.71,1.1-3.62,1.92-.51.46-.03,2.75-2.28,3.18l3.08,3.17c.67,5.25-3.54,5.59-6.06,8.8-1.62,2.06-3.07,7.06-4.98,7.99-2.9,1.4-7.23-.14-10.26.53-.33.07-2.96,2.97-5.48,3.67-2.03.57-3.9-.08-5.57.26-1.04.21-.03,3.08-2.63,2.01l.16-7.82c2.41-1.41,5.83-1.48,8.05-2.23.91-.3.75-1.72,1.45-1.89,2.89-.71,8.14,1.42,9.12.85.3-.17,2.58-5.03,3.21-6.1,1.75-2.98,2.18-4.11,3.73-7.46.76-1.65,3.19-2.99,3.04-4.59-.15-1.69-2.61-4.56-2.8-7.29-.38-5.32.33-11.2-1.01-16.64-.51-2.08-4.28.75-1.73-7.9,2.69-9.13,8.15-7.86,10.46-12.52,1.84-3.7-.42-5.67.37-8.5.17-.61,5.2-9.19,5.83-10.39.71-1.34.69-3.25,1.53-4.27.32-.4,8.28-4.84,9.01-4.97,4.56-.84,7.45-.06,5.87,4.88-1.67,5.23-7.98,12.91-12.41,16.04Z"/>
      <path class="st2" d="M57.18,174.63c.15.25,1.48.41,1.82,1.63s1.18,9.26,1.22,10.89c.08,3.5-2.24,5.48-2.11,8.86,9.94,2.6,6.17,11.75-1.92,13.54l-1.58-4.87-14.39,4.87-1.99-4v4c-1.69.26-6.57.23-5.99-2.49,10.17-9.9-5.08-10.77-1.99,2.48h-6.98c-1.22-3.38,2.65-3.39,3.01-4.69,1.07-3.93-1.9-8.92-.82-12.54.2-.66,6.53-8.22,7.04-8.42,2.51-.98,6.03.05,8.72-.31l-.99-7.97c3.06-.75,1.5,2.06,2.91,3.55.95.64,8.06.81,9.4.46,1.13-.3.54-1.92.66-2.02.68-.58,3.25-1.41,3.99-2.99ZM57.18,185.61c-4.77-2.15-6.72,3.77-7.68,4.01-4.78,1.18-11.06-2.46-12.27,5.96h3.99c-2.48,6.15.89,2.87,2.1,4.57.82,1.15.8,3.91.9,5.41,1.58.49,1.39-.15,2.02-.63,2.33-1.77,4.76-8.26,4.96-11.35l4.97,2.99-.1-4.93c-1.93-.25-3.44.77-2.89-2.05h4s0-3.99,0-3.99Z"/>
      <path class="st2" d="M111.05,136.71c-6.5-7.33-3.12-19.26-3.9-28.44-.33-3.86-4.78-9.35-3.09-14.47h5c.51-3.79-1.07-6.01-4.97-6.02,3.45-14.19,7.18-.39,9.97,4.53.92,1.61,3.96,3.86,4.01,4.15.47,2.86-2.15,4.38-2.14,6.82,0,2.61,3.84,7.31,2.11,11.48h2.98s0-6.99,0-6.99l7.97,1.99,2-5.98c-.08,2.45,2.08,4.49.48,7.97-.56,1.21-7.33,7.24-9.07,8.93-.99.96-2.47.83-3.43,1.79-1.42,1.4-4.63,5.49-4.94,7.26-.13.73-.13,4.78,0,4.99-1.46.01-2.56.56-2.99,2Z"/>
      <path class="st5" d="M143.97,53.9l3.96.34c.18-1.89,1.36-1.37,3.02-1.34.14,3.92-.5,8.8.98,12.51.93,2.34,2.92,2.39,3.08,3.14.43,2.05-1.83,5.75-1.06,8.29l4.98-.99c-.96,1.31-1.58,3.47-2,3.99-2.75,3.43-5.44,3.61-6.98,7.98h-1.99s0,2,0,2v1c-2.19-2.03-1.75-4.46-1-6.98l-6.06-.44-.93-3.56c-4.15-.17-2.49,3.76-2.98,5.99-.05.24-.73,1.31-1,2-.67,0-1.33,0-2,0-.08-.64.09-1.34,0-1.99l-5.95-.09c-.32-.57.12-1.67-.05-1.91,7.14,1.56,4.21-7.31-1.01-6.45-2.05-1.3-.15-3.75.02-5.53l3.4,1.02,1.58-4.01c.46.31,3.03-.22,3.99,0-.49.62-2.01.83-2.08,1.65.95,9.64,10.48,3.99,11.05-2.25.28-3-1.14-8.19-.99-12.38.02-.66-.07-1.35,0-2Z"/>
      <path class="st0" d="M74.35,171.83c-.72,1.3.16,3.64-.26,5.23-1.76,6.73-4.19,3.37-6.73,4.76-.86.47-1.24,4.84-4.21,3.34-3.16-1.6-1.57-11.42-1.04-14.82,2.97-2.34,13.32-13.1,16.53-6.68,2.92,5.85-3.52,6.79-4.29,8.18Z"/>
      <path class="st5" d="M131,103.79c.02-.51,1.57-5.93,2.98-5.98l2.52,8.97c2.01.51,2.04-2.44,2.63-2.78,4.54-2.66,3.9,7.18,3.84,9.77-.02.9-1.9,3.58,0,5.99-2.68-.44-1.42-1.22-2.79-1.95-.65-.35-2.31.26-3.02-.2-1.32-.83-.66-7.1-3.16-7.83l-2.01,12.96c-.32.06-.67-.06-1,0-4.22.72-8.15-1.37-9.16,4.84l-7.8,2.15c.32-1.77,3.53-5.85,4.94-7.26.96-.95,2.44-.83,3.43-1.79,1.74-1.69,8.51-7.72,9.07-8.93,1.6-3.47-.56-5.51-.48-7.97Z"/>
      <path class="st5" d="M84.12,88.82c1.1,1.83,1.16,3.93,1,5.99-6.69,5.95-7.4,15.08-10.99,22.95-1.9,1.82-2.68-3.1-2.7-3.74-.32-8.91,5.68-20.24,12.69-25.2Z"/>
      <path class="st2" d="M110.06,53.9c-.08-7.07,1.32-5.59,2.93-11.53.94-3.46.51-7.13,1.26-9.71.6-2.04,4.65-4.22,3.79-7.69l3.97,1.01v-11.98s5.99,2,5.99,2c-.66,2.42,1.8,4.74-3,4l.89,6.87-5.66,1.33-10.19,25.72Z"/>
      <path class="st2" d="M115.04,75.85c2.85-1.01,2.72,1.44,3.68,1.95.43.23,1.07-.11,1.31.04,1.66,1.04,6.86,4.4,7.98,5.99.17.24-.27,1.34.05,1.91l5.95.09c.08.65-.09,1.36,0,1.99.67,0,1.33,0,2,0-.21.55.53,2.05-.51,2-2.18.33-1.28-.46-1.49-2-.67,0-1.33-.04-1.99,0v4.01s-2.93-.05-2.93-.05l-1.57-3.94c-1.92-.82-1.37,2.02-1.99,2.04-3.98.18-9.27-10.53-10.47-14.03Z"/>
      <path class="st5" d="M42.22,272.41c.1-4.05,2.61-8.4,7.33-6.86,3.32,1.08-.34,7.25.64,9.86l-7.98-2c-.04-.31,0-.68,0-1Z"/>
      <path class="st2" d="M136.99,85.83c.49-2.23-1.16-6.16,2.98-5.99l.93,3.56,6.06.44c-.75,2.52-1.19,4.95,1,6.98-.29,1.89,1.05,3.53-1.99,3,.93-4.51-4.82-8.33-8.98-7.99Z"/>
      <path class="st0" d="M53.19,177.62c-6.89.24-3.5-7.67,2.38-6.05.8.83.94,1.96,1.61,3.06-.74,1.58-3.31,2.42-3.99,2.99Z"/>
      <path class="st5" d="M114.05,134.72c.06.09,1.73-.4,2.01.65.23.88.16,5.9-.12,6.23l-4.88,1.1c.07-1.23.13-2.8,0-3.99-.06-.6.15-1.83,0-2,.43-1.43,1.54-1.98,2.99-2Z"/>
      <path class="st5" d="M56.19,259.44h5.98c-.31,5.36-2.08,3.36-5.28,4.01-.84.17-.83,3.14-3.69,1.97-.27-.27.65-3.27.99-3.99.3-.63,1.65-1.34,2-2Z"/>
      <path class="st2" d="M147.96,119.75c-1.29.03-2.73.12-3.99,0-.33-.03-.68.05-1,0-1.9-2.41-.02-5.08,0-5.99,2.15,1.44,4.71,3.25,4.99,5.99Z"/>
      <path class="st5" d="M147.96,119.75c.33,0,.67.02,1,0l1,3.99c-1.46-.8-6.55-.57-5.99-3.99,1.26.12,2.7.03,3.99,0Z"/>
      <rect class="st2" x="168.92" y="105.79" width="1.98" height="2.98"/>
      <path class="st2" d="M149.96,87.82c-.16.45.21,1.35-.03,1.97l-1.97.03v-1.99s2,0,2,0Z"/>
      <path class="st2" d="M54.69,209.55c.65.33.65.67,0,1v-1Z"/>
      <path class="st1" d="M147.96,238.49c5.07,4.88,2.89,11.26,4,16.3.17.78,1.91.81,2,1.16.88,3.36-2.66,1.47-2.01,4.48l4.34,1.07c1.73-2.52,4.35-5.03,7.63-5.05,1.42-3.61-5.58-.72-3.98-3.47.84-1.45,3.32-1.11,4.07-2.15,2.8-3.91.13-9.39,1.08-12.62.43-1.47,2.41-2.38,3.25-3.78s1.05-3.96,2.04-4.95c1.7-1.7,6.43-.74,8.48-2.49,1.46-1.25,1.23-4.77,3.7-5.31l9.22.83,1.06-3.97c-.67-.59-7.6,1.54-6.98-2.99.33-.35,7.92-1.79,9.22-2.26,2.88-1.04,4.52-1.85,8.01-2.96,5.49-1.75,5.46-11.26,7.18-15.77,1.46-3.84,5.47-4.37,2.45-10.35l2.12-1.12c-1.44-3.71-3.82-6.55-3.12-10.85,7.23-1.41,1.8-9.65,3.08-16.05.46-2.29,2.71-2.85,2.75-4.77.06-2.78-2.16-6.73-1.88-10.25.13-1.64,1.45-1.15,2.02-2.28.61-1.21-.81-2.97,2.11-3.67.04-3.41-4.85-1.88-5.05-3.03.03-4.06-.07-6.15,4.06-7.11-.44-4.18,1.71-9.33,1.94-12.97s-3.85-7.98-2.96-12.31l3,4.98c4.47.96.38-6.38.99-6.98,5.59,2.47,10.35,9.06,10.03-2.54-.07-2.45-2.35-7.62.46-7.48,4.74.24,4.1,4.42,6.46,5.54,1.62.77,3.86.08,4.81.66.83.5,1.59,4.9,2.18,5.81.06.09,1.82-.4,2.05.59l-1.06,3.4c-.42-1.21-1.56-2.25-1-3.99-1.71-.33-3.51.98-4.99,1-.65,0-2.59-1.56-3.98-1-.22,6.2-7.52,12.17,3.98,9.98-.09,3.2-1.07,6.76,0,9.98-2.78-.65-2.24,1.8-2.06,3.55.39,3.7,1.84,2.1,2.8,4.15,1.68,3.6,2.84,8.6,4.59,11.91.34.64,2.54,1.07,1.81,4.12l3.85.78c3.53-5.54-1.02-5.21-2.91-8.16-1.79-2.8-3.61-8.98-5.11-12.36l4.82-7.68c-.24-2.11-.59-4.17-.83-6.29,2.86-.36,2.49-.26,3.48,1.97,1.57,3.53,4.15,7.02,5.21,9.8,2.79,7.29,3.23,18.36,3.32,26.14.62.22,1.48-.14,1.96.01.15,5.79.54,13.36,0,18.96-.47.1-.95.54-1,1-.15,1.46-.11,3.5,0,4.99-.96.31-.93,1.14-1,2l-6.94.05c-.64.6-1.96,14.61-2.48,16.97-1.45,6.47-4.37,16.93-6.62,23.14-.36.99-1.71.41-1.98,2.19-.77,5.13,6.06,1.6,7.1-.13.75-1.26,4.17-11.42,4.49-13.22,1.26-7.15,1.54-13.06,3.42-20.52.51-2.04-.07-3.54,3.01-3.48-.12,1.31.16,2.69,0,3.99-.88,7.26-3.26,19.09-4.97,26.24-.27,1.12-2.46.65-3.05,3.17-.86,3.69,2.27,1.82,3.96,4.08,2.17,2.91.03,5.19.16,7.82.45,8.93-.48,17.07.63,25.93-.38,3.38-6.57,7.41-8.11,9.68-5.19,7.64-2.3,8.71-11.53,15.46-.77.56-.83,2.38-1.62,2.45-1.45.11-4.11-2.22-6.44-.58-1.33.94-.55,3.99-3.69,5.3-5.1,2.12-9.22,1.04-13.27,1.68-16.99,2.67-34.13,7.02-52.4,4.63-.85-.11-7.11-3.96-9.89-4.16-2.06-.15-4.97.55-6.5,2.09-.47-.34-2.99-.67-3.99-1-1.06-2.25.98-6.1,1-6.98l4.46,2.97,4.28-4.58c-1.85-4.6,1.63-11.63,1.21-15.8-.66-6.6-5.97-12.9-3.76-21.83.28-1.14,1.76-1.54,1.79-1.66ZM233.74,142.7c-4.13-.66-.16,7.25-4.95,7l-.02,1.97c3.38-.82,3.09,1.96,4.98,3.5,2.11,1.72,5.36.49,3.81,4.79-1.19,3.3-6.11,2.66-7.87,5.12-2.04,2.86-.32,6.7-6.81,6.65,1,7.49-.8,14.65-2.4,22.05-.23,1.04-1.47,1.94-1.66,3.35-.17,1.34.85,2.83.55,4.52-.47,2.61-5.32,2.19-2.59,7.89-6.64-1.45-4.93,2.5-7.32,5.66-.75.99-2.84,1.44-3.77,2.79-.3.44-2.82,9.57-2.88,10.1-.23,1.88,1.27,4.05.57,5.42-.19.38-5.26,5.32-6.01,6.01-1.84,1.68-4.31,1.09-5.1,3.87-1.38,4.82,1.31,5.07,1.59,7.63.25,2.32-1.85,3.93-1.99,5.96-.12,1.85,1.71,4.99.86,6.32-3.67-.66-7.54,5.89-8.45,6.09-1.56.34-4.45-5.26-8.25-1.82l.87,7.83c1.22.85,5.48-2.89,4.96.49l-7.46,3.53c-.54-2.7-1.28-4.31-4.5-3.58-1.77,2.98-5,3.69-3.98,7.55,4.92-2.47,9.25,1.48,13.41,2.05,2.71.37,9.95.27,12.48-.59,1.24-.42,17.27-9.45,18.43-10.5,2.24-2.03,3.44-7.33,4.81-8.66.88-.86,2.92-.82,3.75-1.72,1.2-1.3.78-3.23,1.55-4.45,5.69-9.08,4.28-15.32,7.68-25.25,2.8-8.17,5.4-14.23,7.99-22.94,2.18-7.34,9.7-16.33,11.26-23.66,1.17-5.53,2.21-24.99,1.37-30.43-.28-1.83-4.73-11.35-5.87-12.08-3.85-2.44-3.02,3.81-6.43,2.45-1.62-.65-2.34-3.29-2.6-4.9ZM189.86,239.49c-4.3-.2-12.94,2.53-9.5,8.01,2.13,3.4,10.94-6.69,9.5-8.01Z"/>
      <path class="st4" d="M134,213.54c.98,5.34,1.29,8.73,2,13.97.32,2.36,1.62,4.6,3,6.51-3.91,1.31-1.4,8.05-1.95,12-.61,4.41-1.69,6.79-2.05,12.42s-.36,10.33-1,15.96c-.66-.05-1.33.02-1.99,0-.19,1.61.23,3.44,0,5-.19,1.28-.64,2.72-1,3.99h-1.99s0,2,0,2c-.33.04-.67-.04-1,0-17.39,2.26-29.24,14.06-46.89,16.96-6.18-1.38-15.66-.85-17.94-8.5-1.01-3.39,5.2.34,5.97-.48,1.23-3.91-3.16-2.65-2.98-5.98,1.97-.26,2.57,1.58,4.51,1.96,3.73.74,9.42-.65,12.14-3.27s3.04-9.09,4.58-11.38c.47-.69,2.59-1.37,3.74-2.75,2.31-2.77,1.6-6.4,6.92-5.55-1.13-5.48,2.5-8.73,3.12-13.85l3.9-.08v-4.01s5.98.02,5.98.02c-1.2-4.89.98-4.22,2.36-6.08.74-.99.73-2.79,1.61-3.43,1.41-1.03,5.56-.49,7.31-1.47,1.22-.68.49-1.7.68-2.01,2.84-4.41,2.21-4.14,0-8.98.99-.35,1.87-1.03,2.99-1.01l-1.99-5.97,3.01.66c.83,1.42-.2,5.18,2.97,4.32.96-1.2-2.31-12.47,4-10.97Z"/>
      <path class="st1" d="M131,122.75c-.71,2.54,2.86,4.18,2.97,4.68,1.33,6.16-1.57,5.51-2.34,8.38-2.23,8.3-3.76,18.53-1.19,26.94.66,2.16,2.94,1.53,2.55,3.89-.98-.08-2,.05-2.99,0-.06,2.32.06,4.67,0,6.99-10.54-2.14-3.06-4.17-6.14-11.83l-8.82-1.14c.03-.66-.03-1.33,0-2,.07-1.69.37-4.95.03-6.28-.29-1.14-2.65-1.09-2.91-2.25-.22-.99,1.02-2.58.95-3.82-.04-.69-2.84-.58-2.06-2.62.01-.33-.02-.67,0-1l4.88-1.1c.28-.33.35-5.35.12-6.23-.27-1.05-1.95-.56-2.01-.65-.13-.21-.13-4.26,0-4.99l7.8-2.15c1.01-6.2,4.93-4.12,9.16-4.84Z"/>
      <path class="st1" d="M134,213.54c-6.3-1.5-3.03,9.77-4,10.97-3.17.86-2.13-2.9-2.97-4.32l-3.01-.66,1.99,5.97c-1.12-.02-2,.66-2.99,1.01-2.56.91-5.04.68-6.97,1.52-2.3.99-3.26,5.76-4.55-.59-2.08.39-4.87-.41-6.74.04-.48.12-4.28,6.89-8.2,4.04-.53-.89.36-10.02.72-11.29.33-1.16,3.2-4.32,4.26-6.71,2.24-5.05.51-12.42,6.5-11.96v2.27c1.38,3.64,2.08-1.48,2.36-1.88,1.4-1.98,3.09-2.92,5.62-2.39,1.05,1-1.2,10.97-3.99,11.98-.29-.41-1.85-.7-2-1-.24-.51.33-2.05-.09-2.88l-3.89-.12-.93,14.33c.69,2.2,2.84,1.25,3.91,1.64,2.54.93,4.95,1.93,7.44,2.98,2.02-5.36,7.08-4.58,2.54-8.97h5.98c-.88-5.09.42-11.18-1.03-16.26-.26-.91-3.61-.77-.95-5.69,3.95-.26,2.52,4.91,4.48,6.98,1.42,1.5,5.04,1.36,6.01,2.97,1.27,2.13.05,5.68.48,8.01ZM112.55,205.56v1c.65-.33.65-.67,0-1Z"/>
      <path class="st1" d="M135.99,227.51l4.85-1.14.25-15.21,3.74-1.74.12-3.27c5.24-2.52,2.55,8.94,3,9.37,10.42.66,3.43,6.33,2.39,9.98-.49,1.71.34,2.6-.39,5.01-2.3-1.72-3.73-3.67-6.98-3-2.06,5.5.38,9.78.55,14.67.22,6.47-1.62,16.45-1.24,21.63.13,1.72,1.69,3.48,1.62,5.15-.06,1.41-3.19,5.64-3.93,7.45.12-3.97.87-8.69.87-11.47,0-3.73-3.98-9.48-1.88-14.46-4.81-1.04.87,8.53-3.98,7.98.36-5.63,1.44-8.01,2.05-12.42.55-3.96-1.96-10.7,1.95-12-1.38-1.91-2.68-4.15-3-6.51ZM141.48,250.46v1c.65-.33.65-.67,0-1ZM141.48,258.44v1c.65-.33.65-.67,0-1Z"/>
      <path class="st4" d="M149.96,230.51c-.92,3.01-1.3,5.36-2,7.98-.03.12-1.51.52-1.79,1.66-2.21,8.93,3.11,15.23,3.76,21.83.41,4.17-3.06,11.2-1.21,15.8l-4.28,4.58-4.46-2.97c.02-1-.03-2,0-2.99.74-1.8,3.87-6.03,3.93-7.45.07-1.68-1.5-3.44-1.62-5.15-.38-5.17,1.46-15.16,1.24-21.63-.17-4.89-2.61-9.17-.55-14.67,3.25-.67,4.68,1.28,6.98,3Z"/>
      <path class="st3" d="M140.98,178.62c-.32-3.65-1.94-5.92,1.71-8.99,6.13-1.71,22.85,5.29,8.26,6-1.93,4.39,4.01,7.98,4.02,8.48.03,2.26-2.93,3.95-5,3.49l-2.06-7.95-2.9-.02-3.03,3.97c-.53-2.1-.77-2.47-1-4.99Z"/>
      <path class="st4" d="M245.73,99.8c-.56,1.74.58,2.78,1,3.99.17.5-.14,1.4,0,2l1,1c.17.89-.11,2.03,0,2.99.23,2.12.59,4.18.83,6.29l-4.82,7.68c-.45-1.02-2.48-2.43-2.99-3.99-1.07-3.21-.09-6.78,0-9.98.08-2.98-.06-5.99,0-8.98,1.48-.02,3.28-1.33,4.99-1Z"/>
      <path class="st2" d="M130.01,183.61l1.81.17c.35,2.85,1.03,4.28,4.17,3.82.51,6.83,2.97,16.28,3.03,22.43.02,2.05.59,2.92-2.02,2.51.12-7.54-6.75-14.94-7.83-21.7-.37-2.3.84-4.65.83-7.23Z"/>
      <path class="st4" d="M112.05,211.55c.68.94,1.77,3.48,2.25,3.76,1.66.98,1.8-.6,4.73,2.22,4.55,4.39-.52,3.61-2.54,8.97-2.49-1.05-4.9-2.05-7.44-2.98.52-4.11-1.21-9.59,1-12.97.14.3,1.7.59,2,1Z"/>
      <path class="st2" d="M163.92,231.5c1.1,8.48-2.35,12.17-10.91,10.92l-1.06-5.91c5.31.09,6.89-5.83,11.97-5.01Z"/>
      <path class="st3" d="M183.88,203.57c-1.1-3.62-2.18-6.1-.95-9.93,5.91,1.04,10.15-1.13,15.91-.05l-1.99,3.99c-1.22.67-3.19,1.48-3.99,2-5.48-5.3-5.45,2.44-7.17,3.83-.58.47-1.38.03-1.8.16Z"/>
      <path class="st3" d="M130.01,173.63c3.32.67,4.7,1.97,4.99,2,1.61,3.89.7,7.99,1,11.97-3.14.45-3.82-.97-4.17-3.82l-1.81-.17c-.01-3.31-.09-6.67,0-9.98Z"/>
      <path class="st1" d="M169.91,215.55l-.99,5.98c.67.63,7.08-1.36,5.97,1.49-2.2,3.34-6.53,3.05-9.96,1.99l-1.67-1.95c1.57-3.67,1.44-8.88,6.65-7.5Z"/>
      <path class="st1" d="M247.72,106.78l-1-1c.02.07.85.23,1,1Z"/>
      <path class="st4" d="M132,122.75c3.03-.59,3.34-4.64,7.98-2.99l-.99,8.98c7.7-3.44,8.41,5.21,14.5,6.94l1.48,10.47c-4.12,3.97-4.13,7.36-6.02,11.53-.3.66-.69,1.3-1,2-1.25,2.81-1.98,4.84-4.63,6.81-3.56.57-7.04.43-10.33.17.38-2.36-1.89-1.73-2.55-3.89-2.57-8.42-1.04-18.65,1.19-26.94.77-2.87,3.66-2.23,2.34-8.38-.11-.5-3.68-2.14-2.97-4.68.32-.06.68.06,1,0Z"/>
      <path class="st3" d="M186.87,152.68c3.71-2.22,8.2-3.6,12.63-7.33,1.53-1.29,3.07-5.66,5.82-5.68l2.41,1.66c-.73,6.19-3.12,14.66-7.94,18.8-1.02.88-3.52,1.26-3.78,1.68-.4.64-2.04,13.29-1.45,14.54,1.09,2.29,3.23,2.84,5.64,2.29,1.01-.23.03-3.08,2.62-2.02l-1.16,10.8c-4.92,2.96-10.23,2.18-15.75,2.12.35-3.12-1.6-5.75-2.01-8.55-.25-1.72.95-3.52.75-4.76-.39-2.35-5.48-3.91-6.31-5.6-.73-1.49,1.36-4.21-.44-5.99.66-.38,7.42-11.04,8.98-11.97Z"/>
      <path class="st5" d="M157.94,133.72c3.37-.44,8.99-1.39,12.04-2.43,2.45-.83,2.55-2.99,3.14-3.33,1.49-.85,4.22.16,6.1-.25.38-.08,2.57-3.81,6.67-1.98,1.86,4.3-2.83,5.89-3.02,6.68-.43,1.76.31,4.29-.19,6.58-.58,2.69-3.51,5.2-2.82,8.64l-9.78-.86c-1.9,6.5-5.93,4.12-10.39,4.94-1.54.28-3.09,5.03-3.7,5.47-1.28.94-3.53.21-4.01.48-.09.05.41,1.65-.7,2.01h-3.29c.31-.71.7-1.34,1-2.01h2.99c-.41-3.93,3.91-5.07,4.78-8.69.48-1.99,1.35-13.12,1.21-15.26Z"/>
      <path class="st1" d="M132,122.75l2.01-12.96c2.5.73,1.84,7,3.16,7.83.72.45,2.37-.15,3.02.2,1.37.73.1,1.51,2.79,1.95.32.05.67-.03,1,0-.57,3.42,4.53,3.19,5.99,3.99.38.21.66.81,1,1,.53,3.95,1.24,8.25,5.99,6.98.12.39.92.8,1,2,.14,2.13-.73,13.27-1.21,15.26-.87,3.62-5.19,4.76-4.78,8.69h-2.99c1.89-4.17,1.9-7.56,6.02-11.53l-1.48-10.47c-6.09-1.74-6.8-10.38-14.5-6.94l.99-8.98c-4.64-1.65-4.95,2.41-7.98,2.99Z"/>
      <path class="st3" d="M202.83,91.81l-2.89.06-.06,11.26-3.91,1.79-.24,4.73-5.82.07c-.74-1.81,1.03-4.03.97-5.35-.03-.6-1.83-.46-2.02-1.23-.63-2.63.21-7.17-.97-10.27,4.17-.36,8.57-5.34,9.96-9.02,2.06-1.47,5.71,7.29,4.97,7.97Z"/>
      <path class="st5" d="M177.89,164.65c-3.08,1.8-6.53.81-8.14,6.78h-2.68s-3.15-6.26-3.15-6.26l5.97-3.03-1.99-3.47c3.17.87,4.22-1.47,6.09-2.4,4.07-2.04,4.69-3.45,6.66-4.57.79-.45,7.26-2.66,6.21.98-1.56.93-8.32,11.59-8.98,11.97Z"/>
      <path class="st3" d="M192.47,139.36c-1.24,2.94-5.8,1.93-8.6,1.84l4-1.48-.85-7.43,5.31-4.59,2.39,1.61c-1.05,3.15-1.01,7.08-2.26,10.05Z"/>
      <path class="st5" d="M156.94,131.73c-4.74,1.27-5.45-3.04-5.99-6.98,4.27,2.39,4.4,1.9,5.99,6.98Z"/>
      <path class="st5" d="M51.2,284.39c-2.06-.56-3.42-2.9-2.99-4.98h4.99s0-7.98,0-7.98c3.41-1,3.12,2.09,4.76,2.97.99.53,4.01,1.06,5.21,1.01-.94,5.72,1.67,3.8,5.98,4-.43,5.77-6.09,3.24-9.3,3.99-.76.18-.63,1.95-1.29,2.04-.37.05-6.72-.87-7.35-1.05Z"/>
      <path class="st5" d="M46.21,239.49c.56.53-1.06,7.99-3.98,6.97l-1-6.97h4.98Z"/>
      <path class="st4" d="M132,33.94c4.3,5.33,11.91-.35,14.41-.05.54.06.43,1.87,1.21,2.05,1.57.36,4.03-.51,5.17.16,3.21,1.9-1.15,4.55-.83,5.32.4.98,1.82,1.79,2.98,1.52v-3c8.06.36,6.47,10.81,9.42,16.06,1.11,1.98.77,2.34,3.56,1.9.13,1.17.08,2.79,0,3.99-.02.33.04.67,0,1-6.51-.42-4.87,10.51-10.97,10.97-1.65-5.58,5.41-17.52,1.08-21.29l-8.01-.76c1.42-5.06-4.93-2.09-5.82-.64-.57.93-.13,1.87-.23,2.74-.07.65.02,1.34,0,2-4.18-.38-2.38.07-2.99,2.45-1.11,4.36-2.29,7.13-4.99,10.52-.96-.22-3.53.31-3.99,0-.11-.07-.07-1.78-1.01-2.44-1.41-.99-3.31-1.31-4.45-2.58-4.34-4.83-1.86-16.07-.53-21.92,2.16-1.36,1.43-4.21,5.98-2,.15-1.97-.18-4.02,0-5.98ZM133.26,53.14c-.86,1.73-.87,9.38,2.21,8.73,2.6-.55,1.19-9.83,1.5-11.96-.71.53-3.6,3.01-3.71,3.23Z"/>
      <path class="st1" d="M132,33.94c.64-6.83,3.6-4.76,5.86-8.56,1.12-1.89.95-5.19,1.15-5.38,3.01-2.91,11.69,5.71,8.94,9.96,4.07-1.5,4.76,1.55,5.74,1.93,3.21,1.25,5.48-.21,8.11,4.68.46.86,3.78,8.5,3.85,8.99.2,1.3-.98,2.79-.56,4.59.55,2.38,2.29,2.91,2.83,7.74-2.79.44-2.45.08-3.56-1.9-2.94-5.25-1.35-15.7-9.41-16.06v3c-1.17.28-2.58-.54-2.99-1.52-.31-.77,4.05-3.42.83-5.32-1.13-.67-3.6.2-5.17-.16-.79-.18-.67-1.98-1.21-2.05-2.51-.29-10.11,5.39-14.41.05Z"/>
      <path class="st1" d="M126.02,41.92c-1.34,5.85-3.82,17.09.53,21.92,1.14,1.27,3.04,1.59,4.45,2.58.94.66.9,2.37,1.01,2.44l-1.58,4.01-3.4-1.02c-.17,1.77-2.07,4.23-.02,5.53,5.22-.86,8.15,8.01,1.01,6.45-1.12-1.59-6.32-4.95-7.98-5.99-4.47-7.55-2.21-13.27-2.06-21.39,7.95-1.17,2.67-10.6,4.96-13.95.86-1.26,2.65-.31,3.09-.58Z"/>
      <path class="st1" d="M143.97,53.9c.1-.87-.35-1.81.23-2.74.89-1.44,7.24-4.42,5.82.64l8.01.76c4.33,3.78-2.73,15.72-1.08,21.29,6.1-.46,4.46-11.39,10.97-10.97-.22,1.83-.65,1.95-1,2.99-2.98-.75-2.12,2.43-2.99,3.99-1.42,2.53-3.72,4.25-4.99,5.99l-4.98.99c-.77-2.54,1.49-6.25,1.06-8.29-.16-.75-2.15-.8-3.08-3.14-1.48-3.71-.85-8.59-.98-12.51-1.66-.03-2.84-.54-3.02,1.34l-3.96-.34Z"/>
      <path class="st5" d="M166.92,65.87c-.66,1.99-.25,4.61-2.99,3.99.88-1.56,0-4.75,2.99-3.99Z"/>
      <path class="st4" d="M259.69,174.63c-.03.33.01.67,0,1-.05,1.32.12,2.69,0,3.99-3.07-.06-2.5,1.44-3.01,3.48-1.88,7.46-2.16,13.37-3.42,20.52-.32,1.79-3.74,11.96-4.49,13.22-1.04,1.73-7.86,5.26-7.1.13.27-1.78,1.62-1.19,1.98-2.19,2.24-6.2,5.17-16.66,6.62-23.14.53-2.36,1.84-16.36,2.48-16.97l6.94-.05Z"/>
      <path class="st5" d="M134.99,258.44c4.86.56-.82-9.02,3.98-7.98-2.1,4.99,1.88,10.73,1.88,14.46,0,2.78-.76,7.5-.87,11.47-.03,1,.02,2,0,2.99-.01.89-2.06,4.74-1,6.98-.46-.15-1.33.23-1.95-.02-1.28-3.87,1.5-11.6-3.04-11.95-.19,1.63.15,3.36,0,5h-1.99c.23-1.56-.18-3.4,0-5,.66.03,1.33-.04,1.99,0,.64-5.63.65-10.46,1-15.96Z"/>
      <path class="st5" d="M260.69,172.63c.06.86,3.06,3.49-1,2.99.01-.33-.03-.67,0-1,.07-.86.04-1.68,1-2Z"/>
      <path class="st5" d="M131,283.39c-.14.5.22,1.33-.04,1.95-.63.22-1.33-.02-1.95.05v-1.99s2,0,2,0Z"/>
      <path class="st5" d="M260.69,167.65c.05-.46.53-.89,1-1-.04.45-.53.89-1,1Z"/>
      <path class="st5" d="M111.05,143.7c-.78,2.04,2.02,1.92,2.06,2.62.07,1.24-1.16,2.83-.95,3.82.25,1.16,2.61,1.11,2.91,2.25.34,1.33.05,4.59-.03,6.28-4.02.03-4.97-8.68-5.05-11.59-.05-2.01,1.05-3.2,1.06-3.38Z"/>
      <path class="st5" d="M57.18,185.61v3.98s-3.99,0-3.99,0c-.55,2.82.95,1.8,2.89,2.05l.1,4.93-4.97-2.99c-.2,3.09-2.63,9.58-4.96,11.35-.63.48-.45,1.11-2.02.63-.1-1.51-.08-4.26-.9-5.41-1.21-1.7-4.58,1.57-2.1-4.56h-3.99c1.2-8.43,7.49-4.79,12.27-5.97.96-.24,2.91-6.15,7.68-4.01Z"/>
      <path class="st2" d="M143.97,55.89c-.15,4.19,1.27,9.38.99,12.38-.57,6.24-10.1,11.88-11.05,2.25.07-.82,1.59-1.03,2.08-1.65,2.7-3.39,3.88-6.16,4.99-10.52.61-2.38-1.19-2.84,2.99-2.45Z"/>
      <path class="st4" d="M233.74,142.7c.26,1.61.98,4.26,2.6,4.9,3.41,1.36,2.58-4.89,6.43-2.45,1.15.73,5.59,10.25,5.87,12.08.83,5.43-.2,24.89-1.37,30.43-1.56,7.33-9.07,16.33-11.26,23.66-2.59,8.71-5.19,14.77-7.99,22.94-3.4,9.93-1.99,16.17-7.68,25.25-.77,1.22-.35,3.15-1.55,4.45-.83.9-2.87.86-3.75,1.72-1.37,1.33-2.57,6.63-4.81,8.66-1.16,1.05-17.2,10.08-18.43,10.5-2.53.86-9.76.97-12.48.59-4.16-.57-8.49-4.51-13.41-2.05-1.02-3.86,2.21-4.57,3.98-7.55,3.23-.73,3.97.88,4.5,3.58l7.46-3.53c.52-3.38-3.75.36-4.96-.49l-.87-7.83c3.79-3.44,6.68,2.17,8.25,1.82.91-.2,4.78-6.75,8.45-6.09.85-1.33-.98-4.47-.86-6.32.14-2.03,2.24-3.65,1.99-5.96-.28-2.56-2.96-2.81-1.59-7.63.79-2.78,3.27-2.19,5.1-3.87.75-.69,5.82-5.63,6.01-6.01.7-1.37-.79-3.53-.57-5.42.06-.53,2.58-9.66,2.88-10.1.93-1.35,3.02-1.81,3.77-2.79,2.39-3.16.68-7.11,7.32-5.66-2.74-5.7,2.11-5.28,2.59-7.89.31-1.69-.72-3.18-.55-4.52.18-1.42,1.43-2.31,1.66-3.35,1.6-7.4,3.4-14.56,2.4-22.05,6.49.05,4.77-3.79,6.81-6.65,1.76-2.46,6.68-1.82,7.87-5.12,1.55-4.3-1.7-3.07-3.81-4.79-1.89-1.54-1.6-4.32-4.98-3.5l.02-1.97c4.79.25.82-7.66,4.95-7Z"/>
      <path class="st5" d="M240.74,119.75c.52,1.56,2.54,2.97,2.99,3.99,1.49,3.38,3.32,9.56,5.11,12.36,1.89,2.95,6.43,2.62,2.91,8.16l-3.85-.78c.73-3.06-1.48-3.49-1.81-4.12-1.75-3.31-2.91-8.31-4.59-11.91-.96-2.05-2.41-.45-2.8-4.15-.18-1.75-.72-4.19,2.06-3.55Z"/>
      <path class="st5" d="M189.86,239.49c1.44,1.33-7.37,11.41-9.5,8.01-3.44-5.48,5.21-8.22,9.5-8.01Z"/>
      <path class="st5" d="M240.74,100.79c-.06,2.99.08,6,0,8.98-11.5,2.19-4.21-3.79-3.98-9.98,1.4-.56,3.33,1.01,3.98,1Z"/>
      <path class="st5" d="M109.06,223.52c-1.07-.39-3.23.55-3.91-1.64l.93-14.33,3.89.12c.42.83-.15,2.37.09,2.88-2.21,3.38-.48,8.86-1,12.97Z"/>
      <path class="st5" d="M112.55,205.56c.65.33.65.67,0,1v-1Z"/>
      <path class="st5" d="M141.48,250.46c.65.33.65.67,0,1v-1Z"/>
      <path class="st5" d="M141.48,258.44c.65.33.65.67,0,1v-1Z"/>
      <path class="st1" d="M133.26,53.14c.11-.22,3.01-2.7,3.71-3.23-.31,2.13,1.09,11.42-1.5,11.96-3.08.65-3.08-7.01-2.21-8.73Z"/>
    </g>
  </g>
</svg>