<?xml version="1.0" encoding="UTF-8"?>
<svg id="Layer_1" xmlns="http://www.w3.org/2000/svg" version="1.1" viewBox="0 0 288.29 275.8">
  <!-- Generator: Adobe Illustrator 29.7.1, SVG Export Plug-In . SVG Version: 2.1.1 Build 8)  -->
  <defs>
    <style>
      .st0 {
        fill: #facc9d;
      }

      .st1 {
        fill: #c58746;
      }

      .st2 {
        fill: #d39860;
      }

      .st3 {
        fill: #ece1df;
      }

      .st4 {
        fill: #fdddb8;
      }

      .st5 {
        fill: #e9b37f;
      }
    </style>
  </defs>
  <g id="zB03Or.tif">
    <g>
      <path class="st4" d="M191.67,2.13c4.59.26,6.25.25,10.75,1.71,1.42.46,6.68,2,6.21,4.27-5.36-.49-6.33-1.21-9.66-1.97-2.13-.49-5.02.25-7.3-.03v6s7.06.44,7.06.44l1.45,3.6c3.26,1.07,8.02-7.1,7.45,1.94-.66.04-1.33-.06-1.99,0v4.01s-4-.01-4-.01c-.11.97.14,2.05,0,3-.09.64.16,1.5,0,2-1.05,3.35-7.52,5.36-6.13-.85-3.87-.33-7.76-4.56-10.88-5.59-1.99-.65-16.02-1.45-12.91,2.43,2.9-.76,10.81,8.08,8.97,9.99-4.27-1.83-10.64-.07-14.26-.97-1.08-.27-2.47-5.79-6.68-4.02v4.01s-7.95-1.56-7.95-1.56c-4.14,3.14-4.92,5.56-3.02,10.52-4.47-.99-7.31,4.39-8.67,4.84s-3.53-.46-4.42.73c-2.98,3.99,4.24,12.81.21,17.99-1.46,1.88-4.88.26-4.09,3.38h4s-1.99,5.49-1.99,5.49l2.98,4.5c-.02.97-.1,2.04,0,2.99.59,5.73,6.77,14.43,1.56,18.04-2.5,1.74-5.45-.42-5.55,4.91-.3.1-.7-.1-1,0-2.02.71-5.56,3.48-7,2.57l-2.97-8.55c.22-.33.77-1.49,1-2,.06-.13.78-.37,1-1,1.36-3.88.06-5.45,0-7.98-.07-3.02.36-6.64,0-9.5-.18-1.4-.53-2.86-1.98-1.47-.97,3.94-1.25,7.98-2.01,11.97-.12.62.12,1.38,0,2-3.56-.28-3.67,6.01-3.99,8.98-.1.98.07,2.01,0,2.99-.14,1.96.26,3.98-.11,5.93l-2.79.11-.16,1.44c-.23,4.19,4.65,7.38,3.05,12.48,4.94-.98,8.72,1.25,11.85,4.68,1.69,5.77-7.71,8.27-5.86-.7-3.54-1.46-4.23,2.05-4.51,2.06-3.05.14-5.5-6.75-11.45-4.05,1.04,5.99.25,10.13-1.03,15.92l-4.95.05c-.49-.47,1.3-13.12-1.98-9.98-2.16,3.88,2.05,8.75-3.5,10l-4.49-2.02c.42,1.86-1,4.01-.92,5.55.1,1.91,3.3,3.18.92,4.94-1.39,1.28-3.23-.56-4.42-.52-.57.02-.44,1.71-1.3,1.95-2.34.66-5.57.35-8.02,1.27l-.65,7.82-8.48,2.57c-.74,2.6,2.6,9.13,2.74,11.02.21,2.78-6.11,8.61,5.17,7.31.03,2.47.61,6.19-1.99,7.48l-4.8.29c-3.85-5.41-3.36-14.67-12.16-13.75-1.1,3.65,2.52,2.65,3.02,5.45.69,3.88-.22,8.54.94,12.49l-2.85.08c-2.03,4.86,1.79,5.72,2.44,7.82.34,1.1,1.73,9.67,1.43,10.08l-8.37-4.05c-.83.16-.15,3.09-2.58,2.04.09-1.45-1.61-2.66-1.79-3.72-1.23-7.28,5.34-7.42,5.77-8.95,2.72-9.74-10.23-17.03-6-27.23-3.69-1.03-2.8,1.85-4.39,3.04-.39.29-7.8,4.59-8.27,4.73-2.46.74-5.69-.06-8.29.19-.57,4.89,1.69,9.64,1.07,14.53-.24,1.93-3,1.62-3.05,5.03-.05,2.95,2.2,3.53,1.99,8.39-.98-2.28-4.37-4.51-4.76-6.67-1.21-6.65,1.21-17.34-.54-23-.16-.52-3.43-3.19-4.67-2.26-.34,2.57,1.17,4.94,1.07,7.47s-2.21,4.57-2.16,7.01c.04,2.1,1.8,3.51,2.14,5.92.32,2.26-.53,13.05-.05,13.52l5.98-2v5.98c2.47.31,2.62-1.21,3-2.99l7.06,2.42.95,4.54,4.92.07c-.61,4.23,5.15,9,9.01,9.94.38.68,1.84,1.18,2.37,2.08,1.53,2.56,2.86,6.96,4.86,9.65.83.84,6.75,1,8.73,1.25.8.1.18.1,1,0,.65-.08,1.34.05,2,0-.21.75.28,2.02-.04,2.93-6.33-.65-14.04,4.38-14.93-4.93l-3.97,1.01-.79-4.7-4.2-5.27c-.09,5.11,2.66,10.72,3.04,15.42.24,2.99.91,5.32-3.04,4.53-17.83-14.6-40.64-40.96-39.9-65.85.21-7.1.55-3.32,3.44-7.02,2.15-2.75,1.75-4.6,2.84-6.68.32-.62,2.28-.75,2.62-1.89s-1.04-4.52-.95-6.81c.27-6.63,2.43-13.32,10-13.52v7.98c4.42,1.18,3.75-1.71,4.04-1.94,2.39-1.83,1.18,3.11,3.94,1.93-.11-2.48.61-8.01-1.27-9.71-.45-.41-10.02-5.61-10.66-5.79-2.34-.65-4.64-.56-7.02-.47-1.66-2.72-5.58-3.35-6.32-5.22-.86-2.17-.23-4.27-.7-6.05-.7-2.65-1.99-2.48-1.95-8.69.07-10.66,1.67-14.19,7.15-23.28,1.27-2.11,4.02-4.15,4.79-5.4,2.56-4.18,7.36-15.42,10.44-18.27,3.39-3.13,6.37-1.81,9.82-6.2.88-1.13.91-3.38,2.02-4.42,2.1-1.98,7.71-2.47,10.55-2.41.76-5.7,4.71-7.73,7.67-11.93,2.02-.26,3.15,1.78,4.12,1.92,1.39.2,2.2-1.88,3.6-1.68.78.11,1.84,1.65,3.23,1.8,3.74.39,7.64-.14,11.39,0-.27-2.74,1.09-6.12,3.34-7.62.92-.61,2.54-.03,3.43-.55.59-.34,4.16-7.26,6.3-9.19,6.36-5.74,11.15-.99,13.77-2.7.54-.35.45-2.49,1.06-3.13,1.72-1.81,8.05-4.72,1.06-4.71-.26-.25.75-3.24,1-3.99,1.33-.06,2.67.07,4,0v-1.99c1.85-.08,9.48.32,9.97,0,6.48,10.67,14.91,2.88,23.94,6.98.04.98.06,2.02,0,2.99s-2.02,3.87-.99,5.99h3.98c.08-1.32-.07-2.67,0-3.99,6.1.76,5.85-1.79,6.67-1.98,2.59-.58,5.95,1.1,7.83-1.99,2.48-4.8-7.42-5.21-6.52-10,.66-.02,1.33.03,2,0,3.97-.16,8,.11,11.98,0v-4.01s6.98.02,6.98.02V2.12c4.95.21,10.01-.27,14.96,0ZM131.81,58.01c-9.46,2.2-5.07-9.26-11.96-8.99.92,2.48-1.99,5-1.99,6.5s3.49,5.33,1.99,8.48c1.48,1.51,14.25-4.12,11.96-5.99ZM98.89,75.97c-.38-2.59-1.56-5.12-1-7.99.32-.31,7.77,1.07,6.98-2.48-2.93-2.66-5.48-5.17-4.99-9.5h-2.98s0,4,0,4l-13.86.11v3.79s2.87.1,2.87.1c-.41,4.81-3.55,16.3-10.35,13.85-2.06-.74-.02-4.55-6.79-1.77-.27.11-4.66,3.09-4.86,3.3-2.21,2.25-1.33,6.23-7.43,5.59-6.91-.73,2.75-7.95,1.5-9-5.87-2.33-7.93,5.57-13.38,4.06-.4-.11-2.8-7.82-5.57-5.06-1.54,1.54,3.8,7.1,1.57,10.06-1.1,1.46-4.56-.17-5.07,2.92l-1.45-.07c-1.05-5.91-3.48,4.33-8.02,2.06v-4.01s-2.94.04-2.94.04c.73,2.93-2.93,6.28-3.01,6.66-.51,2.26.3,5.2-.09,7.72-.65,4.22-5.19,7.61-1.98,12.95l2.03.58.93-3.55,5.06-.44c1.31,4.28-3.06,6.7-3.03,10.46.03,3.27,3.66-.36,3.03,3.5l-3.06.55.03,7.78c.52,2.27,7.34.26,7.52,3.68l2.5-.65c-.93-2.92,2.1-6.74,1.95-8.88-.23-3.28-3.41-2.7,1.07-8.45,2.85-2.4,3.16,6.78,2.92,8.41-.44,2.98-3.5,5.95-1.48,9.57,3.63,3.26,3.35-3.91,6.51-3.03l.08,2.87c3.17-1.09,3.96,2.18,5.27,2.13.7-.03,3.99-.89,4.39-1.24.61-.53,3.87-10.07.75-8.74-2.16.93-4.02,9-6.55.59,3.82-1.26,1.34-5.14,2.19-8.45,6.91-.3.7-5.93,5.36-9.11,4.43.74,1.51,4.35,1.59,6.53.07,1.81,3.22,5.75,2.9,8.43l4.97-3.98v4.98c3.11.64,2.95-3.29,3.94-4.33,2.06-2.18,6.8-2.41,8.62-3.56,1.58-1,4.45-6.17,5.4-7.07.71-.66,8.17-5.84,8.69-5.95,1.99-.42,4.17.48,6.29-.52,1.4-.66,6.5-8.85,7.19-10.76.88-2.43.34-4.23.81-5.99.21-.78,3.93-2.23,2.95-4.71-.45-.42-6.51.37-8.29-.02-.84-.18-.68-2.68-2.68-1.98.13-2.73,1.53-2.35,1-5.99ZM63.97,133.85c-4.25-.76-3.69,5.59-4.02,5.94-.37.39-4.8-.23-6.39.1-2.74.57-8.28,4.02-11.05,3.87-1.85-.1-4.5-3.3-7.33-1.8l-1.12,9.85,11.49-2.08c4.89,5.38,11.9,7.3,13.56-1.81l2.87-.11.91,5.41c2.73,1.96,3.72-.04,3.72-2.7,0-6.14-3.17-10.76-2.64-16.67ZM41.02,221.65c-2.61-.31-2.05.14-1.76,2.26.31,2.34,1.57,7.43,2.31,9.72.56,1.73.07,2.38,2.45,1.98l-3-13.96Z"/>
      <path class="st0" d="M207.63,18.1c.56-9.04-4.19-.87-7.45-1.94l-1.45-3.6-7.06-.44v-6c2.29.28,5.17-.46,7.3.03,3.33.77,4.3,1.48,9.66,1.97,15.52,1.43,27.38,18.24,34.92,29.93l-2,1c-.57-.91-3.01-3.06-3.99-3.99-1.13-4.9-3.43-5.29-6.97-8.5-.62-.56-.79-1.99-1.22-2.26-1.57-.96-6.57.21-8.78-.22l.02,4.01-3.3-.03c-3.11,6.98,5.09-2.34,5.29,4-3.13-.33-5.8,2.56-5.96,5.55-.12,2.2,2.92,8.35-2.03,8.43-.23-2.06-.26-4-1.01-5.98-3.87-.11.14,4.46-5.95,2.99l-1.97-8.52c-2.44-1.62-6.31.57-9.02.54-4.64-.06-6.39-2.37-5.99-6.99h-2.98s-.84,7.41-.84,7.41c2.16,2.13,4.75,2.97,4.83,6.57-.26-.15-5.24-1.96-5.53-1.99-1.7-.15-3.5,1.22-4.8,1.07-1.14-.13-1.03-3.89-3.62-3.07-2.15,3.05.12,7.41-.23,9.36-.26,1.43-2.66,2.34-3.27,3.62-2.99,6.28,5.42,10.57,8.94,14.01,1.01.99,1.02,3.07,1.78,3.69.9.75,3.04.41,4.47,1.53,2.73,2.13,5.1,8.15,4.26,11.69l5.38-.07,1.61,4.06h-4.48s-.5,1.98-.5,1.98c4.29.45,3.21,5.25,4.3,8.2,1.44,3.87,5.49,4.02,3.67,7.78-.3.47-.13,4.77-1,5.99-2.64,3.48-3.52,7.53-2.99,11.97-6.89,1.61-1.53-4.04-5.98-3.99-1.34,4.62,2.22,4.42,1.99,7.98-1.13.3-8.09.26-9.29-.02-.54-.13-1.31-3.37-4.67-1.98l-.02,7.29-5.96,6.68,1.98-9.97-7.92-.07-1.8-5.45c1.84-1.53,3.23-4.49,4.83-5.86,3.8-3.25,3.36-1.27,6.85-5.9.66-.87,3.69-.67,1.53-2.68-1.49.09-3.01-.11-4.48,0-.59,1.26-1.5,4.51-3.99,3.99l1.19-3.83c.71-.5,1.94-.09,2.8-.16.78-1.66,4.76-11.26,3.99-11.97l-5.82.16c-2.12,3.55-2.15,9.01-5.54,11.45-.6.43-5.24.67-1.86,2.32,3.1,1.51,3.36,1.07,3.24,6.02l-6.9-2.92c-.06,2.12-2.31,2.55-3.08,3.68-3.05,4.49-.96,4.3-5.97,8.23.01-4.15-4.25-2.86-6.98-2.99-.65-3.27,1.97-1.39,3.71-2.3,3.6-1.89,7.04-12.89.29-11.67v7.98c-2.5,1.28-1.74-2.03-2.5-2.02-.25,0-4.3,1.87-4.49,2.03-.72.58-2.85,4.81-2,5.99-1.19.06-3.28-.59-4.1.58-2.27,7.42-1.35,13.04,7.09,10.39.14,1.64-.17,3.36,0,4.99-3.8-1.75-9.38,2.23-11.45,2.05-.76-.07.1-3.11-2.51-2.05l1.99,7.97c-4.68,2.44-7.62.75-11.48.91-6.11.26-4.32,6.64-4.49,11.07l-4.03-.58-.96,3.58-2.03-.58c-1.3-3.4-1.68-7.35.56-10.4,1.17-1.6,4.12-1.7,3.47-3.48-1.09-2.99-6.92-3.67-8.46-.5-.77,1.59-.14,4.63-1.44,5.55l-9.05.42c.93,5.21-1.12,3.28-2.85,4.58-3.84,2.88-6.32,4.08-5.67,9.49.38,3.15,2.36,1.94,2.54,5.89-.9.16-2.03-.13-2.99,0v3.98s2.99,0,2.99,0c0-1.32.06-2.67,0-4,3.61-.63,1.78-2.56,4.5-4.98,1.53-.24,1.72-.04,1.5,1.49-.08.56-2.93,8.4-3.31,9.19-.21.43-1.75.65-2.47,1.97-.66,1.21-.34,3.37-1.28,4.75-.16.24-4.36,3.45-4.64,3.51-1.93.4-7.49-.92-8.26,1.54-1.74,5.59,7.59,1.97,9.97,3.48-.7.33-1.7,4.56-2.15,4.84-.91.56-4.25-.02-6.11.37-1.41.3-2.7,1.64-4.28,1.77-5.86.49.31-5.37-5.42-4l-3.99,13.97c7.61-1.23,11.48,1.06,16.19,6.73,5.54,3.29,10.25-6.6,13.75-9.43.76-1.3,1-2.8.99-4.28l1,6.98c3.21.67,1.36-4.59,4.26-5.65,1.29-.47,2.38-.42,3.71-.34l-.06,7.38,3.61,1.54.45,3.05c-5.85.95-7.61,2.24-8.64,8.04-3.53.63-6.52,2.7-7.32-2.04,5.96.32,8.78-4.45,7.98-9.98-5.73-1.62-5.08,4.25-6.25,5.74-.42.53-1.68.17-1.73.25.13-5-2.8,1.53-3.22,1.76-1.78.94-7.28.68-9.71,2.77-1.73,1.5-6.19,12.33-5.02,13.43h6.98s-1.03,5.98-1.03,5.98c-6.63-2.83-4.32,3.83-9.94,1.01-.72,3.04,1.97,1.5,3.47,2.97,2.72,2.66,2.34,6.38-2.49,5.01.05,1.61-.36,3.56.49,5,1.21,2.06,9.63,2.03,3.78,4.17l.17,2.85c3.57.08,5.16,2.34,6.93,3.08,10.39,4.34,23.83,6.79,35.03,7.87,1.89.18,4.03-1.2,3.48,1.96-1.65-.07-3.34.11-4.99,0-27.82-1.93-51.23-13.06-71.83-29.93,3.96.8,3.28-1.53,3.04-4.53-.38-4.71-3.13-10.32-3.04-15.42l4.2,5.27.79,4.7,3.97-1.01c.89,9.31,8.6,4.28,14.93,4.93.32-.91-.16-2.18.04-2.93,1.59-5.78-2.35-10.5-.98-17.45.52-2.62,4.13-3.92,2.98-7.49-2.39.8-7.63-.27-9.38,0-.64.1-.91,5.3-5.28-2.04-4.06-1.01-7.09,3.55-9.31,6.55-.9,3.86,1.49,3.22,2.03,4.18.65,1.16.61,2.58.99,3.27-3.87-.93-9.63-5.71-9.01-9.94l-4.92-.07-.95-4.54-7.06-2.42c.17-.81-.04-2.04,0-2.99.21-4.86-2.04-5.44-1.99-8.39.06-3.41,2.81-3.09,3.05-5.03.62-4.89-1.64-9.64-1.07-14.53,2.6-.26,5.83.55,8.29-.19.46-.14,7.88-4.44,8.27-4.73,1.6-1.19.7-4.08,4.39-3.04-4.23,10.19,8.72,17.48,6,27.23-.43,1.54-7,1.68-5.77,8.95.18,1.06,1.88,2.27,1.79,3.72,2.43,1.05,1.74-1.88,2.58-2.04l8.37,4.05c.3-.41-1.08-8.98-1.43-10.08-.65-2.1-4.47-2.96-2.44-7.82l2.85-.08c-1.16-3.95-.25-8.6-.94-12.49-.5-2.8-4.11-1.8-3.02-5.45,8.8-.92,8.31,8.34,12.16,13.75l4.8-.29c2.6-1.3,2.02-5.02,1.99-7.48-11.28,1.3-4.95-4.53-5.17-7.31-.14-1.89-3.48-8.42-2.74-11.02l8.48-2.57.65-7.82c2.44-.92,5.67-.61,8.02-1.27.86-.24.73-1.93,1.3-1.95,1.2-.04,3.03,1.8,4.42.52,2.38-1.76-.82-3.03-.92-4.94-.08-1.54,1.34-3.69.92-5.55l4.49,2.02c5.55-1.26,1.34-6.12,3.5-10,3.28-3.14,1.49,9.51,1.98,9.98l4.95-.05c1.29-5.79,2.07-9.94,1.03-15.92,5.95-2.7,8.4,4.19,11.45,4.05.28-.01.97-3.52,4.51-2.06-1.84,8.98,7.55,6.48,5.86.7-3.13-3.43-6.91-5.66-11.85-4.68,1.6-5.1-3.28-8.29-3.05-12.48l.16-1.44,2.79-.11c.37-1.95-.03-3.97.11-5.93l3.83-.16c-.17-2.3,1.54-2.91,2.15-3.83l2.97,8.55c1.44.92,4.98-1.85,7-2.57.08,4.54-4.45,3.24-5.78,4.19-.64.45-.57,2.22-1.18,3.1-.74,1.07-3.39.45-1.58,3.76l7.04,2.92c5.03-3.34-3.19-5.14-1.48-6.96l9.97-1.01c-.41.93-2.25,5.74-1.99,5.98h7.98s2.88-10.32,2.88-10.32c-1.06-3.19-4.84-.84-6.87-.65-.72.07-2.72.17-2.93-.07l-.07-2.93c-1.71,1.79-3.28,1.45-4.98,2,.1-5.33,3.05-3.17,5.55-4.91,5.21-3.62-.98-12.31-1.56-18.04,4.86,1.95,9.45,5.29,7.98,10.98h4.99s-1.99,7.97-1.99,7.97c2.59.78,5.77-1.17,5.98-3.99,6.84-1.46,2.79,12.82,3.99,13.97l3.08-.59,2.92-11.39c3.15-.69,1.75,1.99,1.98,4l4.85-.17,7.27-13.66c6.93.54,9.94-2.64,7.74-9.31-.2-.59-1.23-.85-1.78-1.69-.94-1.45,1.4-3.09-3.53-1.2l-1.58-5.9h-3.97c.14,2.62.52,6.6-3.49,5.98l-2.99-8.97c-2.42,2.65-4.9,5.46-4.48,9.44.65,6.13,2.21,1.98-.02,10.51-1.03.08-2.27-.92-2.99-1l-3.48-6-2.5,6c-.56-.06-1.32.27-1.82-.14-1.1-3.09-2.91-5.99-1.28-9.26,4.65-.67,3.5-.81,5.62-4.58l4.45,2c3.45-4.41.05-5.32.02-7.47,0-.29,1.92-5.15,2.14-5.34.99-.83,5.54.97,6.83-1.67-1.38-2.81-2.32-1.37-1.99-5.47.05-.66-.04-1.34,0-2h1.99c.4-1.06-.98-1.88-.99-2-.13-1.28.21-2.81,0-3.99h1.99s-.96-5.55-.96-5.55c-.56-.48-1.39-.29-2.03-.43-.85-.19-2.04.12-2.99,0s-2.54-2.21-5.03-.54c-6.16,4.12,6.77,23.63-4.84,22.39l-1.62-3.91c-1.58,1.38-5.36,1.72-6.47,2.54-2.33,1.72-5.1,8.51-6.35,11.11-1.14,2.37-4.42,2.15-4.61,2.34-.33.35.74,1.92.65,2.67-.11.89-.65,1.24-.65,1.31l-2.98-4.5,1.99-5.48h-4c-.79-3.13,2.63-1.51,4.09-3.39,4.03-5.18-3.2-14-.21-17.99.89-1.19,3.12-.3,4.42-.73s4.2-5.84,8.67-4.84c-1.9-4.96-1.12-7.38,3.02-10.52l7.95,1.56v-4.01c4.22-1.77,5.61,3.75,6.69,4.02,3.61.9,9.99-.85,14.26.97,1.84-1.91-6.07-10.74-8.97-9.99-3.11-3.88,10.93-3.08,12.91-2.43,3.12,1.03,7.01,5.26,10.88,5.59-1.39,6.21,5.08,4.19,6.13.85,4.11,1.2,5.03,4.3,9.97,2.99-2.3-4.79,2.5-7.36,2-11.96-1.98.06-4.01-.12-5.99,0-.32,5.09-.69,6.45-5.99,6.98.14-.95-.11-2.02,0-3h4.01s0-4,0-4c.66-.05,1.33.05,1.99,0ZM158.74,75.97h-1.98v1.99h1.98v-1.99ZM51,245.6h-2.98v1.99h2.98v-1.99ZM60.99,255.57l6.93-4.59c-1.2-3.23-4.37-6.08-7.93-5.37l2.06,2.62-1.06,7.35Z"/>
      <path class="st3" d="M110.86,12.11v1.99c-1.32.07-2.66-.06-3.99,0-.25.75-1.26,3.73-1,3.99,6.98,0,.65,2.9-1.06,4.71-.61.64-.52,2.78-1.06,3.13-2.62,1.71-7.42-3.04-13.77,2.7-2.14,1.93-5.71,8.85-6.3,9.19-.89.51-2.51-.07-3.43.55-2.25,1.5-3.61,4.88-3.34,7.62-3.75-.13-7.65.4-11.39,0-1.4-.15-2.46-1.69-3.23-1.8-1.4-.2-2.21,1.88-3.6,1.68-.96-.14-2.1-2.18-4.12-1.92-2.96,4.19-6.91,6.23-7.67,11.93-2.84-.06-8.44.43-10.55,2.41-1.1,1.04-1.13,3.3-2.02,4.42-3.45,4.4-6.43,3.07-9.82,6.2-3.08,2.85-7.89,14.09-10.44,18.27-.77,1.26-3.52,3.3-4.79,5.4-5.48,9.09-7.08,12.62-7.15,23.28-3.03.55-1.91-1.53-1.99-3.44-.51-11.96,2.08-18.08,5.89-27.27,8.48-20.44,33.9-42.85,52.28-54.77,3.09-2,10.44-3.29,14.57-4.88,10.94-4.2,23.14-10.94,34-11.41.15-.46-.23-1.33.03-1.95,1.31-.2,2.64.01,3.96-.05Z"/>
      <path class="st3" d="M11.11,135.84c2.38-.09,4.68-.18,7.02.47.64.18,10.21,5.38,10.66,5.79,1.88,1.7,1.16,7.22,1.27,9.71-2.76,1.19-1.54-3.76-3.94-1.93-.3.23.38,3.11-4.03,1.94v-7.98c-7.58.2-9.74,6.89-10.01,13.52-.09,2.3,1.28,5.71.95,6.81s-2.3,1.27-2.62,1.89c-1.08,2.07-.69,3.92-2.84,6.68-2.88,3.7-3.22-.08-3.44,7.02-3.22.56-1.71-1.63-1.95-3.49-1.11-8.73-2.55-18.23,1.42-26.47,3.33-.02,4.87-3.12,5.82-3.65,4.32-2.42,8.14-.04,6.69-8.3-5.63.65-3.81-.05-5-1.99Z"/>
      <path class="st2" d="M241.55,39.05c2.09,3.38,1.54,7.69,2.46,9.04.55.81,2.49.62,3.58,1.64,2.53,2.37,7.35,15.4,8.91,18.95.96,2.19.05,5.86,3,5.29.08.65-.07,1.34,0,2,.45,4.14,1.01,9.88,1,13.97,0,2.84-.77,9.8-4.49,10.05s-2.27-1.92-2.49-2.07c2.83-4.23-2.03-6.11-2.02-6.49.06-1.97,2.51-2.53,2.99-5,1.53-7.85-3.32-19.27-6.43-26.45l-5.51-8.95c-.35-.95-3.33-.68-.99-4.98l-2.98-.02c.73-3.74-.16-7.25-1.01-10.96.98.93,3.42,3.08,3.99,3.99Z"/>
      <path class="st3" d="M144.78,19.1c-9.04-4.1-17.46,3.69-23.94-6.98.09-.06-.4-1.73.65-2.01,1.77-.47,15.52-.24,17.55.27,4.06,1.02,5.57,4.9,5.74,8.73Z"/>
      <path class="st3" d="M172.71,2.13c-.56-3.02,1.53-1.92,3.45-2,3.96-.16,8.1-.13,12.06,0,1.92.06,4-1.02,3.45,2-4.95-.28-10.01.21-14.97,0v4.01s-6.98-.02-6.98-.02v4.01c-3.96.1-7.99-.17-11.96,0-.77-6.04,2.35-4.64,5.18-6.09,2.09-1.07-.13-1.56,4.79-1.89l.63,2.02,6.35-.03v-1.99c-.66-.04-1.33.02-1.99,0Z"/>
      <path class="st5" d="M243.54,38.05c7.5,11.64,14.32,21.7,15.96,35.92-2.95.57-2.04-3.1-3-5.29-1.56-3.56-6.38-16.59-8.91-18.95-1.09-1.02-3.03-.82-3.58-1.64-.92-1.35-.37-5.66-2.46-9.04l2-1Z"/>
      <path class="st3" d="M155.75,10.12c-.9,4.79,9,5.21,6.52,10-1.88,3.09-5.25,1.41-7.83,1.99-.82.18-.57,2.73-6.67,1.98-.07,1.33.07,2.67,0,4h-3.98c-1.03-2.12.93-5.02.99-5.99.95,1.81,1.22,1.78,2.99,2,.04-.66-.05-1.33,0-1.99,4.91,1.3,5.09-3.3,9.98-2-.85-4.23-6.34-4.1-4.98-9.97.99-.05,2,.03,2.99,0Z"/>
      <path class="st4" d="M172.71,2.13c.66.03,1.33-.03,1.99,0v1.99s-6.35.03-6.35.03l-.63-2.02c1.6-.11,3.38-.07,4.99,0Z"/>
      <path class="st5" d="M154.76,124.86c5.01-3.93,2.93-3.74,5.97-8.23.77-1.14,3.02-1.56,3.08-3.68l6.9,2.92c.12-4.95-.13-4.51-3.24-6.02-3.38-1.64,1.26-1.88,1.86-2.32,3.38-2.44,3.42-7.89,5.54-11.45l5.82-.16c.77.71-3.21,10.31-3.99,11.97-.86.07-2.09-.34-2.8.16l-1.19,3.83c2.48.53,3.39-2.72,3.99-3.99,1.47-.12,3,.08,4.48,0,2.16,2.02-.88,1.81-1.53,2.68-3.49,4.64-3.04,2.65-6.85,5.9-1.6,1.37-2.99,4.33-4.83,5.86l1.8,5.45,7.92.07-1.98,9.97,5.96-6.68.02-7.29c3.36-1.4,4.13,1.85,4.67,1.98,1.2.28,8.17.32,9.29.02-.15,2.32-1.68,5.38-1.68,7.67.01,3.03,2.36,6.36.68,10.28h2.98c-1.09-7.25,3.34-12.56,2-19.95-2.58-1.21-3.44,1.86-3.99,2,.23-3.56-3.33-3.36-1.99-7.98,4.45-.05-.91,5.6,5.98,3.99.13,1.08.93,1.7,1,2,1.06,4.76,2.59,4.22,1,9.98-.52,1.87-2.32,2.21-2,5.99.26,2.99,3.2,6.21,1.99,9.97l-3.98-1.99c.75,2.14-1.51,6.57-1,7.98-1.32.08-2.68-.12-3.99,0,1.17-3.88,2.32-13.51-2.59-14.73-.76-.19-1.97.64-2.75.44-1.42-.36-1.83-2.13-3.64-1.67-1.19,6.34,3.17,10.62,1.99,16.96-.53-.15-1.37.1-2,0-.04-.12-1.47-.5-1.79-1.66-.75-2.67,1.39-8.07-2.19-7.32.34,7.43-.63,11.4-4,17.96-1.11.14-6.74,2.51-4.98,3.99,2.63-.97,6.25.33,8.44.05,1.7-.22,14.76-4.4,15.5-5.03.42,1.55-1.38,3.8,1.48,4.01,7.51.55,4.15-2.72,5.8-4.76.41-.51,1.65-.17,1.7-.25h1l2.89,16.28c-1.06,2.88-5.62,2.91-6.88,3.67-.57-5.11-5.57-3.25-8.02-4.46-1.41-.7-1.53-3.27-2.65-3.54-2.99-.72-7.73.82-11.2-.95-3.52,4.12.47,7.86-.79,10.66-1.86,4.14-3.75.09-6.27,2.29-1.92-.94-3.17-2.73-5.98-2-.74.73,1.7,6.08-1.99,4.99v-8.98c-2.84.38-6.66-.58-9.28.04-.62.15-.56,1.35-1.51,1.85-1.64.86-3.64-.29-4.72,3.14h-1.92s-4.52-6.02-4.52-6.02c.18-.02.7-.87,1.55-.94,8.02-.74,15.35-.05,23.4-.05l-.15-4.84c-4.11-2.38-7.98.93-12.33.92-3.56,0-7.56-1.93-11.47-1.07l-1.01-8.99-9.68,1.66c-.7.07-1.2-.66-1.28-.66,2.28-4.13,4.3-4.98.99-9.45,2.96-1.83,4.73-3.2,3.07-6.89l-2.57-.64c-1.53,3.21-3.16,6.28-2.5,9.99-5.29-2.13-8.17,1.4-12.96,3.54l1.99,5.45c-3.55-.43-2.06-3.86-5.98-3v7.98s-6.94-2.04-6.94-2.04l-.05-3.95-4.52,2.02,1.54,9.97c3.23.55,4.01-1.11,4.01-3.99,2.87-1.17,2.87,1.82,3.63,1.99,1.97.44,9.33-2.09,9.29.5-.02,1.66-9.28,4.36-7.96,8.48,4.67.26,8.19-2.8,12.06-4.39,2.88-1.18,8.7-.74,8.88-4.59h2.99s0,2.99,0,2.99c-2.2.27-5.02,3.58-5.03,5.52-.01,2.73,5.55,3.02,5.02,6.45l-4.41-.06-2.61,3.71,2.03,7.33h-4.99c1.45,3.86-.99,14.09-3.51,16.95-1.7,1.94-4.59.1-6.96,2.02-4.93,4.01-5.25,13.05-7.15,15.05-4.55,4.76-17.76,1.89-15.31,11.34,5.9,2.75,4.58-4.27,7.98-6.44-1.37,7.41,2.23,6.56,7.28,9,2.28,1.1,5.71,2.13,7.02,2.91,1.19.71,1.27,3.26,3.35,3.88,3.11.92,8.8-.02,12.51,1.26.86.3,6.23,4.49,6.77,5.9-1.02.39-1.09,1.07-2.99,1-4.83-.19-6.17-4.34-8.72-4.78-1.91-.33-3.81,1.29-5.63.72-1.31-.41-1.24-2.7-2.31-2.95-5.1-1.18-3.96-.46-9.04-2.72s-9.93-6.21-15.08-2.12l-.07,2.32c3.32,1.36,2.9,4.72,5.39,6.57.56.42,10.49,4.62,11.25,4.77,4.77.93,7.68-2.66,12.19-2.8l1.65,3.92c1.86.64,4.38-1.4,6.64-.81,1.74.46,2.79,3.36,4.4,3.71,1.37.3,2.76-.83,3.85-.74,1.59.14,2.92,1.7,5.87,1.96,6.91.61,9.15-3.18,14.09-4.01,4.14-.69,8.6-.14,13.41-1.06-2.3,4.3-8.64,4.15-12.97,4.99-12.56,2.43-26.08,2.55-38.91,2,.55-3.16-1.59-1.78-3.48-1.96-11.2-1.09-24.64-3.54-35.03-7.87-1.78-.74-3.36-3-6.93-3.08l-.17-2.85c5.85-2.15-2.57-2.12-3.78-4.17-.85-1.44-.44-3.39-.49-5,4.83,1.37,5.21-2.35,2.49-5.01-1.51-1.47-4.19.07-3.47-2.97,5.62,2.82,3.31-3.84,9.94-1.01l1.03-5.97h-6.98c-1.17-1.1,3.29-11.94,5.02-13.44,2.42-2.09,7.92-1.83,9.71-2.77.43-.23,3.36-6.76,3.22-1.76-.11.17-.11,3.34,0,3.99.8,4.74,3.79,2.67,7.32,2.04,1.04-5.8,2.8-7.08,8.64-8.04l-.45-3.05-3.61-1.54.06-7.38c-1.33-.08-2.42-.14-3.71.34-2.91,1.06-1.05,6.32-4.26,5.65l-1-6.98c0-.57.13-1.79,0-2,.77-2.04-1.97-1.92-2.05-2.61-.65-5.53,4.48-5.3,7.28-6.45.9-.37.81-1.91,1.34-1.97,2.28-.26,3.88,2.64,6.4,2.04.78-7.94-4.47-5.95-7.39-7.89-1.02-.67.1-2.57-1.78-3.42-1.7-.76-3.94-.7-5.79-.67-.25,1.13.32,3.15,0,4-.16.41-4.39,2.79-4.84,4.69-.35,1.44,1.22,3.89.86,4.28-.28.31-2.39-.28-3,0-2.38-1.51-11.71,2.1-9.97-3.48.77-2.46,6.32-1.14,8.26-1.54.28-.06,4.48-3.27,4.64-3.51.95-1.39.62-3.55,1.28-4.75.72-1.31,2.26-1.54,2.47-1.97.38-.79,3.23-8.63,3.31-9.19.23-1.53.03-1.74-1.5-1.49-2.73,2.42-.89,4.35-4.5,4.98.06,1.33-.01,2.67,0,4h-2.98s0-3.99,0-3.99c.96-.13,2.09.15,2.99,0-.18-3.95-2.16-2.74-2.54-5.89-.65-5.42,1.83-6.61,5.67-9.49,1.73-1.3,3.79.64,2.85-4.58l9.05-.42c1.3-.91.66-3.96,1.44-5.55,1.54-3.17,7.37-2.49,8.46.5.65,1.78-2.3,1.88-3.47,3.48-2.24,3.05-1.86,7-.56,10.4l2.03.58.96-3.58,4.03.58c.17-4.43-1.63-10.81,4.49-11.07,3.86-.16,6.8,1.53,11.48-.91l-1.99-7.97c2.61-1.07,1.75,1.98,2.51,2.05,2.07.18,7.65-3.8,11.45-2.05.4,3.62,1.38,2.73,2.99,0,.23.19,1.42-.16,1.99,0v1.48c-5.26,3.48-7.1,7.11-5.56,13.56.44,1.83,2.25,3.66,2.38,4.61.11.79-2.75,5.74-2.69,7.85l4.85,4.43c.29-2.48,4.99-16.19,6.16-16.86.6-.34,6.03,2.3,7.79-3.64l-1.96-1.94c.97-.8,1.78-1.72,1.98-3.02,1.31-8.61,1-17.81.01-26.42-3.37-.78-2.21,3.56-3.07,5.2-.92,1.77-5.67,7.3-5.9,7.77-.83,1.65,1.41,3.22-3.99,3.99.79-1.7-.81-4.46,3.99-3.99.87-3-2.58-1.11-2-3.99.71-.6,1.27-1.43,2-2ZM169.22,169.76v1c.65-.33.65-.67,0-1ZM89.91,235.62c-5.88.2-7.94,1.91-6.97,7.97,3.69.56,2.37-3.74,3.2-4.78.59-.74,4.47-.12,3.78-3.2Z"/>
      <path class="st5" d="M260.5,89.94c3.01-.56,1.94,1.53,2,3.45.14,4.7.51,7.99,1,12.52l-2.48,1.99c-1.27-.87-1.72-3.44-3.11-3.9-2.49-.82-2.24.92-2.39.91-2.12-.12-5.44-3.98-6.97-5.5v-1.48c.66-.04,1.33.03,1.99,0s2.81-.13,2.99,0c.22.16-1.08,2.32,2.49,2.07s4.49-7.21,4.49-10.05Z"/>
      <path class="st0" d="M82.93,111.89c-.95.9-3.82,6.07-5.4,7.07-1.83,1.15-6.56,1.38-8.62,3.56-.99,1.05-.83,4.97-3.93,4.33v-4.98s-4.98,3.98-4.98,3.98c.32-2.68-2.83-6.62-2.9-8.43-.08-2.18,2.84-5.8-1.59-6.53-4.66,3.18,1.56,8.81-5.36,9.11-.86,3.31,1.62,7.18-2.19,8.45,2.53,8.42,4.4.34,6.55-.59,3.12-1.34-.15,8.2-.75,8.74-.4.35-3.68,1.21-4.39,1.24-1.31.05-2.1-3.22-5.27-2.13l-.08-2.87c-3.17-.88-2.89,6.29-6.51,3.03-2.03-3.62,1.04-6.59,1.48-9.57.24-1.63-.07-10.81-2.92-8.41-4.48,5.75-1.3,5.17-1.07,8.45.15,2.14-2.88,5.96-1.95,8.88l-2.5.65c-.17-3.42-6.99-1.4-7.52-3.68l-.03-7.78,3.06-.55c.63-3.86-2.99-.23-3.03-3.5-.04-3.76,4.33-6.18,3.03-10.46l-5.06.44-.93,3.55-2.03-.58c-3.21-5.34,1.33-8.74,1.98-12.95.39-2.52-.42-5.46.09-7.72.09-.37,3.75-3.73,3.01-6.66l2.94-.04v4.01c4.54,2.26,6.97-7.98,8.02-2.06l1.45.07c.51-3.09,3.97-1.46,5.07-2.92,2.23-2.96-3.11-8.52-1.57-10.06,2.77-2.76,5.17,4.95,5.57,5.06,5.45,1.51,7.51-6.39,13.38-4.06,1.25,1.05-8.41,8.27-1.5,9,6.1.64,5.22-3.34,7.43-5.59.21-.21,4.59-3.19,4.86-3.3,6.77-2.77,4.73,1.03,6.79,1.77,6.81,2.46,9.95-9.04,10.35-13.85l-2.86-.1v-3.79s13.85-.11,13.85-.11v-4.01s2.98,0,2.98,0c-.49,4.33,2.06,6.84,4.99,9.5.79,3.55-6.66,2.16-6.98,2.48-.55,2.86.63,5.39,1,7.99l-3,3.99c-2.96.83-1.11-2.08-3.45-2.12-10.29-.16-8.36,11.17-9.78,17.32-.17.74-5.36,10.26-5.87,10.58-1.16.73-4.24-.14-5.84.16l2,11.96c.64.89,3.92-2.54,4.46-3.01.96-.84,1.29-2.46,1.76-2.77,1.11-.72,3.26.07,3.75-.21.22-.13.65-3.32,1.64-4.89,2.54-4.03,11.29-5.33,9.41-13.99l9.91-1.07c2.01-8.23-6.3-3.54-5.99-9.98,2-.7,1.84,1.79,2.68,1.98,1.78.39,7.84-.4,8.29.02.98,2.47-2.74,3.93-2.95,4.71-.47,1.76.07,3.56-.81,5.99-.69,1.91-5.79,10.1-7.19,10.76-2.12,1-4.3.11-6.29.52-.52.11-7.99,5.29-8.69,5.95ZM65.79,92.14c.8.47,2.39,6.92,6.2,2.32,2.43-2.92,7.71-11.27,1.43-12.48-10.24-1.97-7.02,3.5-10.45,5.46-2.39,1.37-6.57-.21-8.46,3.52-1.27,2.5.57,4.73.56,7.46,0,3-2.6,6.31.41,8.46,2.65-2.17,3.09-5.6,4.5-8.25.7-1.31,4.26-2.56,2.99-6.7.9.1,1.97-.28,2.81.21Z"/>
      <path class="st5" d="M165.73,40.05c-4.96,2.77-.03,4.25.04,4.63.55,3.05-4.3,9.67,2.95,9.34-.34,4.1.6,2.66,1.99,5.47-1.29,2.64-5.84.84-6.83,1.67-.22.19-2.14,5.05-2.14,5.34.03,2.14,3.43,3.05-.02,7.47l-4.45-2c-2.12,3.77-.97,3.91-5.62,4.58-1.63,3.27.19,6.17,1.28,9.26.5.41,1.26.08,1.82.14,1.95.2,4.04-.2,5.99,0,.72.08,1.97,1.08,2.99,1-.19.75.06,2.05,0,2.99-1.99.02-3.99-.03-5.99,0-.65.01-1.36-.08-2,0-.73.09-1.69-.45-2.08.6-1.35,2.08.09,3.2.08,3.39-.03.66.05,1.34,0,2-.21,2.81-3.39,4.76-5.98,3.99l1.99-7.97h-4.99c1.48-5.69-3.11-9.03-7.98-10.98-.1-.95-.02-2.02,0-2.99,0-.07.54-.42.65-1.31.09-.75-.98-2.32-.65-2.67.19-.2,3.47.03,4.61-2.34,1.25-2.6,4.03-9.39,6.35-11.11,1.11-.82,4.89-1.17,6.47-2.54l1.62,3.91c11.61,1.24-1.32-18.27,4.84-22.39,2.5-1.67,4.07.42,5.03.54ZM149.77,67.98l-4.55.94-.43,5.06h-4.01c-1.05,4.7,2.12,4.57,4.62,6.31,1.38.96,1.03,3.6,4.36,2.66v-14.96Z"/>
      <path class="st5" d="M98.89,75.97c.53,3.64-.87,3.25-1,5.99-.3,6.44,8,1.74,5.99,9.98l-9.91,1.07c1.88,8.67-6.87,9.97-9.41,13.99-.99,1.57-1.42,4.76-1.64,4.89-.49.28-2.64-.51-3.75.21-.47.3-.79,1.92-1.76,2.77-.54.47-3.82,3.9-4.46,3.01l-2-11.96c1.59-.3,4.67.57,5.84-.16.51-.32,5.7-9.84,5.87-10.58,1.42-6.14-.51-17.48,9.78-17.32,2.34.04.49,2.95,3.45,2.12l3-3.99ZM88.91,89.95h-2.98s-2.99,13.96-2.99,13.96c6.67-1.23,4.2-9.12,5.98-13.96Z"/>
      <path class="st5" d="M49.01,223.64c-.39-.69-.35-2.11-.99-3.27-.54-.96-2.93-.33-2.03-4.18,2.23-3,5.25-7.55,9.31-6.55,4.37,7.34,4.64,2.14,5.28,2.04,1.75-.27,6.99.8,9.38,0,1.16,3.57-2.46,4.87-2.98,7.49-1.37,6.94,2.57,11.67.98,17.45-.65.05-1.35-.08-2,0h-1c-1.98-.25-7.9-.41-8.73-1.25-2-2.69-3.34-7.09-4.86-9.65-.53-.89-1.99-1.4-2.37-2.08Z"/>
      <path class="st3" d="M63.97,133.85c-.53,5.91,2.64,10.53,2.64,16.67,0,2.66-.99,4.66-3.72,2.7l-.91-5.41-2.87.11c-1.66,9.11-8.66,7.2-13.56,1.81l-11.49,2.08,1.12-9.85c2.84-1.5,5.49,1.7,7.33,1.8,2.78.15,8.31-3.3,11.05-3.87,1.6-.33,6.02.29,6.39-.1.33-.35-.23-6.69,4.02-5.94Z"/>
      <path class="st3" d="M27.07,206.68c-.38,1.78-.53,3.3-2.99,2.99v-5.98s-5.99,2-5.99,2c-.48-.48.37-11.27.05-13.52-.34-2.41-2.1-3.82-2.14-5.92-.05-2.44,2.05-4.37,2.16-7.01s-1.41-4.9-1.07-7.47c1.24-.93,4.51,1.74,4.67,2.26,1.76,5.66-.66,16.35.54,23,.39,2.16,3.78,4.39,4.76,6.67-.04.95.17,2.18,0,2.99Z"/>
      <path class="st5" d="M132.81,103.91c1.7-.55,3.26-.21,4.98-2l.07,2.93c.21.24,2.21.14,2.93.07.5,2.27-1.33,3.47-2,4.99l-9.97,1.01c-1.71,1.82,6.51,3.62,1.48,6.96l-7.04-2.92c-1.82-3.31.84-2.69,1.58-3.76.61-.88.54-2.65,1.18-3.1,1.33-.94,5.87.35,5.78-4.19.29-.1.7.1,1,0Z"/>
      <path class="st0" d="M131.81,58.01c2.28,1.87-10.49,7.5-11.96,5.99,1.5-3.16-1.99-6.97-1.99-8.48s2.91-4.02,1.99-6.5c6.89-.27,2.5,11.19,11.96,8.99Z"/>
      <path class="st5" d="M207.63,18.1c1.98-.12,4.01.07,5.99,0,.5,4.6-4.3,7.17-2,11.96-4.94,1.31-5.86-1.79-9.97-2.99.16-.5-.09-1.36,0-2,5.29-.53,5.67-1.9,5.99-6.98Z"/>
      <path class="st5" d="M123.83,86.95c.06,2.53,1.36,4.1,0,7.98l-1,1c-.23.51-.77,1.66-1,2-.61.92-2.33,1.53-2.15,3.83l-3.83.16c.07-.99-.1-2.02,0-2.99,2.63.81,3.48-6.35,3.99-8.98.12-.62-.12-1.38,0-2l3.99-1Z"/>
      <path class="st0" d="M119.84,87.94c.76-3.99,1.04-8.03,2.01-11.97,1.45-1.39,1.81.08,1.98,1.47.36,2.86-.07,6.48,0,9.5l-3.99,1Z"/>
      <path class="st0" d="M41.02,221.65l3,13.96c-2.38.4-1.89-.25-2.45-1.98-.75-2.29-2-7.38-2.31-9.72-.28-2.12-.84-2.57,1.76-2.26Z"/>
      <path class="st0" d="M119.84,89.94c-.51,2.63-1.36,9.79-3.99,8.98.32-2.97.43-9.26,3.99-8.98Z"/>
      <path class="st0" d="M122.83,95.93l1-1c-.22.63-.94.87-1,1Z"/>
      <path class="st0" d="M64.98,236.61h1c-.81.1-.2.1-1,0Z"/>
      <path class="st4" d="M92.91,183.73c3.41,2.47.9,10.6-2.97,11.01l.02,1.4c.88,2.49,4.76,4.25,4.95,4.54.13.21,0,1.42,0,2,.01,1.48-.23,2.98-.99,4.28-3.5,2.82-8.2,12.71-13.75,9.43-4.71-5.67-8.58-7.96-16.19-6.73l3.99-13.97c5.73-1.37-.45,4.49,5.42,4,1.58-.13,2.87-1.48,4.28-1.77,1.86-.39,5.2.19,6.11-.37.45-.28,1.45-4.51,2.15-4.84.6-.28,2.71.3,3,0,.36-.39-1.21-2.84-.86-4.28.46-1.9,4.69-4.28,4.84-4.69Z"/>
      <path class="st4" d="M142.79,121.87c1.63-.08,3.36-.08,4.99,0,2.73.14,7-1.16,6.98,2.99-.73.57-1.29,1.4-2,2-.19.16-1.19-.57-1.99.71-1.15,1.83-1.76,5.99-2,8.27-.07.64-.87-.16,0,1,.16.21-.17.86,0,1-1.61,2.73-2.59,3.62-2.99,0-.18-1.63.14-3.35,0-4.99-8.44,2.64-9.36-2.98-7.09-10.39.82-1.17,2.91-.53,4.1-.58Z"/>
      <path class="st4" d="M144.78,115.88h-7.98c-.26-.24,1.58-5.05,1.99-5.99.66-1.52,2.49-2.72,2-4.99,2.02-.19,5.81-2.54,6.87.65l-2.88,10.33Z"/>
      <path class="st5" d="M144.78,115.88c.19-.15,4.24-2.03,4.49-2.03.76,0,0,3.3,2.49,2.02v-7.98c6.76-1.22,3.32,9.78-.28,11.67-1.73.91-4.36-.97-3.71,2.3-1.63-.08-3.36-.08-4.99,0-.86-1.17,1.27-5.41,2-5.99Z"/>
      <path class="st4" d="M91.91,217.66c.05-.08,1.31.29,1.73-.25,1.17-1.5.52-7.36,6.25-5.74.8,5.53-2.02,10.31-7.98,9.98-.11-.65-.11-3.83,0-3.99Z"/>
      <path class="st5" d="M60.99,255.57l1.06-7.35-2.06-2.62c3.57-.7,6.73,2.14,7.93,5.37l-6.93,4.59Z"/>
      <rect class="st4" x="48.02" y="245.6" width="2.98" height="1.99"/>
      <path class="st2" d="M203.64,103.91c.06-.09,1.75.4,2.01-.65,1.11-4.46-2.2-7.61,5.96-8.32l-1.98,8.97c8.87-.87,10.54-7.68,11.06-15.46.37-5.54-2.29-7.11,2.91-12.95-6.62-2.85-.19-5.01.78-8.21.89-2.92,1.01-5.86,2.54-8.93.28-.55,2.86-1.07,1.66-4.34l5.98,1-.99-4.98,3.92.06c1.37,5.24,4.09,12.19,8.05,15.89.04.17,1.45,1.19,1.74,2.7.93,4.8,2.68,9.75-.44,14.01-.67.91-.03,1.76-2.29,1.25l-1.01-17.97h-2.98c-.09,5.74,1.01,15.22-.02,20.45-.38,1.93-2.16,2.8-2.92,5.06-1.18,3.51-3.51,17.45-2.99,20.83.98,6.36,6.57,19.34,14.84,17.47l1.05-5.93-4.89-.11-3.1-10.36c1.61-2.21,1.74.19,2.2.61.91.82,5.31,8.31,6.79,6.85,2.53-5.27-1.94-5.98-2.78-9.68s.73-8.85-1.77-12.2c-.72-.96-2.4-1.28-2.91-2.08-1.83-2.88.18-13.87,2.48-10.96-2.73,7.4.91,6.91,4,11.97-.66.03-1.33-.03-1.99,0v1.48c1.54,1.52,4.86,5.38,6.98,5.5,1.23.98,1.39,3.07,2,3.99-4.86-.38.98,7.41,1.53,8.95s.29,4.71.53,4.95c.32.32,2.78-.38,4.44,1.04,1.56,1.33,2.46,6.53,3.28,8.69l4.19,7.29c.11.98-.09,2.01,0,2.99.21,2.3,1.11,7.51,3.99,6.98,1.56,7.23,1.1,15.12,2,21.95-3.87-.62-1.02,3.84-2.23,5.78-.3.49-2.14.5-2.61,1.82-.43,1.19.28,16.34.89,17.56s2.2,1.12,2.74,2.45c1.14,2.79,3.59,12.98,3.94,16.04,1.22,10.86-1.3,22.33-6.68,31.72-4.65,1.67-11.3,7.26-15.27,8.68-6.69,2.39-18.96,3.23-26.16,2.74-11.32-.76-21.51-6.92-33.96-2-2.95,1.17-2.15,2.76-2.46,3.01-1.49,1.22-20.31,8.48-22.94,8.98-4.81.92-9.27.37-13.41,1.06-4.95.82-7.19,4.62-14.09,4.01-2.95-.26-4.28-1.82-5.87-1.96-1.09-.09-2.48,1.04-3.85.74-1.61-.35-2.66-3.25-4.4-3.71-2.26-.6-4.77,1.44-6.64.81l-1.65-3.92c-4.51.14-7.42,3.73-12.19,2.8-.77-.15-10.69-4.35-11.25-4.77-2.49-1.85-2.07-5.22-5.39-6.57l.07-2.32c5.15-4.09,9.79-.23,15.08,2.12s3.93,1.53,9.04,2.72c1.07.25,1,2.54,2.31,2.95,1.81.57,3.72-1.05,5.63-.72,2.55.44,3.89,4.59,8.72,4.78-.12,3.47-.63,2.77,2.45,3,7.41.56,9.14,1.44,15.78-2.03.64-.33.65-1.81,1.41-1.97,3.42-.71,5.34,2.1,8.78,2.12,1.29,0,7.57-1.59,8.82-2.1,1.17-.48.45-2.17.95-2.65,1.5-1.42,3.92-2.34,5.22-4.34l1.98,2.04,7.48-3.05-2.01-4.46c4.57-1.37,2.81-6.01,4.27-8.24.86-1.3,8.92-6.03.73-6.25l.97-2.52c2.89-1.31,9.46.08,6.35,3.62-.64.73-3,.46-2.32,2.88,3,1.28,5.88-3.7,6.72-3.93,9.95-2.8,12.55.25,23.71-6.03,6.13-3.45,11.51-6.99,17.58-10.39,1.24-.69,5.98-2.1,6.9-3.24.65-.8,4.03-8.95,3.99-9.75-.02-.3-3.23-.43-2.09-4.91.32-1.25,3.63-1.19,4.98-2.19,3.05-2.25,1.94-12.07,4.05-15.9l-4,.48c-.46-2.32,2.29-2.89,2.82-4.7,1.29-4.37-2.2-5.49-3.28-8.32-.35-.93-3.23-11.03-3.31-11.63-.3-2.2,2.52-3.47,2.52-5.58,0-3.1-2.98-8.12-2.76-11.67-4.16-.19-1.26,5.34-5.97,3.99l-.92-7.58c-2.17-2.88-5.36.66-6.6-1.36-.5-4.17-.81-7.14-3.44-10.58-.73-.96-2.77-1.11-3.02-2.15-.43-1.74.51-7.73.02-8.28-6.11,1.16-5.73,7.58-6.89,12.38l-3.08.58c.01-2.47,2.08-3.84,2.09-6.53,0-2.08-3.13-.98-2.04-3.9,3.8-2.31,5.93-7.4,7.39-11.55,3.16-8.95,2.79-15.89,3.53-24.38.26-2.93,2.52-3.9,1.86-9.91-1.16-10.59-7.78-.5-6.86,4.82.25,1.41,1.69,2.46,1.81,3.26.06.35-1.54,5.94-1.77,6.66-.08.25-1.71.46-3.44,3.17-.3.47-1.42.56-1.56,1.17-.89,3.82,2.02,7.81,1.66,10.56-.71,5.4-7.96,16.5-8.47,22.42-.23,2.75,1.12,4.89.79,7.6-.2,1.66-3.78,9.78-2.98,10.56l4.98-1.98c1.39,1.57-1.85,10.56-3.25,11.77-.71.61-2.5,0-2.72.21-.36.34.86,3.41.55,5-.5,2.53-3.24,4.33-3.99,6.03-.3.67-2.34,7.2-2.37,7.6-.14,2.05,3.26,4.15,3.53,5.95.41,2.73-2.22,6.12,1.21,9.72l-3.96,4.04,5.04,8.04c-5.11,1.87-2.71,4.72-3.49,7.5-.58,2.09-2.7,3.65-2.51,5.97h4.98c-1.47,4.9,3.7,3.77,2.99,7.98h-4.98c.79,4.88-2.94,8.31-5.5,11.97-2.63.34-.79-2.37-2.49-4.47-2.77-3.42-4.98-1.33-7.31-1.48-.27-.02-2.85-3.53-3.66-4.02.1-.1-.13-1.12.37-1.61,2.31-2.27,5.89-4.62,5.62-8.36-4.83.25-12.44-2.99-14.97,1.99-.1-.89-1.93-3.09-1-4.99,2.22-.42,5.63-2.91,8.7-2.74,1.54.08,2.51,1.8,3.63,1.64,1.99-.28,4.45-4.69,3.63-6.88l-8.99,1.48,1.13-4.36c4.25.51,7.58-1.55,6.86-6.1-6.37,2.62-8.42-1.08-13.91-1.96.15,3.19-3.05,5.24-4.04,7.94l-5-3-.47-2.97c-3.01,2.24-2.94,7.78-7.49,7.97-.31-2.95,1.05-8.1-1.41-10.08-1.98-1.6-18.63.47-21.55,1.59s-3.19,2.35-2.98,5.51l-1.99-3c-.87-.91-3.56,2.1-3.64,2.3-1.19,3.19-.89,11.35-1.8,12.71-.7,1.05-3.5.98-4.62,2.36-1.5,1.86-.57,4.64-3.85,7.14-4.26,3.26-4.28.02-4.47,8.48l-4.51.99-.05,3.91c2.92-.22,5.27-.11,6.97,2.52l-4.87,1.59c-2.07,3.62,1.1,8.94,4.34,10.9,3.56,2.17,6.58-.03,5.53,6.95h11.97s.02,7.97.02,7.97c-.62.15-1.55-.17-2.01,0-.53-1.41-5.91-5.6-6.77-5.9-3.71-1.29-9.4-.34-12.51-1.26-2.08-.62-2.15-3.17-3.35-3.88-1.31-.78-4.74-1.8-7.02-2.91-5.04-2.44-8.64-1.59-7.28-9-3.4,2.17-2.08,9.19-7.98,6.44-2.45-9.45,10.76-6.58,15.31-11.34,1.91-1.99,2.22-11.04,7.15-15.05,2.36-1.92,5.26-.08,6.96-2.02,2.51-2.86,4.95-13.09,3.51-16.94h4.99s-2.03-7.34-2.03-7.34l2.61-3.71,4.41.06c.53-3.43-5.03-3.71-5.02-6.45,0-1.94,2.82-5.25,5.03-5.52,1.6-.2,3.42.36,5.99,0l4.52,6.03h1.92c1.09-3.43,3.08-2.29,4.72-3.15.95-.5.89-1.7,1.51-1.85,2.62-.62,6.44.35,9.28-.04v8.98c3.69,1.1,1.25-4.26,1.99-4.99,2.81-.73,4.06,1.06,5.98,2,.44.21.93,1.31,1.92,1.59,4.21,1.22,7.54-1.49,11.05-2.59,2.43-.76,4.59-2.75,7.31-1.02.59.38,2.03,6.96,5.71,2.56.69-.83.72-2.31.94-2.54.35-.37,1.87-1.92,2-2,1.26-.76,5.81-.8,6.88-3.67l-2.89-16.28c6.29-.39,2.78-8.83,7.83-8.09-1.04-3.07,2.11-4.25,2.17-4.55.93-4.37-3.51-7.86-7.42-8.34-4.19,4.05,1.13,8.92.44,12.5l-2.83.63c-.73.71-.76,7.21-1.18,7.86-.05.08-1.29-.26-1.7.25-1.65,2.04,1.71,5.32-5.8,4.76-2.86-.21-1.06-2.47-1.48-4.01.32-.28,3.75-7.11,3.74-7.53-.03-.85-1.67-1.25-1.74-1.45-.51-1.42,1.75-5.84,1-7.98l3.98,1.99c1.21-3.76-1.73-6.99-1.99-9.97,4.19,1.9,6.18-.18,6.03-4.48-.11-2.93-2.66-1.05-4.03-1.51,1.59-5.76.06-5.22-1-9.98,1.52.79,2.58,2.64,2.96-.51.27-2.24,1.61-7.34,2.95-8.85,1.25-1.4,4.62.96,3.02-5.88-.04-.16-1.87-2.55-2.01-2.64-2.29-1.45-2.18,2.42-3.24,3.65-.37.43-1.6.15-1.69.26.87-1.22.7-5.52,1-5.99ZM257.5,122.87l-3.51.97-.47,6.01h3.98s0-6.98,0-6.98Z"/>
      <path class="st5" d="M214.61,46.04c4.95-.08,1.91-6.23,2.03-8.43.16-2.99,2.83-5.88,5.96-5.55-.2-6.33-8.4,2.99-5.29-4l3.3.03-.02-4.01c2.21.43,7.2-.73,8.78.22.43.26.61,1.7,1.22,2.26,3.53,3.22,5.84,3.61,6.97,8.5.85,3.71,1.75,7.22,1.01,10.96l2.98.02c-2.34,4.3.65,4.03.99,4.98,2.02,5.53,1.9,9.9,2.99,14.97-3.96-3.7-6.68-10.66-8.05-15.89l-3.92-.06.99,4.98-5.98-1c1.21,3.27-1.38,3.78-1.66,4.34-1.53,3.07-1.65,6.01-2.54,8.93-.98,3.21-7.4,5.36-.78,8.21-5.2,5.84-2.54,7.41-2.91,12.95-.52,7.78-2.19,14.6-11.06,15.46l1.98-8.97c-8.16.71-4.86,3.86-5.96,8.32-.26,1.05-1.95.57-2.01.65,1.82-3.76-2.23-3.91-3.67-7.78-1.1-2.95,0-7.76-4.3-8.2l.5-1.98h4.48s1,0,1,0c-1.11,1.52,3.63,8.45,4.98,6.98l-.75-11.75c4.39-1.58,2.04-6.4,7.68-5.31l.07-2.89,3.98,1,2-11.97-1.99,2.99c-5.45,1.13-4.28-7.18-3.99-10.98.2-2.67,1.53-3.21,1-7.98ZM215.6,89.94c-.82-1.06-5.03,3.12-3.98,3.98l3.51-.97.47-3.01Z"/>
      <path class="st4" d="M196.66,35.06c2.71.03,6.58-2.16,9.02-.54l1.97,8.52c6.1,1.47,2.08-3.1,5.95-2.99.75,1.98.78,3.92,1.01,5.98.53,4.77-.79,5.31-1,7.98l-10.97,3.52c-.51,2.03,2.01,3.46,2.02,4.98.02,1.83-4.68,4.24-3.01,10.79.2.78,1.98.63,2,1.24.05,2.03.25,8.43.1,9.95-.22,2.23-2,1.29-2.11,1.45h-1l-1.61-4.06-5.38.07c.85-3.54-1.53-9.56-4.26-11.69-1.43-1.12-3.57-.78-4.47-1.53-.75-.62-.77-2.71-1.78-3.69-3.52-3.43-11.93-7.73-8.94-14.01.61-1.27,3.01-2.19,3.27-3.62.35-1.96-1.92-6.32.23-9.36,2.6-.82,2.49,2.95,3.62,3.07,1.3.15,3.1-1.23,4.8-1.07.29.03,5.27,1.84,5.53,1.99.36.2,1.95,1.84,2,2,.33,1.3-.38,5.62,0,5.99h2.49c1.19-.34,1.54-4.7,1.5-5.99-.08-2.54-1.83-5.94-1-8.98Z"/>
      <path class="st4" d="M163.74,86.95c2.23-8.53.67-4.38.02-10.51-.42-3.98,2.05-6.79,4.48-9.44l2.99,8.97c4.02.62,3.63-3.36,3.49-5.98h3.97s1.58,5.9,1.58,5.9c4.93-1.89,2.59-.25,3.53,1.2.55.85,1.58,1.1,1.78,1.69,2.2,6.67-.81,9.86-7.74,9.31l-7.27,13.66-4.85.17c-.23-2,1.18-4.68-1.98-4l-2.92,11.39-3.08.59c-1.2-1.15,2.85-15.44-3.99-13.97.05-.66-.03-1.33,0-2l2-3.99c.63-.08,1.34.01,2,0l.63,2.02,5.36-.02c.05-.66-.05-1.33,0-1.99.06-.94-.19-2.25,0-2.99ZM173.55,87.79l.73-4.88-4.56-.95v6s3.83-.16,3.83-.16Z"/>
      <path class="st1" d="M202.64,109.89c.09-.12,1.31.17,1.69-.26,1.05-1.22.95-5.09,3.24-3.65.14.09,1.98,2.48,2.01,2.64,1.6,6.84-1.78,4.48-3.02,5.88-1.33,1.5-2.67,6.61-2.95,8.85-.38,3.15-1.44,1.3-2.96.51-.07-.3-.87-.92-1-2-.53-4.44.35-8.49,2.99-11.97Z"/>
      <path class="st5" d="M191.67,42.04c-.08-3.6-2.67-4.44-4.83-6.57l.84-7.41h2.98c-.4,4.63,1.35,6.93,5.99,6.99-.83,3.04.92,6.45,1,8.98h-3.99c-.04-.16-1.64-1.79-2-2Z"/>
      <path class="st2" d="M168.72,40.05c-.9,2.36.72,4.45,1,5.99.21,1.18-.13,2.71,0,3.99l-1,2c-.04.66.05,1.34,0,2-7.25.33-2.4-6.28-2.95-9.34-.07-.38-5-1.87-.04-4.63.95.12,2.15-.19,2.99,0Z"/>
      <path class="st4" d="M160.74,85.95c-1.94-.2-4.04.2-5.99,0l2.5-6,3.48,6Z"/>
      <path class="st5" d="M168.72,40.05c.64.14,1.47-.05,2.03.43l.96,5.56h-1.99c-.28-1.55-1.89-3.63-1-5.99Z"/>
      <path class="st5" d="M169.72,50.03c.01.11,1.39.93.99,1.99h-1.99s1-1.99,1-1.99Z"/>
      <rect class="st4" x="156.76" y="75.97" width="1.98" height="1.99"/>
      <path class="st1" d="M242.54,51.03l5.51,8.95c3.11,7.18,7.97,18.6,6.43,26.45-.48,2.46-2.93,3.03-2.99,5-.01.38,4.85,2.26,2.02,6.49-.18-.13-2.31-.04-2.99,0-3.08-5.05-6.72-4.57-4-11.97-2.3-2.91-4.31,8.08-2.48,10.96.51.79,2.19,1.12,2.91,2.08,2.51,3.35.94,8.51,1.77,12.2s5.31,4.41,2.78,9.68c-1.48,1.45-5.88-6.04-6.79-6.85-.46-.41-.59-2.82-2.2-.61l3.1,10.36,4.89.11-1.05,5.93c-8.27,1.88-13.86-11.11-14.84-17.47-.52-3.38,1.81-17.32,2.99-20.83.76-2.26,2.54-3.14,2.92-5.06,1.03-5.23-.07-14.7.02-20.44h2.98s1.01,17.96,1.01,17.96c2.26.51,1.62-.34,2.29-1.25,3.13-4.25,1.38-9.21.44-14.01-.29-1.52-1.7-2.53-1.74-2.7-1.09-5.07-.98-9.44-2.99-14.97Z"/>
      <path class="st5" d="M277.46,171.76c1.76,13.43,7.6,21.18,9.75,31.66.82,3.98,1.63,31.39.58,35.01-1.15,3.95-7.73,15.6-10.84,18.14-14.03,5.49-29.6,11.12-44.88,11.07-3.72-.01-9.04-1.56-12.98-2.07-2.81-.36-6.1.48-8.74-.06-.86-.17-2.61-3.75-3.44-3.91-3.57-.68-7.31-.05-11.25-2.03.31-.25-.49-1.84,2.46-3.01,12.44-4.92,22.64,1.24,33.96,2,7.2.48,19.47-.35,26.16-2.74,3.96-1.42,10.62-7.01,15.27-8.68,5.38-9.39,7.91-20.86,6.68-31.72-.34-3.06-2.8-13.25-3.94-16.04-.54-1.33-2.15-1.26-2.74-2.45s-1.31-16.37-.89-17.56c.47-1.31,2.3-1.33,2.61-1.82,1.21-1.95-1.65-6.4,2.23-5.78Z"/>
      <path class="st5" d="M257.51,108.9c2.4,3.7,3.14,3.93,6.98,4.99,1.33,10.63,5.99,17.11,6.98,25.94l-4.19-7.29c-.82-2.17-1.73-7.36-3.28-8.69-1.66-1.42-4.12-.72-4.44-1.04-.24-.24,0-3.49-.53-4.95-.56-1.55-6.39-9.34-1.53-8.95Z"/>
      <path class="st5" d="M271.47,142.82l1.83.14c.37,2.4,1.65,4.49,2.16,6.85-2.88.53-3.78-4.68-3.99-6.98Z"/>
      <path class="st1" d="M192.67,225.64c.81.49,3.39,4,3.66,4.02,2.33.16,4.53-1.93,7.31,1.48,1.7,2.1-.14,4.81,2.49,4.47,2.56-3.67,6.29-7.09,5.5-11.97h4.98c.72-4.22-4.45-3.09-2.99-7.98h-4.98c-.19-2.33,1.93-3.89,2.51-5.98.78-2.78-1.62-5.63,3.49-7.5l-5.04-8.04,3.96-4.04c-3.43-3.6-.8-6.99-1.21-9.72-.27-1.8-3.67-3.9-3.53-5.95.03-.4,2.07-6.93,2.37-7.6.75-1.7,3.49-3.5,3.99-6.03.31-1.59-.9-4.66-.55-5,.21-.2,2.01.4,2.72-.21,1.4-1.2,4.65-10.2,3.25-11.77l-4.98,1.98c-.8-.78,2.78-8.91,2.98-10.56.32-2.71-1.03-4.85-.79-7.6.5-5.92,7.76-17.02,8.47-22.42.36-2.75-2.55-6.74-1.66-10.56.14-.62,1.26-.7,1.56-1.17,1.73-2.72,3.36-2.92,3.44-3.17.24-.72,1.83-6.31,1.77-6.66-.13-.8-1.57-1.85-1.81-3.26-.92-5.32,5.7-15.41,6.86-4.82.66,6.01-1.61,6.98-1.86,9.91-.74,8.49-.36,15.43-3.53,24.38-1.47,4.15-3.59,9.23-7.39,11.55-1.1,2.92,2.04,1.82,2.04,3.9,0,2.68-2.08,4.05-2.09,6.53l3.08-.58c1.16-4.8.78-11.22,6.89-12.38.49.55-.45,6.54-.02,8.28.26,1.04,2.29,1.19,3.02,2.15,2.63,3.43,2.94,6.41,3.44,10.58,1.24,2.02,4.43-1.52,6.6,1.36l.92,7.58c4.72,1.35,1.82-4.18,5.97-3.99-.22,3.56,2.76,8.57,2.76,11.67,0,2.11-2.82,3.38-2.52,5.58.08.6,2.96,10.7,3.31,11.63,1.07,2.83,4.56,3.94,3.28,8.32-.53,1.81-3.28,2.38-2.82,4.7l4-.48c-2.11,3.83-1,13.65-4.05,15.9-1.36,1-4.67.95-4.98,2.19-1.14,4.48,2.07,4.61,2.09,4.91.04.81-3.34,8.95-3.99,9.75-.92,1.15-5.66,2.55-6.9,3.24-6.07,3.41-11.45,6.94-17.58,10.39-11.16,6.28-13.76,3.23-23.71,6.03-.83.23-3.72,5.21-6.72,3.93-.67-2.43,1.68-2.16,2.32-2.88,3.11-3.54-3.46-4.93-6.35-3.62l-.97,2.52c8.19.22.13,4.95-.73,6.25-1.46,2.23.3,6.86-4.27,8.24l2.01,4.46-7.48,3.05-1.98-2.04c-1.3,2-3.72,2.92-5.22,4.34-.51.48.22,2.17-.95,2.65-1.25.51-7.54,2.11-8.82,2.1-3.44-.03-5.36-2.83-8.78-2.12-.77.16-.78,1.64-1.41,1.97-6.63,3.47-8.37,2.59-15.78,2.03-3.07-.23-2.56.48-2.45-3,1.9.08,1.97-.61,2.99-1,.46-.17,1.38.14,2.01,0l-.02-7.97h-11.97c1.05-6.98-1.96-4.78-5.53-6.95-3.23-1.96-6.41-7.28-4.34-10.9l4.87-1.59c-1.7-2.63-4.06-2.74-6.97-2.52l.05-3.91,4.51-.99c.2-8.47.21-5.23,4.47-8.48,3.27-2.5,2.35-5.29,3.85-7.14,1.12-1.38,3.92-1.32,4.62-2.36.91-1.35.61-9.52,1.8-12.71.08-.2,2.77-3.21,3.64-2.3l1.99,3c-.2-3.16,0-4.37,2.98-5.51s19.57-3.18,21.55-1.59c2.46,1.98,1.1,7.13,1.41,10.08,4.55-.19,4.48-5.73,7.49-7.97l.47,2.97,5,3c-1.3,3.56-1.06,7.28-1,10.98,1.27-.14,2.82.22,3.99,0-.93,1.9.9,4.1,1,4.99.2,1.71.11,4.21,0,5.99l-10.96,2.51c-3.33,3.61-5.78,10.95-11.86,9.32l-2.61-9.83-8.49,9.97c-.32-.01-.68-.04-1,0-4.24.53-5.18,1.42-4.99,5.99l-4.97-1.01c.78,5.31-6.86,4.03-6.99,8.99h14.46c.3,0,3.17,3.31,5.48,1.99v-1.99c.29.04.72.05,1,0,.62-.1,1.35.11,1.99,0,.08-.66-.06-1.34,0-1.99.12-1.26.22-7.65,0-7.98l3.94-1.95c2.53,5.87-.87,11.89-.94,17.91h13.97c-1.66-8.73,3.64-6.44,8.71-8.74,6.54-2.98-.14-12.73,8.25-11.22l-1-5.98c2.04-1.89,4.06-3.12,4.99-3.99Z"/>
      <path class="st2" d="M154.76,130.85c.24-.47,4.98-6,5.9-7.77.86-1.64-.3-5.98,3.07-5.2.99,8.61,1.3,17.81-.01,26.42-.2,1.3-1.01,2.22-1.98,3.02l1.96,1.94c-1.75,5.94-7.19,3.29-7.79,3.64-1.17.67-5.87,14.38-6.16,16.86l-4.85-4.43c-.06-2.11,2.8-7.06,2.69-7.85-.14-.95-1.95-2.78-2.38-4.61-1.54-6.45.3-10.07,5.55-13.56v-1.48c-.57-.16-1.76.18-1.99,0-.17-.14.16-.79,0-1,.37-.29.66-.67,1-1s.8-.58,1-1c5.4-.77,3.16-2.35,3.99-3.99Z"/>
      <path class="st0" d="M132.81,177.74c-.18,3.85-6,3.41-8.88,4.59-3.88,1.59-7.39,4.64-12.06,4.39-1.32-4.11,7.93-6.82,7.96-8.48.04-2.59-7.32-.06-9.29-.5-.76-.17-.76-3.16-3.63-1.99,0,2.88-.78,4.54-4.01,3.99l-1.54-9.97,4.52-2.02.05,3.95,6.93,2.04v-7.98c3.93-.86,2.44,2.57,5.99,3,3.14.38,8.37-1.61,11.97-2,.07,0,.58.72,1.28.66l9.68-1.66,1.01,8.99c3.92-.86,7.92,1.06,11.47,1.07,4.35,0,8.22-3.31,12.33-.92l.15,4.84c-8.05,0-15.37-.69-23.4.05-.85.08-1.37.92-1.55.94-2.56.36-4.38-.2-5.99,0v-3s-2.99,0-2.99,0c.09-.05-.4-1.75.65-2.01,3.69-.92,8.2,2.23,7.32-4.97-5.7,1.94-9.73-2.4-15.96-1.01l-.99,9.98c1.65-1.04,8.57-1.76,8.97-1.99Z"/>
      <path class="st0" d="M171.72,187.72c2.52-2.2,4.41,1.85,6.27-2.29,1.26-2.8-2.74-6.53.79-10.66,3.47,1.77,8.21.22,11.2.95,1.13.27,1.24,2.84,2.65,3.54,2.45,1.22,7.45-.65,8.02,4.46-.12.07-1.65,1.63-2,2-4.3-.02-13.32-7.48-13.97,1-3.51,1.1-6.84,3.81-11.05,2.59-.98-.29-1.48-1.38-1.92-1.59Z"/>
      <path class="st4" d="M192.67,155.79c1.31-.12,2.67.08,3.99,0,.07.2,1.71.61,1.74,1.45.01.42-3.42,7.25-3.74,7.53-.73.64-13.79,4.82-15.5,5.03-2.19.28-5.81-1.02-8.44-.05-1.76-1.47,3.87-3.85,4.98-3.99.72-.09,2.27,1.03,3.36.79,2.48-.56,5.55-7.12,4.62-9.77.63.1,1.46-.15,2,0,2.48.71,3.53-.68,6.98-1Z"/>
      <path class="st2" d="M118.84,168.76l-1.99-5.45c4.79-2.14,7.67-5.66,12.96-3.54-.66-3.72.97-6.78,2.5-9.99l2.57.64c1.66,3.69-.11,5.06-3.07,6.89,3.31,4.46,1.29,5.31-.99,9.45-3.6.39-8.84,2.38-11.97,2Z"/>
      <path class="st0" d="M92.91,183.73c.32-.85-.25-2.86,0-4,1.85-.02,4.09-.09,5.79.67,1.88.84.76,2.74,1.78,3.42,2.92,1.93,8.17-.05,7.39,7.89-2.52.6-4.12-2.3-6.4-2.04-.53.06-.44,1.59-1.34,1.97-2.8,1.16-7.93.93-7.28,6.45.08.68,2.82.57,2.05,2.61-.19-.3-4.07-2.06-4.95-4.54l-.02-1.4c3.87-.42,6.38-8.54,2.97-11.01Z"/>
      <path class="st0" d="M185.68,156.79c1.18-6.34-3.18-10.62-1.99-16.96,1.81-.46,2.22,1.31,3.64,1.67.78.2,1.98-.63,2.75-.44,4.91,1.22,3.76,10.85,2.59,14.73-3.46.32-4.5,1.71-6.98,1Z"/>
      <path class="st1" d="M203.64,163.78c.42-.65.45-7.15,1.18-7.86l2.83-.63c.7-3.58-4.63-8.44-.44-12.5,3.91.48,8.35,3.97,7.42,8.34-.06.3-3.22,1.48-2.17,4.55-5.04-.74-1.54,7.7-7.83,8.09h-1Z"/>
      <path class="st2" d="M195.66,125.86c.54-.14,1.41-3.21,3.99-2,1.35,7.39-3.08,12.7-2,19.96h-2.98c1.68-3.94-.67-7.27-.68-10.29,0-2.29,1.52-5.36,1.68-7.67Z"/>
      <path class="st0" d="M175.71,165.77c3.37-6.57,4.34-10.53,4-17.96,3.57-.75,1.43,4.65,2.19,7.32.33,1.16,1.75,1.54,1.79,1.66.92,2.64-2.14,9.21-4.62,9.77-1.09.25-2.64-.88-3.36-.79Z"/>
      <path class="st1" d="M201.64,133.84c1.37.45,3.92-1.43,4.03,1.51.16,4.3-1.84,6.38-6.03,4.48-.33-3.78,1.48-4.11,2-5.99Z"/>
      <path class="st0" d="M89.91,235.62c.7,3.07-3.19,2.46-3.78,3.2-.82,1.04.49,5.34-3.2,4.78-.97-6.06,1.09-7.77,6.97-7.97Z"/>
      <path class="st0" d="M152.76,126.86c-.59,2.88,2.86.99,2,3.99-4.8-.47-3.2,2.29-3.99,3.99-.2.42-.68.68-1,1h-1c.24-2.28.85-6.44,2-8.27.8-1.28,1.8-.55,1.99-.71Z"/>
      <path class="st4" d="M169.22,169.76c.65.33.65.67,0,1v-1Z"/>
      <path class="st5" d="M65.79,92.14c-.83-.49-1.9-.11-2.81-.21,1.27,4.14-2.29,5.39-2.99,6.7-1.41,2.65-1.85,6.08-4.5,8.25-3.01-2.15-.41-5.46-.41-8.46,0-2.73-1.83-4.96-.56-7.46,1.89-3.72,6.06-2.15,8.46-3.52,3.43-1.96.21-7.43,10.45-5.46,6.27,1.21.99,9.55-1.43,12.48-3.82,4.6-5.4-1.85-6.2-2.32Z"/>
      <path class="st2" d="M149.77,67.98v14.96c-3.33.94-2.98-1.7-4.36-2.66-2.5-1.73-5.67-1.61-4.62-6.31h4.01s.43-5.06.43-5.06l4.55-.94Z"/>
      <path class="st0" d="M163.74,89.94c-.04.66.06,1.33,0,1.99l-5.36.02-.63-2.02c1.99-.03,3.99.02,5.99,0Z"/>
      <path class="st0" d="M155.75,89.94l-2,3.99c0-.18-1.43-1.3-.08-3.39.39-1.05,1.34-.51,2.08-.6Z"/>
      <path class="st2" d="M88.91,89.95c-1.77,4.83.69,12.73-5.98,13.96l2.99-13.97h2.98Z"/>
      <path class="st5" d="M149.77,135.84c-.33.33-.63.7-1,1-.87-1.16-.07-.36,0-1h1Z"/>
      <path class="st5" d="M179.7,201.69c.98-2.7,4.19-4.76,4.04-7.94,5.5.88,7.54,4.58,13.91,1.96.72,4.55-2.61,6.61-6.86,6.1l-1.13,4.36,8.99-1.48c.82,2.19-1.64,6.59-3.63,6.88-1.12.16-2.09-1.56-3.63-1.64-3.07-.17-6.48,2.32-8.7,2.74-1.17.22-2.73-.13-3.99,0-.06-3.7-.3-7.42,1-10.98Z"/>
      <path class="st5" d="M183.69,217.66c2.52-4.98,10.13-1.73,14.97-1.99.27,3.74-3.31,6.09-5.62,8.36-.5.49-.26,1.51-.37,1.61-.93.87-2.95,2.1-4.99,3.99-.13.12-1.12-.13-1.63.33-1.05.95-7.37,9.69-9.34,7.65-1.44-6.57-.27-11.79,6.97-12,.12-.65-.03-1.32,0-1.98.11-1.77.2-4.28,0-5.99Z"/>
      <path class="st5" d="M198.65,185.73c-.21.23-.25,1.71-.94,2.54-3.69,4.4-5.12-2.18-5.71-2.56-2.73-1.74-4.88.25-7.31,1.02.65-8.48,9.66-1.02,13.97-1Z"/>
      <polygon class="st1" points="257.5 122.87 257.5 129.85 253.52 129.85 253.99 123.84 257.5 122.87"/>
      <path class="st0" d="M213.61,54.02c-.29,3.8-1.47,12.11,3.99,10.98l1.99-2.99-2,11.97-3.98-1-.07,2.89c-5.63-1.09-3.29,3.73-7.68,5.31l.75,11.75c-1.36,1.47-6.09-5.46-4.98-6.98.12-.16,1.9.78,2.11-1.45.15-1.52-.05-7.92-.1-9.95-.02-.61-1.8-.46-2-1.24-1.67-6.55,3.03-8.96,3.01-10.79-.02-1.52-2.53-2.95-2.02-4.98l10.97-3.52Z"/>
      <path class="st2" d="M215.6,89.94l-.47,3.01-3.51.97c-1.05-.86,3.16-5.04,3.98-3.98Z"/>
      <path class="st0" d="M197.65,44.04c.04,1.3-.31,5.65-1.5,6h-2.49c-.38-.39.32-4.71,0-6h3.99Z"/>
      <polygon class="st0" points="173.55 87.79 169.73 87.95 169.73 81.95 174.28 82.91 173.55 87.79"/>
      <path class="st2" d="M183.69,223.64c-.04.65.11,1.32,0,1.98-7.24.21-8.41,5.43-6.97,12,1.97,2.04,8.29-6.7,9.34-7.65.51-.46,1.5-.21,1.63-.33l1,5.98c-8.39-1.51-1.7,8.24-8.25,11.22-5.08,2.31-10.38.02-8.71,8.74h-13.97c.07-6.02,3.47-12.04.94-17.91l-3.94,1.95c-.15-.23-3.18.58-2-3.99-.99-.09-1.99.03-2.98,0l8.49-9.97,2.61,9.83c6.08,1.63,8.53-5.72,11.86-9.32l10.96-2.51Z"/>
      <path class="st2" d="M148.77,235.62l1.18,13.83c.5.42,1.27.06,1.82.14v1.99c-2.32,1.32-5.19-1.99-5.49-1.99h-14.46c.13-4.96,7.77-3.68,6.99-8.99l4.97,1.01c-.18-4.57.75-5.46,4.99-5.99Z"/>
      <path class="st5" d="M149.77,235.62c.99.04,2-.09,2.98,0-1.18,4.57,1.85,3.76,2,3.99.22.33.12,6.72,0,7.98h-1.99s0,2,0,2c-.28.05-.71.04-1,0-.54-.08-1.31.27-1.82-.14l-1.18-13.83c.31-.04.68-.01,1,0Z"/>
      <path class="st2" d="M154.76,247.59c-.06.65.08,1.34,0,1.99-.64.11-1.38-.1-1.99,0v-1.99s2,0,2,0Z"/>
      <path class="st4" d="M132.81,177.74c-.41.22-7.32.95-8.97,1.99l.99-9.98c6.23-1.4,10.26,2.95,15.96,1.01.88,7.2-3.63,4.05-7.32,4.97-1.05.26-.56,1.96-.65,2.01Z"/>
    </g>
  </g>
</svg>