<?xml version="1.0" encoding="UTF-8"?>
<svg id="Layer_1" xmlns="http://www.w3.org/2000/svg" version="1.1" viewBox="0 0 720.8 693.4">
  <!-- Generator: Adobe Illustrator 29.6.1, SVG Export Plug-In . SVG Version: 2.1.1 Build 9)  -->
  <defs>
    <style>
      .st0 {
        fill: #d3e49b;
      }

      .st1 {
        fill: #e4eec2;
      }

      .st2 {
        fill: #93c840;
      }

      .st3 {
        fill: #fffffe;
      }

      .st4 {
        fill: #c3dc77;
      }

      .st5 {
        fill: #b1d357;
      }
    </style>
  </defs>
  <g id="OyBDbV.tif">
    <g>
      <path class="st2" d="M407.5,355.6c-4.9-4.2-5.2-14.5,2.6-7.8,0,0-.6-7.7-.6-7.7,6.6-10.3,11.4,2,17.9,5.5,12.7.1,22.7,42.3,15.1,47.8-15.9-4.2,24.2,12.1,14.5,26.7,9-15.2,20.3-4.7,24.4,7.4,1.2-1.3,3.9,3.3,3.7,3.1-6.4-8-15.6-19.1-11.7-31.1-2.8-1-4.1-10.9.8-10-7.7-2.7-9.4-18.8-.7-17.9,3.5-4,7-1.7,9.3,2.1,3.2-11.9,14.7-9.6,15.8,1.7,9.6,13.3,8.5,30.1,17.8,44.3,6.2,20.5,3.7,46.3,5.9,63.8,2.4-15.5,15.9-5.2,18,2,10.2,7.9,31.9,28.5,23,43.9,7.3-11.6,20.1,26.6,23.8,32,.1,4,9.5,6.1,4.2,11,5.7,7.9-1.4,14.1-2.9,21.9,4.4-.5,2.8-8.6,6.9-8.9,0,0-1.8-1.5-1.8-1.5-1.8-6.4,2.1-19.6-5.4-20.1-9.1-26.5-45.6-62.4-14.8-82.3,3.7-1.7,4.2,15.5,5.3,16.7,5.1,2.5,12.9,7.1,4.7,11.1,0,0,9.4-.3,9.4-.3-.4,2.4,4.3,3.9.6,5.4-.6.7-.6,1.3,0,2,2.9-3.9,1.5,3.9,4,1-9-8.8,13-14.5,9.9-.4,6.3,3.8,16,3.5,11.1,14.4,8.1,2.8-12.5,22.3-5,24,4.6,2.2,3.3,6.1,0,0-4.2-8.5,17.8-35.5,27.7-25.9,11.9-5.6,8.1,22.5,11.9,32.1,7.8,4.9,12.5,15.6,9.5,22.7,2.5-4.6.2-9.2-.7-15-8-2-5-12.8-7.6-15.9-6.8-2.1.4-15-1.1-18.6,5.3-6.6,17.5,3,9.8,8.3,3.4,3.5,5.8,3.4,7.3,8.3,6.5,13.8,33.3,32.7,1.4,44.9-9.2,5.1-3.9,8.8-3.4,17-13.5-.5-25.5-7.5-39.5-6-23.3,1.6-24.4,30.2-3.4,36,18,2.4-8.3,11.7-13,15.1-3.3,16.8-16,2.1-17,.8,5.8,3.9,1.9,8.2-4,9.1,1.6,5.1-4,9.5-6.1,14.1,1.6,11.2-28.1,6.4-21.2-3.2-32.2,26.2-.1-28.7-14.2-46-5.7-18.4-11.7-36-18.4-49.9-2.3,1.6-3.3-.2-1-2-2.4-2.7-4.5-7.1.1-7.9-3.7-1.9-4.8-3.9-3.1-6,4.7-4.2-3.6,9.1-6.9.6-2.2,6.6-11.4-6.5-10.9,3.2-6.9,9.6-17.9-7.9-9.1-9.7-13.3-17.6-33.9-21-51.7-11.8-2.8,9.6-10.2-2.4-7.2,3.8,5.1,4.6,8.5,14.2,15,18,7.6,7.1-.4,8.8-7,9.7-3.5,3.3-4.2,7.4-9.8,6.5-4.3,8.4-8,19.7-20.7,14.4-6.7,12.3-14.3-3.2-19.5,12.4-4.3,5.2,0,14.1,1.9,18.3-2.6,3.1-6.8,8-8.1.9-2.7-2.6-12.7-10.7-16.7-10.7-3.7-3.8,6.5-12,1-11.5-6.8,1.6-5.7,4.7-11.2.8-11.1,8.9-8.9,2-11.8-4.8-6.2-5.3,2.6-5.5,5-7,.2-.7-8-13.5-8.9-10.2-8.3,2.7-22.7,6-28.1-2.3,13.9-6.5,24.3-19.6,16.3-35.5-8-20.8-34.6-11.4-33.3,8.9-14.8-2.6.3-35.6-14.7-33.9-1.7-1.5-2.7-3.5-3.3-6,4.9,2-2.3,5.9-4.9,3.3-3.8-3.9,3-6.5,4.9-3.3-15.3-9.3-38,11-43.9-4,6.8.5,18.5-1.1,6-6-12.2-3.9-17.1-21.2-30-20-7.5-11.7,28.2-14.7-15.6-25.9-7.6,2.8-11.7,24.8-20.3,11-6.8,6.8-3.4-10.5-5.9-13.6,6.7-7.1,2.2-20.5-3.1-27.3-20.5-27.1-26.8-.6-39-4-5.3,2.4-5.5-3.9-9.7-4.2-2.2,9.4-13.7,6.9-7.3-1.8-7-5.8-.8-13-9-14-.7,2.6-1.3,2.6-2,0,1-10.7-6.8-20-14-28-11.8-11.1-16.5,17.4-25,2-5.8-5.3,2.1-9.8,5-14,30.1-27.3,14.1,2.8,36,2-7.1-6,7.2-12,12.7-9,5.3-4.8,2.2-4.5,9.2-3,5.9-7.8,14.9-3.5,9,4-1.1,1.8,1.8,1.2,3,0,3.1-4.3,3.2-.2,2.6,3.5-.2-4.1,10.6-4.7,5.4.5,6.1,2.4-3,5.4,2,8,0-3.1,3.2-5.1,5-2,2.4-7.9,4.7-9.9,7-6,7.8,9.6,1.4-9.8,8-14,12.4-11.7,2.2,25,6,28,2.2,6.5-13.7,19.9,0,16-4.9-4.9,2.5-14.9,2-22,1.3-7.7,12.8.6,6,4,3,5.8,10.6,5.3,7.7,15.8,3.6.9,4.9,4.7,4.1,11.3.4-6.6,5.3-14.5,8.2-13.2,3.4.5,0,4.7,2.8,6-9,24.4,3.8,9.8,3.2,22,0,0,2,0,2,0-.3-4.5.5-6.6,5-4,1-5.4-.4-14.8,5-18-4-6.6,7.7-22.6,12-30-4-1.6-1.5-11.1,3.6-10.8,6.2,2.3,12.7,9.9,16.4,14.8,5.9,3.4-5.5,7.7-3.7,11.8,10.8-17.8,18.8,18.2,19.7,22.1,2.8-.1,4,2,2,4,5.9-.8,4,15.7,7,10-4.6-1.7-.4-8.7,3-5,3.1-5-6.9.5-8-10-2.8.6-3.3-1.5-1-3-9.8-6.5-13.4-35-1-41.9,2.3-21.6,17.4-3.7,12.4,6.8,4.2,0,16.8-2.5,9.6,7.2,13.7,16.3,12.2,44.1,30,56.9,2.9,0,16.7,5.2,20.8,10.2,5.9-1.3,13.7-.5,14.1,7.6,15.6-23.9-1.9,23.3,14.1,17.9,1.9,11.5,15-1.3,10.7,15.4,4.8-2.8,7.5-8.5,16.1.9,20.2-3.7,24.5,30.7,19,46.9,8.3-5.9-3.8-31.4-2-41.9,20.6-18.6,21.3-24,39.9,0q2.7,2.7,0,0c-7-8.4-15.8-15.7-16-24-3.4-4.5-2.4-17,4-10,4.3.8,2.6-3.8-.5-3.3-16.6-19.3-33.6-44.6-39.5-64.6-5.9-3-.9-11.6-1.7-14.2-3.2-.6-6.2-3.1-3.3-5.8-5-1.3-.5-6.2,2.1-7.9,4.5,2.6,6.1,2.2,4.9-1.1-2.5-1.7.8-2.4-3-5Z"/>
      <path class="st1" d="M170.8,71.9c16.5-27.8,13.3,4,31.4,0,5-3.8,8,1.2,12.9-1.8,9.8,5.1,22.8,36.2,21.4,4-3.5-1-3.3-7.7-8.1-6.2-1.8,5.3-9.2-1-7.6-5,19.1,2.6,42.4,17.4,40.9-14.3-3.3-1.7-5.2-11.4.8-8.4,1.3,4.6,5.6-.5,9-.6,13.4-5.5,17.9-34,26.2-39.7,1.8,1.8-3.7,22.9-1.3,28.8,8.2,5.1-12.5,6.2-5.7,19.2-15.6-2.9-25.5,17.1-27.7,29.3,5.3,8.5,25.3,11.6,34.2,16.6,1.3-5.5,10-7.7,8.5-15,1.4-3.1,9,.3,6-5-.7-3.5,4.1-1.6,6.3-2s9.3-12.7,8.7-15.9c10.6,9.1-5.1,21.7-9,28.7-8.3,28.2,53.8,39.7,75.2,51.3,3.5,5.1,11,4.8,16.7,6.5,4.6,4,8.5,5.1,6-2.5,2.5,1.4,13.4-3.1,9,4,4.9,1.5,1.9-4.2,6-4,3.1,1.3.4,6.8-2.3,7.8,5.2,4.6,10.6-.1,13,6,0,0,2.3.1,2.3.1,55.9,35.1,142.2,66.8,215.7,69.9,12,7.7,26.3,5.7,40.7,7.8,2,12.7,4.3,21.9,14.7,30,4.9,25.7,2.2,22.9-12,4-13.1-.8-9.6-11.2-1.9-11.2-1-1.3-13.4-4.9-15.9-4.8-2.4,7.5-23.2,8.4-29.4,3.8-10.3-2.9-54.5-7.9-61.1-2.1-1.4,6.2-13.3,6.1-17,2.2-12.5.5-23.6-7.9-36.1-9.7-.7,10.3-5.3,5-7.4-1-1.5,3.7-4.2,3.9-6.6.8-1.3,4.9-6.1,3.7-8-.3-3.9,16-21.8,4.1-28.8-3.2-22.6,5.7-22.1-9.8-34-22-31.9,2.9-3.2-9.7-41.3-17.2-6.3-9.2-5.1,5.8,2.6,2.3,7,4.3,14.3,16.2,2.7,19.6,9.4,8.8,17.2,21.2,30.4,17.9,13.3,7.1,23.7,31.8,40.3,33.5,1.8-10.7,8.2-11.7,14.6-3.3,20.4,6.3,33.6,27.5,54.2,35.8,12.6,15.4,30.3,9.3,41.5,20.1,7,.2,11.9,1.7,11.8,9.6,13.5,6.2,24.5,12.9,33.1,24.4,8.5.3,6.4,4.6,9.7,8.6,11.9,2.9,16.8,9.3,27.6,14.4,8.6,1.4,5,9.4,1.5,14.7,7.1,8.5.4,40.5-8.5,27.1-13,5.2-22.2-2.1-32-10-7.4.3-11.8-4.9-13.3-11.8-14.7,2.3-11.4-13.1-23.8-11.2.6-12.3-17.5-1.8-18.9-12.8-8.2,1-11.8-8-13.9-14.2-8.9,3.1-15.3-9.1-22.1-12.3-6-3.3-55.5-29.1-31.8-29.2,13.5,3.4-36.5-23.7-33.8-28.8-6.5,7.5-14.4-7.6-20.9-9.4-16.1-.6-21.5-12.5-35.1-16-8.1-.9-15.9-12.5-25.5-12.2-8.2,5.3-39.7-13-29.7-23.7-19.7,10.3-14.5,1.9-27-8.2-6.6.5-16.3,1.1-19.7-6.1-19.4-6.3-40.8-14-54.3-27.7-7.1-3.1-66.2-37.5-36.2-7.6-.6,13.7,17.3,3.5,16.5,21.6-7.8,4.6,24.5,13.1,30.6,18.2,4.5,10.7,13.7,27.6,27.6,21.9,6.6,6.6,22.7,7.5,12,19.6.4,3.2.3,6.3-3.6,6.4,2.4,6.1,7.1,13.1,9.5,18.1-3.2,7.8,5.4,13.7,0,17.8-3.8,6-6.5-3.8-6.6-8-2.2-5.3-7.3-8.8-3.4-13-21.7-26.7-14.5,3-21.1-10.8-6.6-16.9-20.1-21.3-32.8-30.4,0,6.5.9,21.4-9.8,9.9,1.7,7.3,14,31.5-3.8,22.7-1.3,3-3.5,6.9-6.3,3.5-5.1-5.6.9-13.6-5-18-4.2-6.4-12.9-18.3-13.5-30.4-5.4,8.3-9.9,21.7-22.6,15.3-16,5,6.1-28.6-10.6-32.4-2-2.2-2.6-5-1.8-8.6-.5-14.9-46.9-48.5-33.1-19.9-3.5,9.2,9.8,19,5.6,24-1.6,7.6,13.9,27.9-1,26-6.2-9.4-6.5-15.9-10.7-28.8-6.5-2.4.2-5.6-3.3-9.2-6.2,0-7.2-21.8-11-22-6.7-4-5.8,18.1-7,21,1.2,2.5,9.7,22.4,4,27-3.1,5-6.9.5-5.9-4.4-6.6-8.1-2.1,20.2-12.5,4.4-3,.2-7.2-.8-4.6-4-2.3-15.5-13.4-28.6-10.3-48.2-3.2,2.5-4.6,10.8-10.5,4-8.3,8.3-8.6-2.1-10.5-8.2-5,11.3-6.8,1.2-9.7-3.6,1.7-3.3,14.1-22.6,16.1-23.8,6.7,1.1,10-7.1,13.9-11.4,13.4-10.7,24.2-20.5,35.4-31.7,8.3-5.4,32-33.2,32.3-10.3,0,0,7.3,4.3,7.3,4.3,8.2,11.8,23.8-11.9,31.7,12.7,0,0,7.5.7,7.5.7,19.6,24.3,59.1,12.1,65.6,37.4,8.6-12,70.8,18.9,37.6,21.5,8.7,15.8,19.4,19.3,23.9.4-21.1-12.3,4.2-11.3-16.4-21.5-9.8,1.8-12.3-7.5-20.2-6.5-6.6-9.3-20.3-7.3-27-15.6-17.2-4.8-35.8-9.8-50.6-22.5-16-8.6-35.8-13.2-49.6-25.7,0,0-6.9-1.9-6.9-1.9-1.2,2.2-2.9,2.5-3.7,0Z"/>
      <path class="st0" d="M685.1,420.5c2.4-6.8.7-16.4-1.8-22.3,2-4.1,7.2-13.1-.4-12.7-6.5-5-11.4-1.8-14.8-10.4-6.3-.9-13.1-2.2-16-8.2.8-5.7-2.2-1.6-7-4.7-5.3-9.2-5.5.9-12-14-8.2-.7-14.4-9.3-21.9-10.6-.8-1.3,1-4.6-1.6-6.9-14-1.9-9.9-10.3-20.8-6.1-25.9-9.6-47.4-27.7-69.9-44.5-5.8-.8-5.6-7.7-14-7.5-15.3-17-4.5,12.5-23.3.9-8.8-7.3-23.4-25.9-32.6-31.5-1.8,2.4-5,1.6-7.3.1-3.6,1.2-4.2.9-6.3-2.9-6-5.9-25.6-16.7-10.5-21.3-.2-15.8-18-8.4-15.5-22,15.8,9.8,36.1,4,30,21,39.6-8.1,14.6,28.4,51.2,21.2,29.3,27.5,24.8-5.5,31.3,5.8,6.2,4,.2-6.5,9.3,0,.5-5.5,3.5-3.5,5.8-.4.2,6.5,2.3,4.8,2.6-.7,16-.8,34.4,13.7,50.9,10.9,15.9-20.2,67.2,6.6,84-2,4.6,1.3,8.6,1,8.7-3.7,6.9-3.1,33.5,12,12.9,8.8-.9,8.5,3.2,5.6,7.2,7,5.7,4,4.6,7.7,10.3,9.9,1,1.9.1,5.6.5,6,5.2-1.8,9,11.4,5,14-4.8,4.8-2.7-6.3-7.9-8.2-8.1,1.2-11.3-8.8-15-15.8-4.2,0-8.5,0-10.6-4.2-7.2,1.7-60.3-11.7-39.5,4.6,18.1,30.6,15.9-2.7,24.9,11.6,5.4,2.2,28.2,6.6,21.3,13.9,3.9,1.2,6.9,3.1,9,5.6-1.4-11,11.5-5.9,8.7-1.5.9,4.9,1-3.2,5,2-3,6.5-3.4,18.6-3,25.5-.6,2.8-5.2,14.4-9,14.5-1.6-2.5-3.1.7-2,2-7.5,8,.4,23.5-13.4,23.9,9.5,14.8-.3,111.3-2.6,53Z"/>
      <path class="st0" d="M170.8,71.9c3.4-3,11.8-1.4,14.2,3.7,7.9.3,13.7,10,21.7,11.8,7.6-.6,10.3,4,16.7,6.5,6.9.1,12.7,9.8,20.3,13.4,9.1,2.2,23.9,5,29.6,12.6,9.9.4,28.3,8.5,35.9,16,3.6.2,6.2-1.2,7.8,3,5.4,4.4,6.7,2,11.8,3.2,5.1,3.8,8,6,14.1,6.9,5.7,3.7-5.2,3.3-5.4,7.3,1.9,7.2,14.9,5.8,7,14.1-1.5,6.3,8.8,16.4,11.7,9.4,4.9-1,11.3,6.3,8.3-6.9,3.9.8,8.6-2.2,12-.5,2.7,6.8,18.3,6.4,4.4,12.4-2.2,2.4-2.2,10.4-6.4,7.6-3.4-7.1-9.4,4.3-28.9-5.5-.4-.3,1.2-8.3-2.6-8.9s-2.9,4.1-3.4,5.3c-1.5,3.6-5.3-3.3-6-3.8-6.3-1.3-10.6-2.4-11.1-9.8-11.8-14.7,9.1,2.8,6.2-13.7-2.7.4-7.2-2.5-8.6-4.9-4.9,2.3-9.7-1.2-13-5.1-10.7.9-13.4-7-23.6-.1-4.8-5.5-6.4-20-17.9-13.9-5.5,8.4-5,.9-6.8-4.5-21.5-4.7-44.3-14.6-57-30.9-9.1-6.6-16.2,11.4-24-2-6.2-3.2-8.6-5.2-8.3-11.6-8.6-1.2-8.6-3.8,1.4-10.9Z"/>
      <path class="st4" d="M701.1,343.6c-4.1.8-.3-3.3-1-4-1.8-1.8-2.1,1.6-2.2,1.7-4.2,2.5-2.3-3.2-2.8-3.7-2.5,0-4.8.7-4-3-7.7,5.4-4.4,1.9-12.4-1-3,6.9-11.9-6.7-13.1-10-4.8,1-8.7-1.5-13.7-2-2.3.6.1,7.4-4.1,6.1-3-5.4-10.8-6-13.3-12-3-.6-6.7-1.1-7.9-4-8.5,2.9-9.7-6.7-12.4-11.9-2.5-1.6-3.2,1.9-3.4,1.9-8.4-3.7,1.7-6.4-13.6-6.7-5.8-5.1,2.3-18.1,5.1-15.3-5,23.2,31.2-4.8,23,22,6.1-8.3,13.8-6.3,18.5-2,6.5-10.2,10.9.6,18.5,2-2.5-4.4-5.9-15.4,2.3-6.3,3.6.2,3.7.5,5,4,5.8,3.7,13.3,2.1,17.3,8.1-1.6,8.6,5.7,14.7,6.4,22.1,3-1.3,10.8,8.5,7.9-1.5,3.1-1.4,6.7,5.2,0,7,0,2.2,4.6,6.4,0,8.5Z"/>
      <path class="st4" d="M620.2,404.5c2.9-5.5,18.9,4.2,13,8,1.9-3,6.1,1.1,3,3,8.5-6,20.9,11.7,29.6,14.1,10.6-11.6,14.8,8.9,19.3-9.2,8.5-.1-3.4,15.1,4,17,.2,4.5-4.2,5.8-6.9,8.8-.7,2.7.3,6.7-2.1,9.2-6.1-.7,3.7-14.8-4.8-14.7-7.9-11.2-2.1,11.8-6.2,16.6,3.9-1.7,3.9,4.3.9,6.5,3.8,3.4,4.5,5.9,2.1,7.5-8.7,1.2,8,18.1-6.6,18,5.2,15.5-20.4,13.6-7,1.2-1.3-10.1,3.4-13.5,3.1-23.6-5.1-3.6-3.5-5.5.4-9.3-1.1-41.7-3.5,16.3-25.2,10.8-6.7-3.1,1.4-14.6,1.1-23-7.3,1.7-4.5-9.3-4.9-12.9-21.7-5.6-7.5-20.3,8.4-8-.9-3.7-8.4-5.7-5.3-9-1.8,5.2-8.2-1.1-3-3-4.2,4-17.5-2.7-13-8Z"/>
      <path class="st5" d="M251.7,521.4c10.8-1.4,17.3-3.5,25.5-7,.6,4,1.6,2.9,5.8,3,1.1,3.2,2.7,1.1,4.7,1,.9,3.4-1.4,3.1-4,3-1,3,2.4,1.7,4,2,0-4.5,4.3-1.5,3,2,.3.3,6.6-.2,8.1,1.7,3.9,9.3.8,3.8-1,7.8,6.6,6.8-1.2,23.8,9.8,26.6,1.7,15.3-10.4-11.8-18.9,3.9-32,11.3-19.4-4.4-31-22,3.7-7.7-10.7-12.6-5-16,.6-3-5-2.7-1-6Z"/>
      <path class="st5" d="M252.7,525.3c1.7.7,1.9,1.6,0,2-6.2,5.2-4.6-8.1,0-2Z"/>
      <path class="st5" d="M43.9,259.7c6.9,1.5.2,11.1-5.2,11.8,3.4,6.9,17.5,13.3,10.2,22.2,3.2,6.2,21.4-11.3,19.6,1.3-13.8,5.3,21,2.8,4.1,18.4-2.6,12.3,17,5.9,8.3,17.2-4.1,10.2-12.1-4.5-8-5-7.8,4.4-2.9-6.1-8-10-4.3,9.7-12.5-5.2-19-1-.8-.8.2-7.8-6.6-8.9-16.7-5.4-19.6,25.3-26.1,1.7,6.7-1,1.4-5.5-2.4-2.1-2.6-3.1-5.2,2-8.9-1.7-2.5-3.2,0-7.1,4-6,2.4,2.4,7,.2,2.2-3.6-.5-2.2,1-7.6,2.7-6.4,14.6,17.7,13.7-26.3,20.4,3.7,22-9.9-10-15.6,1.8-19.4,0-4,2.3-3.7,4.8-5.2-1.3-1.4-.8-2,1-1,3.5-.8,2.5-5.6,5-6Z"/>
      <path class="st4" d="M86.9,179.8c11.9,1.6-3,15.2,4.5,22.1-1.5-4.4,5.3-5.8,3.4-11-2.6-12.2,11.3-8.7,11.1,2.9,6,10,11,20.9,8.2,33.3,7.4,4,12.6,11.5,3.8,16.6-.5,3.2-3.3,1.9-4-.8,1.6-7.9-12.3-3.6-12.6-13,.8-2.5,6.3,10.8-3.1,11.7-7.2-5-19.6,13.3-14.2-7.9,3.1-4.5,4.1-25.3,3-30-4.8,2.6-12.2,7.4-13.4-4.8,3.8,9-1.8,10.3-3.6,12.8-.6,4.8-2-1-4.1-1.5-2.3-19.1-5.7-38.1,16.6-20.9-1-4.7-.5-16.1,4.5-9.5Z"/>
      <path class="st4" d="M647.2,469.4c3.7-6.6,13,3.9,4.4,6,2.8,8.9-7.1,17.1-3.3,23,2.9,2.9-2.2,10.8,1.9,10.9,3.4-21.6,13.8,9,13,16-.4,4.3-6.8-5.2-10,0,1.9,15.9-2.6,33.4,10.3,43.1,1.8,3.2,1.4,18.7-1.3,12.8,1.1-5.8-3.5-11.4-6.9-15.5-12-14-5.9-46.6-14.9-60.5-3.5,4.7,1.6,27.4-8.6,22.5,0-4.8-2.6-14.4-5.4-4.4,7.1,6.7-20.4,44.4-29.5,41.9-5.3-.7,4.1-4.4,5.5-5.5,5.8-4.5,16.3-21.3,15.9-28.5,1.5-6.5,6-5,5.1-13.7,5.7-5.1,4.9-14.5,9.9-18.2-1.9-4.4,9.6-5.8,7-14-1.3-2.6.9-9.6,4-10-3.3-2,.3-11.3,3-6Z"/>
      <path class="st0" d="M62.9,188.8c10.8,17.8-2.7,26.6,21,44.9,3.8,4.3-4.2,7,4,10,2.7.6,2.9,5.5,0,6,9.2,10,22.9,28.7,22,43.9-4.3,9-13.2-18-15.9-21.6-6.2-3.7-3.6-11.8-10.3-12.6,2.3-4.1-5.5-6.4-1.8-7.8.3-2.5-4.1-2.7,0-4-1.7-15-29.5-11.1-21-18-6.7-4.8-2.2,7.4-10.3,3.7-8,3.5-10.5,18.3-16.7,14.3,5-5.4,14-28.6,20-40,0,0,1.4-1.8,1.4-1.8,1.6,1.4,4-12.7,7.6-17.1Z"/>
      <path class="st0" d="M647.2,467.4c0-4-.5-5.8,4-4,2.7-7.6,1.8-16.6,4.1-23.9,2.4-2.3,5.8,1.4,6.7,1.9,5.8-.8,3.8,5.1,2.2,7.6-.6,5.6,2.1,10.1-4.1,12.9.1,3,4.1,3.2,4.1,4-3.3,3.6,0,13.9-1.1,17.4-7.3-2.4-1.6,6.9-2,10-9.7-1.8-.2,12.9,2.1,12.7,3.6,11.2-2.9,24.4-4.5,5.2-7.1-20.2-3.3,6.9-12.4-1.6-.9-3,4.9-12.3-3.1-10.4,2.5-4.4,0-11.5,6-10,1-1.7-2.8-17,4-16.5,2-5.9-12.2-1.8-6-5.5Z"/>
      <path class="st5" d="M625.2,643.2c16.7-2.2-.2,11.7-6,16,.6,3.2-11.3,15.6-15,15.4-6.3-9-6.5,11-13.9,10.6-8.2,9.4-54.6,14.7-43.9-6,3.4-2.8-.4,7.5,9.5,4.1,1.3-.2,8.3-9.2,11.4-6.1s-2.8,3.8-3,4c.6,4.2,4.4,5.3,8.3,4,4,.5,9.9,4.3,10.6-2,0,0-4-2-4-2,7.5,1.4,5.8-5.6,10.5-9-1-4.1.4-8.4,5.5-6,.4-2.5,1.8-7.6-2-7,.7-6.3,1,3.5,8-2-1.1,2.8,1,9,4.4,8,1.5-2.8,8.6-5.8,1.6-8,4,0,16.2-3.9,12-9,4.8,2.1,7.9-.7,12-1,1.2-3.5-4.9-1.1-6-4Z"/>
      <path class="st4" d="M136.8,327.6c8.2,1.2-1.6,8.8-5,11.5,2.2,5.6,7.5,14.8-.3,18.5,3.9,1.5,1.5,5.3-2.2,6-2.1-.2-.9-2.4-3.5-2.1-8.1,9-12.1-10.6-7.4-16.5-7.5-3.1-1.5-4.6-.7,1.9.3,2.1-3.4,14.4-5.9,8.5-.6-3.3-3.6-11.3-2-14-8.1,7,2.7,4.7,2,14,4.8,2.2,8.6,2.6,3.6,8.3-7.8-1.2-3.4,14-8.6,9.7-15.2-.5-8.2-19.4-19-12-1,6.3-9.5,7.1-14,10,1.2-6.2-1.7-4.6-3.7-6.2,1-12.2-6.3-11.7-16.5-6.4-5.8,8.5-3.7-8.7-11.8-13.8-.9-2.1,1.6-1.4,2.5-1.5,8.8,3.8,22.8-16.1,21.7-6.8.8,8.4-23.3,9.3-11.4,15.7,5.2-6,10.6,2.4,19.3-1,3.6-1,12.8-5.9,13.8-2,1.8,2.5,3.2,1.1,4-4-.1,1.8-1,8.6-4,4-8.9-5.4-11.2-22.6,2-7,2.3-3,5.4,1.4,2,3,.8-1.6,3-2.4,6.5-2.4,3.7-8.5,15.3-6.7,11.5-1.6.2-2.5,3.2-1.6,4,0-1.9-.6-1.9-1.4,0-2,4.7-7.3,6.4,6.6,11.7-3.4,4.4.3,7.7-13.5,11.3-8.6Z"/>
      <path class="st4" d="M121.8,335.6c4.5.8.6,7.1-2,4-5.2.3,1.2-8.1,2-4Z"/>
      <path class="st2" d="M64.9,315.6c6.6-.6,1.6,10.2,8,10-1.7,3.5,9.7,1.3,3.3,4.2-3.8,5.3,14.3.5,7.7,7.8-7,.2,6.8,8.4,4,12-6.2,2.3-18.1,5.2-26.5,5-1.2-8-4.3,2.6-9.5-.5-9.8-12.5,9-7,12.3-17.9.5-7.3-2.8-14,.7-20.6Z"/>
      <path class="st4" d="M190.8,479.4c2.9-5.4,7.2-12.5,12.7-15.8,3.1.2,18.1-1.4,8.3,3.8,10-2.2,12.4,6.1,12,14,2.8,3.2,4.5,5.1,7.5,2,2.3,1.4,11,2,10.5,6-6.3,1.1-46-13.7-30-18.2,4.9-1.7-3.2-.9-5,2.3-9.1,2.2-7.9,5.3-.5,8.3,4.6-10.7,11.8,5.5,3.6,5.6-2.4,5.5,12.7-8.6,9,4,5.5,7.2-13.6-1.7-18,0-5.1,2.6-8.5-1.3-12-2-4.7-1,1.3-7.5,2-10Z"/>
      <path class="st2" d="M22,251.7c9.1,1.7,5.6,11.1-.1,14.5,10.4,7.4,31.9,17.5,8.1,28.5-.5-11.8-7.4-21.8-16.6-7-1.4-.2-3.5,0-3.4,2-1.4,4.2-5.3-1.2-2-4,12.8-6.6-3.2-41,14-34Z"/>
      <path class="st0" d="M73.9,165.8c6.8-1.8,2.9,4.9,4,6,2.8,2.8,3.7-3.8,4-4,11.3,1.7-.6,21.6,2,32-9.2,2,1.2-8.3-5-10.7-5-7.6-2.3-3.2-5.2-1.5-12.1,0-3.4-13.9.2-21.7Z"/>
      <path class="st4" d="M536.3,597.3c12.8,22.8,29.5,57.9,12,81.9,9.2-22-3-56.3-12-81.9Z"/>
      <path class="st2" d="M670.1,449.4c14.1-24.3,10.2,35,3,32-1.6,5.2-9.9-10.4-1-10,.3-3.7-4.3-4.9-5-9.5,5.9,0,1.1-9,3-12.5Z"/>
      <path class="st4" d="M325.6,591.3c5.1-4,6.8,0,10.3,0,4.9.2,12.3-2.2,16.1-4,1.7,1.2,18.2,19.4,5.5,15-2.8,1.3-4.6-9.4-6.9-7,.2,5.3-1.2,6.8-6.1,4-16.4-8.6-12.9,5-19-8Z"/>
      <path class="st5" d="M704.1,279.7c3.2,7,4.7,1.5,11,5.9,2.3-10.1,3.7,12.7,2,12-2.4,3.6-8.5,7.4-7,0-7-2.8-23-23.7-6-18Z"/>
      <path class="st4" d="M663.1,527.3c4.3,12.2,17.6,31.9,21,43.9-3.3,7.3-7.5-18.3-9-7.5,16.8,39.9-18.4-28.1-12-36.4Z"/>
      <path class="st5" d="M673.1,481.4c1.5,7.8-11.3,48.4-12,24-4.3-1.8-.9-8.8,1.7-8.2,3.8-7.1-4.6-11.2,7.3-9.8.3-3.1-1.4-9,3-6Z"/>
      <path class="st4" d="M399.5,614.2c4.5-30.1,13.2,4.8,17-15,.1.8,14.6,1.9,12.8,3.8-4.9,7.1-13.1.7-11.8,8.2-4.7-3.8-11.1,1.7-18,3Z"/>
      <path class="st5" d="M657.2,523.3c3.2-.7,6,1.5,6,4-.6,9.2,6.6,15.6,7,24-2.4-5.3-3.3,1.6-5,0,.5-10.8-14.7-2.7-1.1-11.6-1.9-10.8-5-2-7.9-2.5-.5-4.5-2.9-1.6-2.1,2.1-3.2.6-1.8-1.6-2-3.5-1.2-8.2.5-8.9,5-12.5Z"/>
      <path class="st0" d="M685.1,221.7c9.2-5.7,21.7,5.9,4.6,3.8-17.1.9,3.3,3.8,7.4,2.1,3-6.3,4.8,3,4,6-11.1-.5-24.3-4.8-35.2-4.2-17.6-11.3,9.8.7,9.2-5.8-2.9-2.9,8.1-1.9,10-2Z"/>
      <path class="st4" d="M442.4,552.3c4.5-3,9.2-6.9,14.9-7.1-.9-3.3,2.4-3.5,2.1-6.9,3.5-.6,1.2,3.7,4.7,4.8,5.7-.3,13.7,1.1,4.2,5.6-2.6.4-16.6.3-14.8,4.6-6.9,2.2-7.2,2.6-5,10-2.9.2-10.3-11.9-6-11Z"/>
      <path class="st4" d="M12,254.7c-5.6-17.5,5-7.6,10-3-10.6-2.5-5.9,8.4-5.3,13.3-4.6,8.6,2.5,16.2-8.7,20.6,2.4-10.7,3-19,4-31Z"/>
      <path class="st4" d="M439.4,131.8c5,10.6,0,27.9-15,16-2.2-2.5,3.3-1.8,3.8-2.1,2.8-4.3,2.6-20.7,11.2-13.8Z"/>
      <path class="st5" d="M491.4,551.3c-10.6.5-25.9-4-38,2-5.5.2,2.5-5.3,3-5.4,5.7-1.4,12,1.1,16-4.6,13.6.9,9.4,1,19,8Z"/>
      <path class="st5" d="M511.3,567.3c8.8,6.7-10.9,10.8-15,14-2.1,1.7-9.8,11.5-7,3,8.9-27,4.4-12.8,17.9-13.1.4-5.9-6.1-13.5,4.1-3.9Z"/>
      <path class="st4" d="M128.8,427.5c7.5,7.9-2.4,11.2-8.8,8.2-1.5,6.2-13.4,5.1-6.1-1.6-5.8-10,7-15.5,4.9-2.6,7.2,1.2,3.6-13.6,10-4Z"/>
      <path class="st2" d="M121.8,435.5c2.9,1,.7-2.4,3.5-2,1,.2-.9,2.2,4.5,2,4.1-8,14.9,1.9,5,8,2.2,1.9,6.4.4,4,6-6.8,3.6-15-8.3-17-14Z"/>
      <path class="st0" d="M511.3,567.3c3.4-3.7,18.2,9.9,20,16,5.9,2.7,1.7,13-1,4.7-6.5-10-18.8-17.3-28-8.7-.4-4.2,8.5-5.7,8.9-6.1.7-.8-.2-4.4.1-5.9Z"/>
      <path class="st4" d="M694.1,365.5c-2.4,9.3.3,17.5-1,26-3-6.9-16.3-29.8,1-26Z"/>
      <path class="st4" d="M493.4,553.3c13.2,1.3,3,22.1-3,26,5.4-8.4-5-21.4,3-26Z"/>
      <path class="st4" d="M618.2,662.2c-3.6,7.5-22.5,26.4-27.7,21.2,13.9-6.8-4.6-3.4,2.3-9.2,2-.9.8,3.1,3.5,2,0-7,5-3.4,7.5-9,2,14.4,7.5-3.2,14.5-5Z"/>
      <path class="st4" d="M179.8,461.4c2.3,4.7-.8,15.4,4,15,4.4,1.6.4,7.7-3,3-.6-1.3-12.4-5.2-6.5-6,16.3-2.1-21.7-10.6,5.5-12Z"/>
      <path class="st4" d="M33,247.7c24,9.7-5.2,18.8-8,12-1-11.4-3.3-5.5,8-12Z"/>
      <path class="st4" d="M251.7,521.4c.8,2.8,1.7,4.6-2,4,5.6,4.3.2,3.9,6.5,5.9,7.2,10.4-.2,14.1-4,2-6.3-4.3-13.9-12.1-.5-12Z"/>
      <path class="st4" d="M252.7,525.3c1.3.2,2.8.4,3,2-1.8,0-3.6.7-3-2Z"/>
      <path class="st5" d="M456.4,571.3c4.3,5,14.1-2.6,10.7,7.7-2.5,5.9-17.2-2-19.1,5.3-.9.8-2.2.7-2.5.9,1.5-9.2,16-2.7,11-14Z"/>
      <path class="st0" d="M447.4,137.8c-.7,5.4-2.5,11.1-4,16-4.3,6-2.5-.7-7-2,1.4-5,5.7-21.5,11-14Z"/>
      <path class="st0" d="M202.7,491.4c6.3-.5,12.1-.8,16,2-1-4.9,18.6.8,14,8-1.1,1.9-15.2-4.6-17.7-8-3.7-.8-10,1.9-12.3-2Z"/>
      <path class="st0" d="M344.6,599.3c6.6,1.6,2.5-3.9,4.9-5.6,12.7-.1,8.1,20-4.9,5.6Z"/>
      <path class="st5" d="M183.8,476.4c2.6-3.1,4,4.9,7,3,3.3,5.7-1.8,5.1-2,10-.4,2.9-2.1,2.7-3,0-1.8,7.2-5-5.6-4-8-2.4-3.9,3.6.2,2-5Z"/>
      <path class="st4" d="M79.9,384.5c0,6.6-1.5,12-8.5,14-3.9-1.1-.1-8.8-2.5-13,4.3,2.1,8.1,5.8,11-1Z"/>
      <path class="st0" d="M433.4,127.8c4.3-3.7,7.8-2.7,10.5,2,4.3-3.8,6.1-2.2,3.5,3-1.5,2.2-3.3,1.4-4-1-.8,2.9-2.7,2.5-4,0-5,3.3-13.7-.6-6-4Z"/>
      <path class="st4" d="M354.5,607.2c3.4,3.5,1.8,4.3,3.5,8,8.4-9.8,19.3,0,7.5,2-21.6,1.1-7.2,1.6-11-10Z"/>
      <path class="st4" d="M240.7,503.4c2.8,2.9,6.9,6.7,9,8-9.5,6-26-19.4-9-8Z"/>
      <path class="st4" d="M177.8,441.4c12.5,6.1-7.2,19.1,19,14-16.8,7.8-16.9,3.5-19-14Z"/>
      <path class="st0" d="M185.8,496.4c-.1,1-.6,1.1-1,0-2.2-2.2,2.3-1.5,1,0Z"/>
      <path class="st0" d="M188.8,489.4c8.5-6.5,4.2,4.3,12,2-1.2,3.3-5,1.5-7.3,2-1.1,3.1-4.1,1.7-6.7,2-5.1-.3-3.1-7.6,2-6Z"/>
      <path class="st4" d="M141.8,444.4c12.5,9.7,11.7,13.7-3.5,7-5.6-1.2-6.3,2.4-8.4-6,3.8.8,1.2,3,3.6,3.9,6.1,2,4.2-3.1,8.4-4.9Z"/>
      <path class="st0" d="M377.5,611.2c3.8-8.2,5.8,7.8-2,8-1.7-3.2-6.4-2-10-2,3.3-3.8,7-4.2,12-6Z"/>
      <path class="st4" d="M144.8,427.5c-2.6,4.9-4.9,9.3-3,15-5.9,4.3-8,.6-5.9-4.3.6-1.5,4.7-.3-1-4.7-4,.6-3.4-4.4,1-2,4.3,2,5-1.4,9-4Z"/>
      <path class="st5" d="M70.9,375.5c-4.8,6.2,5.4,9.7-3,8-.3.3.8,1.3,1,2-12.7-6.3-10.7-8.1,2-10Z"/>
      <path class="st4" d="M181.8,481.4c5,10.9,7.2,20.1-9,18,8.3-7.3,9.7-5.1,9-18Z"/>
      <path class="st4" d="M185.8,496.4v-1c1.4-.2.8.4,0,1Z"/>
      <path class="st0" d="M491.4,551.3c6.4,13.3-9.2,2.1-12-2,4.7.1,7.5.6,12,2Z"/>
      <path class="st0" d="M8,285.6c.9,6.1,1.5,3.1,2,4s-.1,2.8.3,4.2c6.9,7-12.8,6.8-.3,3.3-2.5-3-12.7-3.9-6-6.2,2.1-3.5.2-3.5,4-5.3Z"/>
      <path class="st4" d="M64.9,315.6c3.9,11.8-3.9,10.4-8,2,3.2.5,4.8-1.7,8-2Z"/>
      <path class="st0" d="M93.9,383.5c4.4,2.2,15.4,14.5,14,22-3.6.5-1.3-3.6-2.5-6-5-2.9-8.8-13-11.5-15.9Z"/>
      <path class="st5" d="M671.1,223.7c3.2-1.5,7.1-.4,6,4-.5.5-13.8,1.2-13-4,2.1-.5,5.1-2.5,7,0Z"/>
      <path class="st5" d="M684.1,571.3c4.8,1.5,8,14.8,0,16,7.4-6.8-7.1-15.3,0-16Z"/>
      <path class="st4" d="M500.4,579.3c.9,3.6-2.8,1.3-4,2s-5.9,13.4-10,10c-.8-2.7,2.7-6.2,3-7,.2,4.5.9.5,2.6-.9,6.7-2.3,1-2.5,8.4-4.1Z"/>
      <path class="st4" d="M276.6,567.3c-6.9,2.2-15.5,8.3-13-3,4.9,3.1,7.5,2.8,13,3Z"/>
      <path class="st0" d="M311.6,73.9c1.4,0,3.5-.8,3,1.5-3.3,10.5-20.7-2-3-1.5Z"/>
      <path class="st1" d="M425.4,124.8c-5.3-.7-2-9.4-2-13,2.3-3,5.9,16.9,2,13Z"/>
      <path class="st0" d="M7,303.6c4.8,4.2-1.5,10.8-7,10,3.7-4.2-.2-11.6,7-10Z"/>
      <path class="st1" d="M9,303.6c3.9-.5,4.6,5.5,2.6,5.7s-.3-4,1.4.3c5.1,3.9-4.7,1.1-7,2,.7-1.3-.4-9.7,3-8Z"/>
      <path class="st4" d="M680.1,457.4c-1.4,3.9,1.4,15.1-3,16,.8-4.4-2.7-15.1,3-16Z"/>
      <path class="st5" d="M141.8,442.4c1,4.2-4.2,7.1,1,9-2.9,0-7.2-3.6-5-6-9.5,1.4.7-5.6,4-3Z"/>
      <path class="st4" d="M427.4,123.8c1,0,5.2,2.9,6,4,.9,5.9-13.9-2.3-6-4Z"/>
      <path class="st1" d="M309.6,73.9c-1.4,2.4-5.4.9-5,4-13.1.1-2.3-6.2,5-4Z"/>
      <path class="st0" d="M109.9,411.5c4.9,0,1,6.7,3,11-4.5,6.9-8-10.6-3-11Z"/>
      <path class="st0" d="M181.8,491.4c0,.5-1.4,1.7-1,2,8.2.1-2.6,4.9-6,4,1.7-1.8,3.3-5.5,7-6Z"/>
      <path class="st4" d="M677.1,475.4c-.3,6.8-3.4,15.6-8,23,3.5-10,2.6-15.3,8-23Z"/>
      <path class="st5" d="M340.6,571.3c2.7,4.9,2.5-1.1,6,0,.8,7.1-3.3,3.5-8,4-2.7,5.8-5,8.5-12,10,5.1-4.1,11.3-8.5,14-14Z"/>
      <path class="st4" d="M447.4,132.8c.7,4.7-.5,5.6-5,5-4.3-3.2,1.3-8.2,5-5Z"/>
      <path class="st1" d="M701.1,227.7c-2.9-.9-7.5,2.9-7-2,1-5.4,7.1-3.6,7,2Z"/>
      <path class="st0" d="M329.6,65.9c-.9,2.6,3.5,2.2,3,4.5-5.1,5.8-8.3-3.6-3-4.5Z"/>
      <path class="st1" d="M55.9,203.7c4.5-1.7,3.2,5.8,3,6-3.8.7-5.7-3.2-3-6Z"/>
      <path class="st1" d="M115.8,421.5c6.7,1.5,2.7,5.3-2,4-1.5-2.5-1.5-9,2-4Z"/>
      <path class="st5" d="M249.7,521.4c-.6,5.9-7.1,2.1-6-2,2.4-1.2,5.5,1.9,6,2Z"/>
      <path class="st0" d="M12,254.7c.5,2.6,3.2,9.7-1,9-.4-3.2-2.1-6,1-9Z"/>
      <path class="st1" d="M685.1,221.7c-1.9-4.1,8.5-1.6,10.4-2,3.1,3.6-7.9,1.3-10.4,2Z"/>
      <path class="st1" d="M677.1,221.7c-1.7,2.6-12.5,3.6-12,0,.5-.4,10,0,12,0Z"/>
      <path class="st4" d="M693.1,399.5c-.7,3.2,2.2,9.6-3,7.5.7-2.6,0-8.4,3-7.5Z"/>
      <path class="st0" d="M258.7,547.3s5,0,5,0c1.2,6-3.8,4.5-5,0Z"/>
      <path class="st4" d="M286.6,567.3c-.4.6,1.1,1.7-1.4,2.1-9.3.9-4.6-3.5,1.4-2.1Z"/>
      <path class="st4" d="M536.3,591.3c-.3.5.6,3.4-1,4-2.3-1.7-1.9-9,1-4Z"/>
      <path class="st4" d="M174.8,435.5c2.6-.8,2.8,3.1,3,5-2-.9-2.7-3-3-5Z"/>
      <path class="st0" d="M11,265.7c.3,1.6,3.1,4.5-1,4,.1-1.4-.3-2.8,1-4Z"/>
      <path class="st0" d="M10,277.7c0-.6,0-2.5,0-4,1.5.3,1.6,3.6,0,4Z"/>
      <path class="st0" d="M10,279.7c-.1,1.6-.6,3.1-2,4,0-1.1-1.9-4.4,2-4Z"/>
      <path class="st4" d="M121.8,437.5c2.6-.6,2.5,2,3,4-.4-.5-2.2,1-3-4Z"/>
      <path class="st4" d="M717.1,297.6c-1.1,1.7-1.3,4.3-3,4,.5-2,.4-4.6,3-4Z"/>
      <path class="st1" d="M693.1,383.5c3-1.1,3.2,4.9,0,4,0-1.3,0-2.7,0-4Z"/>
      <path class="st4" d="M667.1,506.4c-.2-1.7.2-3.5,2-4-.5,3.8-1.6,3.1-2,4Z"/>
      <path class="st4" d="M543.3,685.1c2.1-.2,2.2-.1,2,2-.6-.6-1.5,1.5-2-2Z"/>
      <path class="st4" d="M545.3,681.2c.3,2,0,2.3-2,2,.6-3.8,1.4-1.3,2-2Z"/>
      <path class="st1" d="M445.4,147.8c-.4,1.5-1,1.9-1,2-1.7-1.7-1.4-2.3,1-2Z"/>
      <path class="st4" d="M619.2,659.2c1.6,0,1.4,2.7-1,2,0,0,1-2,1-2Z"/>
      <path class="st4" d="M126.8,443.4c2.1-.2,2.2-.1,2,2-3.5-.6-1.4-1.4-2-2Z"/>
      <path class="st0" d="M689.1,439.5c-.4,3.3-1.5,1.5-2,2-.2-2.1-.1-2.2,2-2Z"/>
      <path class="st4" d="M287.6,566.3c.3-.4.7-.7,1-1-.3.4-.7.7-1,1Z"/>
      <path class="st4" d="M63.9,329.6c-.1-1.1.2-1,1-.5,0,0-1,.5-1,.5Z"/>
      <path class="st5" d="M245.7,517.4c1.1-.1,1,.2.5,1,0,0-.5-1-.5-1Z"/>
      <path class="st4" d="M522.3,363.5c9.7-3.8-13.6-13-14.7-25.7-4.9,9.7-10.6-3.5-13.6-8.4-25.4-36,78.4,34.8,82.6,46.1,9.9,4.5,49.7,20.2,41.6,28.9,0,0-2.3,1.2-2.3,1.2-17.9-9.5,14.3,10-2.1,13.7-13.3-7.7,6.6,20.4-10.4,9.9-2.6.6-4.3,0-5.2-1.8-9.9,22.8,16.1-1.7,3,24,3.2-2.4,13.8,4,12,11.4-4.6,4.4,5.4,4.6,0,6.5,6.6,1.5,5.4,4.7,8,8,2.5-2.2,8.7,1.9,8,5,5.9,1.8,0,8.4-3.7,3.1,0,0-6.8-3.6-6.8-3.6-9.2-3.3-14.2-18.7-23.4-22.5-7.5-5.7,4.4-4.8,6-8-3.3,2.2-7.6-1.6-9.4-4.6-10.7,3-9.5-23-10.5-31.4-.7-4.6-11.3-11.9-3.5-14.2-2.2-.7-3.1-2.6-2.5-5.8-8.8,3.5-17.7-11.4-11-18,4.8-2.7.6-4.5-3-4-2.4,4.3-12.4,1.1-4.2,7.9-2.3,4,3.7-1,1.2,4.1-2.1,3.6-5.6-.1-2-2-2.2,2.7-4.3-1.1-7.2-.4.2,11.9-8.7.8-9.8-3.6-1.3-3,3.6-10.3,6.7-1.9,5.3-7.9-.2-17.3-7.8-19.5,1.4,6.6-5.3,25.4-9.3,12.1-6.2,3.8-10.3-2.1-6.5-6.7-6.1,16.2,8.5,43.9,5,59.9-1.9-2.8-1.5,2-1,2.8,1.5-3.2,6.3-3.6,4,1.2,2.6.5,2.5,1.2,0,2,.3,3.2,3.7,6.2,0,8,1.8,1.9,5.5,5,2,8,5.8,7.6,7.4,14.2,5,24,4.2.2,0,8.2,7.3,8.4,1.3,6.4,7.4,15.1,11.7,15.6,4.5-7.8,8.7,18.8-3,6-23.4-19.1-24.6-45.6-35.4,1-3.7.2-8.7,5.7-7.5,8.9-.7.7-12.5-1.6-10,9-2,.3-5.1-4.9-5.7-5-3.1-.5-3.7,1.9-6.3,2-.9-6.3,1.5-2.9,3.8-4.2,53-23.4,18-101.5,7.2-138.6.8-3.3,3.3-1.4,4.6,1.1,8.9-2.4,5.1,5.1,10.6,7.8.3-8-3.9-17.3,2.9-21.5,4-1.5,9.2,1.1,4.9,3.6Z"/>
      <path class="st4" d="M218.7,331.6c5.2-2-2.9-11.6-3.5-14.9-.3-8.7-1-18,.4-26.5-6.1-4.2-7.5-15.7,2.1-14.5,3.2-6.4,14.2,4.2,4.4-4.2-6.7.5-6.1-5.5-1.4-8.6,0,0,1-20.2,1-20.2,9.8-14.7,14.5,10.4,8.6,17.3,3.9-10.8,9.9-4.7,12.2,3.6,7.3,2.9,4.3,32.9-.5,13.1-13.4-17-3.9,8.6-18.1,5,1.1,27.3,3.5,76.9,35.5,83.9,5.9,8.8,6.8-6.8,14-2,4-4.5-1.2,6.5,0,7.9-5.7,0-3.2,6.3,2,3.5,4.5-.4,1.9,2.1-1.4,2.6-4.7.8-5.6-1.9-4.4,6.4-.2,2.2,6.6,24.3,1.9,17.6-5.5-5.1-5.2-5.1-5-13-3.9-3.4-6-5.9-4.4-11.3-7.6,1.7-24.2-28.9-24.5-5.6-10.1,11.7-5.9-19.6-14.2-24,2.3-6-12.2-14.4-4.8-15.9Z"/>
      <path class="st4" d="M407.5,355.6c6,4.6,3.7,7.9-4,8-.7,9.2.4,18.2,5,26,.3,6.7,54.9,89.7,28,63.3-16.1-12.8-19.1-32.8-31-49.3-1.7.2-5.7-18.6-14.1-14.7-6.1,3.1-7.8,37-17.8,28.6-3.6-3.8-.3-5,0-10-2.8-.9-2.8-3,0-4,2.8-49,7.4-10.4,23.3-24.5-4.6-8.1-15-43.3.7-37.7,0,0-1.1-4.8-1.1-4.8-3.7-3.7-4.3-17.3,2.2-14.7,4.7,10.7,3.5,24,8.8,33.8Z"/>
      <path class="st4" d="M442.4,345.6c4.7-4.6-1.7-11.2-7.9-16.1-9.1-9.9,6.7-10.9,11.6-5.7,9.3-5.2,11.5,1.5,12.2,9.8,3.9-1,8.7,2.2,4,4-1.4,2-4,2.7-7.6,1.9,7.2-.4,28.8,18.7,13.8,16.6-2.3-3.1-3.7-2-3.2,1.4,4.1-4.1,5.7,9.6,1,11,3,.7,3.7,6,2,8,1.1,5.9,4,9.1,7.7,12.5-3.1,5.9-5.1-.7-2.7,10.5-2.1,11.8-5.6,0-5.9-6-3.8,3.6-20.7-31.5-20.1-37.9-3.2.5-6.3-7.5-5-10-2.8,5-7.5-4.3-3-6,3-3.2,6.4,4.4,3,6Z"/>
      <path class="st5" d="M591.2,455.4c2.7.2,2.5,1.2,0,2-1.4,5.2,2.9,8.8,4,11.7-.3,13.2,9,49.6-13.6,41.2-.1-7,9.8-3.1-5-11-1.9-9.2-6.9-25.2,2.5-30,8.5-3.7.1-9.4,5-12,2.9-5.2,5.2-5.8,7-2Z"/>
      <path class="st3" d="M267.7,481.4c38.4-2.1-3.2,57.4-18,19,3-9.1,8.9-20.7,18-19Z"/>
      <path class="st5" d="M462.4,337.6c5.8,3.8,13.9,4.9,14.7,11.7,12.4-5.8,14.1,12.4,20.2,18.3,3.1-.8,4.7,3.4,2,5,5.2,8.1,8.6,13.4,6,23,6.2-9.8,7.5,14.6,9,22-5.9-2.2-.2-8.5-4.9-10.8-6.7-21.6-5.5,7.3-10.1,10.8,1.6-15,10.1-29.3-2.5-41.9.3-6.1-2-7.5-7.8-7.9-10.9,17.9-6.4-2.1-14.4,5.8-7-1.3-1.9,2.8-6.3,3-5.1-8.5,1.7-17.2,11.6-10.1-1.4-8.6,7.7-6.2-4.6-8.9-1.8,5.8-13.5-.8-12-4,13.9,2.7,7.1.5,2-7.5-11.2-4.8-24.6-9.5-3-8.5Z"/>
      <path class="st5" d="M173.8,333.6c1.8.7,5.3,5.1,1,4-4.7,1.4-4.6,10.7-10.5,7.1-.2,7.3,8.3,3,7.1,11.4.3,4.4.5,16.1-5.6,13.5-13.4.4,6.1,7.1-7,6-3.5-3.6,3.9-11.8-1.1-11.9,1.5,4.4-2.5,9.8-5.9,5.9.6-3-1.5-1.9-4-2-1.5-10.9-.3-23.7,3.9-33.4-4.8-17.5,14.4.1,22.1-.5Z"/>
      <path class="st5" d="M135.8,311.6c18.3,12.8,15.5,19.2,12,38.8.6,5-.2,15.9-7,13.1.7-2.9,2.3-5.9-2.7-3.7s-6,1.5-6.3,1.7c1-3.9-4.9-.3-4-3.5,8.6-4,4-9,4-16.5-2.9-.5-3.3,5.3-6,0,1.2-2.1,16.1-10.7,11-14,0,0-1.9-1.5-1.9-1.5,2.3-6.8-2.9-14.7-3.1-3.5-2.5,6.3-13.1-1-7-4-.2-3.7,9.2-9.4,11-7Z"/>
      <path class="st5" d="M371.5,425.5c4.4-.5-3.1,16.4-2.7,17.8,5.8.7,6.3,13.6,5.7,18.2,8.9,3.7,16,14.5,3,18-1-13.6-11.7-2.7-11-18.4.5-4,5.8-10.4,1.5-14.6-6.1,5.2-3.8,20.2-11.5,22.9,3.8-6.2,7.4-32.2-7.7-22-5.8,1.7-1.8-3.4-2.3-4-5.4-2.3-19.8-4.4-15-11,21.6-22.8-3.5,19.4,32.3,6.4,1.3-2.8,2.3-19.3,7.7-13.4Z"/>
      <path class="st5" d="M459.4,379.5c5.2-3-1.3,16.3,10,12,1.3.6,0,19.1,4,8-1.9,9.1,11.1,25.3,8,28-9.7-9-11.6-22.4-22.3-6.3-4,3.1-9.6.3-6.6,6.3-14.5-2.4,7.8-4.7,2.8-17.2-2.5-8.3-11.1-10.3-15.8-14.7,2.8-4.7,7-.6,12.2.6,7.8-14.5,10.6,29.2,12.5,9.1-2.1-7.5-9.4-19.2-4.7-25.6Z"/>
      <path class="st4" d="M208.7,399.5c.4-1.6,1.8-.4,1.7.2-.1,2.6-5.7-21.1-5.8-22.4.5-8.8,12.9,1.8,11,6.2.2,1.5-1.2,1.1-1.1,1.1,8.2-.8,8.8,12.2,3.1,14.8.4,4.2,5.7,11.9,3,20-.2,4.7-1.8.4-3,0,.6,5.7-.3,6.7-6,6,2.6-14.5-12.3,9.7-3-26Z"/>
      <path class="st4" d="M396.5,315.6c-4.6.9-2.8-7.6,2-6.1,2.2,1.4,4,1.5,5.3.1,5.2,2.8,12.4,11.3,16.9,12,2.5,7,13.1-1.7,14.4,10.1,6.7,3.2,4.3,9.3-2.6,6.7,0,3.7-1,11.1-5.1,7.1-3.5-2.1-4.3-2.6-3.6-6.6-2.3,8.5-9.1-5.7-11.6-8.3-5,4.2-13.4,4.8-7.2-2.8-5.1-3.1-6.5-8.3-8.5-12.2Z"/>
      <path class="st5" d="M438.4,337.6c2.8-.7,3.2.1,1,2-.1,6.1,7,9.8,8,16-7.3,5.9,8.6,32.7-2,36-5.2-8.5-1.5-19-7.9-25.9,6.3,1.3-6.6-20.4-9.9-18.3-3.9-8-11.3.3-4.1,3.7,2.5,4.3-3.8,4.6-2.1,8.5-3.4,2.9-6.3-4.8-1-5,1.2-1.7-3.5-3.9-3.8-5.6,0-4.6,10.5-20.4,8.9-6,4.2,8.3,5.6-3.8,4.9-7.4,0,0,8,2,8,2Z"/>
      <path class="st5" d="M396.5,315.6c5.1,0,3.2,6.5,8.3,9.7,5.9,2.1-.2,3.7-.3,7.3,5.2-2.3,9.7-8.4,11.1.9,2.2,1.9,4.2-3.6,3.8,6.1-3.8-1.7-3.5-2.9-7.8.2,3.3,22.5-10.8-3.4-4.2,15.8,1.5.9,3.1-2.2,3,3-8.8-2.4-9.2-17.3-10.2-26.2.3-4.4-9.4-14.3-3.8-16.7Z"/>
      <path class="st5" d="M629.2,519.4c8.1-2.8.8,9.4,6,8,1-.9,1.5-11.4,1-12-1.7-2.1-2.3,4.1-4,2-2.6-3.3,4.7-6.4,5.5-8,2.4-4.9-3.3-7,7.5-6-4.2,12.6,9.4,27.9-4.5,28.1-1.4-1.1-5.6-4.6-8.5-.1-1.3-6.2-2.5,4.6-7,2,2.2-4.9-1.3-10.9,4-14Z"/>
      <path class="st5" d="M189.8,365.5c-5.8.3-3.3-8.4,3.4-5.2,4.9,7.5,11.3.3,12.1,10.7-.3,8-1.7,10.6-3.1,17.1-4.8,5-5.8,7,2.1,7.5,3.3,3.9.4,5.5-1.3,5.9-.7.7-.9,12.4-4.2,9.4-5.2-7.2,4.1-15.6-7-9.5,8.8-20.1-4-4.3-4-20,.2-3.9,3.9-1.9,6.1.2,6.4-4.8-2.1-12.2-4.1-16.2Z"/>
      <path class="st5" d="M568.3,489.4c-25.4,16.3,36.9,78.3,16,75.4,2.2-8.4-11-36.4-21-35.4,0,0,0-15.5,0-15.5,0-4.2-14.4-15.7-6.7-14.5,1.1.3,0,2.9,2.7,2,.8-10.4-5.4-12.3,9-12Z"/>
      <path class="st4" d="M174.8,337.6c4.9,1.3-2.8,8.2,3,6,2.3-4.9,6.5-.6,5,4,3.4-1.2,3.7,2.7,0,2-1.1,2.3-3.8,2.4-6.2,2.2-1.2,4.3-8.4,11.1-2.8,14.4-.2,6-7.2,7.6-4,14.3-11-3.9,4.5-18.5-1-29-6.9,2.8-6.7-7.8-7-12,1.5-2,4.4,5.9,6,4s-1-7.7,7-6Z"/>
      <path class="st4" d="M380.5,460.4c2.1,0,28.2,26.2,23,26-6.8-1.7-2.7.4-6.3,3.7-8.4,5.2.2-4.9.3-6.7-8.8-3.1-4.7,6.7-10,8,1.5-3.2-2-4.4-2-4.7-.7-3.8,2-4.6-1-11.3-2.6-7.8-6-6.8-10-14-.5-3,5-3.7,6-1Z"/>
      <path class="st0" d="M202.7,352.6c2.6,4.5,5.5,15.9,11,23,2.9-.9,7.5,6.9,4,8-1.2,4.6-7.7-11-11-8-.6,5.5,7.3,34.4,1,20-8.2-5.8-2.2-20.7-6.3-29.6-2.9,0-7.1-2.3-3.6-5.3-5.2-3.9-1-17,5-8Z"/>
      <path class="st4" d="M595.2,465.4c6.1-3.7,4.3,31.1,5.8,36.1,3.2-.9,7.3,5.3,4.2,5.9-14.1.9-4.4,14.8-10,10-3.9-9-1.9-39.6,0-51.9Z"/>
      <path class="st5" d="M605.2,507.4c2.4-5.5,7.4,6,9,7.1,3.8-14.2,7.6,2.7,9.9,7.8,2.5,5.7-3.3,5.7-6,9-2.1-19-7.3-2.5-9.9-11.3-6.8-2.5.8-12.2-10.1-10.7-1-3.5,4.9-1.9,7-2Z"/>
      <path class="st5" d="M204.7,473.4c8,1.4,18.8,6.6,15,18-6.1-8.3-.6-.2-10-2-2.8-.9,5.6-7.5-.5-10-.8,5.5-4.5,4.4-7,1.9-10.1,8.9-4.9-10.8,2.5-7.9Z"/>
      <path class="st5" d="M437.4,441.4c6.8.4,20,18.4,7,16,1.7,32.3-5.7,5.6-12.3-6,4-6.7,5.9,6.6,9.3,6,1.9-7.4-6.9-8.3-4-16Z"/>
      <path class="st4" d="M285.6,353.6c2.8-5.3,6.9,2.2,8,5,3.6-3.3,5.8,1.6,5.9,5.2,8.9-4,13.5,6,4,5.8-3.9,3.8,3.5,5.9-1,8-6.5,7.1-3-11.1-14-6,4.4-10.2-5.7-9.9-3-18Z"/>
      <path class="st5" d="M237.5,391.8c5.3,6.1,11.4,15.5,20.2,17.7-6-1.4-5.6,3.4-6.6,4.1-1.6,1.1-5.5,1-6.9,3.9l6.5-7c-5.7.3-9-6.6-14.8-5.1,0-4.7-8.6-15.3,1.6-13.6Z"/>
      <path class="st5" d="M588,650.4c2.5,4.1-2.9,4.4-3.9,5.5s-10.4,22.7-13.9,19.3c5.3-9.3,11.9-14.7,11-26.4,7.4-5.7.5-16.3,3-24.5,7.4,5.5-2.3,22.3,3.8,26.1Z"/>
      <path class="st5" d="M515.3,568.3c7.4.6-.9-5.4-.5-8,15.8,12.4,2.3,8.9,17.5,5,0,0,0,2,0,2-12.2.7,6,8.1,12,4,.3,3.7-8.1,1.4-7,7-4,.9.8-4.9-8-3,.9,6.7.6,7.2-3.5,1-3-2.6-12.1-3.3-10.5-8Z"/>
      <path class="st5" d="M302.6,377.5c5.9,3.9,18.3,40.7,10,37-5.9-5.3-5-13.9-7.5-21-1.1-5.5-13.7-17.1-2.5-16Z"/>
      <path class="st5" d="M253.7,371.5c3.1,4,3-.4,4,4,3.5,1.8,3.7-3.3,6-2,1.5,1.8-.2,7.8,0,9.4s2.3.9,3,5.6c-7.4-2.1-4.5-6.5-11-2.5,4.7,4.7,3.2,6.3-4,6.5,1.8-2.8-.5-6.3,0-8.3,5.9-5.6,7.8-5.6,2.1-12.7Z"/>
      <path class="st4" d="M189.8,365.5c7.3.5,6,6.4,8.7,13.4-8.5,14.2-16.1-9.2-8.7-13.4Z"/>
      <path class="st5" d="M215.7,383.5c12.6-8.7,17.7,25.5,2,16,6.7-11.9-8.3-15.1-2-16Z"/>
      <path class="st5" d="M179.8,387.5c1.3,2.6,1.5,17.4-4,13-.5.2-1.8-.6-2,.6.2,2.7-1,16.1-5.9,7.8,2.1-8.3,3.7-17.7,12-21.4Z"/>
      <path class="st5" d="M87.9,361.5c-4.5-2.5-19.2,7-15.5-2,1.8-3.6,7.8-1.2,10.8-2,3.4-6.4,3.6,6.7,9.1,0,10.6,3.6-3.5,7.2,11.5,6,.4,4.5-6.6-.8-7,5-3.7-5.5-1.6-8.3-9-7Z"/>
      <path class="st5" d="M441.4,473.4c2.2-3.4,6,.4,2,2-3.3,1-2.5,2.4-4.4,3.6-33.9,7.3-2.2,41.6-16.6,54.4,7.8-14.3-14-47.2,0-44-5.9.6-16.6.2-19-5,4.6-2.2,14.6-5,17.9-.4,7-1.9,13.6-11.8,20.1-10.6Z"/>
      <path class="st5" d="M403.5,363.5c-2-2-1-1.8,1.7-2.3.3-.2.4-3.2,2.3-1.7-.4,2.7,1.7,1.8,3,1,2.1,1.6,8.9,9.3,10.4,13,4.2,1.8,15.7,8.5,14.6,13.9-5,1.8-4.2-6.6-10.2-9.7-9.1.8-10.4-15.3-21.7-14.3Z"/>
      <path class="st0" d="M182.8,349.6c3.4,9.7-.8,40.8-3,38-1.1-6-5.8-39.2,3-38Z"/>
      <path class="st4" d="M261.7,481.4c.7-1.6,3.4-1.8,4,0-1,2.7-6.5,1.6-7,2,3.6,8.8-8.1,10.3-9,17-.3-4.8-.2-4.8-4-7.7.6-5.7,10.4-8.9,15.9-11.3Z"/>
      <path class="st0" d="M217.7,399.5c18.6-7-2.2,34.5,2,11.5.8-5.1-11.1-12.3-2-11.5Z"/>
      <path class="st5" d="M357.5,547.3c-1.9,5.9,2.9,4.8,3.1,5.5-.9,5.7,1.7,21.9-9,18.5.6-4.6,13-5.8,2.4-10.9,0-9.4-6.5-7.2,3.5-13.1Z"/>
      <path class="st4" d="M314.6,415.5c6,2,13.2,13,14,15,1.6,2.3,3.6-2.8,3,2,4,12.9-28.8-17.5-17-17Z"/>
      <path class="st4" d="M201.7,381.5c5.9-1,5.1,12.7,4,16-15.8,1.5-5.2-8.2-4-16Z"/>
      <path class="st5" d="M115.8,421.5c-9.7,3.8-3.6-3.6-6-10,8.1-1.3,6.5-5.5,4-10.5,8.4-6,2.1,16.6,2,20.5Z"/>
      <path class="st4" d="M401.5,565.3c9.3-1,11.2-5.6,5.1,4.4,3.3,4.7-2.9,19.7,3.9,19.5.6,1.8-1.5,2.3-1.7,3.6-2.6,17.1-2.5-24.5-7.2-27.6Z"/>
      <path class="st5" d="M393.3,603.5c.2,2.7,4.3,1.1,5.2,3.2-.7,3.4-6.4,14-7.6,5.4-8.5,1.1-11.9-7.1-4.4-1.9-1-3.2,4-8.2,6.8-6.7Z"/>
      <path class="st0" d="M144.8,388.5c-.2,3.5.4,10.3-3,11.7-.5,2.3,1.6,8-2,7.3,1-2,1.5-13.5,1-14s-4.5,1.4-4-1.5c2.4-4,7.1-5.1,3-10.5,0,0,5-1,5-1-2,3.5,5.6,9.2,0,8Z"/>
      <path class="st4" d="M158.8,375.5c-7.8,4.2-7.3,0-7-6,1-1.1,6.6.8,3-8,11.9-.5,4.8,7.3,4,14Z"/>
      <path class="st4" d="M577.3,470.4c2.2-3.5,3.7,4.8-.9,3.1-1.3,6.5-6.3,16-14.1,17.9-5.5-4.9,3.4-5.5,5-8-4.1-3.1,7.6-17,10-13Z"/>
      <path class="st5" d="M505.3,469.4c-6.7-9.7,9.6-22.2-12-33.9,16.3.9,15.7,23.8,12,33.9Z"/>
      <path class="st5" d="M145.8,386.5c4,2.5,9.4-3.4,10.5,1l3.5-4c-.4,19.7-9.5,11-14,3Z"/>
      <path class="st5" d="M282.6,423.5c4.8,2.3,4.7,7.9,6.6,11.9.8,2.4,9.8,8.9,4.9,10.1-2.6-1.7-20.8-27.1-11.5-22Z"/>
      <path class="st4" d="M179.8,399.5c15.5,10.1,7.5,8.4,17,23-7.7.9-6-6.4-7.5-11,0-6.1-20.6-9.7-9.5-12Z"/>
      <path class="st5" d="M403.5,369.5c13.1,13.2-1.3,5.5,5,20-5,1.3-3.3-6.7-4.1-9.2-2.4-1.3-7.2-12.1-.9-10.7Z"/>
      <path class="st5" d="M460.4,491.4c11.7,9.1-14-7.5-15-16,2.7-8.3,12.3,12.5,15,16Z"/>
      <path class="st4" d="M423.5,534.3c-.1,8.1-.8,26.3-11,28,8.6-4.3,4.5-26.4,11-28Z"/>
      <path class="st5" d="M522.3,483.4c1.3-4.4,1-19.5,8.3-10.3,4.3-.2,4.6,2.6,5.6,6.3-8.9-.8-8.7-6.8-14,4Z"/>
      <path class="st5" d="M116.8,361.5c1.6-1.7,3.1.4,4,2,10-5.4.1,4.3,2,12-2.5-1.8-3.5-7.4-2-10-5.1-1.5-6.6,2.1-11,2,.3-5.4,1.4-4.6,7-6Z"/>
      <path class="st5" d="M391.3,559.1c-6.5,1.9-10.3.9-1.9-2.4,2.5-6,5.1-14.8,2.2-20.8,9.4-4.2.5,21-.2,23.2Z"/>
      <path class="st5" d="M283.6,353.6c1.4-6.4,2.9,5,3.2,5.8,6.9.5,4.6,8.4,1.8,12.1-4.4-.4,3.5-8.5-4.8-12.7-.6-12.8-4.3,2.8-8.2,4.7-6,.7-.2-15.2,1.8-17.6,4.4-2.6,9.9,4.2,6.2,7.6Z"/>
      <path class="st5" d="M591.2,584.3c7.8-4.6,3.3,11.6-7.5,15,4.1-4.1,2.3-14.8,7.5-15Z"/>
      <path class="st4" d="M512.3,533.3c2.7,3.2,9.7,11,1,8-.6.4-2.7,10.3-3.5,12-4.6,1.2,2.9-13.2-.5-17-2-3.9-.6-5.7,3-3Z"/>
      <path class="st5" d="M222.7,471.4c4.7,2.8,2.5-6.2,6-5,3,16.7-12.2,20.2-6,5Z"/>
      <path class="st4" d="M147.8,349.6c3.9-3.8,1.3,19.1-2,20,1.2-7.3-2.6-1.1-5-4,8.4-8,3.1-13.6,7-16Z"/>
      <path class="st5" d="M509.3,536.3c-2-6.5-9.8-.7-5,3,0,0-3,0-3,0-1.7-5.7,2.7-5.3,2-8-12.9-5.6,14.5-6.1,6,5Z"/>
      <path class="st4" d="M277.6,408.5c15.6,15.3,8.9,2.2,5,15-5.1,0-8.4-10.8-5-15Z"/>
      <path class="st4" d="M340.6,533.3c-3-2.6-5.7-6.9-9-9.5,5.9-4.2,3.7-2.1,5.9,0,3.9,1.3,10.7,12.5,3,9.5Z"/>
      <path class="st5" d="M419.5,411.5c-6.4-4.9-10.4-11.9-10-20,3.5,7.8,8.4,11.4,10,20Z"/>
      <path class="st4" d="M203.7,435.5c0-3.2-1.1-11.6,4-10-.2,3.1.1,10.9,2,14.5-3.9.7-6.5.9-6-4.5Z"/>
      <path class="st5" d="M547.6,513.7c-.5.2,0,2.5-2.3,1.6-8.4-15.7,20.2-5.5,2.3-1.6Z"/>
      <path class="st5" d="M225.7,491.4c.3,0,1.5-1.7,3-1-.9,4.5,2.1,2.2,4.6,3.9s5.7,7.3,7.4,9.1c-7.7.7-9.6-7.6-15-10-2.7-.3-2.5-1.2,0-2Z"/>
      <path class="st5" d="M324.6,519.4c-2.6.7-19.6,8.2-13.7.2,2.1-1.4,3.4,2.1,1.7-4.2,1.5.1,11.6,1.5,12,4Z"/>
      <path class="st5" d="M583.2,600.3v15l-2-9.9c-1.3-1.2-12.7,2.3-13.9-3,6,1.3,11,1.4,16-2Z"/>
      <path class="st5" d="M387.5,511.4c-3.9,1.1-1.1-6-2-7-3.5-.8-3.9,4.7-7,2.5.3-6.8,4.9-3.9,6.8-5.7,5.4-14.7,1.9,8.7,2.2,10.2Z"/>
      <path class="st5" d="M484.3,455.4c.9,4.1,5.2,15.3,10,18-6.8,4.8-16.2-21.4-10-18Z"/>
      <path class="st5" d="M237.7,371.5c-4.2,7.1-4.4,10-4,16-.8.3-2.8-.2-3.6-.8-4.1,3.4-7.8-4.8-1.2-4.7,0-7.9,4.5-8.2,8.8-10.4Z"/>
      <path class="st4" d="M445.4,391.5c8.9,5.5-16.4,5.8-9-1.5,2.8-1.9,6,2.6,9,1.5Z"/>
      <path class="st5" d="M484.4,515.4c.6,3.5-6,4.6-8,7.5-12.5,18.5.8-12.6,8-7.5Z"/>
      <path class="st5" d="M278.6,483.4c2.9-.9-3.7-13,1-10,4.5,4.5,5.3,7.1,3,14-.9-2.9-5-.9-4-4Z"/>
      <path class="st5" d="M189.8,367.5c-.5,4.3-2.3,9.7-8,10-1.1-4.8,2.7-17.6,8-10Z"/>
      <path class="st0" d="M273.6,401.5c4.8,2.7,6.8,20.4,0,8-5.1,1.1-2.4-8.8,0-8Z"/>
      <path class="st5" d="M358.6,584.1c6.3,1.7,1.8,15.4-.1,1.2-.7-.7-7.8,1.7-4.7-3.8,3.8-3.7,6.6-1.3,4.9,2.6Z"/>
      <path class="st5" d="M223.2,448.9c7,6.1-5.4-3-5,3.5-8.7-11.7-6-11.3,5-3.5Z"/>
      <path class="st5" d="M442.4,552.3c-1.3,2.3-6.5,1.2-9,2,2.7-4.5,11.7-4.7,6-11,6.2-.4,4.8,5,3,9Z"/>
      <path class="st4" d="M595.2,585.3c-7,.8-1.4-8.6-4-13,.5-7.1,4.9,7.4,4,13Z"/>
      <path class="st5" d="M285.6,415.5c4.7,0,10.7,2.6,15,2.5-1,3.1-16.7,2.4-15-2.5Z"/>
      <path class="st5" d="M613.2,555.3c4-2,7.1,8.2,7,11-3.9-1.4-7-6.9-7-11Z"/>
      <path class="st5" d="M664.1,581.3c2.7,9.8-4,17.6-3.7,2.6.7-1.9,1.9-3,3.7-2.6Z"/>
      <path class="st5" d="M204.7,440.5c-.3,1.3-8.9,10.1-10,9,0-6.1,10-7.6,9-14,0,.7,1.6,2.4,1,5Z"/>
      <path class="st5" d="M531.3,583.3c3.7,2.9,7.5,0,4.9,5.4,6.5,5-6.6,3.2-4.9-5.4Z"/>
      <path class="st5" d="M644.1,570.3c2.7,2.7-.9,10.2-4.9,6.9-.5-.6,1.8-9,4.9-6.9Z"/>
      <path class="st5" d="M179.8,350.6c1.1,5.3-1.6,5.3-6,5,.2-5,.7-7.3,6-5Z"/>
      <path class="st4" d="M482.4,425.5c3,2.5,10.2,8.5,2.1,7.8-.9-1.5-4.2-6-2.1-7.8Z"/>
      <path class="st5" d="M135.8,431.5c-3.9-.6,1.7,3.3-6,4-1.4-8.2-1.1-8.3,6-4Z"/>
      <path class="st5" d="M97.9,369.5c3.2.7,7.1-1.2,8,4-4.1-.7-11.1,2.4-8-4Z"/>
      <path class="st0" d="M590.2,563.3c5.2,1.8,6.2,8,1,9,.3-4.1-3.9-6.5-1-9Z"/>
      <path class="st5" d="M401.4,581.4c1.4,2.3-1.2,7.9-4.9,5.9.8-3-.3-9.6,4.9-5.9Z"/>
      <path class="st4" d="M271.6,405.5c3.7,3.8-2.2,6.3-7,6,0,0,7-6,7-6Z"/>
      <path class="st0" d="M225.7,385.5c5.9-.3,8.1,0,3,4-5.9,3.2-5.8-9.8-3-4Z"/>
      <path class="st0" d="M444.4,467.4c-.5,3.4,6.9,7.1,1,8-2.2.6-2.2-2.7-4-2-5.6-1.2,3.9-1.4,3-6Z"/>
      <path class="st4" d="M325.6,532.3c-.4.4-12.5-2.7-10-5s12.3,2.8,10,5Z"/>
      <path class="st5" d="M673.1,573.3c-.8,2.6,7.4,5.7,5,8s-11.4-7.9-5-8Z"/>
      <path class="st0" d="M324.6,519.4c9.4,6.6-3.3,2.2-7,2-.9-3.8,4.8-1.4,7-2Z"/>
      <path class="st5" d="M382.5,497.4c-5,1.3-3.6-6.1-.5-8,0,0,.5,8,.5,8Z"/>
      <path class="st4" d="M415.5,490.4c.7-3.8,9-4.1,7-1-2.6.4-3.1,4.1-7,1Z"/>
      <path class="st5" d="M343.6,532.3c.6,1.6,6.3,3,7,5-3.5,1-13.7-3.9-7-5Z"/>
      <path class="st4" d="M204.7,417.5c-.1,4.7,1.7,6.9-4,6-.8-.8,1.4-6.9,4-6Z"/>
      <path class="st4" d="M229.7,447.4l.5-8c2.7,3,5.3,7.2-.5,8Z"/>
      <path class="st4" d="M450.4,454.4c5.9-.4.6,8.7-2,3,.4-.5-1.2-3.9,2-3Z"/>
      <path class="st5" d="M474.3,425.6c.5.3,1.5,5.5,1.1,5.9-5,.2-5.4-8.6-1.1-5.9Z"/>
      <path class="st5" d="M657.1,596.3c-5,2.9-7.9-4.5-12,0,.7-9.4,6.9.9,12,0Z"/>
      <path class="st4" d="M381.5,602.3c2.6,2.8-11,2.2-8-2,.3-.3,7.7,1.7,8,2Z"/>
      <path class="st4" d="M132.8,399.5c1.1,1.1-4.9,7.1-6,6-.6-1.9,5-7,6-6Z"/>
      <path class="st5" d="M488.4,377.5c-1.7,3.7,2.2,6.9-3,6,.4-2.4-1.5-7.5,3-6Z"/>
      <path class="st5" d="M624.6,572.8c10.9,9,3,8.2-1.3-.2.3-3.5.9-.1,1.3.2Z"/>
      <path class="st5" d="M500.4,561.3c-.3,2.6-1.6,3-2,4-4.5-3.7-4.5-4.3,2-4Z"/>
      <path class="st5" d="M177.8,377.5c3.2-.9,1.9,3.2,2,6-4.8.9-2.1-2-2-6Z"/>
      <path class="st5" d="M268.7,481.4c-.9.8-5-.6-7,0-.8-3.4,6.1-2.8,7,0Z"/>
      <path class="st4" d="M273.6,481.4c1.1,3.3-7.4,3-6,0,1.9,0,4.1-.2,6,0Z"/>
      <path class="st5" d="M310.6,416.5c1.5,2.3-4.4,3.5-5,3-1.6-1.5,3.1-4,5-3Z"/>
      <path class="st4" d="M225.7,491.4c1.4,2.7-5.6,4-5,0,1.6-.2,3.4.2,5,0Z"/>
      <path class="st4" d="M377.5,611.2c-.5,3.6-2,1.7-6,2-.8-3.4,3.2-1.6,6-2Z"/>
      <path class="st5" d="M597.2,517.4c0,1.6,2,4.4.5,6,0-1.3-4.8-7.4-.5-6Z"/>
      <path class="st5" d="M647.2,535.3c3.1-.8,1.9,2.3,2,5-2.9.8-2.1-2.4-2-5Z"/>
      <path class="st5" d="M153.8,377.5c-1.3.2-2.7,0-4,0-.4-3.9,4.4-3.4,4,0Z"/>
      <path class="st5" d="M537.3,481.4c2.6-.6,2.5,2,3,4-.9-1.2-.9.5-3-4Z"/>
      <path class="st5" d="M326.6,521.4c1.2.7,3.9-1.7,3,3-2.1.2-3.4-1.1-3-3Z"/>
      <path class="st5" d="M143.8,365.5c.6,3.1-1.6,1.9-4,2-.2-2.9,2.4-1.8,4-2Z"/>
      <path class="st5" d="M401.5,565.3c.5,1.6-5.3.6-4-2,1.9-.8,3.2,1.8,4,2Z"/>
      <path class="st5" d="M109.9,373.5c-.1,3.6-3.6,2.8-3,0,1,0,2,0,3,0Z"/>
      <path class="st5" d="M243.7,418.5c.3,1-2.5,6.5-4,5s1.5-2,1.7-2.3c.9-1.3-.8-3.3,2.3-2.7Z"/>
      <path class="st5" d="M324.6,523.3c-1.7-.4-3.6-.9-5-2,2,0,4.2-.4,5,2Z"/>
      <path class="st5" d="M593.2,514.4v2c-2.5.7-3.1-2.8,0-2Z"/>
      <path class="st5" d="M654.2,553.3c.5.8,1.1-1.9,2,2-2.1.2-2.2.1-2-2Z"/>
      <path class="st5" d="M379.5,509.4c1.3,1.3-6.2,7.3-2.6,1.9s0-2.4,2.6-1.9Z"/>
      <path class="st5" d="M207.7,395.5h-2c0-2.6,1.5-2,2,0Z"/>
      <path class="st4" d="M135.8,396.5c.7.3-.6,1.7-2,1s.6-1.7,2-1Z"/>
      <path class="st5" d="M396.5,563.3c-.3.7-1.7-.6-1-2s1.7.6,1,2Z"/>
      <path class="st5" d="M467.4,496.4c.7.3-.6,1.7-2,1s.6-1.7,2-1Z"/>
      <path class="st5" d="M485.4,386.5c-.3.7-1.7-.6-1-2s1.7.6,1,2Z"/>
      <path class="st5" d="M327.6,434.5c-.4-.3-.7-.7-1-1l1,1Z"/>
      <path class="st5" d="M394,560.3c.6.3.6.7,0,1v-1Z"/>
      <path class="st5" d="M488.9,375.5c.6.3.6.7,0,1v-1Z"/>
      <path class="st5" d="M657.7,546.3c.6.3.6.7,0,1v-1Z"/>
      <path class="st4" d="M276.6,405.5c-.4-.3-.8-.6-1-1,.4.3.8.6,1,1Z"/>
      <path class="st5" d="M568.8,676.2c.6.3.6.7,0,1v-1Z"/>
      <path class="st0" d="M329.6,288.6c-1.2-5.6-17.1-17-6.1-19,.6-.6-.2-3.8.1-5.2,4.7-2,4.1-13-4-11.2-6.1-4.3-6.3-6.9-12.4-3.4-8.6-1.2-8.3-9.6-15.5-8.1,0-4.1-6.5-11.5-6.2-15.8-8.5-2.3-16.8-8.5-24.4-14-.6,0-6.6,4.1-9.1-.3.8-6.9,2-10.4-2.8-16.7-2.7-3.4-3.4.6-3.6.7-5.2,0-8.8-5.6-8.5-10.6-3.8-2-3.2-2-4.2-6.5-4.8-.4-8.6-6.9-2.3-8.4,7.9,3.4,18.5,1.5,22.9,9.8,8.4-.8,13,.8,16.7,9,7.4,1.1,5.8,1.6,9.3,6.9,12.5-.3,17.7,12.7,31,14.3,1.2,5.1,6,.3,9.1,1.9-.8,6.9,14.3,2.1,15.3,11.7,5.1,1.5,14.9-2.6,19.4,4.1,10.9-7.2-5.4,14.5,16.8,7.1.5-5.5,5.5-2.4,9.6-3.1-4.2,5.7-9.8,9.4,1.5,13,4.9,8.7,9.8,8.6,19.3,11.2.8,3.4,2.2,1.1,2.9-.3,10.1-2.9,14.5,9.4,23.3,8-2.1,6.4,9.4,3.7,13,6.5,3.6,4.9,3.2,6.4,9.4,5.4.7,6.7,14.9,7.2,17.4,8.3,6.5,2.3,14.2,15.7,20.6,8.8,1.3,4.8,8.5,11.3,14.1,13,4.3-5.5,5.8,3.2,7.7,5.7,3.9,5.4,15.6,6.5,15.7,13.7-1.8,6.5-5.6-1.8-9.5.5-1.3,4.2,6.4,6.2,9.7,8,3.8,4.2,8.5,8.9,13.8,8.5.7,5,6.5,5.5,10.8,7.1,9,3.8,15.7,16.4,25.9,14.5,8.3,23.2,7.1,6,17.8,19.6,6.7,2,16.1-4,15.3,9.2,4.9-3.8,11.1-1.3,9,5,9.2-.7,2.1,6,15,4-1.1,1.6,3.4,10.7,6.7,11.9,9.9-1,15,12.5,25.7,12.1,3.6.5,12.3-3.2,13.5-2.1s-2,5.2,3,4c-.7,2.8,1.8,7.7-2.8,5.7-9.2-16.6-11.4,10.7-26.2-11.7-7.7-4.2-12.9-4.2-20-9,1-2.5-3.6-5.5-5.3-6.6-4.4-2.9-8.4,1.9-9.7-1.3.5-3.4-5.8-6.9-4-11-12.1,1.5-4.4-4.8-17.7-4.7-11-8.2-20.2-10-28.7-20.2-20.5-16.3-38-27.4-57.7-40.7-4.5-.4-4.5.3-6.1-4-1.9-1.7-6.7-1.5-7.2-4.3-5,0-10.1,8.9-1.7,8.2,1.3,3.9,3,7.1,7.2,5.8.4.4-1,5.8,1.5,7l1.5-5c6.5-.2,5.9,10.4,10.5,14,2.9,1.2.3-9.4,3.5-6,3.3,5.3-3.9,11.2,3.8,10.2,2.4,4.4,11.1,17.3-.8,9.8-.2-.2,1.3-2.7-3.5-2.1-7.7,3.5,1.1,28.7,1.5,34-6.6-.9-4-8-4.9-11.4-3-.4-7.4-5.6-6.1-8.6-6,.9-9.8-1.8-12-8-6.3-4.5-5.6-20.5-17-18.7-1.3-4.4.9-9.9-3-9.6,2.4,10.9-13.6,3.3-15-1.6,1.6-4.2-6.5-.9-8-2,2.4-5,2.4-5.8-1.1-11.9-7.1,3.3-10.9-1.1-18.3-1.1-5.4,1.3,4.6,8.5,5.9,9.9,4.7,4.7,11.3,18.1,1.5,13-1.9-5.9-11.7-21.9-19-20-3.4-.7-1.8-3.6,1.4-4-3.6-3.8-6.6-5.4-9-10.1-15.1-5.3-2.2-18.9-17.6-20.8-2.2-6.8-12.8-2.9-13.1-9.1,0,0-6.7,0-6.7,0-9,4.9-10.6-3-8.8-10.4-8.8-8.3-22-13.4-27.3-23.3-17.6-3.4-2.2,5.5-10.1,15.4,6.2-.1,6.2,12.5.3,12.3,4.7,9.4,24.2,6.7,22.3,25.2,8.9,6.5,18.5,27.5,15.6,40.7-8.5-.3-7.3-33.5-20.7-36.4-1.5-3.8-2.9-9.3-7.4-10.1-7.6,3.4-7.6-12.4-12.8-6.4Z"/>
      <path class="st0" d="M163.8,199.8c-7.2-1.2-3.7-21.8-12-30,12.5,7.5,12.8-.4,16.1,9.8,10.6-2.6,13.7,11.2,22.9,12.8,1.7,3.8,6.9,16.3,5,20.7,3.5,2.3,7.3,5.8,8.4,10.6,4.1,5.8-7.4,29.9,2,22,2.3-.5,1,1.7,2.1,2,4.8,0,11.5,2.5,11.3-4.6,4.6-2.2,8-15.3,11-13.4,1.3.8-.4,20.9,6.8,20.1,2,4.4,7.4,16.7-1.3,5.8-2.8,1.1-3.3,8.2-7.5,8-2.1-4.4,4.1-13.1,4-15.4-4.4-2.2-1.7-14.4-9-5.8,0,0-1,22.7-1,22.7-2.4-.5-4.6,3.1-3.1,4.5,6.9-2.7,14.8,15.1,3.3,6-12.2,2.6-13.1,4.9-5.4,14.4-5.1,6.9,5.8,14.5-2,20.2-.6,3.7,7.7,17.8,8,22.8-1.3-1-10.7-1.5-5-3.5-3.2-3.1-11.3-14.5-8-18,2.1-5.4-1.2.9-3,1.7-8.2-7.3-9.3,14.4-14,14.2.4,5.6,6.4,31.8-2,18-6.8-3.7-5.9-17.5-6-1.3,0,0-2,1.3-2,1.3,2.1,1.7,1.4,2.1-1,2-.9-4.3-.9-4-5-4-.2,3.3-2.9,3.3-3,0,.9-1.9,2.1-1.9,3,0-2.5-1.9-2-6.8,1-8,0-3.2-12.7-1.1-15.3-2.2-5.1-4-13.7-10.8-9.8,1.5-3.8,3.2-4.4,9.6-3.8,14.7-5.1,1.2-.5-23.1,0-24-.4-2.9,1.6-1.4,1.6-1.1-.1.6-4.8-1.4-.6-2.9,3.9-6.8,14.1,7,18,8,12.3,5.3,24.4-21.7,27-28,2.6-5.5,2.3-20.2-2-22-4.3-2,1.5-2.5-2-6-4.4-.6-.9-5.3-4.2-8.9-9.3-6-.4-20.6,8.4-7-1.2-8.2,1.8-9.1-6.1-10-7.4-19.7,18.9-15.6-12.1-48-5.5,5.9-10-3.2-12.2-7.9,1,3.6.4,6.3-1.7,8Z"/>
      <path class="st0" d="M247.7,281.6c5.6-1.3,2.8-7.2,9.4-5.9,12.3,10.6-3.7-19.6-1.4-24,1.2-1.3,7.6,8.1,11,6,1.3-.3,1.9,1.6,2.3,2.9,0,11.3,5.1,20.8,5.7,31.1,1,6.4,10.8,14.5,11,24,6.6,2.2-4.7,4.5,1,6,6.9-7.2,2.8,15.8,2.8,20,1.3,3.7,8.2,16.1,4.1,16.9-5.9-.6-1-5.3-8-5-3.7.5-2.9-6.1-6-8-4.1-2.6,1.7-11.6-4-16-2.7-.2-2.6-1.2,0-2,2.1-5.3-6.4-7.8-5.4-15.5-1.6-3.1-9-2-4.6-6.5-4.7-4.5-19.9-8.4-14-16,4.8-4.9-8.2,7-8,0-6.9,2.7,1.3-8.6,4-8Z"/>
      <path class="st4" d="M163.8,199.8c1.2-3.1-5.3-16.3.8-10.1,4.6-.2,4.8,10.8,10.7,10.1,3.6-7.2,4.7,3.7,8.5,5.4,5.1,0,6.5,4.9,6.1,8.4,13.5,4.7-1.9,24-.1,34.1-10.1,5.9-9.2-13-7.5-20.5-15,3.4-15.2-18.4-18.5-27.5Z"/>
      <path class="st3" d="M361.3,130.1c13.8,7,26.7,16.8,42.2,17.7-2.9,9.9,1.2,6.4,5.6,8.9,6.7,3.8-2.5,11-5.8,4.7-10.2-4.1-26.7-5.5-30.4-15.5-6.5,1-11.7,1.9-17.3-2.6-1.9-5.5,4-16.7-8.3-9.8-14,1.4,4.5-17.4,9.2-4.2,1.5.8,3.2.1,4.7.8Z"/>
      <path class="st3" d="M188.6,167.9c-.5,5.4,11.8,9,13.1,3.4-10.2-3.5-4.8-3.8,1.9-3.4,5,6.5-5.1,18.3,7.3,16,5,2.2,10.3,11.5,10.9,15.8,2.8-.7,5.9,4.9,5.8,7.1-8.6,1.5-13.4-6.6-20.3-12.7-4.3-2.9-12.5-2.5-12.7-7.5-10.2-12.1-45.9-26.4-6.1-18.6Z"/>
      <path class="st4" d="M140.8,177.8c7.7,8.1,15.3,28.9,15,39.9-9.1-3-16.9,10.8-5.2,12,8.8,13.1-18.4,7.7-12.8-4,1.8-10.1-.9-18.1-4-27,.4-3.4,1.8-27.4,7-21Z"/>
      <path class="st0" d="M114.8,221.7c2.2,4.4,8.9-.8,7,6,7.3,4.1,1.1-18,11.9-7.3.9,3.7-2.3,6.1,4,5.3,3.2,5,4.1,13.2,12,9.5s1.4-2.6,2-3.5c-4.6-5.1,14.4-11.4,6-2,.6.5,1.4,1.2,1.2,1.7-7,22.7-16.5-1.6-11.6,14.6,0,0-1.5,1.7-1.5,1.7,1.8-3.4,4.9-.8,7.6,0,1.5,5.1,11.2,11.8,8.4,14-2.7,3.3-4.7,4-6,2-4-1.4-12.1-11.1-10-16-.8,4.6-10.6-11.2-10.5-14.1-11-1.8-5.4,5.5-6.7,12.8-6.3,3.4,0,16-2.8,19.3-7.1,7.4-7.1-16.8-8-18-6.9-2.3,7.7-9.2,1-14.5-3.3-2.2-12.2-8.2-4-11.5Z"/>
      <path class="st3" d="M126.8,119.9c.8,10.2-10.1,12.4,4.3,17.2,10.3,2.7,13.4,15.6,23.6,10.8,4,19.9-6.5,11.1-16.7,4-9.1,2.2-3-6.9-9.5-6.1-1.2-2.8-3.6-1.6-5.7-2.1-.2-3.2-6.3-7.3-10.1-5.9,0-3.4-4.2-12.3,3.2-10,1.1-.2,7-8.9,10.7-8Z"/>
      <path class="st4" d="M266.7,257.7c-3.3-11.5-1.8-19.4,8.7-8,8.2-2.5,8.9,6.6,14.9,8.4,2.1.8,11.4,16.1,11.4,19.6,4.2,0,2.8-6.5,8.7-3,2.7,7.7,12.3,9.8,12.3,18,0,4.3-3.6,33.6-8.7,18.4-6.7-16.8,2.9-13.1-16.5-22.7,4.9-14.4-7.8-16.8-10.7-28.5,2.1-4.3,0,.3-2.6,1.4,7.8,4,.7,9-5.3,5-9.3,7,6.6,15.5-2.9,20.5,4.2,10.9-6.7,2.3-3.4-5.4-5.7-6.6-5.2-14.4-5.8-23.7Z"/>
      <path class="st0" d="M196.3,140.3c4,6.7,13,6.3,13.5,11.4,3.8-2.1,16.3,11.2,3.3,6.2-11.4-2.6-19.6-10.5-30.4-10,1.7-4.4-3.7-5.2-6.7-6.2-9.7-10.9,14.4-4.2,20.3-1.3Z"/>
      <path class="st5" d="M162.8,228.7c3.2,7,8,42.4-6.3,27.7-1.7-6.7-12.6-9.7-6.7-14.7,5.2,0,6.7-20.6,13-13Z"/>
      <path class="st5" d="M344.6,295.6c2.4,5,3.5,10.3,11.4,11.7.6.6,4.6,14.2-.4,11.3-26-5.8-4.6,4.4-20,5-9.4-2-4.1-15.8-4-22-2.7-5,4.5-4,7.7-2.2,0-4.1,2.8-8,5.3-3.8Z"/>
      <path class="st0" d="M166.8,211.7c7.1,8.9,4.8,15.4,18,14-1,4.9-5.5,25.1,4,22,5.7,5.6-9.5,5.2-4,0-1.6,5.8-10.3-1.8-10.1-6.2-2.3,2.2-13.3.5-8.9-3.8,3.9.9,2.8-1.7,4.3-3.7,2.9-.5,1-.8,0-3.1.2-4-1.4-3.2-4.3-3.2-1-.9.9-13.4,1-16Z"/>
      <path class="st0" d="M322.6,292.6c2.6,2,17.4,37.1,9,32.7-.2,7,7.8,17,4,22.2-2.7,1.4-6,4.2-5.3-3.5-.2-2-1.8-1-2.8-1.8-1.2-3.3-4-28.4-2.9-30.7-5.4-1.4,2.1-4-2-6-3-.6-3.6-4.4-1-6-.4-2.9-2.3-8.1,1-7Z"/>
      <path class="st0" d="M87.9,179.8c6.7-5,3.8-4.3,11.4-1.9,6.4-13.6,7.2-2.7,7.7,6.5-3.1,2.7-1.6,5.9-1.1,9.4-4.6-5.7-1-9.7-10-8,.2,8.8-3.2,30.1-8,12,5.4-6.6,3.1,4.7,4-6.1-7.5,6.4.2-9.7-4-11.9Z"/>
      <path class="st3" d="M573.9,342c9.5,2.1,10.9,14.4-1.7,11.1-3.3-8-5.1-5.4-12-3.5-2.2-15.9,3.3-13,13.6-7.6Z"/>
      <path class="st3" d="M258.1,225.3c2,7.2,19.5,3.1,16.1,11.5-5.1,3-8.6.6-11.2-4-14.5,15.1-18.7-22.2-5-7.5Z"/>
      <path class="st4" d="M329.6,288.6c3.9-16.2,5.7,11,14,3,2.2,5.6,8.8,8.5,8,14,9.2-1.1,14.6,28.6,17,34-3,5.2-6.4-8.1-7-10-2.8-.3-3.3-2.4-1-4-2.4-.6-7.2,1.1-5-4-4.8-1.2.1-2.2.9-4.5,0-2.3-2.9-5.7-.9-9.5-5.1,1.1-3.8-1.8-4-2-.4-.2-7,.6-7.8-2.2s1-5.2.8-7.8c-5.6-3.1-2.1,12.3-3,14-4.1,1-.8-6.3-2.2-7.8-11-4.7-10.7,6-9.8-13.1Z"/>
      <path class="st3" d="M337.5,118.9c-.6,5.8-2.3,13-9.4,10.9-8.9-1.7,1.7-16.9,9.4-10.9Z"/>
      <path class="st4" d="M163.8,233.7c3-.6,1.8,1.5,2,4,.3,4.1,2.5,1,4,2-1,2.8,4.5,2.2,0,4,4,1.8.2,5.2,1.6,2.8,1.2-.3,14.7,10.4,7.4,10.2-2.4,2.1-4.6-.3-3-3-2.2-1.3-8.5-.5-5-6-1.1,6.4-10,26.7-10,12,4.1.6,4-11.5,5-13.3-4.4-1.7-1.3-8.5-2-12.6Z"/>
      <path class="st0" d="M133.8,198.8c-7.3-4.1.6-6.9,1-9.5-1.1-5.8-.4-21.6,6-11.5,2.9-.1,4.7-.9,4,2.5-13.4-7.7-1.7,7.9-11,18.5Z"/>
      <path class="st0" d="M304.6,275.7c.9-2.4,1.8-6.3,3.7-2,4.1-1.2,3.6,3.4,6.5,5.7,10.4-1.1,6.4,14.9-.9,4-2.6-2.7-1.9-10.1-9.3-7.7Z"/>
      <path class="st0" d="M133.8,201.7c7.4,1.3,5,8.1,5,14-3.2.6-1.7-1.6-2-3.5,2.3-7.9-9.5-5.5-3-10.5Z"/>
      <path class="st4" d="M155.8,219.7c1.8-5.7,5.7,6.5,7,9-1.3.2-4,.4-5,1,.2-7-.8-3.2-4-2-2.5-1.5-.9-7.8,2-8Z"/>
      <path class="st0" d="M153.8,207.7c3.3.4,12,24.9,2,12-1.6-1.7.6-7.3-2-12Z"/>
      <path class="st0" d="M242.7,263.7c7.2-1.3,3.9,3,4,8-5.4-.6-3.3-4.9-4-8Z"/>
      <path class="st0" d="M163.8,201.7c2,2.1,3.8,2.8,3,6-2.2.9-5-4.9-3-6Z"/>
      <path class="st0" d="M105.9,195.8c2.6-.6,2.5,2,3,4-.5-.5-2.6.7-3-4Z"/>
      <path class="st0" d="M151.8,199.8c2.8-1,2.7,2.7,1,4-.4-1.5-.7-2.9-1-4Z"/>
      <path class="st0" d="M114.8,216.7c-4.3.6-1.1-3.1-1-4,1.3,1.1.9,2.5,1,4Z"/>
      <path class="st0" d="M325.6,69.9c.7.3-.6,1.7-2,1s.6-1.7,2-1Z"/>
      <path class="st4" d="M710.1,297.6c-10.9-7.4-2.8,14.2-12,2.5-2.3-1.5-8.3-1.3-8-6,6.9-2.9-4.5-4.1-6.7-4.8-2.8-5.6-6.3-2.6-11.1-5.6-5.2,1.8-1.7-5.9-7.2-3.5-.1,1.3.3,5.2,0,5.5-15,5.8-12.7-16.3-26-14-1.6-13.1,6.3-15,17.5-10,2.2-.5,4.7-4.1,6.2,0,8.6-.7,15.1,2.6,23.6,2,.6,3.3,9.4,4.5,11.7,4-1.2,6.3,12.6,12.7-.9,13.4,2.9,1.7,6,9,7.3,10.2s5.3.6,5.7,6.3Z"/>
      <path class="st4" d="M711.1,301.6c-2.1,3.1-2.6-1.2-1-2,0,0,1,2,1,2Z"/>
      <path class="st1" d="M328.6,152.8c-.6.5-6.5-.7-5-3,1.9-1,6.6,1.5,5,3Z"/>
      <path class="st5" d="M609.2,423.5c-10.9-12.9,11.3.4,8-12-5.9,1.5-16.1-15.1-2.8-9.9,5.8,4.1,10.6,10.9,18.7,10.9-.2,3.2-.2,3.3,3,3,2,3.9,2.7,2.1,4.7,4.3,4.4,3.3,5.9,15.3-.8,6.3-2.9-1.9-12.2-7.7-13.4-2.5-1.9,0-2.4-2.5-3.5-1.5,1.9,15.8,13.3-2.1,11.1,19.8,11.3,1.6,2.1,16.1.9,23.6-4.6,5.3-12.9-3.2-16.4-7.6,1.5,7.1-.4,10.2-5.6,9.5-4.5.2-1-8-2-11-4.9,2.8-4.7-2.1-7.4-4-8-3.3.7-12.1.4-11.4-2.7-1.7-8.6-3.4-3-6.5,5.4-4,5.1,5.1,13,6,6.6,5.3-2.6-.3-1.2-3-12.1.7-1.2-13.9,4.1-4.6,9.1.4,8.5,4.3,6.9,11.6,6.3,0,6.4-6.3,6.1-11-14.5.9-18.3-2.3-9.6-14.7-5.4,7.5-7.5,1.3-11.2,4.8Z"/>
      <path class="st2" d="M613.2,467.4c0-.9-.2-3.8,0-4,1.8-2.1,2.2,4.1,4,2-1.8-18.4,2.8-6,12.5-1,28.7,2.8,4.5,40,1.8,19.9-2.7-2.7-14.6-6.9-12.1-13.7-2.6,1.3-7,.3-6.2-3.3Z"/>
      <path class="st5" d="M670.1,449.4c-2-8.6-3.9-21.4,6.3-10.2,4.4.1,6,2.5,3,5.9-.3,1.7,2.1,4.8-.3,6.3-2.4-10.2-3.1-4.9-9-2Z"/>
      <path class="st5" d="M635.2,467.4c5.2-1.8,12.5-6.6,12,2-2.9-.9-1.7,3-3,6-4.2,0-2.9-4.3-3-7-4.4.9-5.1,2.5-5,7-6.9-.4-5.9-5.2-1-8Z"/>
      <path class="st0" d="M647.9,437.7c.5,3.9,3.4,15.5-3.8,15.8,2.7-5.4-6.3-22.8,3.8-15.8Z"/>
      <path class="st5" d="M672.1,471.4c-1.1,4.1-6.2,4.6-8,0,0,0,8,0,8,0Z"/>
      <path class="st5" d="M670.1,450.4c5,3.3-2,9.9-3,5.5,4.4-.8-1.2-4.5,3-5.5Z"/>
      <path class="st5" d="M666.6,467.4c.6.3.6.7,0,1v-1Z"/>
      <path class="st2" d="M283.6,544.3c2.7-1.7,0,4.6,0,6,4.2,0,.7-5.1,5.7-5.8,5.2.3-.9,4.2,8.3,2.8.3,4.8,1.5,7.6-5,7.5-10.1,14.1-5.1.9-22,10.5,5.9-14.1-12.9-33.2,13-21Z"/>
      <path class="st2" d="M291.6,528.3c1,1.1-.7,13-5,11,1.8-6-3.2-10.8,5-11Z"/>
      <path class="st4" d="M283.6,544.3c.1,0,.9-1.4,2-1,.3,2.5-1.3,2.1-2,1Z"/>
      <path class="st2" d="M68.9,233.7c4.1,4.6,11.1,7.5,13,14-1.9,5.5,6.3,11.3-2,14,2.9-.8,4.6-5.2,6-2,4.9,0,2.4,10.6,8.1,12.3,1.7,10.9,22.6,22,7.9,29.6,1.9,2.9-9.9,6-11,3-2.9,0-2.7-2.3,0-3-2.4-3.1.2-4.6-1-.5-5.8,5.4-15.3-6.3-21-7.5-7.9-3.5-17-.7-21.1-11.7-4,.3-3.5-1.5-4.1-4-3.5-1.8-7.1-1.1-6.8-6.9,15.6-9.4,2.5-10.6,7.1-13.5,2.7-6.8,14.3-23.6,25-24Z"/>
      <path class="st4" d="M109.9,293.6c.4-2.7,1-2.5,2,0,13.6,3.8-.1,8.9-5,14,3.9,1.2-1.3,1.7,2,5,11.2,5.7-4.9,12.4-9,3-1.9,2.5-4.9,2.4-8.9-.3-7.7-.5-8.7,15.1-12,4.3,3.6-5.2-1.2,1.7,0,4-10.9.5-3.5-7.3-11-10.5-.5-2.8,2.6-.7,3.9-1.6,4.5-6.6,5.5-10.1-3.9-7.9-.4-.4,1.9-3.4,0-4-5.2-5.5,8.8-6.3,10.4.2,5.4,2.9,14.6,5.2,20.5,3.8,4.1,5.9,4.5-12.7,11-10Z"/>
      <path class="st3" d="M11,287.6c5-15,24.6-7.9,11.2,3.9-6.3,3.8-9.9,4.6-11.2-3.9Z"/>
      <path class="st0" d="M83.9,317.6l2,1.4c.5,10.9,4.2,2.2,9.9,2.6,4.2-2.3,2.9,5.8-1,6-.2,5.4-9.4,1.8-5,8,8.7,10.4-10.6,10.1-8.9-11.4-2.3-1.1-6.9-3.9-2-4.6,4,5.5,3.4.5,5-2Z"/>
      <path class="st3" d="M25,259.7c4.5,2.2,9.5,1.4,14,0,4.3-6.5,5.4,4.3,0,6-5.3,3.3-1.3,9.7-9,8-5.5-4.4-5.3-8.2-5-14Z"/>
      <path class="st0" d="M68.9,293.6c9.3,1.6,4.5-1.8,9-3-3,13.4,21.4,8.2,10.6,15-5.9.9-18.5-14.5-20.6-6-.2.2-3.6,2.5-4,2-.3-6.1-5.3-7.9,5-8Z"/>
      <path class="st4" d="M43.9,279.7c4.7,1.4,8.2-2.2,6,4.9,10.3,3.7,13.5,12-1,9.1-2.4-4.3.7-3.9.8-4.2,1.3-6.1-8.1-4.9-5.8-9.8Z"/>
      <path class="st0" d="M62.9,291.6c-2.3,5.1-14.8,4.2-14.6,10-12.6,1.7,10.1-16.1,14.6-10Z"/>
      <path class="st4" d="M9,303.6c8.3-5.5,14.6,5,4,6-6.2.3.1-.9-4-6Z"/>
      <path class="st1" d="M42.9,255.7c3.1-1.4.2,12.6-4,10,0,0,3-5.5,3-5.5,0-1-2.1-.4-3-.5-.5-3.5.4-4.5,4-4Z"/>
      <path class="st4" d="M80.9,330.6c0,.2,1.3.8,2,3-2.8.9-6.6-3.6-2-3Z"/>
      <path class="st4" d="M71.9,325.6c-.8-2.9,2.6-2.9,2-.5-.5,1-1.3.3-2,.5Z"/>
      <path class="st1" d="M36.9,267.7c.2-.3.7-.8,1-1l-1,1Z"/>
      <path class="st5" d="M88.9,241.7c-.6-7.1,14.2,4.9,13-10-1.6-.3-8.6.4-9,0,0-3.9-1.6-18.2,6-16-1.9-3.6-7.7-11.4,1-12-.7,6.9,3.5,9.3,0,14,7.2,3.1.2,18.5,9.3,18,1.6-4.5,3.6-.1,5,1.7,6.6-1-2.1,5.9,3.7,6.2-.2,1-.1,3,0,4,3.5,10.2,10.2,36.5,0,41.9-9.5,19.2-16.1-25.6-6-6.4,3.3,9.2,4.2-3.6,3.6-7.9-7.5-6.2-1.3-20-6.8-19.7-3-.2-3.8-10.5-4.5-12.3-4.5,5.9-11.2.5-15.3-1.7Z"/>
      <path class="st2" d="M88.9,241.7c3.7,0,8.3-1,9.6,3.1,6.9-4.6,7.8-4.6,9.4,4.5,1.2,4.7-2.3,4.9,6.1,4.4,0,7.3-3.1,9,.3,15.7,9.6,6.5-2.7,34.2-4.3,10.8-5.4,2-9.6-6.3-8.2-10.3-3.2-6.3-18.7-18.2-12.8-28.2Z"/>
      <path class="st2" d="M86.9,203.7c2.9,10.6-4.4,35.6-14,16-12.1-10.1,7-13.7,14-16Z"/>
      <path class="st5" d="M86.9,203.7c3-3.2,3.4,35.9-3,30-3.8-.9-10.5-7.9-8-10,6.6,6.1,9.5-5.9,8.3-11.4.4-1.8,4.5-4.4,2.7-8.6Z"/>
      <path class="st5" d="M69.9,209.7c.2-3.7,2.2-1.3,3-2,1.1-1.1-3.6-12.3-.5-13s3.7,9.7,5.5,11c.7-.4,10.2-3.5,4,.7-.5,2.5,1.4,7.3-2.7,5-.8-3.6-6.5-.9-9.3-1.6Z"/>
      <path class="st5" d="M108.6,204c2.4,3,0,7.8-1.2,7.8-7.1-.4-6.2-15.5,1.2-7.8Z"/>
      <path class="st1" d="M92.9,197.8c-7.4,1.7-5.6-5.2-2.5-8,5.9-.8,2.5,5.8,2.5,8Z"/>
      <path class="st5" d="M69.9,211.7c0,4.1,4,7.5,5,10-.9,2.8-3.6-.1-2-2-2.2,5.7-8.8-9.1-3-8Z"/>
      <path class="st2" d="M597.2,471.4c2.6-12.9,9.6,3.5,9.1,9.4,6,0,8.3,3.4,6.9,9.9,0-19.1,22.9-1.6,20,8.6-.4,9.2-6.9,14.3-9,23-7.6.7-1.4-12.6-8-11,1.7,14.1-9.3-3-11-6,0-3.3,5.1-5.4-1-2-11.3,0-4.5-23.3-7-32Z"/>
      <path class="st5" d="M595.2,459.4c7.9-1.4,13.9,12.6,19.5,16,0,5.5,2.7,3.9,7.7,6.3,10.5,8.6,3.9-.2,10.8.7.5.6-1.2,11.5,7,3,5.9,6.3-3.3,11.7-7,14-6.6-4.2,2.8-13.2-8-8,1-7.1-1.4-4.4-5.2-6.1-7.4-7.2.2,9-8.7,8.1,3-18.2-9.1-2.5-7.2-18.3-4-2.9-1.3-10.8-6.8-3.7.7-8.4-7.3-5.8-2-12Z"/>
      <path class="st2" d="M657.2,523.3c3.7,2.7.7,11.3-2,7.4-1.9-4.2-3.3-17.7,2-7.4Z"/>
      <path class="st0" d="M626.2,523.3c-1.8-.6.7-5,1-6,3.5-1.6,2.6,7.2-1,6Z"/>
      <path class="st5" d="M37.9,246.7c3.9-3.8,3.5-8,5.9-12.3,6.4.2,7.9-13,8.1-2.6,2.8,2.2,6.9-7.7,9-2,.5,2.2-1.7,5.6,2,6-4.5,4-9,10.3-10.5,16-2.3,2.7-7.3.8-8.5,6-.3-.8.1-1.1-1-2-5.5-.6-5.4-4.9-8.8-3.8-.3.2-2.6,5.7-4.1,3.8-1.5-3.9,5.1-8.9,8-9Z"/>
      <path class="st4" d="M55.9,229.7c4.1-5.1-.7-2.6,0-10,6.7-.7,4.8-.1,7.1,3.3,3.2,3.1,4.4,4.9-.9,5-1.2,2.8-3.7,1.4-6.2,1.7Z"/>
      <path class="st4" d="M68.9,233.7c8.5,2.9,13.2,4.2,13,14-3.9-4.6-11.4-6.9-13-14Z"/>
      <path class="st4" d="M88.9,261.7c6.8,8.3,13.8,30.9,4.6,10.9-3.9.1-7.8-6.1-4.6-10.9Z"/>
      <path class="st4" d="M67.9,217.7c3-.8,1.7,1.8,2,2,5.2-.4,6,4.3,8,8-8.1.9-1.3-.8-10-10Z"/>
      <path class="st4" d="M81.9,253.7c6.4,1.4,2.9,9.8-2,8,1.4-1.9,3.7-5.4,2-8Z"/>
      <path class="st4" d="M60.9,233.7c2.9-1.1,6.3,1.8,2,2-5.6,2.4-7.3-1.1-2-2Z"/>
      <path class="st4" d="M89.9,253.7c-3.9.4-2-2.8-2-4,1.8.9,1.4,2.8,2,4Z"/>
      <path class="st4" d="M37.9,246.7c-.3.5.6,1.7-.5,2-2.6.7-1.9-2.9.5-2Z"/>
      <path class="st4" d="M81.9,251.7c-1.6-.4-.5-1.2,0-2,.2,1.5,0,1.3,0,2Z"/>
      <path class="st5" d="M100.9,283.6l-1-1c.1.3.8.6,1,1Z"/>
      <path class="st4" d="M659.1,503.4c2.7-.3,1.8,0,2,2-2.5.2-1.9,0-2-2Z"/>
      <path class="st4" d="M609.2,665.2c1.1,1.1-.9,3.1-2,2s.9-3.1,2-2Z"/>
      <path class="st5" d="M94.9,327.6c3.8-7,11.5,5.4,12.7,9.4-6.1,4.6-10.8,14-17.7,5.6.5-6-3.9-13.2,5-15Z"/>
      <path class="st0" d="M99.9,315.6c.3,0,1.5-1.7,3-1-.8,4.4,8.7,5.5,3,10-.1,3.2,3.7,3.5,0,5,1.7,4.7,6.5,5.6,8,10-3,8.1-11.5-8.8-14-12-3.5-1.2-.8-5.8.5-7.7-.9-2.3-5-2.4-.5-4.3Z"/>
      <path class="st1" d="M113.8,341.6c10.9.5,4.3,6.6,3.9,13.5,3.3,6.9,3.4,12.1-2.5,3.6-11.1,2.8,5.8-7.6-1.4-17.1Z"/>
      <path class="st5" d="M109.9,341.6c5.7,5.8.3,20.8,0,8-6,1.7-7.5-9.6,0-8Z"/>
      <path class="st0" d="M91.9,345.6c.4,1.2,1.6,5.2.9,5.9-3,.2-10.4,5-4.9-1.9,4.6.8-.6-4.1,4-4Z"/>
      <path class="st5" d="M77.9,365.5c1.1,1.1-.9,3.1-2,2s.9-3.1,2-2Z"/>
      <path class="st4" d="M67.9,345.6c-5.3.8-1.4-1.7.5-3,.1.5-.4,2.9-.5,3Z"/>
      <path class="st4" d="M70.4,340.6c.6.3.6.7,0,1v-1Z"/>
      <path class="st0" d="M204.7,473.4c1.4-4.1,6.3-5.3,10-4-2.5,2.5,1.5,2.9,3,4-4.5-1.4-12.4,3.6-13,0Z"/>
      <path class="st0" d="M209.7,487.4c.4,1.3-.8,3.1-2,3-.8-4.3,1.4-2.5,2-3Z"/>
      <path class="st4" d="M26,269.7c-5.1.7-10-6.6-1-7,.6,1.4,5.6,3.6,1,7Z"/>
      <path class="st5" d="M697.1,227.7c.4,2.9-1.6,2-3.4,2-22.2,3.2-8.6-14.1,3.4-2Z"/>
      <path class="st5" d="M443.4,131.8c0,3-.6,5.3-2,8-6.8,1.1-3.5-10.3,2-8Z"/>
      <path class="st1" d="M37.9,259.7c1.1,3-4.3,2.2-7,2-1-3,4.2-2.1,7-2Z"/>
      <path class="st0" d="M673.1,223.7c-1.9,0-2.3.1-.5-1,0,0,.5,1,.5,1Z"/>
      <path class="st2" d="M530.3,427.5c-2.2-5.4,12.5-6.2,10.6,1,4.7-8,16.1.7,17.3,6.6-1.5,10.3,4.1-8.4,11.7,2,4.7,12.1-9.5,25.2,3.7,34.8-7.1,9.1-7.7,19.4-17.4,21.5-9.6,1.2-14.3-16.6-19-24,.5-5.6,3.9-11.5-.7-16.6,0,0,.5-3.5.5-3.5-8.7-2.5-5.5-15.1-6.7-21.9Z"/>
      <path class="st5" d="M522.3,363.5c.7,9,3.1,5.1,9,4,.4,4.2-1.8,7.7,4,4,1.9.3,1.8,1.1,0,2,1.2,1.6,6.3,2.9,2,4,.9-1.9,2.1-1.9,3,0-.5,4.6-7.2,4.2-3,0-4.4,4.6,1.7,3.2-3,6-2.8,1.9,6.4-5.8,9,1,7.5,7.3-.3-9.8,13-1,1,5,2.7-2.5,7,8,.7-3.8,3.7,1.9,4.8,1.9,7.6-.1,11.5,10.7,1.9,4.2-8.7-2.1,4.6,9.5-6.2,9.9-3.6,9-5.7-2-11.1-2.3,1.5,3.9-2.6,11.7-5.3,7.3-8,.9,3.7-19.1-6.7-13.1-15.4-4.7.6,18,5.8,19-1.2,4.3-.3,5.4,2.9,3.1,2.7-3.1,12.4,3,7,5,2.9,1,3.4,5.9,0,6-1.3-4.6-2.5-2.3-5.3-3-5.6-7.3-8.6,2.5-11.2,3-3.3.6.7-5.5-1.6-6.9-4.7-1-7.3,2.4-10.8-.1.6-7.5-15.9-63-5-61.9Z"/>
      <path class="st5" d="M532.3,445.4c5.4,2.7,8.4.1,6.2,7.2,5,5.6-.7,22.8-2.3,11.4-.3-1.2-3.5.2-.9-4,7.3-5.9-6.5-6.1-3-14.7Z"/>
      <path class="st0" d="M527.3,423.5c-.7,2.4,1.8,8.3-2,7.5.9-1-2.1-12.8,2-7.5Z"/>
      <path class="st5" d="M538.3,472.4c2.6-.5,3.2,3,4,5-4.2-.1-3.2-3-4-5Z"/>
      <path class="st5" d="M530.3,433.5c-.1-1.7-1.2-.3,0-4,2.6,1.1,2.8,2.8,0,4Z"/>
      <path class="st5" d="M556.3,493.4c-.2,4.4-1.6,1.2-3,0h3Z"/>
      <path class="st5" d="M530.3,437.5c2.4-.3,2.7.3,1,2,0-.1-.7-.3-1-2Z"/>
      <path class="st5" d="M258.7,365.5c-2.6,6.5-14.6-4.5-17.3-7.3-.8-7.1-4.5-11.4-8.9-16-3.2-8.7-12.5-30.4-6.7-38.1-.4-6-7.8-14.5-3.2-19.3-3-6.9,5.4-5,8.2-5.2-1.4-13.9,7.3-13.7,13.3-3.8.2,5.8,4.4,6.2,1.5,11.6-2.2.5-4.1,0-1.8,2.2,5.5,2.2-1.9,3.3,0,6,8.9,15.9,11.9.2,22,10,6.7,10.1,25.9,56.8,3.1,26.4,0-17.4-16.5-16.8-23.3-6-2.5,1.1-.6,13.3-2.6,16.5,5.3,3.3,13.5,5.3,11,13.3,1.4,3.4,9.3,7.5,4.8,9.6Z"/>
      <path class="st2" d="M258.7,365.5c-.7-4.9-6.5-2.5-5-7.2-4.6-2.1.8-5.2-2.4-8.8-1.7-1.8-3.9.5-4.5,0-9.1-12.9-4.6-3.5-4-20-5.7-2.2-1.9,17.4-14-2.5,1-4.8,4.5,1.5,5,1.9,4.5,1.8-.6-5.2,9.9-3.5,6.1-16.3,7.6,1.8,11.3-9.7.9-.5,2.9.3,3.7-.3,2.1-9.8,3.8,4.2,8.9,4.4,2.8,5.5,1.6,14.3,8.7,15.7,2.1,2.2,0,6.4,3.5,6-.8,10.5-7.7,33.6-21,24Z"/>
      <path class="st2" d="M211.7,357.6c7.6-41,27.2,7,18.8,25.8-2.9,3.1-15.6,1.8-8.8-3.8-8.2-3.2-9.4-16.3-10-22Z"/>
      <path class="st2" d="M207.7,323.6c-5.6-9.7,13.1.6,11,8-5.7,5.5,1.1,28.4-13,17-4.9,3.6-10.7-22.9,2-25Z"/>
      <path class="st5" d="M217.7,333.6c.3,3.1,11.2,9.2,4.3,10.7-.9-1.1-.3-4.3-3.3-3.7,4.2,9.6-7.1,7.6-5,17-.9-.5-3.5,1.2-3.1.4.1,9.6-9.6-.6-7.8-5.4-2.3-2.3.6-3.6,3-4,18.8,5.5-1.3-11.4,12-15Z"/>
      <path class="st5" d="M265.7,367.5c.5,4.4-6.6,1.4-6-2,2.1.2,3.7,2.4,6,2Z"/>
      <path class="st2" d="M378.5,447.4c-4.6-12.1.5-41.8,17.1-40.2-2.2-29.3,18.6,6.2,21.9,15.5,3.3,4.9,7.7,9.1,6,16.7,11.9.2,15.1,21.9,18,32-.1,4.2-19.2,15.9-22,14.5-3-7.2-8.7,2.2-16-1.5-12-8.9-29.9-25.5-25-37Z"/>
      <path class="st0" d="M372.5,353.6c17.3-2-14.3-63.5,14-35.2-.2,7.4,1.4,9.7,5,7.1-10.7-57,44.6,8,26.9-3.8-2.4-1-11-3.2-9-8-1.1,0-4.8.5-4-2-2.1-1.5-1.9,2-2.5,2-1.6,0-4.5-3.4-7.5-2-.2,12.7,2.9,24.7,5,37.9-4.2.5-2.3-4.8-3.2-5.8-7.6-4.5-6.5,1.5-3.8,6.4-2.6,10.3.6,21.5,6,29.9-.2.9-2.4,1.1-2.8,1.7.7,11.3-9.9-5.3-9.7,5.8-5.9-2.4-3-10.6-10.5-7-2.4-.7-6.4-24-4-27Z"/>
      <path class="st5" d="M380.5,415.5c-.2-19.1,16.3-45.2,25-14-11.2-9.9-7.2,1.2-8,8-17.7-3.4-18.7,22.8-19,37.9-10,4-5.5-17.7-5-22.6,6.4-3.8,2.5-5.5,7-9.4Z"/>
      <path class="st0" d="M380.5,415.5c-10.1,20.1-5.6,24.2,0,44.9-13.9,6.1-3.7-16.9-14-15-.8-.7,4.7-16.2,5-20-6-3.1,5.6-10,9-10Z"/>
      <path class="st5" d="M355.5,321.6c1.2,3.5,4.2.3,5,4-2,2.6-3.3,8.2,1,4,3.4-.8,1.6,3.2,2,6,2.6.9,4.7,4.3,5,6,2.7,1.4,14.3,57.9,3.7,52,1.8-20.3-8.1-40.7-8.7-58-4.4,1.5-6.6,10.6-12,5.7,0,0-11-2-11-2-.3,10.2-7.5,1.5-6-5.1-.6-7.4,16-20,12.4-5.9-4,3,0,5.7,3.4,6.9-1.8-3.8-.9-24.2,5.2-13.6Z"/>
      <path class="st5" d="M412.5,411.5c-4,1-2.7-1.7-4-3.3s-1.8-.7-3-4.7c3.7.5,5.5,5.1,7,8Z"/>
      <path class="st5" d="M373.5,417.5c0,2.5.8,4.6-2,4-6.3-1.6,1.3-14.4,2-4Z"/>
      <path class="st5" d="M374.5,397.5c.4,2.3,3.1,6.6-1,6-3.6-.4-2.7-7.8,1-6Z"/>
      <path class="st5" d="M373.5,407.5c0,1.2,3.2,4.5-1,4-3.5,0-2.6-5.3,1-4Z"/>
      <path class="st2" d="M447.4,355.6c3.9,8.2,28.9,58.1,13,56.9.2-1.6-8.2-29-6-11.5-4.1,2.4-2.4-1.9-4-3-8.4-2.9-2.6-19.5-4.2-27.7-.8-4.6-8.9-13.5,1.2-14.7Z"/>
      <path class="st2" d="M465.4,357.6c-.4-5.1,3.6,2.4,10,0,7.4,1.7,2,5.8,8.5,8,4.9,1.4-2,3.1-4.7,2.8-8.1-4.6-6-2-12.7.2-.7-2.5,3.9-11.2-1-11Z"/>
      <path class="st0" d="M585.2,437.5c-.2,4.4,4.3,12.7,6,6,3.6,2.4,14.2,12.3,15,17.9-6.5-1.8-12.2-15.7-11,4-1.4,6.6-6.4-7.3-4-10-7-7.5-6,8.1-10.2,13.2-12.9,10.6,3.9-31.6,4.3-31.2Z"/>
      <path class="st4" d="M584.2,461.4c3.8,7.3-8.4,11.8-2.2,3.2.8-1.5-.9-3.9,2.2-3.2Z"/>
      <path class="st4" d="M593.2,465.4l-6-4c4.8-6.3,4.8-1.4,6,4Z"/>
      <path class="st4" d="M584.2,457.4c.3-5.6,6.4-9.5,7-2-4.9-2.7-3.6,1.9-7,2Z"/>
      <path class="st4" d="M471.4,343.6c5.7.9,3.8-1.7,4-6,10-2.6,5.4,9.5,6,10,9.5-1.6,12.4,15.3,16,20-4.9-.3-6.2-9.9-6.1-11.9-6.4-1.6-4.4-9.7-15.8-4.1-.1-7.4-3.3-4.4-4-8Z"/>
      <path class="st4" d="M475.4,357.6c-1.3-4.2,4.7,0,6,0,6.3-14.6,3.7,17.5-6,0Z"/>
      <path class="st1" d="M178.8,335.6c.4,7.4-5.1,12.1-4,2,.7-1.3,2.3-4.9,4-2Z"/>
      <path class="st4" d="M173.8,333.6c2.5.7,8.7-1.9,8,2-2.4-.8-8.7,2.1-8-2Z"/>
      <path class="st2" d="M106.9,307.6c4.2-1.6,13.5-14.3,16.8-3.7,3.8-5.6,10.4,5,7.2,6.7,5.5,1.3-8.5,11.9-12,9-4.9,14.4-18,6.3-8-2,1.4-1.8-1.4-1.9-2-2.7.6-3-2.6-4.4-2-7.2Z"/>
      <path class="st2" d="M136.8,327.6c-3.2,1.1-8,13.7-13.3,7.5-10.5,6.2-9.5-6.5-6.8-12.8,5.6-.7,7.5,2.1,13,.2.2-14.1,10.8-5.1,7.1,5.1Z"/>
      <path class="st0" d="M126.8,279.7c2,.7,2.2,3.4,0,4,.9,5.3,9.6,10.3,5,13,1.4,2.1,7.6,5.3,3,7,4,1.7,10,3.5,11,8,4.5,2.4-4.6,7.4-6,4-1.7-2.3-3.1-4.5-6.2-4.7.6-4.5-5.1-6.1-5.8-9.3.7-8.8-11-8.6-10-12,4.8-1.3,4-17.4,9-10Z"/>
      <path class="st4" d="M136.8,311.6c3.3.5,1.9,1.2,3,4,5,.4,9.1-10.8,12-2,2.1-3.1,9.9,7.2,11.5,7.8,5.7,2.7,7.2,5.4,4.5,8.1-4.2-1.9-7-4.8-10.9-4.1-.6-3.8-2.1-4.4-6.1-3.9-1.6.7-5.2-4.3-8-2-.4-.2-1.3.4-2.1-.7-.4-4.2-3.7-2.8-3.9-7.3Z"/>
      <path class="st4" d="M129.8,303.6c5.1.5,8.1,11.2,1,10,1.8-5.1-3.5-9.6-1-10Z"/>
      <path class="st1" d="M149.8,321.6c2.4,1.8,5.7,4.4,0,4-6.4-.1-5.6-10.4,0-4Z"/>
      <path class="st4" d="M124.8,318.6c1.4,5.1-2.8,6.5-3.2,4-9.8,1.3-.2-7.3,3.2-4Z"/>
      <path class="st0" d="M142.8,319.6c-.5-4.4,7-1.7,7,2-2.3-.4-5.2-.7-7-2Z"/>
      <path class="st1" d="M370.5,341.6c-.1-12.9-9.8-23.8-10-36-2.2.9-6.5-2.1-7.8-4.2.9-9.1-3.8-13-10.5-17.8-3.2-5.1-9.4,7.4-11.7-10,6.1,1.9,4-4.7,4-8-9.2,2.1-1.9-5.4-1.2-10.6-6.8-11.8,1.6-10.4,10.3-8.9.2,5.8,8.6,6.3,10.1,11.3,4.8-1.3,8.8,5.4,10,8,10.5,2.4,5.9,8.8,8.4,15,4.6,2,14.9-5.8,15.5,3,4.1-.6,10.3,1.3,12.1,5.8,7.4-.3,11.1,7.3,7.9,10.6,1.5,4.3,11.6,14.1,14.8,13.7-1.1,3.9,3.3,5.1,5,8.5.7,3.3-5-.5-4,3.5-7.2-.4-3.4-2.8-5-4,7-1.1-3.1-5.5-5.7-6.3-10.8-7.5-19.1-23-20.4.8.5,9.8,4.2,10.4-4.9,13.5-4-7.1-2-16-12-16.9-2.7,9.7,9.6,9.4,2,16.5,5.9,9.2-1.7,24.5,2,33.5-2.7,2.3-5.4-10.4-8-11,2.2-3.8-3.4-8-1-10Z"/>
      <path class="st5" d="M121.8,335.6c1.2-6.8,3.3,0,6,0,.4,2.1-4.7,5-5.7,5.8-3.1,1.1-2.2-1.7-2.3-1.8,3.3.7,1.6-1.7,2-4Z"/>
      <path class="st5" d="M108.9,319.6c-1.5,8.7,5.5,7.3,6.5,1,1.3-1.4,2.8-.6,3.5-1-.9,4.1,4.8-.1,4,4-7.5-2.9-5,8.1-6,12,3.4-.8,3.1,1.4,3,4-10.5,4.2-19.5-17.9-11-20Z"/>
      <path class="st2" d="M183.8,345.6c2.1-9.1,19.8,19.8,14,24-1-6.5-12-12.7-8-2-6.6-1.7-4.4,3.7-8,4,.4-8.9-.5-18.5,2-26Z"/>
      <path class="st4" d="M193.7,327.6c6.8-3.3,1.4,14.6,8.1,12.8-5.2,7.6,9.1,6.9.8,12.2-2.8.1-6.7-2.9-6,1,1,6.6-13.8-9.9-5-8,7.3,8.9-1.5-12.6,2-18Z"/>
      <path class="st5" d="M183.8,345.6c-2.1-16.9,7.1-10.8,7.2.6-1.3,4.9,1.3,2.6,2.6,3.5.8,1.2,1.2,4.6,3.2,3.8.4.7.5,5.4,1,7-5.5-1.4-2.9-9.6-9.8-9.1-1.5-1.8,2.8-7.4-4.2-5.8Z"/>
      <path class="st5" d="M211.7,359.6c6.8,2.1-.2,13.8,10,9,1.9,4.9-4.3,1.2-4,4.5.1,5.2,4.1,3.7,5,4.5-2.9,13.7-21.4-16.2-11-18Z"/>
      <path class="st4" d="M202.7,355.6c3.2-.8,2.1,3.7,3.6,4,6.4,2,1.1-6.4,5.4-2-1.5,6.5-2.1,8,0,8.6,3.1,18.9-6.5-1-9-10.6Z"/>
      <path class="st4" d="M221.7,379.5c1.2,6.9-4,5.6-5,0,0,0,5,0,5,0Z"/>
      <path class="st5" d="M605.2,505.4c-.1-.4-1-1-1-2,0-7.6,10.8-1.6,1,2Z"/>
      <path class="st2" d="M363.5,335.6c10.1,20.3,20.9,112.6-11.3,107.6-9.4-4-19.3-5.8-10.7-15.7-4-1.2-8.5,10.9-15,1-16.9-11.9-15.9-33.7-24-50.9-2.5-9.8,7.6-13.5,15-16,4.2-5.8,7.8-7.7,11.3-8.9,5-1.4,3.6,4.6,3.7,4.2.5-2.9-.1-6.4,2.6-8.3.7-.4,15-2,14.5,1,4.4-1.2,7.3-7.3,2-4-6,6.1-15-1.8-13-8,3.5-1.5,14.1,2.2,17,4,.8-5.8,2.3-6.6,8-6Z"/>
      <path class="st2" d="M292.6,317.6c-5.7-4.1.1-23.3,9-16.1-1.2-6.8,3.3-11.7,8-5-.4,8.8,9.9,32.3-2,31.8,6.8-6.3,6.3,2.4,6.1,7.7,10-16.9,10.6,21.9,4,25.6-5.3,2.6-14.5,4.9-19.9,3.9-1.4-5.5-14.8-40.5-1.2-38.8.4-3.6,6.4-2.1,5-5.6-1.8,6.1-13.9,0-8.8-3.5Z"/>
      <path class="st5" d="M303.6,369.5c.9,1.9-.9,4-1,5-3.3-4.9-.1-4.2,1-5Z"/>
      <path class="st5" d="M313.6,363.5c-2.4.9-5.6,3.1-5,1,1.2-.3,4.8-.8,5-1Z"/>
      <path class="st5" d="M274.6,291.6c1.7-6.3-4.4-2.2,2.9-9.3-.2-2.7-4.4-3.2-3.9-10.2,6.5-9.5-3.1-8.5-4-14.5,5.6-2.5,12.3,14.5,16,6-10.1-1.7,3.4-10.3,5-1.4-.6,9.2,13.8,8.8,9,27.4,7.7-1.9,8.9,3.7,15.1,6.6-3.3,14.7-1.7,5.1.9,17.4,5.7-.3.3-32.4,10,0,.5,4.4,5.1,29.3,4.6,35.3-3.6,0-7,3.6-4.6,6.7-3.4,3.3-3.2,3.3-8,6,4.5-6.5,0-15.3,1-22.4.5-3,5.2-5.5-3-5.5-1.6,11.4-5.6,0-4-6-3.4-1.1-2.8,5.9-4,7.4-4.9,3.4-3.9-4.9-1.8-7.2,9.4-.5,5.6-17.3,2.1-22.9-.4-19.2-6.2-5.3-4.2,3.7-5.5-2-1-10.3-9.8-4.8-.8,35.2-14.2,1.1-19.1-12.1Z"/>
      <path class="st5" d="M317.6,361.5c-2,.8-4.8,3.4-3.9,0,.7-.6,3.2.3,3.9,0Z"/>
      <path class="st2" d="M519.8,569.3c.6.3.6.7,0,1v-1Z"/>
      <path class="st5" d="M327.6,429.5l-1-1c.4.3.7.7,1,1Z"/>
      <path class="st5" d="M329.6,431.5l-1-1c.4.3.7.9,1,1Z"/>
      <path class="st5" d="M560.3,427.5c.5-2.9,12.7-3.6,3.7-4.1-8.8,11.3-16-30-4.3-12.7,17-9.6,5.4-2.7,23.6,5.4,1.9,20.1,1.8,42.9-11,58.3-4.3-6.5-11.3-18.4-3-25.7,3.2-18.8-17.9-9.6-9-21.3Z"/>
      <path class="st5" d="M567.3,483.4c.2,2.1.1,2.2-2,2,1.8-2.9,1.8-1.7,2-2Z"/>
      <path class="st4" d="M384.2,252c1.5,3.1,9.2,3.8,12.1,3.9,1,5.1,7.6,3.5,11.5,5.7,1.6,1.1,7,7.3,9.4,8,4-.3,4.2,0,5.5,3.8,7.2,2.8,23.6,27.3,34.5,24.4,4.9,8.9,18.7,13.6,15.1,26.8-3.4.8-4.3-3.5-7.5-3-5.2,8.8-3.3-7-6.5-9.5-4-2-15.3,4.7-8-1.1,1.6-9-17.2-5.6-15-12.4-1.8,2.3-7.3-1-5.9-2.9s3,.2,1.9-2.6c-8.7-4.5-11.7-9.9-22.7-11.2-11.9-8-15.2-16.1-29.1-18.4,2.7-13.2-8.2-5.5-9-14.3,2.3-4.5,9.4,3.8,13.6,2.7Z"/>
      <path class="st1" d="M467.1,292c11,4.5,44.1,22.8,14.9,19.5-5.7-5.7-7.1-2.8-9.8-11.6-8.9,2.7-16.9-8.6-5.1-7.8Z"/>
      <path class="st4" d="M370.5,341.6c.3,3-.5,2.3-2.9,1.9-.8-1.9,1.8-1.9,2.9-1.9Z"/>
      <path class="st2" d="M175.8,253.7c17.2,18.9,28.5,32,16.1,63.3-5.6-.3-9,15.9-16.9,9.7-5,10.9-16.3-9.9-23.2-13.1-4.6-7.1-10.2-19.8.7-24.3-3-6.9,4.2-13.4,8.3-11.6,4.9-2.7-2.5,16.7,3.6,10.2,6.2-2,9.4,6.7,5.8,11.3,1.7,1.2,4.1-2.7,5.6.5,2-1.3,2.7,2.2,3.9,6.1-.9-3.3,1.4-6.9,4-4.1,3.2-3.7-14.9-6.6-7-12,0,0-1-2-1-2-.6,3.4-4.3-1.5-5-3-3-1.3,3.7-6.2-.3-9.9-9-1.8-4.4-29.5,5.3-21.1Z"/>
      <path class="st1" d="M169.8,241.7c7-1.5,3.8-8.7,10-12,2.8,13.2-11.8,11.2,6.4,20,12.5-8,11.5-3.6,11.5,9.9-2.8,2.7-7.4-5.6-8.7-6-6.2,2.8-16.3-3.1-19.2-12Z"/>
      <path class="st4" d="M193.7,325.6c4.3-3.1,3.2-14.6,12-18,.3,2.3.7,4,5,4,0,3.3,13.1,25.2,4.9,15.6-7-14.6-6,2.2-13.2-2.8.7,7.6-4.9,4.9-8.7,1.2Z"/>
      <path class="st5" d="M207.7,323.6c.2,3.1,4.1,7.2-.5,8-1.5-.4-1-6.1-4.4-3.9-2.1,5.5,2.2,11.2-1.1,17.3,5.9,2.4-3.3,5.1-3-.8,4.6-1.6.9-3-1.9-2.6,1.8-2.8-7.5-20.9,2-15.2,3.3,5.9,1.2-2.7,1-4.7,1.1-1.1,6.1,3.3,8,2Z"/>
      <path class="st1" d="M209.7,311.6c-1.9-5.8-4.5-9.9-8.8-13.6-2.6-15.3,10.9-16.8,4.8-2.9,3.3,2.5,12.4,16.4,4,16.5Z"/>
      <path class="st4" d="M185.8,253.7c-3,9.1,14.5,20.3-2,13-.6,12.8-10-17.1,2-13Z"/>
      <path class="st4" d="M193.7,279.7c8.2-5,6.4,21.3,2,22,.3-9.4-.7-13.1-2-22Z"/>
      <path class="st5" d="M171.8,329.6c4.4-9.3-4.7-6.3-4-10,.3-.3,6.3-2.4,7-2,1.8,5.8-1,9.5,7,9,.4,3.4-8.5,5.1-10,3Z"/>
      <path class="st1" d="M199.7,275.6c-4.6,2.9-5.2-10.3-2.4-10.9s4.2,9.8,2.4,10.9Z"/>
      <path class="st1" d="M190.7,327.6c-.5.9,1.4,7.7-1.5,7-6.1-1.6-3.1-7.4,1.5-7Z"/>
      <path class="st4" d="M171.8,329.6c1.3,0,2.7,0,4,0,1.7,5.4-14,0-4,0Z"/>
      <path class="st4" d="M195.7,303.6c0,.9,2,4.4-2,4,.4-1.5.4-3.1,2-4Z"/>
      <path class="st4" d="M191.7,273.7c1.3,1,1.6-2,2,3-2.7.5-2.1-.7-2-3Z"/>
      <path class="st4" d="M285.6,315.6c2.8.4,7.6,1.9,8,6,8.6,5.6-7.6,3.1,1,15.5-1.8,9.9,1.1,26.3-6.9,5.7-2.3-4.2,5.3-19.7-1-21.3-5.6,1.8.4-3.1-1-6Z"/>
      <path class="st1" d="M251.7,289.6c-1.7-14.4,7.5.7,0,0-.7,6.7,7.3,8,3,11-12.8,8.8-15.5-18.2-3-11Z"/>
      <path class="st4" d="M254.7,297.6c3.9-6,2.7,1.7,3,2,2.9-.9,5.1,2.9,8,2,1.1,6.4-3,3.4-6.4,1.9-11.9,4-5.1-.4-4.5-5.9Z"/>
      <path class="st4" d="M267.7,309.6c6.4-1.7,4.9,7.3,6,12,4.1,1.3,6.4,5.8,2,6-2.3-6.8-7.5-8.5-8-18Z"/>
      <path class="st1" d="M285.6,319.6c2.1,2.8-3,3.7-5,5,0-3.9.7-5.9,5-5Z"/>
      <path class="st4" d="M274.6,293.6c3.3.4,5.4,5.9,5,9-3,.8-1.7-2.1-2.7-3.7-1.4-2.3-2.4,0-2.3-5.2Z"/>
      <path class="st4" d="M278.6,333.6c-2.7.6-2.4-2-3-4,3.4,0,2.5,1.9,3,4Z"/>
      <path class="st5" d="M151.8,231.7c-16.7,2.5-6.2-24,4-14,0,5-1.4,9.8-4,14Z"/>
      <path class="st5" d="M128.8,263.7c4.6,7.4-1.7,24.8,14.4,22.1,1,2.5,6.2,3.1,4.6-.1-3.6-3,.6-11.2,4-6,.6-2.6,2.7-1.6,4,0-1.3-2.5-.5-3.4,2-2-7-7.1,13.2.3,0,0-5.9,4.1-3.6,9.6-1,14-16.1-2.6-4.1,14.9-5,22-16.6,2.4-36.5-51.9-23-49.9Z"/>
      <path class="st4" d="M125.8,263.7c-4-13.1,2.6-20,0-32,12.9-1.3,9.3.8,16,10-17.9,6.4-7.6,22-16,22Z"/>
      <path class="st5" d="M141.8,241.7c1.1,9.5,20.5,20.4,14,28,2.8,6-4.7,2.7-5.5-.7-2,.5-6.6,1.5-7.8-.5-2.4-8.6,4.1-20.5-5-21.1-7.8,7.6,8.9,23.4-6.7,19.7.2-5.4-2.1-3.8-3-7.7.5-5.6-2.9-13.9,5-11.6-.9-4.4,3.8-6.5,9-6Z"/>
      <path class="st4" d="M120.8,263.7c10.4,3.7,5.6,20.1-1,24,.7-6.9,4.6-20.9-1-24-1-6.7,3.3-6.9,2,0Z"/>
      <path class="st1" d="M145.8,247.7c-2.2-5.6-4.4-11.7,4-10-.7,4.2,2.5,11.6-4,10Z"/>
      <path class="st4" d="M117.8,247.7c2.7-.3,1.8,0,2,2-2.7.3-1.8-.1-2-2Z"/>
      <path class="st2" d="M335.6,323.6c-1.2-5.6,3.5-1.2,4-2,1.8-2.8-3.5-4.7-2-8,2.6-1,1.8,1.9,2.5,2,4-.2,4.1-4.9,6,0,8.1-4.3,7.5-2.2,9.5,6-7.7-2.7-2.8,8.6-3.2,12.8.2,6.7-8.4-.5-8.7-1.6-2.2-6.1,2.7-3.4,2-9.2-3,.3-9.6,7.6-10,0Z"/>
      <path class="st4" d="M335.6,347.6c-.3-12.2-16.8-32,5-22-3.5,3.5-8,18,0,18,6.6,3.2-1.4,7-5,4Z"/>
      <path class="st5" d="M354.5,343.6c2,3.9-1.6,5.9-3,2,4.8,7.5-12.7,2.2-17,4,1.4,5.5-2,19.1-4,7.5s1.3-4.1-1.9-3.5c-7-4,11.7-6.8,15-7,9,1.5,7.6-6.7,11-3Z"/>
      <path class="st4" d="M329.6,342.6c5-.5-1.4,6.9,5,5-1.2,4.8-4.6,3.3-5.8,4.2,0,2.3-1.4,2.6-3.2,3.8-6.1,1.6-1.2-7,.3-7.7,3.4-1.4,4.3,1.7,3.7-5.3Z"/>
      <path class="st4" d="M325.6,313.6c-2.3.4-2.5-.7-1-2,0,0,1,2,1,2Z"/>
      <path class="st4" d="M322.6,305.6c2.1-.2,2.2-.1,2,2-.6-.7-1.4,1.8-2-2Z"/>
      <path class="st5" d="M170.8,247.7c1.8,8.1,5.1.4,5,6-10.9-1.2-5.7,4.2-6.3,9.4-3.5,4.5-2.9,8.6,2.7,10.6,6.7,23.6-23-3.5-1.5-26Z"/>
      <path class="st0" d="M169.8,243.7c6.4,2.4,6.5,7.6,14,10-3.4,2.3,0,7.2-5,6,3.6-8-8.3-9.4-9-16Z"/>
      <path class="st0" d="M162.8,264.7c-.7,6.1,1.7,5.3,3,7.7,0,14.2-16.4-5.3-3-7.7Z"/>
      <path class="st1" d="M161.8,261.7c1.8,5-5.3,12.4-6,8-.5-4.5.6-8.9,6-8Z"/>
      <path class="st2" d="M609.2,423.5c-1.5-5,3.9-5.1,4.2-2.2,11.1-8.6,10.6-2.6,4.2,6.2,5.9,12.2,18.7-8.6,13.6,20,0,0-2-3-2-3-13.2,6.8-4.4-5.4-6.4-8s-5.2-1.1-6.8-2c-1.6-4.8-7.1-2.3-6.7,1,11.6-1.5,4.1,8.4-4,6,3.2-11.2-12.9-3.5-7-14,6.1-1.6,12.7,7.3,11-4Z"/>
      <path class="st0" d="M601.2,439.5c-13.5,6.7-2.4-14.5-6.2-21.3-7.7-5.9-8-15.4-7.8-24.7,9.9,9.8,1.2-2.6,14,4-.5,3.4-3.8,2.8-3.5,7-.7,1.2-3.4.3-2.5,3,7.6-.8,7.5,6.7,4,10.4,14,11.1.6,4.3-1,9.6,1.2,3.7,3.8,8.4,3,12Z"/>
      <path class="st4" d="M614.2,440.5c13.7-4-1.9,26.7,2,6.6-.2-2.2-2.1-3.7-2-6.6Z"/>
      <path class="st5" d="M613.2,469.4c12.9-1.5,6.6-2.5,8,8-3.8-1.8-1.6-2.1-3.5-4s-3.7,0-4.5-4Z"/>
      <path class="st5" d="M65.9,249.7c-2.2,4.7,1,5.6,2.5,2,5.2-1.5-.7,6.8-1.5,7.5-4,2.1-13.8,9.9-5.7,1.3,2.7-3.2.4-10.6,4.7-10.7Z"/>
      <path class="st5" d="M70,267.8c-3.7,20.3-4.1,11.7-2.1-2.1,11.7-1.6,13.7-.4,2.1,2.1Z"/>
      <path class="st0" d="M101.9,301.6c10.6-4.3-1.6,7.9-5,6,.2-2.6,3-4.9,5-6Z"/>
      <path class="st5" d="M65.9,240.7c.3.4-.9,7.8-3,8,.2-2.8-1.4-8,3-8Z"/>
      <path class="st4" d="M90.9,301.6c-3.1,1-2.3-3.5,0-4,0,1.3,0,2.7,0,4Z"/>
      <path class="st5" d="M79.9,261.7h1c.2.9-1.2,1.4-1,0Z"/>
      <path class="st5" d="M127.8,301.6c3.9,4.3,1.8,4.8-1.5,2-.7.2,0,3.1-3.9,2.1s-.2-5.2-4.1-4.1c-.3,1.9-2.4,2.1-4.3,2.2-1.5.9-.2,6.8-7.2,3.8.7-4.2,4.6-9,9-8-2.8-11.5,11.5-8,12,2Z"/>
      <path class="st5" d="M83.9,317.6c5.7-8,6.4-2.4,16-2-.7,8.8-17.9,17.9-16,2Z"/>
      <path class="st5" d="M78.9,319.6c-3.5-3.3-1.7-16.4,6-14-2.5,3.6-.4,16.3-6,14Z"/>
      <path class="st1" d="M118.8,291.6c4.2,1.2-2.2,2.7-3,4-11.1,4.3,2.4-10.8,3-4Z"/>
      <path class="st5" d="M106.9,309.6c2.7-.5,2,.6,2,3-.3-.5-1.8,1.6-2-3Z"/>
      <path class="st4" d="M99.9,318.6c4.8,0-.2,11.4-5,9,3.2-3.8-1.7-8.4,5-9Z"/>
      <path class="st4" d="M89.9,330.6v5c-3.6,1.5-2.5-6.3,0-5Z"/>
      <path class="st4" d="M105.9,329.6c3-.6,3,3.9,4,6-2.5.7-3.5-3.8-4-6Z"/>
      <path class="st4" d="M105.9,327.6c-.3-2.2,0-1.3,0-3,1.5.1,1.5,2.9,0,3Z"/>
      <path class="st4" d="M560.3,427.5c-1,5.3,4.6,13.7-4,14,0-3.4-1-23,4-14Z"/>
      <path class="st5" d="M559.3,451.4c2.3,2.3-3.8,4.3-4,4-1.5-2.1,2.6-5.4,4-4Z"/>
      <path class="st2" d="M551.3,411.5c-3.6-10.6,5.8-10,8-2,2.6,2.3,1.8-3.8,2-4,8.2,3.2,5-11.1.5-4-3.4-1.6-8.6-3.2-12.4-4.1,0-2.3-2.2-12.2,3.7-9.7,6.2,17.2,9.2-1.3,10.2,7.7,7.8-1.6,11.1,5.8,11.9.1,3.8.2,1,1.2,2,3.2,6,4.1-1.2,3.8-1,6.8,5.9-1.7,4.6,5.5,5,10-12.3-3.1-7.8-.4-12.5-8-3.7.5-3.8,4.5-3.5,7.5-2.4,1.8-4.5-5.6-8-3.5.2-8.6-3.4-1-2,3.3,5.7,1.1,2,10.7,6.7,8.3.5-3.2,5-1.2,7.3-1.6,0,14.4-32-.5-18-10Z"/>
      <path class="st0" d="M535.3,371.5c-5.1-30.1,24.3-6.6,11.4,8-4.3,1.1-2.6-8.3-6.4-2-3.2.7-4.8-2.9-5-6Z"/>
      <path class="st2" d="M547.3,412.5c5.9,7.4-10.7,7-11.4-1.1-1.1-6.1-6.9-5.4-2.6-11.9,0,0-3-2-3-2,5.2.9,6.1-3.7,10.4,0,10.3-4.6,3.4,11.5,6.6,15.1Z"/>
      <path class="st0" d="M561.3,373.5c4.9-.6,4.3,9,1.9,8.6,4.4,12.2-.5,9.5-6.9,1.4-8-5.7-3.7-10.7,5-10Z"/>
      <path class="st4" d="M534.3,383.5c2.3,4.6,4.6,11.7-3,10,3.2-6.4-16.5-14.1,3-10Z"/>
      <path class="st4" d="M551.3,411.5c-.8,4.6-3.9,10,0,14-5-1.3-10.9-1.2-6-8,1.5-1.9,1.9-6.2,6-6Z"/>
      <path class="st2" d="M537.3,377.5c.7,4.3,6.9,1,6,7-6.8,1-19.4-7.9-6-7Z"/>
      <path class="st4" d="M560.3,387.5c.3.3,3.4,0,3,4-2.9-.4-2.2-.9-3-4Z"/>
      <path class="st4" d="M535.3,373.5c2.8-.3,1.8.1,2,2-2.6.3-1.9,0-2-2Z"/>
      <path class="st2" d="M231.7,285.6c.6,7,3.7,4.8,5.8,6.2s5.6,13.1,4.2,15.8c8.6-5,3.6,2.6,15,0-.1,5.8-7.6,2.9-11,2,2.7,6.5-2.3,5.5-2.9,6.1s.3,5.8-4.6,5.9c-11.8-7.9-3.7-6.1-10.3-16.6.4-2.6,1.7-4.1-1.3-5,3.1-4.3-1.2-12.4,5-14.4Z"/>
      <path class="st0" d="M254.7,300.6c.9,8.4-7.4,3.8-10-1,0,0,10,1,10,1Z"/>
      <path class="st0" d="M243.7,293.6c0,.6-.1,1.4,0,2-3,.6-3.1-2.6,0-2Z"/>
      <path class="st5" d="M358.9,364.2c6.4,2.8-1.2,4.1-.4,8.7.2.8,3,0,1.9,5.1-9.8,9.1,1.4,18.3-5.9,21.5.4-7.8-2.9-15.9,3-21.5.3-3.5-6.8-12.2,0-9.9,0-1.7-2.5-11,1.4-3.9Z"/>
      <path class="st5" d="M344.3,360.8c1.5,1.7,2.3,8.5-1.7,7.7-1.9-10.6-3.9-3.2-3,3-5.9,1.3-2.4-17.9,4.8-10.7Z"/>
      <path class="st4" d="M354.5,343.6c2.1,10.8,6.7,2.4,8,8-10.1.5-16.1-1.4-8-8Z"/>
      <path class="st5" d="M340.6,343.6c2.1-.2,2.2-.1,2,2-3.7-1.1-1.3-1.2-2-2Z"/>
      <path class="st5" d="M368,419.5c.6.3.6.7,0,1v-1Z"/>
      <path class="st5" d="M379.5,453.4c-4.2.6-1.1-3-1-4,1.3,1.2.9,2.5,1,4Z"/>
      <path class="st4" d="M375.5,423.5c.4-6.9.2-3.5,4-2,1,2.9-2.4,1.8-4,2Z"/>
      <path class="st0" d="M372.5,349.6c-2.5.8-3.1-4.3-3-6,1.4.2,4.5,1.5,3,6Z"/>
      <path class="st4" d="M372.5,349.6c-.5,3.5-3.7,0-3-4,0,0,3,4,3,4Z"/>
      <path class="st4" d="M585.2,442.4c-.2,2.1-.2,5.6-3,5,0-2.5-3.7-4,3-5Z"/>
      <path class="st5" d="M130.8,307.6c.4.7,4.9,2.8,0,3v-3Z"/>
      <path class="st4" d="M126.8,283.6c3.7.5,3.3,5.5,8,4-1.9,8.1-9.2,5.1-8-4Z"/>
      <path class="st4" d="M118.8,291.6c6.4-2.2,10.2,5.8,9,10-1.8-5.7-7.2-7.1-9-10Z"/>
      <path class="st4" d="M131.8,296.6c4.3-.6,2.8.7,3,4-2.3.7-2.8-2.1-3-4Z"/>
      <path class="st4" d="M134.8,303.6c5.1-.6,3.2.4,4,2-1.6-.2-5,.9-4-2Z"/>
      <path class="st5" d="M293.6,321.6c8.9,1.5,5-3,6-4,4.5-2.2,7,11.3-1,8,3.5,8.1-3.9,1.4-7,2,1.1-4.8,4.8.8,2-6Z"/>
      <path class="st5" d="M312.4,347.8c3,1.7,3.9,14.4-2.8,11.7,6.2-3.5-5.1-13.4,2.8-11.7Z"/>
      <path class="st5" d="M303.6,311.6c.8.5,3.7,6.5,3,8-3-.3-7.2-10.7-3-8Z"/>
      <path class="st5" d="M307.6,341.6c-1.1.7-7.8-2.4-6-4l6,4Z"/>
      <path class="st5" d="M561.3,373.5c2.9-7,13,5.7,3,4-.9-1.8-3.5-1.8-3-4Z"/>
      <path class="st2" d="M360.5,325.6c1.6,4.7,2.3,9.4-4,8,.6-2.4-.6-9.3,4-8Z"/>
      <path class="st4" d="M157.8,269.7c2.2,8.6,13,3.7,13,15,1.4,2.7,6.5,2.3,6,5-3,4.8,15.8,11.1,7,12-2.8-1.5-6.4,3.9-7,0-2.6-7.8-7.5,2.8-11,2,9.8-11.3-3.9-16.5-5-28-4.8.7-2.2,1.2-3,2-9.7,8.9-8.8-9.2,0-8Z"/>
      <path class="st5" d="M166.8,287.6c-4.4,9.2-9.1.4-6-4-5-2.3,4.9-8.5,6,4Z"/>
      <path class="st5" d="M176.8,301.6c2-.6,7.3-4.9,7,0-3.9.2-1.4,3.6-2,7.4-4.1,2.8-4-4.5-5-7.4Z"/>
      <path class="st5" d="M173.8,287.6c-3.2.3-3.2.1-3-3,2,0,3.1,1,3,3Z"/>
      <path class="st5" d="M171.8,299.6c-.4-3.8,5.1-2.4,4,0,0,0-4,0-4,0Z"/>
      <path class="st5" d="M175.8,287.6c3.9.4,1.2.6,1,2l-1-2Z"/>
      <path class="st2" d="M317.6,327.6c-5.2,2.7-3-10.1-4-12,6,.6,3.6,7.8,4,12Z"/>
      <path class="st2" d="M128.8,261.7c6.5-6.8-1.6,7,8,4-1.4-4.6-8-10-2.1-14.8,1-6.5,2.1-6.5,9.1-3.2-2.3,32.2,13,9.6,8,32-7.3-1.9.5,13-7,8-16.5,3.8-17-13.2-16-26Z"/>
      <path class="st4" d="M147.8,285.6c7.1,2,.6,1.7,0,6-2.8-3.4-3-3.2,0-6Z"/>
    </g>
  </g>
  <metadata>
    <sfw xmlns="http://ns.adobe.com/SaveForWeb/1.0/">
      <slices/>
      <sliceSourceBounds x="399.12" y="-1121.15" width="720.77" height="693.42" bottomLeftOrigin="true"/>
    </sfw>
  </metadata>
</svg>